<?xml version="1.0" encoding="UTF-8" standalone="no"?>
<!DOCTYPE svg PUBLIC "-//W3C//DTD SVG 1.1//EN" "http://www.w3.org/Graphics/SVG/1.1/DTD/svg11.dtd">
<svg width="100%" height="100%" viewBox="0 0 32 32" version="1.1" xmlns="http://www.w3.org/2000/svg" xmlns:xlink="http://www.w3.org/1999/xlink" xml:space="preserve" xmlns:serif="http://www.serif.com/" style="fill-rule:evenodd;clip-rule:evenodd;stroke-linejoin:round;stroke-miterlimit:2;">
    <g>
        <g>
            <path d="M32,3.2C32,1.434 30.566,0 28.8,0L3.2,0C1.434,0 0,1.434 0,3.2L0,28.8C0,30.566 1.434,32 3.2,32L28.8,32C30.566,32 32,30.566 32,28.8L32,3.2Z" style="fill:rgb(45,45,45);"/>
        </g>
        <path d="M7.995,12.673C7.954,12.757 7.917,12.844 7.886,12.933L3.211,26.445C2.937,27.238 3.127,28.117 3.703,28.727C4.28,29.336 5.147,29.574 5.954,29.345L27.258,23.278C28.167,23.019 28.818,22.219 28.886,21.276C28.953,20.332 28.424,19.447 27.561,19.061L17.605,14.603L25.189,12.443C26.099,12.184 26.749,11.384 26.817,10.44C26.885,9.497 26.356,8.612 25.493,8.226L13.917,3.043C13.341,2.785 12.683,2.781 12.104,3.031C11.525,3.282 11.077,3.764 10.871,4.36L7.995,12.673ZM8.877,23.834L11.336,16.727C11.336,16.727 20.082,20.643 20.082,20.643L8.877,23.834ZM13.282,11.155L14.32,8.154C14.32,8.154 18.014,9.807 18.014,9.807L13.282,11.155Z" style="fill:rgb(48,255,203);"/>
    </g>
</svg>
