{
    "asset" : {
        "generator" : "Khronos glTF Blender I/O v3.2.40",
        "version" : "2.0"
    },
    "extensionsUsed" : [
        "KHR_materials_transmission"
    ],
    "scene" : 0,
    "scenes" : [
        {
            "name" : "Scene",
            "nodes" : [
                0,
                1,
                2,
                3,
                4,
                5
            ]
        }
    ],
    "nodes" : [
        {
            "mesh" : 0,
            "name" : "Cylinder"
        },
        {
            "mesh" : 1,
            "name" : "Cube"
        },
        {
            "mesh" : 2,
            "name" : "Cube.001"
        },
        {
            "mesh" : 3,
            "name" : "Cube.107"
        },
        {
            "mesh" : 4,
            "name" : "Circle"
        },
        {
            "mesh" : 5,
            "name" : "Circle.002"
        }
    ],
    "materials" : [
        {
            "doubleSided" : true,
            "name" : "Material",
            "normalTexture" : {
                "index" : 0
            },
            "pbrMetallicRoughness" : {
                "baseColorTexture" : {
                    "index" : 1
                },
                "metallicFactor" : 0,
                "roughnessFactor" : 0.5
            }
        },
        {
            "doubleSided" : true,
            "name" : "Metal",
            "pbrMetallicRoughness" : {
                "baseColorFactor" : [
                    0.8953990936279297,
                    0.8953990936279297,
                    0.8953990936279297,
                    1
                ],
                "metallicFactor" : 0.6981818675994873,
                "roughnessFactor" : 0.43454545736312866
            }
        },
        {
            "doubleSided" : true,
            "emissiveFactor" : [
                1,
                1,
                1
            ],
            "emissiveTexture" : {
                "index" : 2
            },
            "name" : "TGB",
            "pbrMetallicRoughness" : {
                "baseColorFactor" : [
                    0,
                    0,
                    0,
                    1
                ]
            }
        },
        {
            "doubleSided" : true,
            "name" : "Keys",
            "pbrMetallicRoughness" : {
                "baseColorFactor" : [
                    0.6727739572525024,
                    0.6727739572525024,
                    0.6727739572525024,
                    1
                ],
                "metallicFactor" : 0.5927273035049438,
                "roughnessFactor" : 0.43454545736312866
            }
        },
        {
            "doubleSided" : true,
            "extensions" : {
                "KHR_materials_transmission" : {
                    "transmissionFactor" : 1
                }
            },
            "name" : "Glass",
            "pbrMetallicRoughness" : {
                "baseColorFactor" : [
                    0.8000000715255737,
                    0.7495590448379517,
                    0.7039346098899841,
                    1
                ],
                "metallicFactor" : 0,
                "roughnessFactor" : 0
            }
        },
        {
            "doubleSided" : true,
            "extensions" : {
                "KHR_materials_transmission" : {
                    "transmissionFactor" : 0.7054544687271118
                }
            },
            "name" : "water",
            "pbrMetallicRoughness" : {
                "baseColorFactor" : [
                    1,
                    0.4057668149471283,
                    0,
                    1
                ],
                "metallicFactor" : 0,
                "roughnessFactor" : 0
            }
        }
    ],
    "meshes" : [
        {
            "name" : "Cylinder",
            "primitives" : [
                {
                    "attributes" : {
                        "POSITION" : 0,
                        "NORMAL" : 1,
                        "TEXCOORD_0" : 2
                    },
                    "indices" : 3,
                    "material" : 0
                }
            ]
        },
        {
            "name" : "Cube.002",
            "primitives" : [
                {
                    "attributes" : {
                        "POSITION" : 4,
                        "NORMAL" : 5,
                        "TEXCOORD_0" : 6
                    },
                    "indices" : 7,
                    "material" : 1
                },
                {
                    "attributes" : {
                        "POSITION" : 8,
                        "NORMAL" : 9,
                        "TEXCOORD_0" : 10
                    },
                    "indices" : 11,
                    "material" : 2
                }
            ]
        },
        {
            "name" : "Cube.005",
            "primitives" : [
                {
                    "attributes" : {
                        "POSITION" : 12,
                        "NORMAL" : 13,
                        "TEXCOORD_0" : 14
                    },
                    "indices" : 15,
                    "material" : 1
                }
            ]
        },
        {
            "name" : "Cube.143",
            "primitives" : [
                {
                    "attributes" : {
                        "POSITION" : 16,
                        "NORMAL" : 17,
                        "TEXCOORD_0" : 18
                    },
                    "indices" : 19,
                    "material" : 3
                }
            ]
        },
        {
            "name" : "Circle.001",
            "primitives" : [
                {
                    "attributes" : {
                        "POSITION" : 20,
                        "NORMAL" : 21,
                        "TEXCOORD_0" : 22
                    },
                    "indices" : 23,
                    "material" : 4
                }
            ]
        },
        {
            "name" : "Circle.003",
            "primitives" : [
                {
                    "attributes" : {
                        "POSITION" : 24,
                        "NORMAL" : 25,
                        "TEXCOORD_0" : 26
                    },
                    "indices" : 27,
                    "material" : 5
                }
            ]
        }
    ],
    "textures" : [
        {
            "sampler" : 0,
            "source" : 0
        },
        {
            "sampler" : 0,
            "source" : 1
        },
        {
            "sampler" : 0,
            "source" : 2
        }
    ],
    "images" : [
        {
            "mimeType" : "image/png",
            "name" : "wood-veneer1-Normal-ogl",
            "uri" : "igor/wood-veneer1-Normal-ogl.png"
        },
        {
            "mimeType" : "image/png",
            "name" : "wood-veneer1-albedo",
            "uri" : "igor/wood-veneer1-albedo.png"
        },
        {
            "mimeType" : "image/png",
            "name" : "rainbow",
            "uri" : "igor/rainbow.png"
        }
    ],
    "accessors" : [
        {
            "bufferView" : 0,
            "componentType" : 5126,
            "count" : 6912,
            "max" : [
                4.236965656280518,
                0.22523091733455658,
                4.498103141784668
            ],
            "min" : [
                -4.202507972717285,
                0.02989177405834198,
                -5.172525405883789
            ],
            "type" : "VEC3"
        },
        {
            "bufferView" : 1,
            "componentType" : 5126,
            "count" : 6912,
            "type" : "VEC3"
        },
        {
            "bufferView" : 2,
            "componentType" : 5126,
            "count" : 6912,
            "type" : "VEC2"
        },
        {
            "bufferView" : 3,
            "componentType" : 5123,
            "count" : 10356,
            "type" : "SCALAR"
        },
        {
            "bufferView" : 4,
            "componentType" : 5126,
            "count" : 3222,
            "max" : [
                1.7385603189468384,
                3.0741240978240967,
                0.8277904391288757
            ],
            "min" : [
                -1.7385603189468384,
                0.21766036748886108,
                -0.8277904391288757
            ],
            "type" : "VEC3"
        },
        {
            "bufferView" : 5,
            "componentType" : 5126,
            "count" : 3222,
            "type" : "VEC3"
        },
        {
            "bufferView" : 6,
            "componentType" : 5126,
            "count" : 3222,
            "type" : "VEC2"
        },
        {
            "bufferView" : 7,
            "componentType" : 5123,
            "count" : 5808,
            "type" : "SCALAR"
        },
        {
            "bufferView" : 8,
            "componentType" : 5126,
            "count" : 4,
            "max" : [
                1.6895562410354614,
                3.0292160511016846,
                -0.05225551500916481
            ],
            "min" : [
                -1.6895562410354614,
                1.1465270519256592,
                -0.4026445746421814
            ],
            "type" : "VEC3"
        },
        {
            "bufferView" : 9,
            "componentType" : 5126,
            "count" : 4,
            "type" : "VEC3"
        },
        {
            "bufferView" : 10,
            "componentType" : 5126,
            "count" : 4,
            "type" : "VEC2"
        },
        {
            "bufferView" : 11,
            "componentType" : 5123,
            "count" : 6,
            "type" : "SCALAR"
        },
        {
            "bufferView" : 12,
            "componentType" : 5126,
            "count" : 53144,
            "max" : [
                0.6165894865989685,
                0.33547526597976685,
                2.340705394744873
            ],
            "min" : [
                -1.670414924621582,
                0.2249784767627716,
                1.2885764837265015
            ],
            "type" : "VEC3"
        },
        {
            "bufferView" : 13,
            "componentType" : 5126,
            "count" : 53144,
            "type" : "VEC3"
        },
        {
            "bufferView" : 14,
            "componentType" : 5126,
            "count" : 53144,
            "type" : "VEC2"
        },
        {
            "bufferView" : 15,
            "componentType" : 5123,
            "count" : 80388,
            "type" : "SCALAR"
        },
        {
            "bufferView" : 16,
            "componentType" : 5126,
            "count" : 10368,
            "max" : [
                0.5421288013458252,
                0.33920344710350037,
                2.233358860015869
            ],
            "min" : [
                -1.601935625076294,
                0.29492223262786865,
                1.450326919555664
            ],
            "type" : "VEC3"
        },
        {
            "bufferView" : 17,
            "componentType" : 5126,
            "count" : 10368,
            "type" : "VEC3"
        },
        {
            "bufferView" : 18,
            "componentType" : 5126,
            "count" : 10368,
            "type" : "VEC2"
        },
        {
            "bufferView" : 19,
            "componentType" : 5123,
            "count" : 14256,
            "type" : "SCALAR"
        },
        {
            "bufferView" : 20,
            "componentType" : 5126,
            "count" : 744,
            "max" : [
                1.9027752876281738,
                1.011187195777893,
                1.4248552322387695
            ],
            "min" : [
                1.3694123029708862,
                0.22080570459365845,
                0.8914922475814819
            ],
            "type" : "VEC3"
        },
        {
            "bufferView" : 21,
            "componentType" : 5126,
            "count" : 744,
            "type" : "VEC3"
        },
        {
            "bufferView" : 22,
            "componentType" : 5126,
            "count" : 744,
            "type" : "VEC2"
        },
        {
            "bufferView" : 23,
            "componentType" : 5123,
            "count" : 1308,
            "type" : "SCALAR"
        },
        {
            "bufferView" : 24,
            "componentType" : 5126,
            "count" : 264,
            "max" : [
                1.8808624744415283,
                0.9179796576499939,
                1.4036998748779297
            ],
            "min" : [
                1.3898100852966309,
                0.30158883333206177,
                0.9126474857330322
            ],
            "type" : "VEC3"
        },
        {
            "bufferView" : 25,
            "componentType" : 5126,
            "count" : 264,
            "type" : "VEC3"
        },
        {
            "bufferView" : 26,
            "componentType" : 5126,
            "count" : 264,
            "type" : "VEC2"
        },
        {
            "bufferView" : 27,
            "componentType" : 5123,
            "count" : 516,
            "type" : "SCALAR"
        }
    ],
    "bufferViews" : [
        {
            "buffer" : 0,
            "byteLength" : 82944,
            "byteOffset" : 0
        },
        {
            "buffer" : 0,
            "byteLength" : 82944,
            "byteOffset" : 82944
        },
        {
            "buffer" : 0,
            "byteLength" : 55296,
            "byteOffset" : 165888
        },
        {
            "buffer" : 0,
            "byteLength" : 20712,
            "byteOffset" : 221184
        },
        {
            "buffer" : 0,
            "byteLength" : 38664,
            "byteOffset" : 241896
        },
        {
            "buffer" : 0,
            "byteLength" : 38664,
            "byteOffset" : 280560
        },
        {
            "buffer" : 0,
            "byteLength" : 25776,
            "byteOffset" : 319224
        },
        {
            "buffer" : 0,
            "byteLength" : 11616,
            "byteOffset" : 345000
        },
        {
            "buffer" : 0,
            "byteLength" : 48,
            "byteOffset" : 356616
        },
        {
            "buffer" : 0,
            "byteLength" : 48,
            "byteOffset" : 356664
        },
        {
            "buffer" : 0,
            "byteLength" : 32,
            "byteOffset" : 356712
        },
        {
            "buffer" : 0,
            "byteLength" : 12,
            "byteOffset" : 356744
        },
        {
            "buffer" : 0,
            "byteLength" : 637728,
            "byteOffset" : 356756
        },
        {
            "buffer" : 0,
            "byteLength" : 637728,
            "byteOffset" : 994484
        },
        {
            "buffer" : 0,
            "byteLength" : 425152,
            "byteOffset" : 1632212
        },
        {
            "buffer" : 0,
            "byteLength" : 160776,
            "byteOffset" : 2057364
        },
        {
            "buffer" : 0,
            "byteLength" : 124416,
            "byteOffset" : 2218140
        },
        {
            "buffer" : 0,
            "byteLength" : 124416,
            "byteOffset" : 2342556
        },
        {
            "buffer" : 0,
            "byteLength" : 82944,
            "byteOffset" : 2466972
        },
        {
            "buffer" : 0,
            "byteLength" : 28512,
            "byteOffset" : 2549916
        },
        {
            "buffer" : 0,
            "byteLength" : 8928,
            "byteOffset" : 2578428
        },
        {
            "buffer" : 0,
            "byteLength" : 8928,
            "byteOffset" : 2587356
        },
        {
            "buffer" : 0,
            "byteLength" : 5952,
            "byteOffset" : 2596284
        },
        {
            "buffer" : 0,
            "byteLength" : 2616,
            "byteOffset" : 2602236
        },
        {
            "buffer" : 0,
            "byteLength" : 3168,
            "byteOffset" : 2604852
        },
        {
            "buffer" : 0,
            "byteLength" : 3168,
            "byteOffset" : 2608020
        },
        {
            "buffer" : 0,
            "byteLength" : 2112,
            "byteOffset" : 2611188
        },
        {
            "buffer" : 0,
            "byteLength" : 1032,
            "byteOffset" : 2613300
        }
    ],
    "samplers" : [
        {
            "magFilter" : 9729,
            "minFilter" : 9987
        }
    ],
    "buffers" : [
        {
            "byteLength" : 2614332,
            "uri" : "igor.bin"
        }
    ]
}
