{
    "asset" : {
        "generator" : "Khronos glTF Blender I/O v3.2.43",
        "version" : "2.0"
    },
    "extensionsUsed" : [
        "KHR_materials_transmission"
    ],
    "scene" : 0,
    "scenes" : [
        {
            "name" : "Scene",
            "nodes" : [
                0
            ]
        }
    ],
    "nodes" : [
        {
            "mesh" : 0,
            "name" : "Cylinder"
        }
    ],
    "materials" : [
        {
            "doubleSided" : true,
            "name" : "Material.003",
            "pbrMetallicRoughness" : {
                "baseColorFactor" : [
                    0.11987205594778061,
                    0.03280653432011604,
                    0.0011564975138753653,
                    1
                ],
                "metallicFactor" : 0,
                "roughnessFactor" : 0.5
            }
        },
        {
            "doubleSided" : true,
            "extensions" : {
                "KHR_materials_transmission" : {
                    "transmissionFactor" : 1
                }
            },
            "name" : "Glass",
            "pbrMetallicRoughness" : {
                "baseColorFactor" : [
                    0.8000000715255737,
                    0.7495590448379517,
                    0.7039346098899841,
                    1
                ],
                "metallicFactor" : 0,
                "roughnessFactor" : 0
            }
        },
        {
            "doubleSided" : true,
            "name" : "Material.002",
            "pbrMetallicRoughness" : {
                "baseColorFactor" : [
                    0.515592098236084,
                    0.5969614386558533,
                    0.656972348690033,
                    1
                ],
                "metallicFactor" : 0,
                "roughnessFactor" : 0.5
            }
        },
        {
            "doubleSided" : true,
            "name" : "Material.004",
            "pbrMetallicRoughness" : {
                "baseColorFactor" : [
                    0.0015727775171399117,
                    0.000876976759172976,
                    0.0003170187119394541,
                    1
                ],
                "metallicFactor" : 0,
                "roughnessFactor" : 0.5
            }
        }
    ],
    "meshes" : [
        {
            "name" : "Cylinder",
            "primitives" : [
                {
                    "attributes" : {
                        "POSITION" : 0,
                        "NORMAL" : 1,
                        "TEXCOORD_0" : 2
                    },
                    "indices" : 3,
                    "material" : 0
                },
                {
                    "attributes" : {
                        "POSITION" : 4,
                        "NORMAL" : 5,
                        "TEXCOORD_0" : 6
                    },
                    "indices" : 7,
                    "material" : 1
                },
                {
                    "attributes" : {
                        "POSITION" : 8,
                        "NORMAL" : 9,
                        "TEXCOORD_0" : 10
                    },
                    "indices" : 11,
                    "material" : 2
                },
                {
                    "attributes" : {
                        "POSITION" : 12,
                        "NORMAL" : 13,
                        "TEXCOORD_0" : 14
                    },
                    "indices" : 15,
                    "material" : 3
                }
            ]
        }
    ],
    "accessors" : [
        {
            "bufferView" : 0,
            "componentType" : 5126,
            "count" : 7164,
            "max" : [
                4.236965656280518,
                0.22523091733455658,
                4.498103141784668
            ],
            "min" : [
                -4.202507972717285,
                0.02989177405834198,
                -5.172525405883789
            ],
            "type" : "VEC3"
        },
        {
            "bufferView" : 1,
            "componentType" : 5126,
            "count" : 7164,
            "type" : "VEC3"
        },
        {
            "bufferView" : 2,
            "componentType" : 5126,
            "count" : 7164,
            "type" : "VEC2"
        },
        {
            "bufferView" : 3,
            "componentType" : 5123,
            "count" : 11088,
            "type" : "SCALAR"
        },
        {
            "bufferView" : 4,
            "componentType" : 5126,
            "count" : 1444,
            "max" : [
                1.9027752876281738,
                1.011187195777893,
                1.4248552322387695
            ],
            "min" : [
                1.3694123029708862,
                0.22080570459365845,
                0.8914922475814819
            ],
            "type" : "VEC3"
        },
        {
            "bufferView" : 5,
            "componentType" : 5126,
            "count" : 1444,
            "type" : "VEC3"
        },
        {
            "bufferView" : 6,
            "componentType" : 5126,
            "count" : 1444,
            "type" : "VEC2"
        },
        {
            "bufferView" : 7,
            "componentType" : 5123,
            "count" : 2490,
            "type" : "SCALAR"
        },
        {
            "bufferView" : 8,
            "componentType" : 5126,
            "count" : 132022,
            "max" : [
                1.7385603189468384,
                3.0741240978240967,
                2.340705394744873
            ],
            "min" : [
                -1.7385603189468384,
                0.21766036748886108,
                -0.8277904391288757
            ],
            "type" : "VEC3"
        },
        {
            "bufferView" : 9,
            "componentType" : 5126,
            "count" : 132022,
            "type" : "VEC3"
        },
        {
            "bufferView" : 10,
            "componentType" : 5126,
            "count" : 132022,
            "type" : "VEC2"
        },
        {
            "bufferView" : 11,
            "componentType" : 5125,
            "count" : 201084,
            "type" : "SCALAR"
        },
        {
            "bufferView" : 12,
            "componentType" : 5126,
            "count" : 8,
            "max" : [
                1.6895562410354614,
                3.0292160511016846,
                -0.05225551500916481
            ],
            "min" : [
                -1.6895562410354614,
                1.1465270519256592,
                -0.4026445746421814
            ],
            "type" : "VEC3"
        },
        {
            "bufferView" : 13,
            "componentType" : 5126,
            "count" : 8,
            "type" : "VEC3"
        },
        {
            "bufferView" : 14,
            "componentType" : 5126,
            "count" : 8,
            "type" : "VEC2"
        },
        {
            "bufferView" : 15,
            "componentType" : 5123,
            "count" : 12,
            "type" : "SCALAR"
        }
    ],
    "bufferViews" : [
        {
            "buffer" : 0,
            "byteLength" : 85968,
            "byteOffset" : 0
        },
        {
            "buffer" : 0,
            "byteLength" : 85968,
            "byteOffset" : 85968
        },
        {
            "buffer" : 0,
            "byteLength" : 57312,
            "byteOffset" : 171936
        },
        {
            "buffer" : 0,
            "byteLength" : 22176,
            "byteOffset" : 229248
        },
        {
            "buffer" : 0,
            "byteLength" : 17328,
            "byteOffset" : 251424
        },
        {
            "buffer" : 0,
            "byteLength" : 17328,
            "byteOffset" : 268752
        },
        {
            "buffer" : 0,
            "byteLength" : 11552,
            "byteOffset" : 286080
        },
        {
            "buffer" : 0,
            "byteLength" : 4980,
            "byteOffset" : 297632
        },
        {
            "buffer" : 0,
            "byteLength" : 1584264,
            "byteOffset" : 302612
        },
        {
            "buffer" : 0,
            "byteLength" : 1584264,
            "byteOffset" : 1886876
        },
        {
            "buffer" : 0,
            "byteLength" : 1056176,
            "byteOffset" : 3471140
        },
        {
            "buffer" : 0,
            "byteLength" : 804336,
            "byteOffset" : 4527316
        },
        {
            "buffer" : 0,
            "byteLength" : 96,
            "byteOffset" : 5331652
        },
        {
            "buffer" : 0,
            "byteLength" : 96,
            "byteOffset" : 5331748
        },
        {
            "buffer" : 0,
            "byteLength" : 64,
            "byteOffset" : 5331844
        },
        {
            "buffer" : 0,
            "byteLength" : 24,
            "byteOffset" : 5331908
        }
    ],
    "buffers" : [
        {
            "byteLength" : 5331932,
            "uri" : "mac.bin"
        }
    ]
}
