{
    "asset" : {
        "generator" : "Khronos glTF Blender I/O v3.2.43",
        "version" : "2.0"
    },
    "scene" : 0,
    "scenes" : [
        {
            "name" : "Scene",
            "nodes" : [
                0
            ]
        }
    ],
    "nodes" : [
        {
            "mesh" : 0,
            "name" : "Cylinder.009"
        }
    ],
    "materials" : [
        {
            "doubleSided" : true,
            "name" : "trunk1.001",
            "pbrMetallicRoughness" : {
                "metallicFactor" : 0,
                "roughnessFactor" : 0.836363673210144
            }
        },
        {
            "doubleSided" : true,
            "name" : "trunk1.002",
            "pbrMetallicRoughness" : {
                "metallicFactor" : 0,
                "roughnessFactor" : 0.836363673210144
            }
        }
    ],
    "meshes" : [
        {
            "name" : "Cylinder.018",
            "primitives" : [
                {
                    "attributes" : {
                        "POSITION" : 0,
                        "NORMAL" : 1,
                        "TEXCOORD_0" : 2
                    },
                    "indices" : 3,
                    "material" : 0
                },
                {
                    "attributes" : {
                        "POSITION" : 4,
                        "NORMAL" : 5,
                        "TEXCOORD_0" : 6
                    },
                    "indices" : 7,
                    "material" : 1
                }
            ]
        }
    ],
    "accessors" : [
        {
            "bufferView" : 0,
            "componentType" : 5126,
            "count" : 5646,
            "max" : [
                3.212578535079956,
                17.169559478759766,
                6.4555816650390625
            ],
            "min" : [
                -4.424604415893555,
                -0.8015128374099731,
                -5.902467727661133
            ],
            "type" : "VEC3"
        },
        {
            "bufferView" : 1,
            "componentType" : 5126,
            "count" : 5646,
            "type" : "VEC3"
        },
        {
            "bufferView" : 2,
            "componentType" : 5126,
            "count" : 5646,
            "type" : "VEC2"
        },
        {
            "bufferView" : 3,
            "componentType" : 5123,
            "count" : 8700,
            "type" : "SCALAR"
        },
        {
            "bufferView" : 4,
            "componentType" : 5126,
            "count" : 816,
            "max" : [
                3.8591177463531494,
                16.027149200439453,
                1.8535984754562378
            ],
            "min" : [
                -0.15201163291931152,
                14.816985130310059,
                0.7849286794662476
            ],
            "type" : "VEC3"
        },
        {
            "bufferView" : 5,
            "componentType" : 5126,
            "count" : 816,
            "type" : "VEC3"
        },
        {
            "bufferView" : 6,
            "componentType" : 5126,
            "count" : 816,
            "type" : "VEC2"
        },
        {
            "bufferView" : 7,
            "componentType" : 5123,
            "count" : 1272,
            "type" : "SCALAR"
        }
    ],
    "bufferViews" : [
        {
            "buffer" : 0,
            "byteLength" : 67752,
            "byteOffset" : 0
        },
        {
            "buffer" : 0,
            "byteLength" : 67752,
            "byteOffset" : 67752
        },
        {
            "buffer" : 0,
            "byteLength" : 45168,
            "byteOffset" : 135504
        },
        {
            "buffer" : 0,
            "byteLength" : 17400,
            "byteOffset" : 180672
        },
        {
            "buffer" : 0,
            "byteLength" : 9792,
            "byteOffset" : 198072
        },
        {
            "buffer" : 0,
            "byteLength" : 9792,
            "byteOffset" : 207864
        },
        {
            "buffer" : 0,
            "byteLength" : 6528,
            "byteOffset" : 217656
        },
        {
            "buffer" : 0,
            "byteLength" : 2544,
            "byteOffset" : 224184
        }
    ],
    "buffers" : [
        {
            "byteLength" : 226728,
            "uri" : "strom rucne.bin"
        }
    ]
}
