<?xml version="1.0" encoding="UTF-8" standalone="no"?>
<!DOCTYPE svg PUBLIC "-//W3C//DTD SVG 1.1//EN" "http://www.w3.org/Graphics/SVG/1.1/DTD/svg11.dtd">
<svg width="100%" height="100%" viewBox="0 0 219 164" version="1.1" xmlns="http://www.w3.org/2000/svg" xmlns:xlink="http://www.w3.org/1999/xlink" xml:space="preserve" xmlns:serif="http://www.serif.com/" style="fill-rule:evenodd;clip-rule:evenodd;stroke-linejoin:round;stroke-miterlimit:2;">
    <g transform="matrix(1,0,0,1,-282.071,-293.874)">
        <g transform="matrix(0.97604,0,0,0.97604,1208.18,669.533)">
            <g id="beard2" transform="matrix(1.02455,0,0,1.02455,-1624.01,-968.744)">
                <path d="M874.098,622.916L869.562,642.354C869.562,642.354 872.525,628.834 863.809,622.544C851.472,613.64 851.407,616.95 851.407,616.95C851.407,616.95 844.689,621.527 837.11,620.51C829.531,619.493 823.674,615.255 823.674,615.255C823.674,615.255 790.429,625.764 783.539,628.646C776.649,631.527 777.338,632.883 777.338,632.883L751.455,654.104L743.014,651.9C743.014,651.9 736.985,643.595 735.435,642.408C733.885,641.222 721.31,639.018 721.31,639.018L714.765,631.391L704.602,623.763L698.228,623.424L690.822,611.559L686.343,610.033L681.348,588.507L674.285,571.218C674.285,571.218 667.912,577.32 663.089,574.099L660.333,590.371L662.4,594.948L664.467,622.407L666.879,640.544L675.836,673.597C675.836,673.597 691.511,682.75 694.611,688.343L698.573,687.496L705.808,693.598L722.344,698.853L730.784,706.819L738.708,708.006L743.703,712.752L753.838,721.916L774.596,730.2L783.897,728.336L788.204,732.065L805.257,728.505L815.764,730.2L822.654,724.607L832.989,726.132L845.736,709.521L849.526,711.555L863.419,679.19L872.548,658.85L875.821,643.764C875.821,643.764 876.854,630.882 874.098,622.916ZM835.555,629.275L847.883,633.601L855.259,630.889L857.718,637.375L866.143,649.466C866.143,649.466 860.547,670.856 858.389,672.921C856.231,674.985 856.387,685.707 852.072,683.446C847.757,681.185 852.165,675.619 852.268,671.588C854.668,673.788 833.676,674.932 828.983,671.826C828.983,671.826 829.58,685.357 826.497,686.635C823.415,687.913 812.314,682.931 810.567,683.619C810.567,683.619 806.56,682.931 801.936,680.769C801.936,680.769 789.421,671.858 787.675,666.451C787.675,666.451 788.188,660.062 788.497,657.113C788.805,654.164 791.168,650.035 793.326,646.988C795.483,643.94 799.249,641.738 804.73,639.025C810.375,636.232 832.678,631.831 835.555,629.275Z" style="fill:rgb(217,126,91);"/>
                <path d="M850.524,616.251C849.739,616.735 847.386,618.079 844.273,618.902C842.195,619.451 839.775,619.769 837.255,619.427C834.758,619.087 832.456,618.383 830.508,617.606C826.766,616.114 824.329,614.35 824.329,614.35C824.043,614.142 823.675,614.083 823.337,614.19C823.337,614.19 807.253,619.244 795.129,623.29C789.779,625.076 785.197,626.667 783.08,627.548C779.809,628.91 778.155,629.971 777.315,630.707C776.555,631.371 776.308,631.895 776.205,632.216L776.19,632.268L751.156,652.731C751.156,652.731 743.771,650.793 743.771,650.793C743.008,649.747 740.742,646.664 738.861,644.321C737.742,642.928 736.735,641.793 736.213,641.392C735.654,640.964 733.838,640.351 731.601,639.805C728.075,638.943 723.449,638.088 721.993,637.824C721.994,637.825 715.755,630.541 715.755,630.541C715.693,630.469 715.624,630.404 715.548,630.347L705.392,622.71C705.183,622.553 704.933,622.462 704.672,622.448L698.987,622.141C698.987,622.141 691.953,610.853 691.953,610.853C691.791,610.592 691.543,610.395 691.252,610.296L687.477,609.009C687.477,609.009 682.659,588.203 682.659,588.203C682.642,588.133 682.621,588.064 682.594,587.998L675.538,570.706C675.369,570.291 675.005,569.987 674.567,569.894C674.129,569.801 673.673,569.93 673.35,570.24C673.35,570.24 670.662,572.837 667.565,573.531C666.333,573.807 665.024,573.767 663.839,572.976C663.458,572.722 662.975,572.678 662.554,572.859C662.134,573.04 661.834,573.422 661.757,573.874L659.005,590.146C658.96,590.41 658.995,590.682 659.105,590.926L661.076,595.286C661.076,595.286 663.146,622.507 663.146,622.507C663.148,622.532 663.151,622.557 663.154,622.582L665.586,640.716C665.594,640.773 665.605,640.829 665.62,640.885L674.627,673.924C674.713,674.241 674.92,674.512 675.204,674.678C675.204,674.678 681.662,678.433 687.072,682.582C689.928,684.772 692.506,687.048 693.554,688.93C693.812,689.395 694.344,689.637 694.864,689.526L698.251,688.795C698.251,688.795 705.044,694.504 705.044,694.504C705.163,694.604 705.3,694.68 705.449,694.727L721.749,699.868C721.749,699.868 730.014,707.635 730.014,707.635C730.181,707.792 730.392,707.895 730.618,707.929L738.202,709.047L742.973,713.56L753.128,722.701C753.221,722.786 753.329,722.853 753.445,722.9L774.223,731.135C774.404,731.207 774.602,731.225 774.793,731.187L783.621,729.395C783.621,729.395 787.569,732.797 787.569,732.797C787.798,732.995 788.106,733.075 788.402,733.013L805.281,729.447C805.281,729.447 815.621,731.089 815.621,731.089C815.874,731.129 816.132,731.06 816.331,730.899L822.91,725.529C822.91,725.529 832.865,726.971 832.865,726.971C833.17,727.016 833.475,726.893 833.662,726.648L845.957,710.536C845.957,710.536 849.157,712.242 849.157,712.242C849.349,712.346 849.577,712.364 849.783,712.291C849.989,712.219 850.156,712.064 850.242,711.863L864.047,679.464C864.047,679.464 873.118,659.106 873.118,659.106C873.136,659.066 873.149,659.025 873.158,658.982L876.388,643.887C876.393,643.862 876.397,643.837 876.399,643.811C876.399,643.811 876.881,637.593 876.249,631.105C875.965,628.196 875.458,625.234 874.589,622.746L874.589,622.605C874.513,622.206 874.302,621.946 874.071,621.968C873.841,621.99 873.645,622.288 873.593,622.7L873.174,622.7L870.751,632.985C870.56,631.715 870.26,630.41 869.808,629.127C868.834,626.359 867.166,623.699 864.415,621.705C859.203,617.928 856.117,616.3 854.3,615.672C852.522,615.058 851.628,615.321 851.187,615.575C850.841,615.775 850.641,616.026 850.524,616.251ZM874.381,625.901C874.753,627.604 875.002,629.416 875.166,631.207C875.723,637.289 875.29,643.124 875.246,643.676C875.246,643.679 871.952,658.652 871.952,658.652C871.952,658.652 862.793,678.91 862.793,678.91C862.792,678.913 862.79,678.917 862.789,678.92L849.147,710.464C849.147,710.464 846.11,708.823 846.11,708.823C845.769,708.64 845.344,708.731 845.108,709.039L832.622,725.22C832.622,725.22 822.782,723.74 822.782,723.74C822.539,723.704 822.293,723.772 822.102,723.927L815.512,729.247C815.512,729.247 805.404,727.591 805.404,727.591C805.292,727.573 805.178,727.575 805.067,727.598L788.478,731.019C788.478,731.019 784.541,727.593 784.541,727.593C784.311,727.394 784.002,727.312 783.704,727.372L774.693,729.155C774.693,729.155 754.41,721.003 754.41,721.003C754.41,721.003 744.445,711.954 744.445,711.954C744.445,711.954 739.468,707.205 739.468,707.205C739.304,707.049 739.096,706.947 738.871,706.914L731.301,705.763C731.301,705.763 723.131,698.018 723.131,698.018C723.006,697.9 722.856,697.811 722.691,697.759L706.393,692.541C706.393,692.541 699.348,686.577 699.348,686.577C699.064,686.338 698.685,686.243 698.322,686.321L695.186,686.986C693.841,685.049 691.346,682.785 688.568,680.639C683.907,677.037 678.48,673.72 676.912,672.78C676.912,672.781 668.16,640.288 668.16,640.288C668.16,640.288 665.785,622.271 665.785,622.271C665.785,622.271 663.742,594.847 663.742,594.847C663.73,594.69 663.691,594.537 663.627,594.394L661.73,590.191C661.73,590.191 664.123,576.078 664.123,576.078C665.456,576.491 666.831,576.464 668.155,576.169C670.364,575.675 672.409,574.396 673.725,573.422C673.725,573.422 680.061,588.916 680.061,588.916C680.061,588.916 685.042,610.336 685.042,610.336C685.146,610.785 685.475,611.149 685.912,611.298L689.942,612.669C689.942,612.669 697.107,624.124 697.107,624.124C697.335,624.49 697.728,624.722 698.158,624.745L704.133,625.057C704.133,625.057 713.868,632.35 713.868,632.35C713.868,632.35 720.327,639.862 720.327,639.862C720.523,640.09 720.791,640.243 721.087,640.295C721.087,640.295 725.647,641.09 729.596,641.977C731.054,642.305 732.427,642.644 733.445,642.961C734.021,643.141 734.463,643.276 734.657,643.424C735.216,643.851 736.381,645.282 737.623,646.859C739.727,649.531 741.991,652.643 741.991,652.643C742.163,652.88 742.412,653.049 742.695,653.123L751.138,655.316C751.526,655.417 751.939,655.327 752.249,655.072L778.101,633.813L777.338,634.086C777.338,634.086 777.208,632.945 778.427,632.373C778.44,632.367 778.445,632.41 778.46,632.449C778.475,632.488 778.506,632.569 778.518,632.696C778.523,632.748 778.49,632.962 778.49,632.962C778.49,632.962 778.518,632.914 778.54,632.884C778.992,632.27 780.337,631.282 783.998,629.743C786.083,628.867 790.6,627.284 795.872,625.505C806.687,621.854 820.661,617.388 823.496,616.484C824.427,617.095 826.663,618.464 829.693,619.66C831.793,620.49 834.275,621.236 836.965,621.592C839.79,621.966 842.502,621.612 844.828,620.987C849.062,619.851 852.006,617.829 852.006,617.829L851.407,618.014C851.407,618.014 852.47,616.988 852.47,616.988C852.47,616.988 852.469,617.005 852.468,617.023C852.467,617.04 852.464,617.077 852.452,617.127C852.436,617.194 852.228,617.426 852.228,617.426C852.228,617.426 852.374,617.405 852.49,617.413C853.82,617.496 856.713,618.719 863.204,623.383C866.248,625.57 867.755,628.715 868.468,631.781C869.695,637.059 868.594,642.142 868.594,642.142C868.478,642.674 868.812,643.2 869.343,643.32C869.874,643.44 870.402,643.109 870.526,642.579L874.382,625.903L874.381,625.901ZM810.945,684.77C810.978,684.774 812.019,684.897 812.841,685.111C815.624,685.836 819.898,687.374 823.045,687.92C824.712,688.209 826.116,688.188 826.992,687.829C827.595,687.581 828.145,687.079 828.587,686.324C829.084,685.476 829.466,684.247 829.732,682.837C830.281,679.926 830.369,676.186 830.362,673.884C831.32,674.183 832.453,674.426 833.701,674.607C837.4,675.142 842.161,675.195 845.993,674.91C847.664,674.786 849.162,674.595 850.333,674.358C850.209,674.746 850.075,675.137 849.944,675.527C849.381,677.203 848.85,678.875 848.851,680.324C848.852,682.089 849.508,683.6 851.459,684.616C852.242,685.023 852.938,685.13 853.551,685.052C854.304,684.955 854.966,684.583 855.527,683.954C856.546,682.809 857.22,680.568 857.775,678.329C858.046,677.237 858.301,676.153 858.601,675.255C858.804,674.644 858.987,674.126 859.276,673.848C859.572,673.562 859.945,673.014 860.325,672.229C860.954,670.929 861.711,668.873 862.486,666.511C864.783,659.504 867.284,649.764 867.284,649.764C867.371,649.43 867.308,649.075 867.11,648.792L858.702,636.849C858.702,636.849 856.261,630.509 856.261,630.509C856.053,629.959 855.441,629.68 854.889,629.883L847.869,632.511C847.869,632.511 835.87,628.379 835.87,628.379L835.87,628.785C835.544,628.723 835.183,628.762 834.925,628.887L835.211,628.887C834.446,629.555 832.27,630.316 829.414,631.165C821.507,633.516 808.524,636.321 804.386,638.329C801.4,639.778 798.915,641.087 796.909,642.458C795.098,643.695 793.672,644.992 792.604,646.476C791.335,648.241 789.998,650.364 789.016,652.421C788.238,654.054 787.688,655.651 787.536,657.012L786.647,666.369C786.636,666.503 786.652,666.639 786.694,666.768C787.335,668.798 789.365,671.325 791.766,673.714C795.971,677.898 801.263,681.714 801.263,681.714C801.32,681.755 801.381,681.79 801.445,681.82C803.003,682.56 804.493,683.137 805.793,683.576C808.481,684.486 810.362,684.813 810.362,684.813C810.557,684.847 810.758,684.832 810.945,684.77ZM835.577,629.912C834.574,630.595 832.458,631.407 829.75,632.261C821.959,634.715 809.141,637.669 805.075,639.721C802.195,641.174 799.797,642.478 797.869,643.84C796.26,644.976 794.987,646.15 794.048,647.499C792.863,649.198 791.615,651.239 790.708,653.214C790.052,654.641 789.572,656.029 789.457,657.213C789.457,657.213 788.72,666.316 788.721,666.318C789.375,668.069 791.209,670.153 793.285,672.167C797.101,675.868 801.809,679.254 802.523,679.761C803.963,680.419 805.34,680.929 806.542,681.321C808.486,681.954 809.971,682.272 810.53,682.381C810.7,682.352 810.894,682.337 811.111,682.341C811.67,682.35 812.478,682.496 813.446,682.737C816.181,683.42 820.381,684.893 823.47,685.399C824.541,685.574 825.442,685.676 826.002,685.441C826.232,685.345 826.346,685.051 826.498,684.718C826.934,683.765 827.197,682.391 827.377,680.91C827.877,676.794 827.642,671.885 827.642,671.885C827.62,671.38 827.883,670.906 828.322,670.657C828.761,670.409 829.303,670.428 829.724,670.706C830.84,671.444 832.991,671.855 835.493,672.113C840.694,672.65 847.368,672.347 850.421,671.581C850.588,671.539 850.773,671.478 850.936,671.42C850.995,670.949 851.3,670.54 851.743,670.352C852.227,670.146 852.787,670.242 853.175,670.598C853.586,670.974 853.745,671.375 853.79,671.733C853.84,672.14 853.756,672.559 853.46,672.951C853.256,674.054 852.872,675.222 852.478,676.383C852.01,677.765 851.517,679.132 851.513,680.328C851.51,681.127 851.804,681.812 852.685,682.276C852.914,682.397 853.098,682.481 853.267,682.429C853.649,682.313 853.852,681.867 854.092,681.363C854.897,679.674 855.347,677.101 855.933,675.131C856.353,673.722 856.882,672.583 857.502,671.994C857.662,671.842 857.823,671.525 858.03,671.106C858.633,669.884 859.354,667.943 860.103,665.719C862.113,659.752 864.297,651.778 864.863,649.686L856.809,638.008C856.757,637.933 856.715,637.852 856.683,637.767C856.683,637.767 854.626,632.256 854.626,632.256L848.237,634.564C848.014,634.646 847.768,634.648 847.543,634.569L835.241,630.171L835.577,629.912Z"/>
            </g>
        </g>
    </g>
</svg>
