<?xml version="1.0" encoding="UTF-8" standalone="no"?>
<!DOCTYPE svg PUBLIC "-//W3C//DTD SVG 1.1//EN" "http://www.w3.org/Graphics/SVG/1.1/DTD/svg11.dtd">
<svg width="100%" height="100%" viewBox="0 0 503 206" version="1.1" xmlns="http://www.w3.org/2000/svg" xmlns:xlink="http://www.w3.org/1999/xlink" xml:space="preserve" xmlns:serif="http://www.serif.com/" style="fill-rule:evenodd;clip-rule:evenodd;stroke-linejoin:round;stroke-miterlimit:2;">
    <g transform="matrix(1,0,0,1,-53.1623,-497.538)">
        <g transform="matrix(0.97604,0,0,0.97604,1208.18,669.533)">
            <g id="body" transform="matrix(1.02455,0,0,1.02455,-1639.12,-968.744)">
                <g id="body1" serif:id="body">
                    <path d="M944.255,976C944.255,976 907.379,845.664 814.167,798.578C814.167,798.578 821.005,821.569 787.611,837.185C728.471,832.889 691.288,816.442 639.218,776.206C626.876,773.267 444.59,844.945 447.445,976L944.255,976Z" style="fill:rgb(195,105,14);"/>
                    <path d="M944.255,977.906C944.852,977.906 945.415,977.626 945.775,977.15C946.136,976.674 946.252,976.056 946.089,975.481C946.089,975.481 931.55,923.721 897.507,873.461C877.276,843.594 850.159,814.285 815.19,796.554C814.382,796.146 813.408,796.257 812.714,796.838C812.019,797.418 811.736,798.357 811.994,799.224C811.994,799.224 814.95,809.66 806.032,820.827C802.214,825.607 796.275,830.483 787.173,834.806C757.176,832.543 732.884,827.111 709.357,816.929C687.184,807.333 665.693,793.525 640.754,774.217C640.472,773.999 640.147,773.843 639.8,773.76C638.925,773.551 637.381,773.549 635.253,773.919C632.074,774.473 627.252,775.818 621.193,777.962C591.187,788.578 530.09,818.901 488.387,866.798C462.418,896.623 443.982,933.241 444.939,976.055C444.968,977.417 446.081,978.507 447.445,978.507L944.255,977.906ZM941.687,974.091C941.687,974.091 487.559,973.542 449.92,973.496C449.784,933.068 467.594,898.497 492.266,870.176C533.305,823.067 593.37,793.196 622.88,782.723C628.588,780.697 633.124,779.402 636.119,778.876C637.013,778.719 637.717,778.605 638.217,778.608C663.345,797.947 685.053,811.777 707.426,821.404C731.604,831.807 756.56,837.312 787.442,839.519C787.841,839.548 788.24,839.474 788.603,839.305C801.709,833.154 808.841,825.873 812.688,819.241C816.531,812.616 817.16,806.558 817.002,802.609C849.486,820.054 874.857,847.703 894.035,875.821C923.5,919.023 938.352,963.387 941.687,974.091L941.687,974.091Z"/>
                </g>
                <path d="M802.42,847.784L809.078,842.738C811.474,840.893 813.564,838.963 815.341,836.976C816.121,836.103 816.84,835.219 817.499,834.331C818.565,832.892 819.48,831.448 820.274,830.035C821.839,827.251 822.934,824.598 823.703,822.279C825.327,817.386 825.501,814.012 825.501,814.012C825.531,813.727 825.323,813.471 825.038,813.442C824.754,813.412 824.498,813.62 824.469,813.905C824.469,813.905 823.957,817.092 822.008,821.635C821.089,823.78 819.839,826.212 818.183,828.773C817.35,830.06 816.409,831.371 815.365,832.705C814.721,833.527 814.041,834.357 813.316,835.191C811.659,837.096 809.777,839.018 807.566,840.839L801.215,846.317C800.81,846.65 800.751,847.248 801.084,847.653C801.416,848.058 802.015,848.117 802.42,847.784Z"/>
                <g transform="matrix(1,0,0,1,-0.623335,5.60942)">
                    <path d="M713.834,830.77C713.834,830.77 720.556,833.04 730.208,835.829C733.577,836.803 737.302,837.839 741.226,838.852C744.221,839.626 747.329,840.394 750.483,841.102C753.579,841.797 756.718,842.433 759.825,843.009C765.298,844.023 770.672,844.832 775.57,845.312C781.998,845.943 787.603,845.992 791.549,845.184C791.831,845.133 792.018,844.863 791.968,844.582C791.917,844.3 791.647,844.112 791.365,844.162C785.935,845.006 777.436,843.99 768.028,842.202C763.826,841.403 759.45,840.44 755.079,839.429C752.192,838.761 749.309,838.068 746.483,837.385C740.711,835.99 735.187,834.595 730.402,833.336C720.972,830.856 714.403,828.959 714.403,828.959C713.903,828.802 713.369,829.08 713.213,829.58C713.056,830.08 713.334,830.613 713.834,830.77Z"/>
                </g>
                <g transform="matrix(1,0,0,1,-4.32961,3.73921)">
                    <path d="M626.157,777.226C626.037,777.665 626.084,778.217 626.345,778.862C626.726,779.804 627.656,781.062 629.052,782.531C631.253,784.846 634.644,787.766 638.706,790.902C640.819,792.533 643.114,794.224 645.519,795.915C647.219,797.11 648.973,798.306 650.758,799.478C653.412,801.22 656.126,802.919 658.801,804.531C667.199,809.594 675.177,813.821 679.786,815.684C680.049,815.799 680.355,815.678 680.47,815.416C680.584,815.153 680.464,814.847 680.202,814.733C677.317,813.371 673.113,810.915 668.302,807.9C664.692,805.638 660.758,803.05 656.786,800.368C654.763,799.002 652.735,797.607 650.729,796.232C647.598,794.085 644.537,791.96 641.726,789.929C636.449,786.118 632.042,782.67 629.677,780.135C628.973,779.38 628.449,778.731 628.174,778.181C628.073,777.978 627.967,777.825 627.999,777.687C628.126,777.178 627.816,776.662 627.308,776.535C626.8,776.408 626.284,776.718 626.157,777.226Z"/>
                </g>
                <path d="M593.269,976.704C593.269,976.704 594.722,974.317 596.345,971.106C596.714,970.377 597.074,969.602 597.414,968.799C597.633,968.282 597.84,967.754 598.021,967.217C598.489,965.827 598.869,964.437 599.212,963.125C600.139,959.586 600.675,956.852 600.675,956.852C600.887,956.345 600.647,955.76 600.14,955.548C599.632,955.336 599.047,955.575 598.835,956.083C598.835,956.083 597.265,958.384 595.397,961.53C594.704,962.696 593.981,963.942 593.321,965.251C593.065,965.757 592.835,966.276 592.621,966.794C592.288,967.6 591.989,968.401 591.729,969.175C590.584,972.586 589.904,975.296 589.904,975.296C589.516,976.225 589.955,977.294 590.883,977.682C591.812,978.071 592.881,977.632 593.269,976.704Z"/>
                <path d="M910.517,975.85C910.517,975.85 910.211,968.46 906.204,953.926C905.067,949.801 903.624,945.097 901.757,939.839C900.826,937.216 899.784,934.456 898.608,931.568C897.052,927.751 895.275,923.708 893.265,919.435C889.132,910.65 884.008,900.934 877.873,890.182C877.618,889.694 877.016,889.504 876.528,889.759C876.04,890.013 875.85,890.616 876.104,891.104C881.37,902.21 885.583,912.264 889.144,921.221C890.866,925.552 892.422,929.621 893.852,933.43C894.93,936.302 895.942,939.021 896.88,941.594C898.754,946.736 900.317,951.297 901.59,955.296C905.993,969.129 906.882,976.15 906.882,976.15C906.965,977.153 907.847,977.9 908.85,977.817C909.853,977.735 910.6,976.853 910.517,975.85Z"/>
            </g>
        </g>
    </g>
</svg>
