<?xml version="1.0" encoding="UTF-8" standalone="no"?>
<!DOCTYPE svg PUBLIC "-//W3C//DTD SVG 1.1//EN" "http://www.w3.org/Graphics/SVG/1.1/DTD/svg11.dtd">
<svg width="100%" height="100%" viewBox="0 0 502 266" version="1.1" xmlns="http://www.w3.org/2000/svg" xmlns:xlink="http://www.w3.org/1999/xlink" xml:space="preserve" xmlns:serif="http://www.serif.com/" style="fill-rule:evenodd;clip-rule:evenodd;stroke-linejoin:round;stroke-miterlimit:2;">
    <g transform="matrix(1,0,0,1,-69.1823,-436.107)">
        <g transform="matrix(0.97604,0,0,0.97604,1208.18,669.533)">
            <g id="body2" transform="matrix(1.02455,0,0,1.02455,-1194.22,-1718.53)">
                <path d="M191.357,1506.15C191.357,1506.15 127.264,1516.21 80.37,1556.36C44.895,1586.73 21.762,1634.33 29.419,1707.83L527.189,1707.83C527.189,1707.83 511.663,1564.88 404.938,1535.46C402.555,1534.8 384.777,1519.05 382.305,1518.51C378.991,1517.78 381.627,1529.56 378.15,1529.06L371.262,1522.02L191.357,1506.15Z" style="fill:rgb(97,44,50);"/>
                <path d="M191.403,1505.21C191.361,1505.2 191.318,1505.2 191.277,1505.21L191.21,1505.21C191.21,1505.21 164.142,1509.42 132.26,1523.37C114.96,1530.93 96.245,1541.36 79.66,1555.53C59.59,1572.68 43.429,1595.3 34.457,1624.92C27.447,1648.07 24.827,1675.5 28.179,1707.95C28.245,1708.59 28.78,1709.07 29.419,1709.07C29.419,1709.07 95.102,1709.13 178.75,1709.16C225.681,1709.18 278.268,1709.19 328.081,1709.17C433.892,1709.13 527.189,1709 527.189,1709C527.523,1709 527.842,1708.86 528.066,1708.61C528.289,1708.36 528.396,1708.03 528.36,1707.7C528.36,1707.7 520.544,1636.54 478.497,1584.15C460.778,1562.08 436.989,1543.33 405.172,1534.61C404.66,1534.47 403.404,1533.55 401.712,1532.25C397.772,1529.25 391.761,1524.22 387.52,1520.97C385.099,1519.11 383.19,1517.84 382.484,1517.69C381.172,1517.4 380.307,1518.23 379.902,1519.86C379.439,1521.72 379.545,1524.81 379.116,1526.85C379.021,1527.31 378.903,1527.7 378.722,1527.99C378.655,1528.1 378.577,1528.18 378.479,1528.22C378.478,1528.22 371.836,1521.45 371.836,1521.45C371.702,1521.32 371.523,1521.23 371.332,1521.21L191.403,1505.63L191.403,1505.21ZM191.504,1506.69L370.894,1522.79C370.894,1522.79 377.564,1529.63 377.564,1529.63C377.69,1529.76 377.854,1529.84 378.032,1529.87C379.315,1530.06 380.159,1529.25 380.593,1527.74C381.053,1526.14 381.064,1523.63 381.29,1521.63C381.384,1520.81 381.505,1520.08 381.756,1519.59C381.843,1519.42 381.939,1519.29 382.126,1519.33C382.7,1519.45 384.135,1520.51 386.041,1521.97C390.801,1525.61 398.122,1531.82 402.023,1534.67C403.292,1535.61 404.254,1536.19 404.703,1536.31C436.079,1545.01 459.496,1563.58 476.924,1585.41C515.126,1633.27 524.589,1696.79 525.859,1706.64C514.133,1706.63 426.523,1706.52 328.081,1706.48C278.268,1706.46 225.681,1706.48 178.75,1706.49C101.481,1706.52 39.54,1706.57 30.543,1706.58C27.347,1674.99 29.894,1648.23 36.7,1625.6C45.48,1596.41 61.35,1574.11 81.079,1557.19C97.465,1543.12 115.972,1532.77 133.08,1525.24C164.67,1511.34 191.504,1507.09 191.504,1507.09L191.504,1506.69ZM191.319,1506.67L191.274,1506.67L191.311,1506.67L191.319,1506.67Z"/>
                <path d="M88.933,1549.3C88.933,1549.3 126.512,1541.64 155.048,1576.28C155.048,1576.28 192.987,1601.14 207.608,1645.37C213.509,1663.22 217.552,1683.81 220.042,1707.83L180.829,1707.83C180.829,1707.83 183.781,1683.91 182.994,1676.62C182.206,1669.34 183.584,1633.75 150.128,1583.14C150.128,1583.14 122.969,1549.66 83.609,1553.59L88.933,1549.3Z" style="fill:rgb(103,60,63);"/>
                <path d="M88.607,1548.89L83.264,1553.17C83.076,1553.32 83.009,1553.58 83.102,1553.8C83.194,1554.03 83.422,1554.16 83.663,1554.14C97.536,1552.81 109.859,1556.16 119.984,1561.03C137.766,1569.59 148.765,1582.83 149.433,1583.64C160.294,1600.21 167.426,1615.14 172.142,1628C181.796,1654.31 181.292,1671.88 181.803,1676.75C182.075,1679.34 181.853,1684.07 181.47,1689.04C180.783,1697.95 179.558,1707.67 179.558,1707.67C179.513,1708.03 179.627,1708.4 179.87,1708.67C180.113,1708.95 180.462,1709.11 180.829,1709.11L220.042,1709.17C220.422,1709.17 220.785,1709.01 221.04,1708.73C221.295,1708.44 221.418,1708.07 221.379,1707.69C220.211,1696.39 218.705,1685.86 216.816,1676.01C214.669,1664.81 212.03,1654.49 208.869,1644.96C203.757,1629.57 195.861,1616.51 187.691,1606.01C173.02,1587.14 157.495,1576.52 155.83,1575.41C146.28,1563.92 135.758,1557.07 125.936,1553.04C105.879,1544.8 88.744,1548.36 88.744,1548.36L88.607,1548.89ZM89.123,1550.23C89.123,1550.23 105.738,1546.91 125.125,1555C134.68,1558.98 144.906,1565.73 154.153,1577.02C154.228,1577.11 154.315,1577.19 154.413,1577.25C154.413,1577.25 170.527,1587.88 185.699,1607.55C193.668,1617.88 201.383,1630.69 206.347,1645.79C209.46,1655.23 212.044,1665.44 214.162,1676.52C215.949,1685.86 217.406,1695.83 218.548,1706.48C218.548,1706.48 182.268,1706.54 182.268,1706.54C182.617,1703.5 183.43,1696.12 183.925,1689.22C184.295,1684.07 184.481,1679.17 184.185,1676.5C183.637,1671.58 184.031,1653.81 174.09,1627.28C169.24,1614.34 161.926,1599.31 150.84,1582.67C150.824,1582.65 150.808,1582.63 150.791,1582.61C150.791,1582.61 139.356,1568.6 120.59,1559.76C110.682,1555.09 98.732,1551.86 85.346,1552.89C85.346,1552.89 89.259,1549.7 89.259,1549.7L89.123,1550.23Z"/>
                <path d="M371.262,1522.02L383.76,1518.22L403.908,1535.35C403.908,1535.35 437.272,1567.64 445.39,1576.25C453.508,1584.86 479.831,1611.68 481.553,1631.36L469.745,1639.72C469.745,1639.72 500.249,1688.85 507.629,1707.83L215.378,1707.83C215.378,1707.83 216.469,1678.44 207.148,1646.91C206.423,1644.46 188.748,1644.67 187.946,1642.17C172.71,1594.68 143.205,1540.34 88.933,1549.44C88.933,1549.44 136.376,1515.2 191.357,1506.15C191.357,1506.15 264.25,1570.14 357.655,1572.95C357.655,1572.95 364.45,1565.67 371.262,1544.27L371.262,1522.02Z" style="fill:rgb(141,141,141);"/>
                <path d="M205.962,1647.46C209.05,1657.98 210.973,1668.25 212.168,1677.24C214.523,1694.98 214.043,1707.78 214.043,1707.78C214.029,1708.14 214.164,1708.49 214.416,1708.75C214.668,1709.01 215.015,1709.16 215.378,1709.16C215.378,1709.16 288.441,1709.18 361.504,1709.16C434.566,1709.14 507.629,1709.07 507.629,1709.07C508.039,1709.07 508.422,1708.87 508.654,1708.53C508.885,1708.19 508.935,1707.76 508.786,1707.38C506.165,1700.65 500.659,1690.17 494.618,1679.41C484.95,1662.19 473.921,1644.26 471.308,1640.04C471.308,1640.04 482.216,1632.29 482.216,1632.29C482.548,1632.06 482.731,1631.66 482.695,1631.26C482.013,1623.55 477.668,1614.76 472.058,1606.37C463.191,1593.11 451.205,1580.84 446.172,1575.51C443.152,1572.32 436.65,1565.87 429.664,1559.01C417.829,1547.4 404.603,1534.63 404.603,1534.63C404.588,1534.62 404.572,1534.6 404.556,1534.59L384.386,1517.48C384.136,1517.27 383.794,1517.2 383.479,1517.29L370.986,1521.11L370.986,1521.52C370.586,1521.59 370.312,1521.79 370.312,1522.02L370.743,1522.02L370.702,1544.18C368.28,1551.73 365.864,1557.51 363.756,1561.82C360.541,1568.4 358.055,1571.54 357.384,1572.32C324.854,1571.25 294.843,1562.74 269.565,1552.13C222.587,1532.42 191.966,1505.46 191.966,1505.46C191.758,1505.28 191.48,1505.2 191.207,1505.24C171.798,1508.41 153.318,1514.69 137.513,1521.52C108.351,1534.12 88.295,1548.55 88.295,1548.55C87.885,1548.85 87.732,1549.39 87.927,1549.86C88.122,1550.32 88.614,1550.6 89.113,1550.51C111.081,1546.86 128.906,1553.77 143.321,1566.42C164.128,1584.68 177.866,1614.81 186.733,1642.56C186.855,1642.94 187.114,1643.32 187.556,1643.65C187.934,1643.93 188.495,1644.2 189.211,1644.43C192.434,1645.46 199.496,1645.89 203.67,1646.74C204.336,1646.88 204.921,1647.03 205.389,1647.19C205.599,1647.27 205.848,1647.4 205.962,1647.46ZM189.107,1641.62C180.042,1613.53 165.984,1583.1 144.864,1564.66C130.945,1552.51 113.974,1545.52 93.358,1547.73C100.428,1543.02 116.887,1532.71 138.316,1523.37C153.853,1516.61 172.002,1510.35 191.082,1507.13C194.537,1510.08 224.496,1535.07 268.97,1553.56C294.499,1564.17 324.811,1572.64 357.636,1573.57C357.813,1573.57 357.985,1573.5 358.106,1573.37C358.106,1573.37 360.963,1570.32 364.825,1562.34C366.943,1557.97 369.37,1552.11 371.795,1544.44C371.812,1544.39 371.821,1544.33 371.821,1544.27L371.782,1522.85L383.535,1519.3C383.535,1519.3 403.235,1536.09 403.235,1536.09C403.837,1536.68 416.679,1549.14 428.199,1560.5C435.144,1567.35 441.607,1573.8 444.609,1576.99C449.584,1582.28 461.44,1594.45 470.197,1607.61C475.399,1615.42 479.524,1623.57 480.345,1630.8C480.345,1630.81 469.073,1638.77 469.073,1638.77C468.571,1639.13 468.433,1639.81 468.757,1640.33C468.757,1640.33 481.513,1660.93 492.502,1680.59C497.972,1690.38 503.005,1699.93 505.788,1706.58C494.023,1706.57 427.763,1706.51 361.504,1706.49C294.284,1706.47 227.065,1706.49 216.743,1706.49C216.79,1702.69 216.725,1691.43 214.775,1676.89C213.544,1667.73 211.563,1657.26 208.388,1646.54C208.27,1646.14 208.008,1645.75 207.543,1645.4C207.165,1645.12 206.6,1644.86 205.878,1644.63C202.657,1643.63 195.596,1643.23 191.422,1642.36C190.757,1642.22 190.174,1642.08 189.706,1641.9C189.482,1641.82 189.215,1641.68 189.107,1641.62Z"/>
                <g transform="matrix(1,0,0,1,719.307,731.825)">
                    <path d="M-466.721,813.459C-466.721,813.459 -543.434,841.585 -556.316,855.832C-556.316,855.832 -569.001,833.317 -592.774,822.138C-616.548,810.96 -630.374,817.415 -630.374,817.415C-630.374,817.415 -613.084,802.462 -573.252,787.189C-533.419,771.915 -527.95,774.327 -527.95,774.327C-527.95,774.327 -488.19,803.678 -466.721,813.459Z" style="fill:rgb(113,85,81);"/>
                    <path d="M-466.394,813.946C-466.033,813.874 -465.787,813.689 -465.773,813.479C-465.758,813.268 -465.977,813.074 -466.328,812.987L-466.506,812.987C-473.586,809.715 -482.657,804.285 -491.625,798.492C-509.736,786.793 -527.417,773.605 -527.417,773.605C-527.47,773.566 -527.527,773.533 -527.588,773.506C-527.588,773.506 -529.891,772.351 -542.144,775.605C-548.963,777.417 -558.988,780.605 -573.649,786.153C-588.549,791.803 -600.319,797.416 -609.22,802.248C-624.342,810.457 -631.239,816.415 -631.239,816.415C-631.738,816.847 -631.842,817.58 -631.483,818.134C-631.124,818.688 -630.412,818.892 -629.814,818.613C-629.814,818.613 -623.247,815.625 -611.421,817.547C-606.322,818.375 -600.265,820.107 -593.349,823.36C-585.267,827.15 -578.49,832.277 -573.074,837.356C-562.805,846.986 -557.428,856.459 -557.428,856.459C-557.227,856.817 -556.865,857.056 -556.457,857.101C-556.049,857.147 -555.644,856.993 -555.369,856.689C-551.546,852.437 -541.954,846.963 -530.471,841.332C-503.604,828.155 -466.394,814.35 -466.394,814.35L-466.394,813.946ZM-468.633,813.148C-476.028,815.87 -507.781,827.723 -531.518,839.181C-542.35,844.409 -551.514,849.593 -556.062,853.776C-557.985,850.701 -563.114,843.109 -571.26,835.427C-576.845,830.158 -583.851,824.853 -592.2,820.917C-601.268,816.655 -608.919,814.91 -614.944,814.396C-618.754,814.07 -621.928,814.233 -624.418,814.567C-620.052,811.495 -612.791,806.819 -602.324,801.412C-594.382,797.309 -584.608,792.783 -572.855,788.225C-561.283,783.729 -552.623,780.749 -546.16,778.78C-536.725,775.907 -532.029,775.205 -529.795,775.105C-529.101,775.074 -528.647,775.102 -528.362,775.138C-526.768,776.298 -509.751,788.647 -492.352,799.631C-483.976,804.918 -475.512,809.887 -468.633,813.148L-468.633,813.148Z"/>
                </g>
                <g transform="matrix(1,0,0,1,719.307,731.825)">
                    <path d="M-320.648,976C-320.648,976 -322.852,937.19 -331.826,906.646C-340.8,876.103 -362.055,841.348 -362.055,841.348C-362.055,841.348 -341.272,834.106 -334.817,812.694L-334.817,787.189C-334.817,787.189 -316.082,801.358 -292.151,826.234C-268.22,851.11 -259.088,859.139 -253.263,867.641C-247.437,876.143 -236.889,889.998 -238.148,899.917L-249.484,907.631L-211.678,976L-320.648,976Z" style="fill:rgb(183,183,183);"/>
                    <path d="M-321.595,976.029C-321.567,976.304 -321.151,976.519 -320.648,976.519C-320.648,976.519 -211.678,976.897 -211.678,976.897C-211.361,976.897 -211.067,976.729 -210.906,976.455C-210.744,976.182 -210.74,975.844 -210.893,975.566L-248,907.989C-248,907.989 -237.492,900.881 -237.492,900.881C-237.216,900.692 -237.034,900.395 -236.992,900.063C-236.426,895.697 -237.997,890.585 -240.515,885.476C-243.856,878.7 -248.839,871.908 -252.231,866.934C-254.16,864.104 -256.447,861.322 -259.505,857.977C-265.699,851.201 -275.096,842.073 -291.182,825.302C-298.753,817.428 -305.804,810.622 -311.913,804.997C-325.185,792.778 -334.009,786.119 -334.009,786.119C-334.414,785.812 -334.959,785.762 -335.414,785.988C-335.87,786.215 -336.158,786.68 -336.158,787.189L-336.137,812.499C-338.298,819.574 -342.076,825.043 -346.103,829.178C-353.828,837.111 -362.471,840.153 -362.471,840.153C-362.833,840.279 -363.118,840.562 -363.247,840.922C-363.375,841.283 -363.334,841.682 -363.135,842.009C-363.135,842.009 -354.659,855.817 -346.144,873.654C-341.188,884.035 -336.215,895.78 -332.903,906.963C-329.622,918.034 -327.235,930.199 -325.522,941.192C-322.527,960.411 -321.595,976.054 -321.595,976.054L-321.595,976.029ZM-319.727,975.478C-319.893,972.733 -320.845,958.262 -323.466,940.877C-325.139,929.784 -327.493,917.508 -330.749,906.33C-334.046,895.02 -339.011,883.13 -343.976,872.625C-350.958,857.849 -357.931,845.813 -360.206,841.973C-357.308,840.732 -350.495,837.371 -344.248,830.989C-339.916,826.564 -335.858,820.689 -333.553,813.075C-333.516,812.951 -333.497,812.823 -333.497,812.694L-333.479,789.94C-330.121,792.615 -323.036,798.429 -313.744,806.986C-307.67,812.58 -300.652,819.34 -293.119,827.166C-277.005,843.867 -267.598,852.96 -261.387,859.703C-258.411,862.934 -256.177,865.614 -254.295,868.348C-250.934,873.23 -245.99,879.889 -242.669,886.545C-240.455,890.982 -238.944,895.404 -239.253,899.259C-239.253,899.26 -250.119,906.698 -250.119,906.698C-250.601,907.026 -250.754,907.667 -250.472,908.177L-213.2,975.109L-319.727,975.478Z"/>
                </g>
                <g transform="matrix(1,0,0,1,13.4532,0)">
                    <path d="M210.376,1445.28L207.67,1458.81C207.67,1458.81 284.669,1520.06 355.025,1502.35L354.533,1485.62C354.533,1485.62 372,1493.25 371.016,1524L371.262,1544.41C371.262,1544.41 365.358,1565.08 344.201,1572.95C344.201,1572.95 249.982,1567.79 177.904,1505.3L194.632,1454.38C194.632,1454.38 198.568,1445.77 210.376,1445.28Z" style="fill:rgb(113,85,81);"/>
                    <path d="M211.307,1445.38C211.364,1445.22 211.287,1445.06 211.098,1444.94C210.908,1444.82 210.628,1444.75 210.337,1444.76C206.439,1444.91 203.365,1445.93 200.995,1447.25C195.971,1450.03 194.095,1454.13 194.095,1454.13C194.086,1454.15 194.078,1454.17 194.071,1454.19L177.164,1505.06C177.066,1505.36 177.157,1505.68 177.394,1505.89C202.349,1527.66 229.983,1542.57 255.463,1552.73C303.659,1571.96 344.13,1574.25 344.13,1574.25C344.308,1574.26 344.487,1574.23 344.654,1574.17C352.106,1571.41 357.727,1567.11 361.894,1562.64C369.927,1554.02 372.556,1544.79 372.556,1544.79C372.592,1544.66 372.609,1544.53 372.608,1544.4L372.368,1524.01C372.736,1512.21 370.435,1503.73 367.436,1497.75C362.298,1487.49 355.066,1484.4 355.066,1484.4C354.648,1484.22 354.166,1484.26 353.788,1484.52C353.41,1484.77 353.189,1485.2 353.203,1485.66L353.682,1501.33C333.165,1506.3 312.104,1504.53 292.613,1499.62C249.016,1488.62 213.229,1461.84 208.755,1458.4C208.755,1458.4 211.307,1445.46 211.307,1445.46L211.307,1445.38ZM209.287,1445.87L206.703,1458.61C206.631,1458.98 206.767,1459.35 207.056,1459.58C207.056,1459.58 244.974,1489.9 292.016,1501.96C312.208,1507.14 334.073,1508.94 355.346,1503.62C355.942,1503.47 356.354,1502.92 356.336,1502.31L355.932,1487.99C358.63,1489.86 363.552,1494.25 366.714,1502.84C368.672,1508.17 369.952,1515.07 369.665,1523.95C369.664,1523.97 369.664,1523.99 369.664,1524.01L369.913,1544.22C369.512,1545.5 366.846,1553.4 359.95,1560.83C356.084,1564.99 350.887,1569.02 344.003,1571.64C340.42,1571.41 301.862,1568.63 256.253,1550.74C231.021,1540.84 203.627,1526.33 178.805,1505.05C178.805,1505.05 195.181,1454.6 195.181,1454.6C195.352,1454.24 197.136,1450.7 201.537,1448.21C203.547,1447.08 206.099,1446.17 209.287,1445.87L209.287,1445.87Z"/>
                </g>
                <g transform="matrix(1,0,0,1,13.4532,0)">
                    <path d="M355.025,1502.35L344.201,1572.95C344.201,1572.95 361.719,1569.53 371.262,1544.5L371.262,1519.46C371.262,1519.46 371.358,1491.28 354.669,1485.61L355.025,1502.35Z" style="fill:rgb(183,183,183);"/>
                    <path d="M354.087,1502.2C354.087,1502.2 350.425,1524.88 347.31,1544.52C344.932,1559.52 342.877,1572.75 342.877,1572.75C342.811,1573.18 342.959,1573.62 343.274,1573.92C343.588,1574.22 344.03,1574.35 344.458,1574.27C344.458,1574.27 353.302,1572.62 361.986,1562.83C365.749,1558.59 369.475,1552.8 372.429,1544.94C372.483,1544.8 372.511,1544.65 372.511,1544.5L372.327,1519.46C372.327,1519.46 372.256,1506.13 366.81,1495.86C364.219,1490.97 360.423,1486.78 354.891,1484.96C354.678,1484.88 354.442,1484.92 354.26,1485.05C354.078,1485.19 353.973,1485.4 353.978,1485.63L354.507,1502.36L354.087,1502.2ZM355.544,1502.34L355.371,1486.62C359.973,1488.55 363.124,1492.34 365.304,1496.64C370.36,1506.63 370.197,1519.46 370.197,1519.46L370.014,1544.26C367.138,1551.63 363.555,1557.05 359.979,1561.04C354.335,1567.35 348.688,1570.03 345.842,1571.06C346.492,1566.75 348.058,1556.34 349.752,1544.9C352.665,1525.22 355.964,1502.49 355.964,1502.49L355.544,1502.34Z"/>
                </g>
                <path d="M356.876,1573.5C356.876,1573.5 366.424,1587.54 376.254,1611.33C378.282,1616.24 380.329,1621.56 382.319,1627.25C383.528,1630.71 384.717,1634.31 385.875,1638.04C388.52,1646.55 390.966,1655.74 392.969,1665.53C395.652,1678.64 397.578,1692.81 398.126,1707.84C398.132,1708.12 398.37,1708.35 398.657,1708.34C398.943,1708.34 399.17,1708.1 399.163,1707.81C399.006,1692.68 397.495,1678.37 395.083,1665.12C393.278,1655.2 390.985,1645.88 388.412,1637.26C387.284,1633.49 386.095,1629.85 384.872,1626.36C382.86,1620.61 380.758,1615.25 378.656,1610.32C368.451,1586.38 358.433,1572.41 358.433,1572.41C358.133,1571.98 357.541,1571.87 357.111,1572.17C356.681,1572.47 356.576,1573.07 356.876,1573.5Z"/>
            </g>
        </g>
    </g>
</svg>
