<?xml version="1.0" encoding="UTF-8" standalone="no"?>
<!DOCTYPE svg PUBLIC "-//W3C//DTD SVG 1.1//EN" "http://www.w3.org/Graphics/SVG/1.1/DTD/svg11.dtd">
<svg width="100%" height="100%" viewBox="0 0 503 263" version="1.1" xmlns="http://www.w3.org/2000/svg" xmlns:xlink="http://www.w3.org/1999/xlink" xml:space="preserve" xmlns:serif="http://www.serif.com/" style="fill-rule:evenodd;clip-rule:evenodd;stroke-linejoin:round;stroke-miterlimit:2;">
    <g transform="matrix(1,0,0,1,-52.8091,-440.386)">
        <g transform="matrix(0.97604,0,0,0.97604,1208.18,669.533)">
            <g id="body3" transform="matrix(1.02455,0,0,1.02455,-1406.86,-1299.86)">
                <g id="body" transform="matrix(1,0,0,1,-227.054,323.179)">
                    <g id="body1" serif:id="body">
                        <path d="M944.255,976C944.255,976 907.379,845.664 814.167,798.578C814.167,798.578 821.005,821.569 787.611,837.185C728.471,832.889 691.288,816.442 639.218,776.206C626.876,773.267 444.59,844.945 447.445,976L944.255,976Z" style="fill:rgb(195,105,14);"/>
                        <path d="M944.255,977.906C944.852,977.906 945.415,977.626 945.775,977.15C946.136,976.674 946.252,976.056 946.089,975.481C946.089,975.481 931.55,923.721 897.507,873.461C877.276,843.594 850.159,814.285 815.19,796.554C814.382,796.146 813.408,796.257 812.714,796.838C812.019,797.418 811.736,798.357 811.994,799.224C811.994,799.224 814.95,809.66 806.032,820.827C802.214,825.607 796.275,830.483 787.173,834.806C757.176,832.543 732.884,827.111 709.357,816.929C687.184,807.333 665.693,793.525 640.754,774.217C640.472,773.999 640.147,773.843 639.8,773.76C638.925,773.551 637.381,773.549 635.253,773.919C632.074,774.473 627.252,775.818 621.193,777.962C591.187,788.578 530.09,818.901 488.387,866.798C462.418,896.623 443.982,933.241 444.939,976.055C444.968,977.417 446.081,978.507 447.445,978.507L944.255,977.906ZM941.687,974.091C941.687,974.091 487.559,973.542 449.92,973.496C449.784,933.068 467.594,898.497 492.266,870.176C533.305,823.067 593.37,793.196 622.88,782.723C628.588,780.697 633.124,779.402 636.119,778.876C637.013,778.719 637.717,778.605 638.217,778.608C663.345,797.947 685.053,811.777 707.426,821.404C731.604,831.807 756.56,837.312 787.442,839.519C787.841,839.548 788.24,839.474 788.603,839.305C801.709,833.154 808.841,825.873 812.688,819.241C816.531,812.616 817.16,806.558 817.002,802.609C849.486,820.054 874.857,847.703 894.035,875.821C923.5,919.023 938.352,963.387 941.687,974.091L941.687,974.091Z"/>
                    </g>
                    <g transform="matrix(1,0,0,0.884903,227.054,-172.464)">
                        <path d="M448.259,1295.98C448.259,1295.98 454.483,1221.45 478.354,1153.31C502.226,1085.17 636.252,1112.84 630.881,1295.98L448.259,1295.98Z" style="fill:rgb(211,137,61);"/>
                        <path d="M447.314,1295.93C447.289,1296.09 447.377,1296.26 447.557,1296.38C447.737,1296.5 447.992,1296.57 448.259,1296.57C448.259,1296.57 630.881,1297.22 630.881,1297.22C631.473,1297.22 631.958,1296.69 631.978,1296.02C633.111,1259.95 628.858,1229.86 621.078,1205.31C610.069,1170.58 592.035,1146.91 572.349,1133.04C534.269,1106.22 490.042,1116.03 477.204,1152.8C468.892,1176.66 462.732,1201.31 458.245,1223.28C449.882,1264.23 447.314,1295.88 447.314,1295.88L447.314,1295.93ZM449.267,1295.39C449.715,1290.57 452.644,1261.06 460.398,1223.85C464.947,1202.02 471.152,1177.53 479.505,1153.83C486.2,1134.79 501.74,1123.5 520.336,1121.21C542.881,1118.43 569.882,1128.86 591.418,1154.77C602.319,1167.88 611.819,1184.95 618.654,1206.3C626.331,1230.27 630.659,1259.6 629.816,1294.75C614.936,1294.8 449.267,1295.39 449.267,1295.39L449.267,1295.39Z"/>
                    </g>
                    <g transform="matrix(1,0,0,1,228.813,-323.179)">
                        <path d="M376.132,1111.63C376.132,1111.63 502.255,1224.31 518.594,1297.54L468.779,1297.54C468.779,1297.54 411.717,1196.28 336.845,1131.95C336.845,1131.95 360.075,1118.43 376.132,1111.63Z" style="fill:rgb(154,67,27);"/>
                        <path d="M376.765,1111.24C376.491,1111.11 376.1,1111.07 375.762,1111.15L375.93,1111.15C370.967,1113.23 365.321,1115.95 359.883,1118.71C347.668,1124.92 336.502,1131.36 336.502,1131.36C336.312,1131.47 336.186,1131.67 336.166,1131.89C336.146,1132.11 336.234,1132.32 336.401,1132.47C363.33,1155.76 387.91,1183.87 408.35,1210.26C444.484,1256.89 467.643,1298.17 467.643,1298.17C467.874,1298.59 468.308,1298.84 468.779,1298.84L518.594,1298.88C519.004,1298.88 519.392,1298.7 519.648,1298.38C519.904,1298.06 520.001,1297.64 519.912,1297.24C514.305,1272.21 495.996,1242.57 474.171,1214.41C431.965,1159.95 376.765,1110.92 376.765,1110.92L376.765,1111.24ZM375.598,1112.42C378.178,1114.75 431.269,1162.87 472.157,1215.97C493.157,1243.24 510.977,1271.8 516.895,1296.19C516.895,1296.19 469.535,1296.23 469.535,1296.23C466.381,1290.75 443.814,1252.11 409.991,1208.98C389.516,1182.87 364.906,1155.12 338.019,1132.06C340.808,1130.44 350.245,1125.02 360.418,1119.75C365.543,1117.1 370.856,1114.49 375.597,1112.42L375.598,1112.42Z"/>
                    </g>
                    <path d="M802.42,847.784L809.078,842.738C811.474,840.893 813.564,838.963 815.341,836.976C816.121,836.103 816.84,835.219 817.499,834.331C818.565,832.892 819.48,831.448 820.274,830.035C821.839,827.251 822.934,824.598 823.703,822.279C825.327,817.386 825.501,814.012 825.501,814.012C825.531,813.727 825.323,813.471 825.038,813.442C824.754,813.412 824.498,813.62 824.469,813.905C824.469,813.905 823.957,817.092 822.008,821.635C821.089,823.78 819.839,826.212 818.183,828.773C817.35,830.06 816.409,831.371 815.365,832.705C814.721,833.527 814.041,834.357 813.316,835.191C811.659,837.096 809.777,839.018 807.566,840.839L801.215,846.317C800.81,846.65 800.751,847.248 801.084,847.653C801.416,848.058 802.015,848.117 802.42,847.784Z"/>
                    <path d="M593.269,976.704C593.269,976.704 594.722,974.317 596.345,971.106C596.714,970.377 597.074,969.602 597.414,968.799C597.633,968.282 597.84,967.754 598.021,967.217C598.489,965.827 598.869,964.437 599.212,963.125C600.139,959.586 600.675,956.852 600.675,956.852C600.887,956.345 600.647,955.76 600.14,955.548C599.632,955.336 599.047,955.575 598.835,956.083C598.835,956.083 597.265,958.384 595.397,961.53C594.704,962.696 593.981,963.942 593.321,965.251C593.065,965.757 592.835,966.276 592.621,966.794C592.288,967.6 591.989,968.401 591.729,969.175C590.584,972.586 589.904,975.296 589.904,975.296C589.516,976.225 589.955,977.294 590.883,977.682C591.812,978.071 592.881,977.632 593.269,976.704Z"/>
                    <path d="M910.517,975.85C910.517,975.85 910.211,968.46 906.204,953.926C905.067,949.801 903.624,945.097 901.757,939.839C900.826,937.216 899.784,934.456 898.608,931.568C897.052,927.751 895.275,923.708 893.265,919.435C889.132,910.65 884.008,900.934 877.873,890.182C877.618,889.694 877.016,889.504 876.528,889.759C876.04,890.013 875.85,890.616 876.104,891.104C881.37,902.21 885.583,912.264 889.144,921.221C890.866,925.552 892.422,929.621 893.852,933.43C894.93,936.302 895.942,939.021 896.88,941.594C898.754,946.736 900.317,951.297 901.59,955.296C905.993,969.129 906.882,976.15 906.882,976.15C906.965,977.153 907.847,977.9 908.85,977.817C909.853,977.735 910.6,976.853 910.517,975.85Z"/>
                    <g transform="matrix(1,0,0,1,-0.623335,5.60942)">
                        <path d="M713.834,830.77C713.834,830.77 720.556,833.04 730.208,835.829C733.577,836.803 737.302,837.839 741.226,838.852C744.221,839.626 747.329,840.394 750.483,841.102C753.579,841.797 756.718,842.433 759.825,843.009C765.298,844.023 770.672,844.832 775.57,845.312C781.998,845.943 787.603,845.992 791.549,845.184C791.831,845.133 792.018,844.863 791.968,844.582C791.917,844.3 791.647,844.112 791.365,844.162C785.935,845.006 777.436,843.99 768.028,842.202C763.826,841.403 759.45,840.44 755.079,839.429C752.192,838.761 749.309,838.068 746.483,837.385C740.711,835.99 735.187,834.595 730.402,833.336C720.972,830.856 714.403,828.959 714.403,828.959C713.903,828.802 713.369,829.08 713.213,829.58C713.056,830.08 713.334,830.613 713.834,830.77Z"/>
                    </g>
                </g>
                <g id="scarf">
                    <g transform="matrix(0.768991,0,0,0.926523,-3080.74,-920.295)">
                        <path d="M4566.82,2116.74L4530.63,2130.83C4530.63,2130.83 4524.59,2147.8 4529.77,2163.05C4529.77,2163.05 4526.89,2169.96 4518.83,2172.83C4510.78,2175.71 4505.89,2179.16 4508.48,2188.66C4508.48,2188.66 4490.49,2191.14 4480.15,2197.91C4480.15,2197.91 4506.18,2215.12 4534.37,2228.93C4562.56,2242.74 4612.33,2268.34 4612.33,2268.34C4612.33,2268.34 4648.87,2288.82 4658.65,2295.12C4668.43,2301.43 4726.83,2331.92 4756.46,2308.91C4786.09,2285.89 4800.19,2264.03 4807.09,2244.47C4807.09,2244.47 4805.62,2232.47 4802.08,2228.78C4798.55,2225.1 4793.24,2215.82 4794.57,2211.99C4794.57,2211.99 4809.3,2203.11 4804,2195.18C4798.69,2187.25 4771.09,2169.53 4752.09,2163.05C4752.09,2163.05 4752.16,2167.49 4753.55,2174.52C4753.76,2175.55 4753.54,2174.39 4753.55,2174.52C4754.26,2180.52 4753.21,2186.23 4752.98,2186.46C4751.04,2188.49 4754.81,2196.25 4737.5,2198.48C4737.5,2198.48 4673.06,2201.93 4603.44,2169.42C4603.44,2169.42 4566.9,2152.07 4559.68,2143.97C4559.68,2143.97 4566.86,2123.29 4566.82,2116.74Z" style="fill:rgb(178,106,81);"/>
                        <path d="M4752.23,2174.7C4752.41,2176.29 4752.48,2177.86 4752.46,2179.3C4752.44,2182.12 4752.12,2184.47 4751.9,2185.58C4751.86,2185.73 4751.82,2185.88 4751.8,2185.97C4751.4,2186.5 4751.16,2187.23 4751,2188.13C4750.68,2189.83 4750.5,2192.28 4747.55,2194.3C4745.57,2195.64 4742.42,2196.78 4737.37,2197.44C4735.91,2197.52 4707.46,2198.81 4668.49,2190.33C4648.91,2186.07 4626.68,2179.35 4603.88,2168.77C4603.61,2168.64 4589.09,2161.77 4576.62,2154.71C4569.63,2150.75 4563.27,2146.74 4560.52,2143.84C4561.06,2142.25 4563.55,2134.82 4565.4,2127.88C4566.59,2123.4 4567.51,2119.13 4567.49,2116.73L4567.49,2116.73C4567.49,2116.38 4567.37,2116.05 4567.18,2115.87C4566.98,2115.68 4566.74,2115.66 4566.53,2115.81L4566.29,2115.81L4530.07,2129.85C4529.73,2129.98 4529.48,2130.22 4529.37,2130.52C4529.37,2130.52 4526.81,2137.65 4526.38,2146.87C4526.14,2151.9 4526.54,2157.54 4528.31,2162.99C4527.91,2163.78 4526.71,2165.95 4524.41,2168.06C4522.88,2169.46 4520.87,2170.83 4518.27,2171.75C4513.62,2173.41 4510,2175.3 4508.02,2178.21C4506.44,2180.54 4505.86,2183.55 4506.76,2187.69C4503.84,2188.18 4497.05,2189.45 4490.25,2191.79C4486.34,2193.14 4482.43,2194.84 4479.22,2196.93C4478.86,2197.17 4478.65,2197.53 4478.65,2197.91C4478.65,2198.29 4478.86,2198.65 4479.22,2198.89C4479.22,2198.89 4490.27,2206.23 4505.8,2215.18C4514.11,2219.98 4523.7,2225.24 4533.55,2230.08C4542.54,2234.5 4553.73,2240.12 4564.8,2245.72C4587.89,2257.42 4610.45,2269.04 4611.4,2269.53C4612.09,2269.92 4626.39,2277.95 4639.3,2285.4C4646.9,2289.78 4654.02,2293.97 4657.58,2296.26C4663.89,2300.34 4690.18,2314.35 4716.21,2317.97C4731.4,2320.08 4746.49,2318.64 4757.65,2309.96C4770.68,2299.82 4780.73,2289.9 4788.49,2280.3C4798.53,2267.88 4804.74,2255.99 4808.65,2244.85C4808.71,2244.68 4808.73,2244.5 4808.71,2244.33C4808.71,2244.33 4808.06,2239.13 4806.61,2234.47C4805.78,2231.82 4804.67,2229.35 4803.33,2227.96C4801.4,2225.95 4798.92,2222.22 4797.37,2218.68C4796.36,2216.4 4795.68,2214.22 4795.96,2212.73C4797.59,2211.67 4802.95,2207.94 4805.38,2203.45C4806.9,2200.64 4807.31,2197.54 4805.32,2194.57C4802.34,2190.14 4792.55,2182.67 4781.07,2175.79C4771.73,2170.18 4761.28,2164.94 4752.61,2162C4752.18,2161.85 4751.69,2161.89 4751.31,2162.11C4750.93,2162.32 4750.71,2162.68 4750.71,2163.07C4750.71,2163.07 4750.75,2165.23 4751.25,2168.93C4751.48,2170.57 4751.79,2172.51 4752.23,2174.7ZM4754.94,2174.87C4755.19,2177.36 4755.15,2179.78 4755.01,2181.77C4754.86,2183.83 4754.6,2185.44 4754.42,2186.2C4754.29,2186.76 4754.08,2187.06 4754.01,2187.14C4753.86,2187.29 4753.8,2187.51 4753.73,2187.77C4753.59,2188.24 4753.51,2188.81 4753.39,2189.43C4753,2191.41 4752.25,2193.86 4749.17,2195.94C4746.93,2197.45 4743.4,2198.78 4737.69,2199.51C4737.65,2199.51 4737.62,2199.52 4737.58,2199.52C4737.58,2199.52 4708.33,2201.04 4667.94,2192.07C4648.24,2187.7 4625.89,2180.83 4602.99,2170.08C4602.99,2170.08 4602.99,2170.08 4602.99,2170.08C4602.99,2170.08 4588.29,2163.05 4575.69,2155.84C4568.35,2151.64 4561.73,2147.36 4559.06,2144.35C4558.92,2144.19 4558.88,2143.98 4558.94,2143.79C4558.94,2143.79 4561.89,2135.39 4564.01,2127.62C4564.99,2124.03 4565.8,2120.58 4566.06,2118.16L4566.06,2118.16C4566.06,2118.16 4531.73,2131.6 4531.73,2131.6C4531.19,2133.29 4529.39,2139.4 4529.07,2146.95C4528.86,2151.88 4529.28,2157.42 4531.1,2162.74C4531.18,2162.97 4531.17,2163.21 4531.08,2163.43C4531.08,2163.43 4529.78,2166.58 4526.49,2169.62C4524.73,2171.24 4522.39,2172.84 4519.39,2173.91C4515.41,2175.34 4512.22,2176.87 4510.53,2179.38C4509.08,2181.53 4508.79,2184.37 4509.9,2188.39C4509.99,2188.71 4509.91,2189.05 4509.69,2189.33C4509.46,2189.61 4509.11,2189.79 4508.72,2189.85C4508.72,2189.85 4500.06,2191.05 4491.39,2194.07C4488.35,2195.12 4485.3,2196.41 4482.64,2197.94C4486.18,2200.23 4495.53,2206.16 4507.57,2213.06C4515.84,2217.8 4525.38,2223 4535.19,2227.78C4544.2,2232.19 4555.42,2237.79 4566.52,2243.38C4590.16,2255.29 4613.23,2267.14 4613.23,2267.14C4613.25,2267.15 4613.27,2267.16 4613.29,2267.17C4613.29,2267.17 4628.01,2275.4 4641.28,2283.03C4648.94,2287.45 4656.13,2291.66 4659.72,2293.98C4665.86,2297.94 4691.46,2311.57 4716.79,2315.1C4730.88,2317.05 4744.91,2315.89 4755.27,2307.85C4768.11,2297.9 4778.02,2288.16 4785.68,2278.73C4795.46,2266.69 4801.57,2255.16 4805.44,2244.34C4805.3,2243.26 4804.69,2239 4803.5,2235.14C4802.81,2232.9 4801.96,2230.78 4800.84,2229.61C4798.76,2227.43 4796.08,2223.39 4794.42,2219.57C4793.06,2216.46 4792.44,2213.47 4793.08,2211.64C4793.17,2211.36 4793.38,2211.12 4793.66,2210.95C4793.66,2210.95 4799.99,2207.17 4802.6,2202.4C4803.74,2200.31 4804.15,2198.01 4802.68,2195.79C4799.84,2191.52 4790.38,2184.38 4779.38,2177.72C4770.95,2172.62 4761.61,2167.82 4753.55,2164.82C4753.62,2165.77 4753.74,2167.07 4753.95,2168.68C4754.16,2170.28 4754.46,2172.18 4754.88,2174.32L4754.88,2174.34C4754.9,2174.44 4754.96,2174.72 4754.97,2174.79C4754.97,2174.81 4754.96,2174.83 4754.94,2174.87ZM4754.86,2175.07C4754.78,2175.33 4754.6,2175.47 4754.38,2175.51C4754.6,2175.44 4754.77,2175.3 4754.86,2175.07Z"/>
                    </g>
                    <g transform="matrix(0.768991,0,0,0.926523,-3080.74,-920.295)">
                        <path d="M4793.76,2211.22C4793.76,2211.22 4790.48,2213.27 4786.56,2217.34C4785.76,2218.17 4784.95,2219.09 4784.14,2220.1C4783.66,2220.71 4783.17,2221.36 4782.71,2222.04C4781.66,2223.59 4780.67,2225.31 4779.77,2227.17C4778.59,2229.63 4777.61,2232.34 4776.86,2235.28C4776.76,2235.58 4776.97,2235.89 4777.33,2235.97C4777.69,2236.06 4778.06,2235.88 4778.16,2235.59C4779.37,2232.86 4780.82,2230.41 4782.31,2228.16C4783.41,2226.48 4784.56,2224.95 4785.66,2223.52C4786.15,2222.89 4786.62,2222.29 4787.08,2221.71C4787.84,2220.75 4788.57,2219.85 4789.27,2219.03C4792.67,2215.02 4795.38,2212.77 4795.38,2212.77C4795.89,2212.4 4795.95,2211.75 4795.51,2211.32C4795.06,2210.89 4794.28,2210.85 4793.76,2211.22Z"/>
                    </g>
                    <g transform="matrix(0.768991,0,0,0.926523,-3080.74,-920.295)">
                        <path d="M4695.12,2264.98C4695.12,2264.98 4703.8,2267.76 4714.56,2269.77C4718.85,2270.57 4723.47,2271.24 4727.99,2271.57C4731.14,2271.8 4734.26,2271.86 4737.18,2271.68C4742.55,2271.34 4747.29,2270.18 4750.61,2267.97C4755.24,2264.83 4759.46,2261.67 4763.01,2258.84C4770.04,2253.21 4774.47,2248.92 4774.47,2248.92C4774.72,2248.69 4774.7,2248.34 4774.42,2248.13C4774.15,2247.92 4773.72,2247.94 4773.47,2248.17C4773.47,2248.17 4768.78,2252.18 4761.47,2257.43C4757.79,2260.08 4753.46,2263.04 4748.72,2265.95C4745.77,2267.79 4741.6,2268.55 4736.94,2268.78C4734.18,2268.92 4731.25,2268.87 4728.28,2268.68C4723.89,2268.4 4719.4,2267.83 4715.22,2267.15C4704.61,2265.43 4695.95,2263.05 4695.95,2263.05C4695.31,2262.86 4694.6,2263.13 4694.37,2263.66C4694.14,2264.2 4694.47,2264.78 4695.12,2264.98Z"/>
                    </g>
                    <g transform="matrix(0.768991,0,0,0.926523,-3080.74,-920.295)">
                        <path d="M4637.56,2187.99C4637.56,2187.99 4649.68,2192.9 4664.73,2198.51C4670.58,2200.69 4676.88,2202.97 4683.08,2205.1C4688.44,2206.95 4693.74,2208.69 4698.61,2210.16C4704.95,2212.07 4710.58,2213.53 4714.7,2214.28C4725.86,2216.26 4737.1,2216.61 4746.49,2215.14C4754.57,2213.88 4761.28,2211.29 4765.45,2207.31C4765.7,2207.08 4765.67,2206.73 4765.4,2206.52C4765.12,2206.31 4764.69,2206.33 4764.44,2206.56C4760.32,2210.2 4753.84,2212.42 4746.14,2213.39C4736.99,2214.55 4726.13,2213.94 4715.4,2211.74C4711.4,2210.94 4705.97,2209.38 4699.82,2207.46C4695,2205.96 4689.74,2204.23 4684.4,2202.43C4678.21,2200.34 4671.89,2198.14 4666.02,2196.06C4650.88,2190.71 4638.61,2186.13 4638.61,2186.13C4638,2185.89 4637.26,2186.12 4636.97,2186.63C4636.68,2187.14 4636.95,2187.75 4637.56,2187.99Z"/>
                    </g>
                    <g transform="matrix(0.768991,0,0,0.926523,-3080.74,-920.295)">
                        <path d="M4764.94,2301.99C4764.94,2301.99 4678.36,2305.06 4630.89,2248.55C4630.89,2248.55 4708.55,2294.62 4764.94,2259.43C4764.94,2259.43 4689.88,2260.74 4638.09,2217.06L4614.2,2200.31L4612.77,2177.93C4612.77,2177.93 4675.5,2210.32 4733.17,2201.03L4733.17,2200.31C4733.17,2200.31 4625.65,2194.26 4560.05,2144.49L4567.18,2116.74L4530.49,2130.47C4530.49,2130.47 4520.99,2139.1 4529.34,2162.4C4529.34,2162.4 4529.28,2169.19 4520.33,2172.4C4511.37,2175.6 4503.21,2177.66 4506.03,2186.8L4480.15,2197.49C4480.15,2197.49 4506.91,2214.9 4535.31,2229.44C4563.7,2243.98 4648.15,2288.89 4662.88,2299.2C4677.61,2309.51 4737.2,2332.78 4764.94,2301.99Z" style="fill:rgb(132,74,54);"/>
                        <path d="M4765.49,2302.61C4765.64,2302.29 4765.66,2301.87 4765.54,2301.52C4765.42,2301.17 4765.18,2300.95 4764.92,2300.97C4764.89,2300.97 4728.72,2302.2 4690.47,2287.73C4671.73,2280.64 4652.48,2269.78 4636.77,2253.14C4649.58,2259.63 4679.06,2272.69 4710.89,2273.88C4729.36,2274.56 4748.61,2271.27 4765.91,2260.5C4766.47,2260.15 4766.7,2259.55 4766.47,2259C4766.24,2258.45 4765.61,2258.09 4764.91,2258.1C4764.91,2258.1 4733.34,2258.61 4697.15,2247C4677.82,2240.79 4657.16,2231.13 4639.31,2216.06C4639.28,2216.03 4639.24,2215.99 4639.2,2215.97L4615.9,2199.61C4615.9,2199.61 4614.68,2180.55 4614.68,2180.55C4622.15,2184.1 4643.66,2193.64 4670.32,2199.44C4689.79,2203.68 4712,2205.92 4733.51,2202.45C4734.33,2202.32 4734.92,2201.72 4734.92,2201.03L4734.92,2200.31C4734.92,2199.54 4734.21,2198.91 4733.29,2198.86C4733.29,2198.86 4690.12,2196.44 4641.88,2182.01C4614.48,2173.82 4585.44,2161.76 4561.78,2144.03C4561.78,2144.03 4568.68,2117 4568.68,2117C4568.8,2116.53 4568.59,2116.05 4568.14,2115.75C4567.69,2115.45 4567.08,2115.38 4566.56,2115.58L4529.89,2129.36C4529.7,2129.42 4529.54,2129.52 4529.41,2129.64C4529.41,2129.64 4525.1,2133.45 4524.53,2142.85C4524.23,2147.75 4524.95,2154.23 4527.92,2162.54C4527.87,2163.16 4527.55,2165.48 4525.46,2167.76C4524.25,2169.09 4522.45,2170.39 4519.78,2171.34C4514.16,2173.36 4508.89,2175.02 4506.18,2178.03C4504.38,2180.02 4503.58,2182.58 4504.49,2186.2C4504.49,2186.2 4479.58,2196.53 4479.58,2196.53C4479.18,2196.69 4478.91,2197.01 4478.87,2197.38C4478.82,2197.75 4479.01,2198.11 4479.36,2198.33C4479.36,2198.33 4490.74,2205.71 4506.54,2214.87C4515.01,2219.78 4524.75,2225.2 4534.69,2230.27C4550.4,2238.28 4583.27,2255.55 4612.01,2271.13C4635.21,2283.7 4655.72,2295.17 4662.31,2299.76C4671.77,2306.36 4699.56,2318.24 4725.71,2317.99C4740.76,2317.85 4755.27,2313.71 4765.49,2302.33L4765.49,2302.61ZM4722.39,2200.84C4704.77,2202.19 4687.06,2200.07 4671.21,2196.62C4638.51,2189.5 4613.69,2176.7 4613.69,2176.7C4613.14,2176.42 4612.44,2176.41 4611.88,2176.69C4611.32,2176.96 4610.99,2177.47 4611.03,2178.01L4612.47,2200.38C4612.5,2200.78 4612.72,2201.15 4613.08,2201.41L4636.92,2218.11C4655.15,2233.45 4676.22,2243.29 4695.95,2249.59C4724.14,2258.59 4749.58,2260.37 4759.99,2260.7C4744.42,2269.24 4727.4,2271.89 4711.03,2271.31C4669.34,2269.84 4631.73,2247.57 4631.73,2247.57C4631.16,2247.23 4630.38,2247.28 4629.87,2247.69C4629.37,2248.1 4629.3,2248.75 4629.7,2249.23C4646.56,2269.25 4668.27,2281.85 4689.36,2289.76C4723.02,2302.41 4755.07,2303.09 4763.09,2303.05L4763.09,2303.05C4753.21,2313.01 4739.68,2316.64 4725.7,2316.72C4699.99,2316.88 4672.73,2305.14 4663.46,2298.63C4656.87,2294 4636.34,2282.42 4613.11,2269.73C4584.42,2254.05 4551.61,2236.67 4535.93,2228.61C4526.05,2223.53 4516.37,2218.11 4507.96,2213.19C4495.77,2206.08 4486.23,2200.04 4482.57,2197.69C4482.57,2197.69 4506.63,2187.8 4506.63,2187.8C4507.2,2187.56 4507.49,2187.03 4507.33,2186.53C4506.34,2183.3 4506.82,2181.07 4508.35,2179.38C4510.83,2176.64 4515.74,2175.28 4520.88,2173.45C4524.07,2172.31 4526.22,2170.74 4527.68,2169.16C4530.74,2165.84 4530.74,2162.41 4530.74,2162.41C4530.74,2162.29 4530.73,2162.18 4530.69,2162.07C4527.81,2153.99 4527.11,2147.71 4527.41,2142.97C4527.88,2135.76 4530.69,2132.24 4531.4,2131.46C4531.41,2131.46 4565.06,2118.92 4565.06,2118.92C4565.06,2118.92 4558.52,2144.22 4558.52,2144.22C4558.4,2144.67 4558.58,2145.14 4558.99,2145.45C4583.05,2163.75 4612.73,2176.22 4640.73,2184.64C4674.87,2194.91 4706.52,2199.19 4722.39,2200.84Z"/>
                    </g>
                    <g transform="matrix(1,0,0,1,-231.892,325.461)">
                        <path d="M626.157,777.226C626.037,777.665 626.084,778.217 626.345,778.862C626.726,779.804 627.656,781.062 629.052,782.531C631.253,784.846 634.644,787.766 638.706,790.902C640.819,792.533 643.114,794.224 645.519,795.915C647.219,797.11 648.973,798.306 650.758,799.478C653.412,801.22 656.126,802.919 658.801,804.531C667.199,809.594 675.177,813.821 679.786,815.684C680.049,815.799 680.355,815.678 680.47,815.416C680.584,815.153 680.464,814.847 680.202,814.733C677.317,813.371 673.113,810.915 668.302,807.9C664.692,805.638 660.758,803.05 656.786,800.368C654.763,799.002 652.735,797.607 650.729,796.232C647.598,794.085 644.537,791.96 641.726,789.929C636.449,786.118 632.042,782.67 629.677,780.135C628.973,779.38 628.449,778.731 628.174,778.181C628.073,777.978 627.967,777.825 627.999,777.687C628.126,777.178 627.816,776.662 627.308,776.535C626.8,776.408 626.284,776.718 626.157,777.226Z"/>
                    </g>
                    <g transform="matrix(0.768991,0,0,0.926523,-3081.25,-921.753)">
                        <path d="M4528.69,2163.55C4528.69,2163.55 4529.79,2165.69 4530.65,2169.44C4530.83,2170.19 4531,2171 4531.17,2171.88C4531.27,2172.4 4531.37,2172.95 4531.48,2173.51C4531.72,2174.78 4531.96,2176.15 4532.12,2177.64C4532.33,2179.58 4532.49,2181.67 4532.38,2183.97C4532.33,2184.27 4532.59,2184.56 4532.96,2184.6C4533.33,2184.64 4533.67,2184.42 4533.72,2184.12C4534.36,2181.79 4534.76,2179.63 4534.92,2177.61C4535.05,2176.02 4535.03,2174.55 4534.9,2173.18C4534.85,2172.56 4534.75,2171.97 4534.64,2171.41C4534.45,2170.47 4534.22,2169.59 4533.95,2168.8C4532.6,2164.74 4530.85,2162.56 4530.85,2162.56C4530.52,2162.06 4529.77,2161.88 4529.17,2162.16C4528.57,2162.43 4528.36,2163.05 4528.69,2163.55Z"/>
                    </g>
                    <g transform="matrix(0.768991,0,0,0.926523,-3080.74,-920.295)">
                        <path d="M4796.25,2266.24C4796.25,2266.24 4817.05,2322.76 4828.1,2337.49C4839.15,2352.22 4845.59,2395.49 4845.59,2395.49L4756.11,2395.12C4756.11,2395.12 4745.98,2327.09 4740.09,2317.38C4740.09,2317.38 4781.15,2302.89 4796.25,2266.24Z" style="fill:rgb(179,106,80);"/>
                        <path d="M4797.43,2266.07C4797.27,2265.84 4796.81,2265.68 4796.27,2265.68C4795.73,2265.67 4795.25,2265.83 4795.08,2266.05L4795.61,2266.05C4790.39,2278.48 4782.17,2288.32 4773.61,2295.88C4757.23,2310.36 4739.63,2316.48 4739.63,2316.48C4739.34,2316.59 4739.1,2316.79 4738.99,2317.04C4738.88,2317.3 4738.9,2317.58 4739.05,2317.82C4740.89,2320.89 4743.08,2329.84 4745.27,2340.6C4749.98,2363.78 4754.51,2395.28 4754.51,2395.28C4754.61,2395.95 4755.29,2396.46 4756.1,2396.46C4756.1,2396.46 4778.47,2396.63 4800.84,2396.75C4823.21,2396.87 4845.58,2396.94 4845.58,2396.94C4846.09,2396.94 4846.56,2396.76 4846.9,2396.45C4847.23,2396.14 4847.39,2395.72 4847.32,2395.31C4847.32,2395.31 4844.53,2376.7 4839.46,2359.7C4836.75,2350.6 4833.36,2341.96 4829.45,2336.79C4825.45,2331.49 4820.15,2320.71 4815.02,2309.14C4805.96,2288.76 4797.43,2265.94 4797.43,2265.94L4797.43,2266.07ZM4795.89,2268.77C4798.19,2275.02 4805.04,2293.3 4812.27,2309.97C4817.39,2321.78 4822.72,2332.77 4826.75,2338.19C4830.48,2343.2 4833.63,2351.57 4836.21,2360.37C4840.26,2374.23 4842.82,2389.16 4843.61,2394.03C4837.65,2394 4819.25,2393.91 4800.86,2393.86C4781.82,2393.8 4762.78,2393.78 4757.53,2393.78C4756.6,2387.86 4752.29,2360.77 4747.87,2340.22C4745.7,2330.14 4743.47,2321.63 4741.64,2317.86C4745.75,2316.22 4760.87,2309.69 4774.98,2296.93C4783.02,2289.65 4790.74,2280.35 4795.89,2268.77L4795.89,2268.77Z"/>
                    </g>
                    <g transform="matrix(0.768991,0,0,0.926523,-3080.74,-920.295)">
                        <path d="M4774.4,2295.49C4774.4,2295.49 4777.48,2305.91 4781.59,2319.14C4782.53,2322.18 4783.54,2325.35 4784.58,2328.58C4785.25,2330.66 4785.94,2332.76 4786.65,2334.86C4788.46,2340.21 4790.32,2345.55 4792.05,2350.49C4796.66,2363.62 4800.38,2373.89 4800.38,2373.89C4800.48,2374.19 4800.85,2374.37 4801.21,2374.29C4801.57,2374.21 4801.78,2373.9 4801.69,2373.6C4801.69,2373.6 4798.7,2363.16 4794.76,2349.89C4793.27,2344.89 4791.65,2339.5 4789.98,2334.11C4789.33,2332.01 4788.65,2329.9 4787.98,2327.82C4786.93,2324.59 4785.88,2321.43 4784.86,2318.41C4780.42,2305.25 4776.79,2294.95 4776.79,2294.95C4776.61,2294.41 4775.93,2294.08 4775.27,2294.23C4774.62,2294.38 4774.23,2294.94 4774.4,2295.49Z"/>
                    </g>
                    <g transform="matrix(0.768991,0,0,0.926523,-3080.74,-920.295)">
                        <path d="M4766.43,2302.15C4766.43,2302.15 4768.3,2309.14 4770.87,2318C4771.46,2320.03 4772.09,2322.16 4772.76,2324.32C4773.19,2325.71 4773.64,2327.11 4774.1,2328.51C4775.28,2332.09 4776.52,2335.65 4777.67,2338.95C4780.74,2347.71 4783.26,2354.56 4783.26,2354.56C4783.35,2354.86 4783.72,2355.04 4784.08,2354.96C4784.44,2354.88 4784.66,2354.58 4784.57,2354.28C4784.57,2354.28 4782.79,2347.27 4780.38,2338.37C4779.48,2335.02 4778.48,2331.41 4777.44,2327.8C4777.03,2326.39 4776.6,2324.98 4776.17,2323.59C4775.5,2321.43 4774.82,2319.31 4774.15,2317.3C4771.24,2308.51 4768.82,2301.64 4768.82,2301.64C4768.65,2301.09 4767.98,2300.76 4767.32,2300.9C4766.65,2301.04 4766.26,2301.6 4766.43,2302.15Z"/>
                    </g>
                    <g transform="matrix(0.768991,0,0,0.926523,-3080.74,-920.295)">
                        <path d="M4751.76,2174.74C4751.76,2174.74 4751.97,2175.43 4751.97,2177.8C4751.97,2179.02 4751.91,2180.64 4751.73,2182.79C4751.65,2183.91 4751.45,2186.13 4750.89,2188.18C4750.57,2189.32 4750.17,2190.4 4749.52,2191.14C4748.45,2192.4 4747.24,2193.42 4745.95,2194.26C4743.74,2195.71 4741.32,2196.63 4738.9,2197.19C4731.93,2198.78 4725.23,2197.52 4725.23,2197.52C4724.87,2197.43 4724.49,2197.61 4724.39,2197.9C4724.29,2198.2 4724.49,2198.51 4724.85,2198.6C4724.85,2198.6 4731.89,2200.58 4739.52,2199.4C4742.37,2198.96 4745.31,2198.06 4747.97,2196.49C4749.57,2195.54 4751.04,2194.33 4752.37,2192.85C4753.25,2191.82 4753.89,2190.35 4754.26,2188.78C4754.8,2186.54 4754.87,2184.11 4754.89,2182.89C4754.91,2180.66 4754.85,2178.98 4754.74,2177.72C4754.5,2174.86 4754.09,2174.06 4754.09,2174.06C4753.86,2173.52 4753.16,2173.24 4752.52,2173.43C4751.87,2173.62 4751.54,2174.21 4751.76,2174.74Z"/>
                    </g>
                    <g transform="matrix(0.768991,0,0,0.926523,-3080.74,-920.295)">
                        <path d="M4551.74,2133.56C4551.74,2133.56 4551.24,2137.38 4558.04,2144.3C4560.34,2146.65 4563.51,2149.38 4567.91,2152.41C4569.48,2153.5 4571.23,2154.63 4573.15,2155.78C4575.6,2157.24 4578.34,2158.75 4581.41,2160.3C4587.37,2163.33 4594.55,2166.51 4603.13,2169.92C4603.46,2170.06 4603.86,2169.96 4604.04,2169.68C4604.21,2169.41 4604.08,2169.07 4603.75,2168.93C4595.55,2165.07 4588.77,2161.46 4583.07,2158.19C4580.17,2156.53 4577.56,2154.95 4575.2,2153.47C4573.37,2152.31 4571.68,2151.21 4570.14,2150.17C4565.9,2147.29 4562.75,2144.78 4560.44,2142.61C4554.29,2136.82 4554.21,2133.67 4554.21,2133.67C4554.25,2133.1 4553.72,2132.62 4553.04,2132.59C4552.36,2132.56 4551.78,2132.99 4551.74,2133.56Z"/>
                    </g>
                    <g transform="matrix(0.768991,0,0,0.926523,-3080.74,-920.295)">
                        <path d="M4552.32,2187.93C4552.32,2187.93 4572.2,2198.62 4590.54,2212.93C4598.49,2219.14 4606.18,2226.02 4611.76,2233.03C4616.25,2238.62 4622.85,2244.13 4630.97,2249.14C4641.04,2255.35 4653.43,2260.81 4666.83,2264.9C4688.15,2271.41 4712.04,2274.39 4733.28,2271.33C4733.65,2271.28 4733.9,2270.99 4733.84,2270.69C4733.78,2270.38 4733.43,2270.18 4733.07,2270.22C4712.08,2272.85 4688.68,2269.42 4667.83,2262.7C4654.82,2258.49 4642.82,2252.99 4633.03,2246.85C4625.31,2242.01 4618.95,2236.78 4614.66,2231.43C4608.88,2224.28 4600.98,2217.25 4592.74,2210.97C4574,2196.69 4553.64,2186.2 4553.64,2186.2C4553.06,2185.89 4552.3,2186.03 4551.94,2186.51C4551.57,2186.99 4551.74,2187.62 4552.32,2187.93Z"/>
                    </g>
                    <g transform="matrix(0.768991,0,0,0.926523,-3080.74,-920.295)">
                        <path d="M4579.84,2201.19C4579.84,2201.19 4589.18,2205.94 4602.77,2212.73C4605.66,2214.17 4608.75,2215.7 4611.99,2217.28C4613.99,2218.26 4616.05,2219.26 4618.16,2220.27C4623.15,2222.65 4628.39,2225.11 4633.71,2227.6C4641.49,2231.25 4649.46,2234.93 4657.07,2238.53C4657.39,2238.69 4657.81,2238.61 4658,2238.34C4658.19,2238.08 4658.09,2237.73 4657.77,2237.57C4650.4,2233.64 4642.72,2229.54 4635.14,2225.6C4629.95,2222.91 4624.84,2220.28 4619.92,2217.81C4617.83,2216.76 4615.78,2215.75 4613.77,2214.77C4610.53,2213.19 4607.41,2211.69 4604.48,2210.3C4590.7,2203.78 4581.08,2199.42 4581.08,2199.42C4580.49,2199.14 4579.73,2199.3 4579.39,2199.79C4579.05,2200.28 4579.25,2200.91 4579.84,2201.19Z"/>
                    </g>
                </g>
                <path d="M321.159,1141.17C321.159,1141.17 387.205,1157.24 374.512,1202.12C374.512,1202.12 328.831,1246.42 313.871,1297.54L221.813,1297.54C221.813,1297.54 211.84,1278.07 231.786,1242.01C231.786,1242.01 244.444,1238.18 312.721,1237.41C312.721,1237.41 248.079,1233.64 232.839,1237.57C232.839,1237.57 237.866,1214.16 262.062,1192.47C262.062,1192.47 297.255,1186.5 325.064,1191.06C325.064,1191.06 303.854,1183.52 265.518,1188.23C265.518,1188.23 294.944,1157.99 321.159,1141.17Z" style="fill:rgb(154,91,27);"/>
                <path d="M320.879,1140.73C313.045,1145.73 304.922,1151.92 297.377,1158.15C279.586,1172.83 265.011,1187.74 265.011,1187.74C264.801,1187.95 264.75,1188.28 264.884,1188.55C265.018,1188.82 265.307,1188.97 265.605,1188.93C277.143,1187.55 287.122,1187.27 295.431,1187.55C300.554,1187.73 305.039,1188.12 308.86,1188.6C303.633,1188.38 298.431,1188.39 293.495,1188.55C276.037,1189.12 261.894,1191.49 261.894,1191.49C261.707,1191.52 261.533,1191.6 261.392,1191.73C253.563,1198.71 247.715,1205.88 243.38,1212.4C234.112,1226.34 231.746,1237.33 231.746,1237.33C231.664,1237.71 231.785,1238.1 232.064,1238.37C232.344,1238.64 232.743,1238.75 233.118,1238.65C237.629,1237.5 246.515,1237.05 256.75,1236.97C261.822,1236.92 267.223,1236.98 272.591,1237.08C269.506,1237.21 266.642,1237.34 263.985,1237.48C237.492,1238.85 231.395,1240.72 231.395,1240.72C231.06,1240.83 230.777,1241.05 230.608,1241.36C223.25,1254.66 219.913,1265.73 218.638,1274.44C216.359,1289.99 220.615,1298.15 220.615,1298.15C220.845,1298.6 221.308,1298.88 221.813,1298.88L313.871,1298.81C314.439,1298.81 314.938,1298.44 315.098,1297.89C320.467,1279.46 329.865,1261.91 339.649,1247.03C356.861,1220.86 375.287,1202.92 375.287,1202.92C375.428,1202.78 375.53,1202.61 375.584,1202.42C379.66,1187.92 375.755,1176.35 368.474,1167.3C352.829,1147.87 321.384,1140.25 321.384,1140.25L320.879,1140.73ZM320.935,1142.09C320.935,1142.09 351.63,1149.59 366.833,1168.62C373.632,1177.13 377.286,1187.98 373.52,1201.53C371.401,1203.61 353.986,1221 337.639,1245.71C327.848,1260.51 318.447,1277.93 312.919,1296.26C312.919,1296.26 222.697,1296.19 222.697,1296.19C221.83,1293.97 219.572,1286.71 221.314,1274.83C222.539,1266.47 225.727,1255.88 232.682,1243.17C234.576,1242.74 242.274,1241.29 264.125,1240.12C275.859,1239.49 291.639,1238.93 312.735,1238.67C313.414,1238.66 313.966,1238.12 313.982,1237.44C313.998,1236.76 313.473,1236.19 312.794,1236.15C312.794,1236.15 281.004,1234.35 256.727,1234.63C247.496,1234.74 239.342,1235.17 234.381,1236.09C235.4,1232.55 238.348,1223.9 245.153,1213.57C249.338,1207.22 254.976,1200.24 262.516,1193.42C264.598,1193.07 277.695,1191 293.559,1190.41C303.604,1190.04 314.759,1190.27 324.926,1191.91C325.363,1191.98 325.784,1191.7 325.894,1191.27C326.005,1190.84 325.769,1190.4 325.351,1190.25C325.351,1190.25 314.923,1186.56 295.481,1185.99C287.593,1185.76 278.215,1186.04 267.442,1187.29C271.489,1183.2 283.751,1171.07 298.139,1159.07C305.617,1152.83 313.668,1146.62 321.44,1141.61L320.935,1142.09Z"/>
                <path d="M344.818,1237.28C344.818,1237.28 371.719,1267.05 373.25,1280.32L364.928,1299.18C364.928,1299.18 347.231,1274.49 330.539,1260.01C330.539,1260.01 339.991,1241.71 344.818,1237.28Z" style="fill:rgb(154,67,27);"/>
                <path d="M345.522,1236.94C345.352,1236.83 345.115,1236.77 344.862,1236.77C344.609,1236.76 344.363,1236.81 344.176,1236.9L344.467,1236.9C342.684,1238.49 340.265,1241.89 337.906,1245.6C333.751,1252.13 329.771,1259.61 329.771,1259.61C329.588,1259.97 329.672,1260.4 329.973,1260.66C334.884,1265.02 339.862,1270.29 344.455,1275.53C355.246,1287.83 363.836,1299.96 363.836,1299.96C364.117,1300.35 364.587,1300.57 365.066,1300.52C365.546,1300.47 365.962,1300.16 366.157,1299.72L374.468,1280.86C374.563,1280.64 374.599,1280.4 374.572,1280.17C373.978,1275.26 370.065,1268.13 365.195,1261.07C356.731,1248.8 345.522,1236.65 345.522,1236.65L345.522,1236.94ZM344.497,1238.36C346.493,1240.64 355.879,1251.54 363.178,1262.44C367.56,1268.98 371.23,1275.5 371.884,1280.12C371.884,1280.12 364.633,1296.52 364.633,1296.52C362.142,1293.2 356.517,1285.87 349.59,1277.97C344.105,1271.71 337.794,1265.1 331.617,1259.79C332.596,1257.87 335.75,1251.76 339.032,1246.29C340.951,1243.1 342.907,1240.12 344.497,1238.36Z"/>
                <g transform="matrix(0.842392,-0.538865,0.538865,0.842392,-552.859,391.956)">
                    <ellipse cx="388.221" cy="1161.61" rx="2.815" ry="4.344" style="fill:rgb(118,60,34);"/>
                    <path d="M388.221,1156.75C387.312,1156.67 386.456,1157.14 385.756,1157.96C385.017,1158.83 384.532,1160.13 384.412,1161.61C384.309,1163.15 384.709,1164.55 385.346,1165.55C386.05,1166.66 387.112,1167.23 388.221,1167.28C389.348,1167.29 390.431,1166.71 391.2,1165.62C391.901,1164.63 392.339,1163.2 392.299,1161.61C392.221,1160.05 391.74,1158.67 390.991,1157.74C390.225,1156.8 389.252,1156.25 388.221,1156.32L388.221,1156.75ZM388.221,1158.21C388.765,1158.25 389.125,1158.77 389.411,1159.39C389.695,1160.01 389.816,1160.78 389.775,1161.61C389.752,1162.42 389.535,1163.15 389.217,1163.73C389.064,1164 388.885,1164.24 388.676,1164.41C388.536,1164.53 388.391,1164.62 388.221,1164.63C387.765,1164.65 387.389,1164.29 387.092,1163.8C386.733,1163.21 386.458,1162.46 386.399,1161.61C386.328,1160.72 386.43,1159.89 386.715,1159.22C387.05,1158.44 387.544,1157.84 388.221,1157.79L388.221,1158.21Z"/>
                </g>
                <g transform="matrix(0.842392,-0.538865,0.538865,0.842392,-526.838,423.118)">
                    <ellipse cx="388.221" cy="1161.61" rx="2.815" ry="4.344" style="fill:rgb(118,60,34);"/>
                    <path d="M388.221,1156.75C387.312,1156.67 386.456,1157.14 385.756,1157.96C385.017,1158.83 384.532,1160.13 384.412,1161.61C384.309,1163.15 384.709,1164.55 385.346,1165.55C386.05,1166.66 387.112,1167.23 388.221,1167.28C389.348,1167.29 390.431,1166.71 391.2,1165.62C391.901,1164.63 392.339,1163.2 392.299,1161.61C392.221,1160.05 391.74,1158.67 390.991,1157.74C390.225,1156.8 389.252,1156.25 388.221,1156.32L388.221,1156.75ZM388.221,1158.21C388.765,1158.25 389.125,1158.77 389.411,1159.39C389.695,1160.01 389.816,1160.78 389.775,1161.61C389.752,1162.42 389.535,1163.15 389.217,1163.73C389.064,1164 388.885,1164.24 388.676,1164.41C388.536,1164.53 388.391,1164.62 388.221,1164.63C387.765,1164.65 387.389,1164.29 387.092,1163.8C386.733,1163.21 386.458,1162.46 386.399,1161.61C386.328,1160.72 386.43,1159.89 386.715,1159.22C387.05,1158.44 387.544,1157.84 388.221,1157.79L388.221,1158.21Z"/>
                </g>
                <g transform="matrix(0.842392,-0.538865,0.538865,0.842392,-499.688,456.904)">
                    <ellipse cx="388.221" cy="1161.61" rx="2.815" ry="4.344" style="fill:rgb(118,60,34);"/>
                    <path d="M388.221,1156.75C387.312,1156.67 386.456,1157.14 385.756,1157.96C385.017,1158.83 384.532,1160.13 384.412,1161.61C384.309,1163.15 384.709,1164.55 385.346,1165.55C386.05,1166.66 387.112,1167.23 388.221,1167.28C389.348,1167.29 390.431,1166.71 391.2,1165.62C391.901,1164.63 392.339,1163.2 392.299,1161.61C392.221,1160.05 391.74,1158.67 390.991,1157.74C390.225,1156.8 389.252,1156.25 388.221,1156.32L388.221,1156.75ZM388.221,1158.21C388.765,1158.25 389.125,1158.77 389.411,1159.39C389.695,1160.01 389.816,1160.78 389.775,1161.61C389.752,1162.42 389.535,1163.15 389.217,1163.73C389.064,1164 388.885,1164.24 388.676,1164.41C388.536,1164.53 388.391,1164.62 388.221,1164.63C387.765,1164.65 387.389,1164.29 387.092,1163.8C386.733,1163.21 386.458,1162.46 386.399,1161.61C386.328,1160.72 386.43,1159.89 386.715,1159.22C387.05,1158.44 387.544,1157.84 388.221,1157.79L388.221,1158.21Z"/>
                </g>
                <g transform="matrix(0.842392,-0.538865,0.538865,0.842392,-474.751,491.092)">
                    <ellipse cx="388.221" cy="1161.61" rx="2.815" ry="4.344" style="fill:rgb(118,60,34);"/>
                    <path d="M388.221,1156.75C387.312,1156.67 386.456,1157.14 385.756,1157.96C385.017,1158.83 384.532,1160.13 384.412,1161.61C384.309,1163.15 384.709,1164.55 385.346,1165.55C386.05,1166.66 387.112,1167.23 388.221,1167.28C389.348,1167.29 390.431,1166.71 391.2,1165.62C391.901,1164.63 392.339,1163.2 392.299,1161.61C392.221,1160.05 391.74,1158.67 390.991,1157.74C390.225,1156.8 389.252,1156.25 388.221,1156.32L388.221,1156.75ZM388.221,1158.21C388.765,1158.25 389.125,1158.77 389.411,1159.39C389.695,1160.01 389.816,1160.78 389.775,1161.61C389.752,1162.42 389.535,1163.15 389.217,1163.73C389.064,1164 388.885,1164.24 388.676,1164.41C388.536,1164.53 388.391,1164.62 388.221,1164.63C387.765,1164.65 387.389,1164.29 387.092,1163.8C386.733,1163.21 386.458,1162.46 386.399,1161.61C386.328,1160.72 386.43,1159.89 386.715,1159.22C387.05,1158.44 387.544,1157.84 388.221,1157.79L388.221,1158.21Z"/>
                </g>
            </g>
        </g>
    </g>
</svg>
