<?xml version="1.0" encoding="UTF-8" standalone="no"?>
<!DOCTYPE svg PUBLIC "-//W3C//DTD SVG 1.1//EN" "http://www.w3.org/Graphics/SVG/1.1/DTD/svg11.dtd">
<svg width="100%" height="100%" viewBox="0 0 65 88" version="1.1" xmlns="http://www.w3.org/2000/svg" xmlns:xlink="http://www.w3.org/1999/xlink" xml:space="preserve" xmlns:serif="http://www.serif.com/" style="fill-rule:evenodd;clip-rule:evenodd;stroke-linejoin:round;stroke-miterlimit:2;">
    <g transform="matrix(1,0,0,1,-227.284,-278.998)">
        <g transform="matrix(0.97604,0,0,0.97604,1208.18,669.533)">
            <g id="ear" transform="matrix(1.02455,0,0,1.02455,-1624.01,-968.744)">
                <path d="M654.878,576.783C654.878,576.783 646.515,568.521 642.283,564.793C638.051,561.064 632.206,555.041 622.432,556.592C612.658,558.142 609.232,563.785 606.613,573.861C603.993,583.938 606.814,595.324 608.527,601.168C610.24,607.012 620.216,621.22 629.99,627.265C639.764,633.311 644.802,638.45 646.918,639.659C649.034,640.868 658.707,642.884 662.032,635.73C665.357,628.575 666.869,627.769 666.869,627.769" style="fill:rgb(205,140,72);"/>
                <path d="M655.545,576.108C655.545,576.108 651.825,572.371 648.101,568.768C646.252,566.98 644.403,565.226 643.004,563.974C640.161,561.434 636.593,557.904 631.649,556.174C628.95,555.23 625.848,554.816 622.238,555.365C616.779,556.204 613.172,558.275 610.549,561.552C608.19,564.499 606.645,568.471 605.315,573.524C604.342,577.254 604.077,581.157 604.241,584.91C604.531,591.551 606.145,597.709 607.278,601.534C608.272,604.843 611.828,610.773 616.552,616.434C620.37,621.009 624.94,625.412 629.446,628.144C632.103,629.751 634.41,631.295 636.404,632.713C641.81,636.56 644.953,639.5 646.512,640.369C647.807,641.09 651.729,642.1 655.499,641.369C658.349,640.816 661.109,639.3 662.602,635.994C663.598,633.786 664.426,632.184 665.097,631.025C666.49,628.618 667.113,628.227 667.113,628.227C667.366,628.092 667.461,627.778 667.327,627.525C667.192,627.272 666.877,627.176 666.624,627.311C666.624,627.311 665.976,627.612 664.64,629.642C663.854,630.835 662.803,632.666 661.462,635.465C660.115,638.282 657.702,639.524 655.239,639.946C651.899,640.519 648.451,639.611 647.323,638.95C645.803,638.06 642.776,635.08 637.521,631.177C635.521,629.692 633.204,628.076 630.533,626.387C626.26,623.691 621.976,619.372 618.385,614.929C614.016,609.524 610.671,603.933 609.776,600.802C608.86,597.639 607.629,592.824 607.124,587.486C606.719,583.202 606.775,578.573 607.91,574.199C609.101,569.559 610.447,565.89 612.589,563.171C614.823,560.335 617.939,558.585 622.627,557.818C626.682,557.147 630.021,557.874 632.829,559.198C636.482,560.918 639.261,563.614 641.561,565.612C642.963,566.827 644.818,568.531 646.673,570.269C650.442,573.797 654.211,577.459 654.211,577.459C654.583,577.827 655.185,577.823 655.553,577.451C655.921,577.078 655.918,576.476 655.545,576.108Z"/>
                <path d="M636.551,575.933C636.551,575.933 635.126,577.146 633.598,579.154C633.262,579.596 632.931,580.083 632.619,580.605C632.422,580.935 632.233,581.279 632.064,581.64C631.655,582.518 631.311,583.452 631.066,584.425C630.695,585.895 630.534,587.385 630.68,588.858C630.67,589.144 630.895,589.384 631.181,589.394C631.468,589.403 631.708,589.179 631.717,588.892C631.935,587.595 632.467,586.378 633.082,585.179C633.367,584.625 633.685,584.101 633.993,583.572C634.311,583.026 634.64,582.501 634.945,581.986C635.466,581.105 635.945,580.279 636.388,579.58C637.287,578.159 637.938,577.23 637.938,577.23C638.296,576.848 638.276,576.247 637.893,575.889C637.51,575.531 636.909,575.551 636.551,575.933Z"/>
                <path d="M619.551,589.117C619.551,589.117 619.35,584.901 619.436,580.787C619.478,578.783 619.586,576.804 619.831,575.371C620.197,573.231 620.454,571.216 621.65,569.991C622.584,569.033 624.112,568.721 626.685,569.114C629.078,569.472 630.71,570.448 632.058,571.732C634.378,573.942 635.944,576.977 638.608,579.652C639.917,580.951 640.963,582.162 641.788,583.215C643.614,585.544 644.326,587.078 644.326,587.078C644.364,587.165 644.412,587.247 644.468,587.323C644.468,587.323 644.907,587.917 645.055,588.799C645.133,589.261 645.137,589.804 644.944,590.383C644.446,591.88 643.785,593.387 643.376,595.105C643.12,596.18 642.955,597.333 642.975,598.608C643.008,600.717 642.656,601.981 643.058,603.196C643.335,604.032 643.907,604.88 645.174,605.877C646.194,606.678 647.314,607.389 648.339,607.967C649.519,608.633 650.568,609.127 651.171,609.397C651.137,610.485 650.983,612.903 650.304,614.951C649.867,616.268 649.248,617.458 648.196,617.872C646.607,618.499 645.796,618.78 645.04,618.535C644.281,618.288 643.605,617.58 642.34,616.412C642.134,616.214 641.805,616.22 641.606,616.426C641.408,616.632 641.414,616.961 641.62,617.16C643.01,618.554 643.793,619.342 644.649,619.659C645.585,620.006 646.637,619.833 648.662,619.126C650.078,618.631 651.075,617.177 651.721,615.452C652.82,612.521 652.932,608.836 652.932,608.836C652.937,608.482 652.727,608.16 652.402,608.021C652.402,608.021 650.993,607.383 649.294,606.343C648.368,605.777 647.357,605.089 646.444,604.318C645.641,603.641 645.233,603.117 645.07,602.565C644.949,602.153 644.975,601.735 645.016,601.253C645.078,600.523 645.201,599.681 645.217,598.608C645.234,597.538 645.407,596.576 645.647,595.68C646.087,594.044 646.763,592.618 647.279,591.195C647.645,590.184 647.67,589.229 647.554,588.411C647.378,587.178 646.853,586.261 646.639,585.928C646.454,585.525 645.652,583.887 643.892,581.586C643.021,580.448 641.907,579.146 640.516,577.744C637.823,575.062 636.239,572.004 633.883,569.799C632.165,568.191 630.079,566.987 627.047,566.576C623.328,566.08 621.2,566.897 619.884,568.306C618.425,569.869 617.968,572.331 617.577,575.014C617.355,576.541 617.28,578.644 617.293,580.771C617.319,584.957 617.656,589.237 617.656,589.237C617.689,589.76 618.141,590.158 618.664,590.125C619.186,590.091 619.584,589.64 619.551,589.117Z"/>
            </g>
        </g>
    </g>
</svg>
