<?xml version="1.0" encoding="UTF-8" standalone="no"?>
<!DOCTYPE svg PUBLIC "-//W3C//DTD SVG 1.1//EN" "http://www.w3.org/Graphics/SVG/1.1/DTD/svg11.dtd">
<svg width="100%" height="100%" viewBox="0 0 370 343" version="1.1" xmlns="http://www.w3.org/2000/svg" xmlns:xlink="http://www.w3.org/1999/xlink" xml:space="preserve" xmlns:serif="http://www.serif.com/" style="fill-rule:evenodd;clip-rule:evenodd;stroke-linejoin:round;stroke-miterlimit:2;">
    <g transform="matrix(1,0,0,1,-173.931,-47.8675)">
        <g transform="matrix(0.97604,0,0,0.97604,1208.18,669.533)">
            <g id="hair3" transform="matrix(1.02455,0,0,1.02455,-1624.01,-968.744)">
                <g transform="matrix(0.932608,0,0,0.932608,-1032.95,-659.957)">
                    <path d="M2050.3,1269.69C2050.78,1268.19 2051.71,1266.04 2050.53,1261.79C2049.65,1258.61 2048.02,1253.5 2041.81,1250.74C2041.37,1250.54 2041.41,1249.86 2041.21,1249.41C2031.41,1227.94 2016.51,1196.47 2011.09,1191.36C2011.09,1191.36 2003.32,1198.85 1994.71,1188.27C1994.71,1188.27 1990.69,1190.15 1988.05,1187.38C1988.05,1187.38 1980.62,1189.02 1979.48,1181.08C1979.48,1181.08 1976.84,1183.98 1974.44,1181.58C1974.44,1181.58 1971.8,1197.45 1939.3,1183.73C1939.3,1183.73 1932.38,1195.44 1914.37,1183.73C1914.37,1183.73 1907.31,1204.76 1877.34,1191.53C1877.34,1191.53 1871.92,1200.1 1867.26,1196.45C1867.26,1196.45 1869.53,1211.69 1864.61,1211.31C1864.61,1211.31 1862.35,1213.58 1860.08,1214.96C1857.81,1216.35 1854.29,1219.5 1854.29,1225.16C1854.29,1230.83 1847.11,1234.23 1847.11,1234.23C1847.11,1234.23 1849.25,1242.04 1849.75,1245.19C1850.26,1248.34 1853.53,1257.15 1838.92,1266.22C1824.31,1275.29 1827.96,1275.29 1828.09,1280.2C1828.21,1285.12 1829.22,1290.28 1829.22,1290.28C1829.22,1290.28 1817.88,1292.8 1818.52,1298.47C1819.14,1304.13 1821.79,1319.25 1821.29,1322.78C1820.78,1326.3 1819.52,1331.97 1817.63,1332.35C1815.74,1332.73 1812.88,1332.17 1809.99,1325.37C1807.09,1318.57 1798.05,1315.17 1793.01,1311.01C1787.98,1306.86 1773.65,1298.99 1764.27,1312.63C1755.9,1324.79 1756.87,1330.91 1758.64,1340.23C1760.4,1349.55 1757.63,1358.94 1783.77,1379.48C1783.77,1379.48 1796.9,1390.14 1802.08,1393.9L1801.48,1420.39C1801.48,1420.39 1787.31,1419.92 1785.74,1409.05C1785.74,1409.05 1763.85,1414.88 1763.85,1395.04C1763.85,1395.04 1737.25,1396.46 1747.8,1370.01C1747.8,1370.01 1724.65,1359.46 1728.9,1337.58C1728.9,1337.58 1713.32,1321.99 1723.87,1304.04C1723.87,1304.04 1696.99,1293.55 1705.26,1269.34C1705.26,1269.34 1692.86,1242.97 1706.24,1235.69C1706.24,1235.69 1706.04,1200.86 1727.69,1194.16C1727.69,1194.16 1726.12,1179.8 1735.76,1176.45C1735.76,1176.45 1725.33,1144.77 1755.24,1142.4C1755.24,1142.4 1753.28,1106.59 1790.27,1111.7C1790.27,1111.7 1803.26,1073.72 1838.88,1080.81C1838.88,1080.81 1848.33,1055.62 1881,1071.75C1881,1071.75 1904.22,1036.72 1947.71,1072.34C1947.71,1072.34 1962.28,1049.91 1981.17,1071.75C1981.17,1071.75 2022.89,1056.6 2023.48,1088.68C2023.48,1088.68 2052.02,1083.56 2051.23,1101.08L2051.62,1108.36C2051.62,1108.36 2077.01,1115.64 2071.89,1144.57C2071.89,1144.57 2094.72,1152.64 2087.44,1171.73C2087.44,1171.73 2102.01,1190.42 2084.1,1200.86C2084.1,1200.86 2097.87,1221.91 2072.88,1234.7C2072.88,1234.7 2082.09,1261.33 2051.09,1269.49C2050.83,1269.56 2050.57,1269.63 2050.3,1269.69Z" style="fill:rgb(190,79,35);"/>
                    <path d="M2049.33,1269.53C2049.22,1269.72 2049.31,1269.93 2049.56,1270.07C2049.81,1270.22 2050.19,1270.28 2050.55,1270.23L2050.44,1270.23L2051.24,1270.03C2061.53,1267.34 2067.46,1262.62 2070.79,1257.51C2076.89,1248.17 2074.34,1237.47 2073.63,1235.02C2081.72,1230.78 2085.71,1225.65 2087.44,1220.68C2090.51,1211.81 2086.33,1203.38 2085.03,1201.09C2091.41,1197.17 2093.55,1192.18 2093.72,1187.42C2093.98,1180.05 2089.38,1173.18 2088.26,1171.61C2090.88,1164.45 2089.39,1158.79 2086.46,1154.5C2082.22,1148.28 2074.91,1144.95 2072.76,1144.08C2074.33,1134.57 2072.63,1127.38 2069.66,1122.01C2064.32,1112.38 2054.84,1108.58 2052.42,1107.75C2052.42,1107.75 2052.07,1101.07 2052.07,1101.07C2052.35,1094.76 2049.07,1091.19 2044.59,1089.23C2037.59,1086.17 2027.53,1087.21 2024.34,1087.65C2023.9,1077.82 2019.55,1072.45 2013.8,1069.71C2002.34,1064.25 1984.97,1069.49 1981.47,1070.64C1975.13,1063.49 1969.23,1061.17 1964.2,1061.21C1955.63,1061.29 1949.47,1068.35 1947.52,1070.89C1934.52,1060.42 1923.31,1056.22 1913.99,1055.44C1894.58,1053.82 1883.23,1066.98 1880.65,1070.37C1870.96,1065.71 1863.29,1064.68 1857.3,1065.48C1845,1067.14 1839.61,1076.54 1838.2,1079.5C1825.48,1077.2 1815.6,1080.53 1808.15,1085.78C1796.57,1093.94 1790.88,1106.81 1789.47,1110.37C1777.02,1108.84 1768.95,1111.94 1763.69,1116.66C1754.87,1124.59 1754,1137.27 1753.95,1141.24C1743.25,1142.39 1737.73,1147.32 1735.01,1153.1C1731.02,1161.61 1733.25,1172.18 1734.17,1175.68C1731.51,1176.92 1729.7,1178.98 1728.51,1181.3C1726.27,1185.65 1726.2,1190.97 1726.29,1193.22C1719.66,1195.59 1715.05,1200.51 1711.87,1206.24C1705.71,1217.32 1704.97,1231.41 1704.88,1234.89C1700.34,1237.73 1698.7,1242.71 1698.64,1248.13C1698.54,1257.01 1702.71,1267.05 1703.76,1269.42C1700.83,1278.43 1702.56,1285.62 1705.96,1291.14C1710.64,1298.75 1718.59,1303.14 1721.87,1304.71C1718.64,1310.89 1718.29,1316.77 1719.22,1321.84C1720.74,1330.09 1725.72,1336.2 1727.36,1338.03C1725.99,1346.05 1728.13,1352.6 1731.45,1357.71C1736.12,1364.9 1743.17,1369.19 1745.98,1370.7C1742.79,1379.37 1743.6,1385.11 1745.97,1388.91C1747.94,1392.05 1751.02,1393.93 1754.12,1395.02C1757.37,1396.17 1760.62,1396.44 1762.44,1396.49C1762.82,1403.6 1766.03,1407.39 1769.9,1409.37C1775.09,1412.04 1781.69,1411.29 1784.61,1410.77C1785.35,1413.62 1786.92,1415.75 1788.83,1417.34C1793.89,1421.56 1801.43,1421.83 1801.43,1421.83C1801.82,1421.85 1802.19,1421.7 1802.48,1421.44C1802.76,1421.17 1802.92,1420.81 1802.93,1420.42L1803.52,1393.94C1803.53,1393.46 1803.31,1393.02 1802.93,1392.74C1801.14,1391.44 1798.4,1389.32 1795.58,1387.1C1790.26,1382.9 1784.68,1378.37 1784.68,1378.37C1784.67,1378.36 1784.66,1378.36 1784.66,1378.36C1773.91,1369.91 1768.12,1363.41 1764.91,1358C1760.5,1350.56 1761.03,1345.24 1760.03,1339.96C1759.06,1334.87 1758.31,1330.77 1759.35,1326.03C1760.13,1322.43 1761.95,1318.48 1765.42,1313.43C1769.12,1308.04 1773.64,1306.27 1777.98,1306.36C1783.89,1306.47 1789.42,1309.86 1792.13,1312.09C1795.63,1314.97 1801.07,1317.48 1805.02,1321.04C1806.59,1322.45 1807.92,1324.03 1808.72,1325.91C1810.04,1329 1811.38,1330.89 1812.61,1332.03C1814.63,1333.9 1816.49,1333.98 1817.9,1333.69C1818.43,1333.59 1818.95,1333.3 1819.42,1332.8C1819.92,1332.28 1820.4,1331.46 1820.81,1330.47C1821.69,1328.32 1822.32,1325.23 1822.64,1322.97C1822.83,1321.64 1822.61,1318.74 1822.2,1315.29C1821.5,1309.44 1820.26,1301.95 1819.86,1298.32C1819.69,1296.82 1820.74,1295.68 1822.03,1294.75C1825.01,1292.58 1829.51,1291.59 1829.51,1291.59C1830.22,1291.43 1830.67,1290.74 1830.54,1290.02C1830.54,1290.02 1830.12,1287.91 1829.8,1285.11C1829.62,1283.59 1829.47,1281.86 1829.42,1280.17C1829.39,1278.91 1829.14,1277.95 1829,1277.09C1828.89,1276.44 1828.85,1275.88 1829.27,1275.18C1830.27,1273.55 1833.01,1271.45 1839.62,1267.35C1844.64,1264.23 1847.62,1261.12 1849.37,1258.26C1853.04,1252.26 1851.4,1247.25 1851.04,1244.98C1850.86,1243.87 1850.48,1242.2 1850.06,1240.48C1849.54,1238.33 1848.95,1236.11 1848.62,1234.88C1849.89,1234.13 1852.17,1232.6 1853.74,1230.42C1854.82,1228.94 1855.57,1227.17 1855.57,1225.16C1855.57,1223.04 1856.12,1221.31 1856.91,1219.92C1858.01,1218.01 1859.57,1216.77 1860.74,1216.05C1861.62,1215.51 1862.49,1214.86 1863.25,1214.24C1864.06,1213.57 1864.74,1212.94 1865.14,1212.56C1866.95,1212.37 1868.17,1210.67 1868.68,1208.1C1869.26,1205.14 1869.01,1201.04 1868.76,1198.52C1870.05,1198.78 1871.34,1198.49 1872.55,1197.89C1874.84,1196.75 1876.81,1194.37 1877.77,1193.08C1888.89,1197.78 1896.89,1197.82 1902.55,1196.05C1910.12,1193.69 1913.64,1188.11 1914.91,1185.5C1921.25,1189.35 1926.22,1190.35 1929.99,1190.09C1935.43,1189.7 1938.5,1186.68 1939.71,1185.18C1949.77,1189.32 1956.95,1190.62 1962.09,1190.47C1970.9,1190.22 1974.01,1185.84 1975.07,1183.39C1975.82,1183.71 1976.56,1183.74 1977.24,1183.62C1977.79,1183.52 1978.31,1183.3 1978.75,1183.06C1979.36,1185.07 1980.42,1186.36 1981.59,1187.2C1983.79,1188.78 1986.48,1188.71 1987.67,1188.58C1988.75,1189.51 1989.97,1189.89 1991.12,1189.99C1992.41,1190.1 1993.6,1189.83 1994.35,1189.6C1997.05,1192.7 1999.68,1194.18 2002.01,1194.75C2006.17,1195.76 2009.48,1193.94 2010.98,1192.86C2013.18,1195.4 2016.53,1201.23 2020.38,1208.58C2026.76,1220.76 2034.42,1237.07 2040.26,1249.84C2040.33,1249.99 2040.35,1250.19 2040.4,1250.36C2040.47,1250.66 2040.58,1250.93 2040.74,1251.15C2040.9,1251.38 2041.12,1251.57 2041.39,1251.69C2043.83,1252.77 2045.51,1254.24 2046.7,1255.8C2048.35,1257.98 2049.06,1260.33 2049.55,1262.06C2049.96,1263.54 2050.1,1264.75 2050.08,1265.75C2050.06,1267.41 2049.61,1268.52 2049.33,1269.38L2049.33,1269.53ZM2051.67,1268.76C2051.9,1267.96 2052.11,1267 2052.13,1265.78C2052.15,1264.62 2052,1263.23 2051.52,1261.52C2050.99,1259.58 2050.18,1256.98 2048.35,1254.55C2047.01,1252.79 2045.14,1251.12 2042.43,1249.88C2042.38,1249.67 2042.26,1249.2 2042.15,1248.97C2036.33,1236.16 2028.68,1219.79 2022.31,1207.57C2017.91,1199.13 2014.08,1192.66 2011.84,1190.56C2011.41,1190.15 2010.74,1190.16 2010.32,1190.57C2010.32,1190.57 2007.06,1193.69 2002.55,1192.58C2000.42,1192.05 1998.05,1190.59 1995.58,1187.56C1995.25,1187.16 1994.7,1187.03 1994.23,1187.25C1994.23,1187.25 1992.87,1187.88 1991.31,1187.74C1990.49,1187.67 1989.61,1187.37 1988.87,1186.6C1988.59,1186.31 1988.19,1186.19 1987.8,1186.27C1987.8,1186.27 1985.05,1186.89 1982.92,1185.35C1981.83,1184.56 1980.94,1183.19 1980.62,1180.92C1980.55,1180.48 1980.24,1180.12 1979.82,1179.99C1979.4,1179.86 1978.93,1179.98 1978.64,1180.31C1978.64,1180.31 1977.86,1181.18 1976.84,1181.36C1976.35,1181.44 1975.8,1181.31 1975.26,1180.77C1974.95,1180.46 1974.5,1180.36 1974.09,1180.49C1973.68,1180.62 1973.38,1180.97 1973.31,1181.39C1973.31,1181.39 1972.07,1187.87 1962.02,1188.14C1956.96,1188.28 1949.83,1186.9 1939.76,1182.63C1939.22,1182.4 1938.59,1182.61 1938.28,1183.12C1938.28,1183.12 1935.76,1187.29 1929.82,1187.7C1926.17,1187.96 1921.31,1186.81 1915.02,1182.71C1914.71,1182.51 1914.32,1182.46 1913.97,1182.58C1913.61,1182.71 1913.34,1182.99 1913.22,1183.34C1913.22,1183.34 1909.85,1193.21 1897.88,1194.53C1892.82,1195.08 1886.26,1194.12 1877.84,1190.4C1877.27,1190.15 1876.61,1190.35 1876.28,1190.87C1876.28,1190.87 1874.13,1194.31 1871.43,1195.65C1870.35,1196.19 1869.16,1196.35 1868.03,1195.46C1867.63,1195.14 1867.07,1195.1 1866.63,1195.36C1866.18,1195.62 1865.94,1196.12 1866.02,1196.63C1866.02,1196.63 1866.81,1201.95 1866.41,1206.12C1866.29,1207.42 1866.06,1208.6 1865.61,1209.4C1865.39,1209.79 1865.13,1210.08 1864.71,1210.05C1864.34,1210.02 1863.98,1210.15 1863.72,1210.41C1863.72,1210.41 1862.84,1211.29 1861.64,1212.27C1860.96,1212.82 1860.19,1213.4 1859.42,1213.88C1857.97,1214.76 1856.06,1216.3 1854.7,1218.65C1853.71,1220.37 1853.01,1222.52 1853,1225.16C1853,1227 1852.08,1228.53 1850.98,1229.75C1849.06,1231.88 1846.55,1233.06 1846.55,1233.06C1845.99,1233.33 1845.69,1233.97 1845.86,1234.57C1845.86,1234.57 1846.77,1237.91 1847.54,1241.09C1847.94,1242.73 1848.3,1244.33 1848.47,1245.39C1848.78,1247.36 1850.32,1251.7 1847.13,1256.88C1845.54,1259.48 1842.79,1262.27 1838.22,1265.1C1830.99,1269.58 1828.09,1272.01 1827,1273.8C1826.17,1275.16 1826.16,1276.26 1826.37,1277.53C1826.5,1278.29 1826.73,1279.13 1826.75,1280.24C1826.8,1282.01 1826.95,1283.82 1827.14,1285.42C1827.32,1287 1827.53,1288.38 1827.69,1289.3C1825.96,1289.8 1822.79,1290.87 1820.45,1292.57C1818.33,1294.11 1816.9,1296.15 1817.17,1298.62C1817.58,1302.25 1818.8,1309.76 1819.5,1315.62C1819.87,1318.74 1820.11,1321.38 1819.93,1322.58C1819.72,1324.05 1819.38,1325.91 1818.9,1327.58C1818.61,1328.59 1818.28,1329.54 1817.89,1330.25C1817.76,1330.49 1817.62,1330.7 1817.48,1330.87C1817.43,1330.92 1817.35,1330.99 1817.32,1331.01C1816.55,1331.15 1815.57,1331.03 1814.48,1330.01C1813.44,1329.05 1812.36,1327.43 1811.26,1324.83C1810.3,1322.59 1808.75,1320.67 1806.88,1318.99C1802.9,1315.4 1797.42,1312.85 1793.9,1309.94C1790.87,1307.44 1784.65,1303.69 1778.04,1303.56C1772.9,1303.46 1767.5,1305.46 1763.11,1311.83C1759.37,1317.27 1757.44,1321.55 1756.59,1325.43C1755.46,1330.55 1756.2,1334.98 1757.24,1340.49C1758.29,1346.05 1757.82,1351.62 1762.46,1359.46C1765.78,1365.06 1771.74,1371.85 1782.88,1380.6C1783.12,1380.8 1788.59,1385.24 1793.8,1389.35C1796.35,1391.36 1798.84,1393.3 1800.63,1394.62C1800.63,1394.62 1800.07,1418.81 1800.07,1418.81C1798.26,1418.57 1795.04,1417.93 1792.23,1416.21C1789.81,1414.75 1787.69,1412.45 1787.17,1408.85C1787.11,1408.44 1786.88,1408.07 1786.54,1407.84C1786.19,1407.62 1785.77,1407.55 1785.37,1407.65C1785.37,1407.65 1777.22,1409.86 1771.22,1406.79C1767.86,1405.07 1765.3,1401.59 1765.3,1395.04C1765.3,1394.64 1765.14,1394.26 1764.85,1393.99C1764.56,1393.71 1764.17,1393.57 1763.78,1393.59C1763.78,1393.59 1760.49,1393.76 1756.76,1392.8C1753.73,1392.02 1750.38,1390.5 1748.43,1387.38C1746.27,1383.93 1745.91,1378.65 1749.14,1370.54C1749.42,1369.83 1749.1,1369.01 1748.39,1368.69C1748.39,1368.69 1739.36,1364.57 1733.87,1356.14C1730.8,1351.42 1728.86,1345.34 1730.32,1337.85C1730.41,1337.38 1730.26,1336.89 1729.92,1336.56C1729.92,1336.56 1723.71,1330.34 1722.04,1321.32C1721.13,1316.44 1721.58,1310.74 1725.09,1304.76C1725.3,1304.4 1725.35,1303.97 1725.21,1303.57C1725.07,1303.18 1724.77,1302.87 1724.38,1302.71C1724.38,1302.71 1713.9,1298.64 1708.36,1289.66C1705.26,1284.64 1703.76,1278.07 1706.58,1269.79C1706.7,1269.45 1706.67,1269.08 1706.52,1268.75C1706.52,1268.75 1701.32,1257.74 1701.41,1248.16C1701.46,1243.5 1702.75,1239.16 1706.9,1236.9C1707.34,1236.66 1707.62,1236.19 1707.62,1235.68C1707.62,1235.68 1707.5,1219.71 1714.23,1207.55C1717.23,1202.12 1721.62,1197.44 1728.08,1195.44C1728.69,1195.25 1729.09,1194.65 1729.02,1194.02C1729.02,1194.02 1728.28,1187.54 1730.86,1182.51C1731.93,1180.43 1733.59,1178.6 1736.19,1177.69C1736.87,1177.46 1737.23,1176.72 1737.01,1176.04C1737.01,1176.04 1732.9,1163.73 1737.36,1154.2C1739.85,1148.86 1745.12,1144.49 1755.34,1143.68C1756.03,1143.62 1756.55,1143.03 1756.52,1142.34C1756.52,1142.34 1755.64,1127.28 1765.36,1118.52C1770.33,1114.03 1778.09,1111.26 1790.11,1112.91C1790.68,1112.99 1791.24,1112.65 1791.43,1112.1C1791.43,1112.1 1796.62,1096.85 1809.52,1087.72C1816.69,1082.64 1826.26,1079.48 1838.66,1081.94C1839.21,1082.05 1839.76,1081.74 1839.96,1081.21C1839.96,1081.21 1844.35,1069.53 1857.6,1067.71C1863.44,1066.91 1870.95,1068.03 1880.51,1072.74C1881.01,1072.98 1881.61,1072.82 1881.91,1072.36C1881.91,1072.36 1892.86,1055.83 1913.81,1057.54C1923.02,1058.29 1934.13,1062.54 1947.08,1073.12C1947.3,1073.3 1947.59,1073.38 1947.87,1073.34C1948.15,1073.29 1948.4,1073.13 1948.56,1072.89C1948.56,1072.89 1954.73,1063.29 1964.22,1063.18C1968.95,1063.13 1974.45,1065.46 1980.44,1072.38C1980.71,1072.68 1981.12,1072.79 1981.5,1072.65C1981.5,1072.65 2000.77,1065.57 2013.01,1071.36C2018.45,1073.94 2022.41,1079.13 2022.6,1088.69C2022.6,1088.95 2022.72,1089.2 2022.92,1089.36C2023.12,1089.53 2023.38,1089.6 2023.64,1089.55C2023.64,1089.55 2035.88,1087.31 2043.91,1090.8C2047.78,1092.49 2050.63,1095.57 2050.39,1101.04C2050.39,1101.07 2050.39,1101.1 2050.39,1101.12L2050.8,1108.4C2050.81,1108.76 2051.05,1109.06 2051.39,1109.16C2051.39,1109.16 2062.42,1112.31 2068.26,1122.79C2071.17,1128.02 2072.78,1135.06 2071.14,1144.44C2071.07,1144.81 2071.28,1145.17 2071.64,1145.3C2071.64,1145.3 2080.47,1148.4 2085.22,1155.34C2087.98,1159.36 2089.34,1164.69 2086.76,1171.47C2086.67,1171.71 2086.71,1171.97 2086.87,1172.17C2086.87,1172.17 2092.57,1179.45 2092.32,1187.37C2092.17,1191.89 2090.03,1196.6 2083.75,1200.27C2083.59,1200.36 2083.48,1200.52 2083.43,1200.7C2083.39,1200.88 2083.43,1201.07 2083.53,1201.23C2083.53,1201.23 2089.58,1210.44 2086.2,1220.26C2084.54,1225.08 2080.6,1230.04 2072.6,1234.15C2072.32,1234.29 2072.19,1234.62 2072.29,1234.91C2072.29,1234.91 2076.39,1246.71 2069.8,1256.86C2066.68,1261.68 2061.14,1266.11 2051.67,1268.76Z"/>
                </g>
                <g transform="matrix(0.932608,0,0,0.932608,-1032.95,-659.957)">
                    <path d="M1890.4,1195.53L1887.57,1183.7L1901.3,1175.38L1893.99,1169.97C1893.99,1169.97 1872.33,1172.11 1880.01,1155.36L1872.96,1144.9C1872.96,1144.9 1851.29,1155.23 1841.72,1144.15C1841.72,1144.15 1829.13,1140.37 1830.64,1131.17C1832.15,1121.98 1824.84,1136.09 1821.07,1130.92C1821.07,1130.92 1809.1,1129.79 1815.52,1122.48C1815.52,1122.48 1822.95,1119.84 1823.08,1111.9L1822.83,1103.97C1822.83,1103.97 1834.54,1104.22 1834.16,1090.87C1834.16,1090.87 1846.89,1094.14 1849.15,1079.28C1849.15,1079.28 1855.95,1074.5 1848.14,1068.83C1848.14,1068.83 1840.97,1076.26 1840.21,1079.79L1838.57,1080.67C1838.57,1080.67 1806.08,1072.73 1790.21,1111.78C1790.21,1111.78 1756.33,1104.35 1755.57,1142.01C1755.57,1142.01 1726.85,1143.39 1736.05,1176.14C1736.05,1176.14 1725.22,1179.79 1727.86,1194.4C1727.86,1194.4 1708.21,1198.43 1706.32,1234.83C1706.32,1234.83 1692.09,1241.76 1705.32,1269.47C1705.32,1269.47 1694.11,1288.24 1723.58,1303.98C1723.58,1303.98 1712.37,1319.47 1728.87,1337.86C1728.87,1337.86 1721.18,1354.99 1747.89,1369.98C1747.89,1369.98 1740.08,1386.61 1751.41,1392.53C1751.41,1392.53 1758.72,1395.8 1764.13,1395.3C1764.13,1395.3 1763,1413.06 1786.05,1408.77C1786.05,1408.77 1789.07,1421.05 1801.54,1420.39L1802.25,1394C1802.25,1394 1794.34,1387.33 1783.76,1379.87C1783.76,1379.87 1771.47,1375.39 1760.38,1352.32C1760.38,1352.32 1755.11,1337.03 1758.83,1322.11C1758.83,1322.11 1765.08,1309.23 1770.62,1306.62C1770.62,1306.62 1778.12,1302.54 1787.46,1307.14C1787.46,1307.14 1794.64,1311.2 1801.61,1317.1L1810.55,1325.04C1810.91,1324.17 1810.86,1333.41 1818.91,1331.44C1818.91,1331.44 1821.93,1325.29 1821.33,1319.45L1818.81,1299.3C1818.81,1299.3 1815.49,1293.45 1829.29,1290.63C1829.29,1290.63 1827.98,1278.64 1827.88,1276.12C1827.88,1276.12 1827.07,1274 1834.23,1269.87C1834.23,1269.87 1851.26,1261.01 1850.65,1249.42L1847.53,1233.8C1847.53,1233.8 1854.18,1232.19 1855.08,1222.72C1855.08,1222.72 1854.68,1217.88 1864.15,1212.24C1864.15,1212.24 1866.87,1210.62 1867.58,1207.8C1867.58,1207.8 1867.98,1199.94 1867.88,1196.62C1867.88,1196.62 1871.31,1200.25 1877.65,1191.48C1877.65,1191.48 1881.57,1194.55 1890.4,1195.53Z" style="fill:rgb(155,71,38);"/>
                    <path d="M1809.86,1325.67L1809.87,1325.69C1810.13,1326.82 1810.72,1329.39 1812.52,1331.04C1813.89,1332.31 1815.96,1333.1 1819.13,1332.32C1819.39,1332.26 1819.61,1332.08 1819.73,1331.84C1819.73,1331.84 1821,1329.24 1821.75,1325.78C1822.18,1323.81 1822.44,1321.56 1822.21,1319.36C1822.21,1319.35 1822.21,1319.34 1822.21,1319.34L1819.65,1299.19C1819.64,1299.08 1819.6,1298.97 1819.55,1298.88C1819.55,1298.88 1818.43,1296.72 1821.2,1294.59C1822.72,1293.42 1825.27,1292.3 1829.45,1291.43C1829.87,1291.35 1830.15,1290.96 1830.1,1290.54C1830.1,1290.54 1829.46,1284.77 1829.04,1280.4C1828.85,1278.49 1828.7,1276.85 1828.67,1276.09L1827.88,1276.91C1827.88,1276.91 1828.63,1275.88 1828.63,1275.88C1828.63,1275.88 1828.64,1275.92 1828.64,1275.92C1828.64,1275.92 1828.65,1275.78 1828.69,1275.64C1828.84,1275.19 1829.25,1274.53 1830.23,1273.63C1831.14,1272.78 1832.52,1271.76 1834.59,1270.56C1835.03,1270.33 1842.73,1266.19 1847.53,1259.98C1849.92,1256.88 1851.59,1253.27 1851.38,1249.38C1851.37,1249.35 1851.37,1249.31 1851.36,1249.28L1848.33,1234.26C1849.44,1233.83 1851.76,1232.64 1853.54,1229.8C1854.59,1228.12 1855.46,1225.84 1855.75,1222.78C1855.75,1222.74 1855.75,1222.7 1855.75,1222.66C1855.75,1222.66 1855.65,1220.79 1857.97,1218.03C1859.27,1216.48 1861.31,1214.68 1864.48,1212.79C1864.48,1212.79 1865.7,1212.06 1866.77,1210.73C1867.37,1209.99 1867.92,1209.05 1868.19,1207.96C1868.2,1207.92 1868.2,1207.88 1868.21,1207.84C1868.21,1207.84 1868.38,1204.4 1868.46,1201.11C1868.49,1199.9 1868.51,1198.71 1868.51,1197.72C1869.39,1198.07 1870.82,1198.23 1872.76,1197.14C1874.14,1196.36 1875.83,1194.9 1877.79,1192.28C1878.5,1192.73 1879.98,1193.57 1882.31,1194.36C1884.32,1195.05 1886.98,1195.72 1890.33,1196.09L1890.33,1196.55C1890.51,1196.58 1890.69,1196.46 1890.81,1196.21C1890.93,1195.96 1890.98,1195.62 1890.94,1195.3L1891.39,1195.3L1888.75,1184.19C1888.75,1184.19 1901.85,1176.29 1901.85,1176.29C1902.15,1176.11 1902.34,1175.79 1902.35,1175.43C1902.37,1175.08 1902.21,1174.74 1901.93,1174.53L1894.63,1169.11C1894.42,1168.95 1894.15,1168.88 1893.89,1168.9C1893.89,1168.9 1886.09,1169.72 1881.85,1166.58C1879.38,1164.75 1878.41,1161.49 1881.02,1155.82C1881.18,1155.47 1881.14,1155.06 1880.93,1154.74L1873.89,1144.27C1873.58,1143.81 1872.98,1143.65 1872.47,1143.89C1872.47,1143.89 1862.8,1148.5 1853.66,1148.1C1849.51,1147.92 1845.47,1146.7 1842.61,1143.38C1842.46,1143.21 1842.27,1143.09 1842.06,1143.03C1842.06,1143.03 1836.4,1141.34 1833.4,1137.44C1832.17,1135.83 1831.41,1133.82 1831.81,1131.37C1832.05,1129.92 1832.07,1128.97 1831.97,1128.4C1831.83,1127.58 1831.42,1127.18 1831.02,1126.97C1830.52,1126.71 1829.77,1126.71 1828.89,1127.24C1827.88,1127.85 1826.41,1129.32 1824.88,1130.25C1823.88,1130.86 1822.83,1131.29 1822.04,1130.21C1821.84,1129.93 1821.52,1129.75 1821.18,1129.72C1821.18,1129.72 1817.3,1129.4 1815.5,1127.69C1814.55,1126.79 1814.57,1125.5 1816.25,1123.51C1817.18,1123.12 1819.9,1121.8 1821.93,1119.08C1823.24,1117.32 1824.27,1114.97 1824.32,1111.92C1824.32,1111.9 1824.32,1111.88 1824.32,1111.86L1824.11,1105.13C1826.07,1104.9 1829.82,1104.04 1832.47,1100.88C1834.05,1098.99 1835.27,1096.28 1835.43,1092.36C1837.64,1092.58 1841.8,1092.53 1845.24,1089.75C1847.5,1087.93 1849.5,1084.92 1850.36,1079.97C1851.35,1079.09 1853.59,1076.72 1853.14,1073.63C1852.88,1071.9 1851.79,1069.86 1848.92,1067.77C1848.39,1067.38 1847.66,1067.45 1847.2,1067.92C1847.2,1067.92 1844.16,1071.06 1841.78,1074.26C1840.57,1075.9 1839.55,1077.57 1839.09,1078.88C1839.09,1078.88 1838.37,1079.27 1838.37,1079.27C1835.55,1078.71 1821.55,1076.61 1807.96,1085.95C1801.17,1090.62 1794.47,1098.15 1789.36,1110.23C1785.52,1109.65 1772.89,1108.5 1763.86,1116.47C1758.73,1121 1754.69,1128.46 1754.19,1140.73C1750.54,1141.22 1740.15,1143.43 1735.33,1152.87C1732.73,1157.93 1731.7,1165.12 1734.34,1175.33C1732.51,1176.27 1729.11,1178.56 1727.26,1183.14C1726.21,1185.74 1725.65,1189.09 1726.24,1193.38C1723.56,1194.34 1717.34,1197.39 1712.25,1206.1C1708.7,1212.15 1705.69,1221.03 1704.92,1233.98C1703.11,1235.19 1698.67,1239.01 1698.27,1247.67C1698.03,1252.88 1699.28,1259.97 1703.7,1269.44C1702.66,1271.61 1700,1278.52 1703.61,1286.9C1705.99,1292.43 1711.15,1298.67 1721.59,1304.51C1720.12,1307.19 1717.34,1313.63 1718.93,1322C1719.85,1326.84 1722.24,1332.36 1727.28,1338.16C1726.57,1340.38 1725.2,1346.63 1729.09,1354.21C1731.71,1359.31 1736.75,1365.08 1746.19,1370.56C1745.2,1373.09 1743.13,1379.38 1744.29,1384.99C1745,1388.44 1746.87,1391.64 1750.81,1393.69C1750.83,1393.7 1750.85,1393.71 1750.88,1393.72C1750.88,1393.72 1754.54,1395.36 1758.66,1396.18C1760.05,1396.46 1761.49,1396.64 1762.87,1396.65C1763.07,1399.48 1764.25,1405.79 1770.62,1408.91C1773.87,1410.51 1778.52,1411.29 1785.19,1410.2C1785.85,1412.04 1787.52,1415.73 1790.93,1418.42C1793.45,1420.41 1796.91,1421.87 1801.61,1421.61C1802.25,1421.58 1802.75,1421.06 1802.77,1420.42L1803.44,1394.03C1803.45,1393.66 1803.29,1393.32 1803.02,1393.09C1803.02,1393.09 1799.43,1390.07 1793.85,1385.83C1791.12,1383.75 1787.92,1381.39 1784.43,1378.93C1784.34,1378.87 1784.25,1378.83 1784.16,1378.79C1784.16,1378.79 1779.39,1377.02 1773.16,1370.05C1769.51,1365.97 1765.38,1360.14 1761.4,1351.91C1761.17,1351.24 1759.2,1345.18 1758.69,1337.24C1758.39,1332.71 1758.57,1327.57 1759.82,1322.47C1760.19,1321.72 1762.68,1316.75 1765.77,1312.62C1767.44,1310.38 1769.28,1308.38 1771.06,1307.53C1771.07,1307.52 1771.09,1307.51 1771.11,1307.5C1771.11,1307.5 1774.3,1305.79 1779.05,1305.96C1781.38,1306.05 1784.09,1306.59 1786.98,1308.01C1787.3,1308.18 1790.3,1309.9 1794.19,1312.62C1796.29,1314.09 1798.64,1315.85 1800.98,1317.81L1809.86,1325.67ZM1829.6,1129.69C1829.58,1130.06 1829.54,1130.51 1829.46,1130.98C1828.94,1134.18 1829.92,1136.8 1831.53,1138.89C1834.5,1142.73 1839.7,1144.7 1841.06,1145.16C1844.35,1148.8 1848.88,1150.22 1853.57,1150.4C1861.53,1150.73 1869.87,1147.47 1872.56,1146.31C1872.56,1146.31 1878.75,1155.47 1878.75,1155.47C1876.64,1160.39 1877,1163.79 1878.47,1166.11C1880.02,1168.57 1882.9,1169.9 1885.83,1170.55C1889.17,1171.28 1892.52,1171.14 1893.68,1171.07C1893.68,1171.07 1899.4,1175.3 1899.4,1175.3C1899.4,1175.3 1887.03,1182.81 1887.03,1182.81C1886.65,1183.04 1886.46,1183.5 1886.56,1183.94L1889.18,1194.82L1889.18,1194.82C1887.14,1194.52 1885.4,1194.12 1883.94,1193.69C1879.88,1192.48 1878.02,1191.02 1878.02,1191.02C1877.89,1190.92 1877.73,1190.88 1877.57,1190.9C1877.42,1190.92 1877.28,1191.01 1877.18,1191.14C1875.21,1193.85 1873.55,1195.34 1872.18,1196.1C1869.65,1197.5 1868.32,1196.2 1868.32,1196.2C1868.15,1196.02 1867.88,1195.96 1867.65,1196.06C1867.41,1196.15 1867.27,1196.38 1867.27,1196.64C1867.31,1197.76 1867.28,1199.4 1867.23,1201.08C1867.14,1204.09 1866.98,1207.22 1866.95,1207.71C1866.72,1208.59 1866.27,1209.33 1865.78,1209.93C1864.87,1211.07 1863.83,1211.68 1863.83,1211.68C1863.83,1211.69 1863.83,1211.69 1863.83,1211.69C1860.48,1213.67 1858.34,1215.56 1856.97,1217.18C1854.45,1220.15 1854.4,1222.31 1854.41,1222.71C1854.13,1225.48 1853.35,1227.55 1852.38,1229.07C1850.28,1232.4 1847.36,1233.12 1847.36,1233.12C1847,1233.21 1846.77,1233.57 1846.85,1233.94L1849.93,1249.51C1850.09,1253.03 1848.52,1256.27 1846.35,1259.06C1841.58,1265.19 1833.87,1269.18 1833.87,1269.18C1833.86,1269.19 1833.85,1269.19 1833.84,1269.2C1831.02,1270.82 1829.4,1272.15 1828.46,1273.17C1826.91,1274.85 1827,1275.92 1827.09,1276.27C1827.13,1277.09 1827.27,1278.7 1827.44,1280.56C1827.77,1283.99 1828.22,1288.28 1828.4,1289.98C1824.29,1290.88 1821.74,1292.07 1820.18,1293.27C1816.61,1295.99 1817.65,1298.85 1817.99,1299.55C1817.99,1299.55 1820.45,1319.55 1820.45,1319.55C1820.65,1321.56 1820.4,1323.6 1820,1325.4C1819.46,1327.85 1818.64,1329.84 1818.28,1330.65C1816.68,1330.96 1815.48,1330.78 1814.57,1330.28C1812.49,1329.13 1811.96,1326.52 1811.7,1325.39C1811.61,1325 1811.53,1324.72 1811.47,1324.61C1811.3,1324.28 1811.08,1324.13 1810.87,1324.08L1802.24,1316.39C1802.24,1316.38 1802.23,1316.38 1802.22,1316.37C1799.84,1314.35 1797.44,1312.54 1795.3,1311.03C1791.11,1308.09 1787.94,1306.29 1787.94,1306.29C1787.92,1306.28 1787.91,1306.27 1787.89,1306.26C1784.7,1304.68 1781.71,1304.08 1779.13,1303.97C1773.97,1303.76 1770.44,1305.57 1770.16,1305.72C1768.16,1306.67 1766.03,1308.87 1764.13,1311.38C1760.65,1316.01 1757.89,1321.66 1757.89,1321.66C1757.86,1321.72 1757.84,1321.79 1757.82,1321.86C1756.47,1327.21 1756.26,1332.62 1756.55,1337.37C1757.09,1346.12 1759.35,1352.68 1759.35,1352.68C1759.36,1352.72 1759.38,1352.76 1759.39,1352.79C1763.47,1361.32 1767.72,1367.34 1771.47,1371.56C1777.5,1378.34 1782.3,1380.53 1783.21,1380.9C1786.63,1383.31 1789.76,1385.64 1792.43,1387.69C1796.81,1391.04 1799.94,1393.62 1801.05,1394.54C1801.05,1394.54 1800.35,1419.18 1800.35,1419.18C1796.95,1419.13 1794.38,1417.99 1792.47,1416.47C1788.45,1413.29 1787.27,1408.47 1787.27,1408.47C1787.11,1407.83 1786.48,1407.41 1785.82,1407.54C1779.3,1408.74 1774.82,1408.13 1771.75,1406.62C1764.91,1403.24 1765.43,1395.38 1765.43,1395.38C1765.45,1395 1765.31,1394.63 1765.04,1394.37C1764.77,1394.1 1764.39,1393.97 1764.02,1394.01C1762.48,1394.14 1760.79,1393.95 1759.17,1393.62C1755.6,1392.91 1752.41,1391.53 1752,1391.35C1748.9,1389.71 1747.44,1387.18 1746.88,1384.46C1745.56,1377.99 1749.1,1370.55 1749.1,1370.55C1749.4,1369.91 1749.16,1369.15 1748.55,1368.81C1739.09,1363.48 1734.07,1357.91 1731.54,1352.96C1727.36,1344.78 1730.13,1338.43 1730.13,1338.43C1730.36,1337.93 1730.27,1337.34 1729.9,1336.93C1724.92,1331.37 1722.56,1326.1 1721.68,1321.47C1719.83,1311.63 1724.73,1304.81 1724.73,1304.81C1724.97,1304.48 1725.05,1304.06 1724.96,1303.66C1724.87,1303.26 1724.61,1302.92 1724.25,1302.73C1716.05,1298.34 1711.08,1293.74 1708.2,1289.37C1701.37,1279.02 1706.55,1270.21 1706.55,1270.21C1706.8,1269.8 1706.83,1269.28 1706.62,1268.85C1702.23,1259.64 1700.92,1252.81 1701.16,1247.8C1701.58,1238.89 1706.96,1236.13 1706.96,1236.13C1707.43,1235.9 1707.74,1235.43 1707.77,1234.91C1708.43,1222.14 1711.31,1213.45 1714.75,1207.56C1720.65,1197.45 1728.15,1195.82 1728.15,1195.82C1728.92,1195.66 1729.42,1194.92 1729.28,1194.14C1728.51,1189.91 1728.94,1186.67 1729.93,1184.21C1732.01,1179.06 1736.51,1177.5 1736.51,1177.5C1737.23,1177.26 1737.64,1176.49 1737.43,1175.75C1734.65,1165.86 1735.42,1158.97 1737.87,1154.17C1743.07,1144 1755.64,1143.42 1755.64,1143.42C1756.38,1143.38 1756.97,1142.78 1756.99,1142.03C1757.22,1130.1 1760.85,1122.87 1765.71,1118.57C1775.48,1109.93 1789.91,1113.13 1789.91,1113.13C1790.57,1113.27 1791.23,1112.92 1791.49,1112.3C1796.38,1100.24 1802.87,1092.76 1809.5,1088.19C1823.64,1078.43 1838.26,1081.96 1838.26,1081.96C1838.58,1082.03 1838.91,1081.99 1839.2,1081.84L1840.84,1080.95C1841.18,1080.77 1841.42,1080.44 1841.51,1080.06C1841.75,1078.94 1842.76,1077.39 1843.9,1075.83C1845.43,1073.76 1847.26,1071.71 1848.28,1070.6C1849.73,1071.83 1850.4,1072.96 1850.56,1074.02C1850.93,1076.52 1848.41,1078.22 1848.41,1078.22C1848.12,1078.42 1847.92,1078.74 1847.87,1079.09C1847.2,1083.49 1845.58,1086.17 1843.63,1087.76C1839.65,1090.97 1834.48,1089.64 1834.48,1089.64C1834.1,1089.54 1833.68,1089.63 1833.37,1089.88C1833.06,1090.12 1832.88,1090.51 1832.89,1090.9C1833.01,1094.85 1832,1097.5 1830.54,1099.26C1827.57,1102.82 1822.86,1102.72 1822.86,1102.72C1822.51,1102.71 1822.18,1102.85 1821.94,1103.09C1821.7,1103.33 1821.57,1103.66 1821.58,1104.01L1821.84,1111.91C1821.8,1114.34 1821,1116.2 1819.95,1117.61C1817.95,1120.3 1815.11,1121.33 1815.11,1121.33C1814.92,1121.4 1814.74,1121.52 1814.61,1121.67C1812.25,1124.36 1812.09,1126.44 1812.74,1127.94C1813.27,1129.15 1814.4,1130.09 1815.75,1130.73C1817.47,1131.56 1819.5,1131.93 1820.43,1132.06C1821.8,1133.59 1823.44,1133.58 1825.1,1132.85C1826.34,1132.3 1827.59,1131.29 1828.67,1130.4C1828.95,1130.17 1829.3,1129.91 1829.6,1129.69ZM1811.39,1325.46C1811.35,1325.52 1811.31,1325.59 1811.26,1325.64C1811.31,1325.59 1811.35,1325.53 1811.39,1325.46Z"/>
                </g>
                <path d="M612.325,549.535C612.325,549.535 615.279,550.918 619.577,553.054C621.706,554.113 624.158,555.368 626.756,556.71C627.999,557.352 629.28,558.004 630.572,558.671C632.467,559.65 634.387,560.649 636.251,561.685C639.839,563.681 643.223,565.757 645.858,567.901C646.071,568.092 646.399,568.074 646.591,567.861C646.782,567.648 646.764,567.319 646.551,567.128C644.078,564.684 640.869,562.183 637.374,559.849C635.222,558.411 632.974,557.033 630.735,555.773C629.819,555.257 628.9,554.769 627.993,554.304C626.554,553.567 625.145,552.885 623.8,552.266C617.715,549.465 613.047,547.779 613.047,547.779C612.562,547.58 612.007,547.812 611.808,548.296C611.609,548.781 611.84,549.336 612.325,549.535Z"/>
                <g transform="matrix(1,0,0,1,-1157.71,-734.592)">
                    <path d="M1868.05,1119.63C1868.05,1119.63 1862.12,1123.36 1866.25,1128.9C1870.38,1134.44 1876.83,1135.45 1879.04,1131.62C1881.26,1127.79 1879.55,1123.76 1876.53,1122.65C1873.5,1121.54 1871.36,1117.11 1868.05,1119.63Z" style="fill:rgb(155,71,38);"/>
                    <path d="M1867.54,1118.83C1867.54,1118.83 1864.61,1120.59 1863.83,1123.61C1863.4,1125.27 1863.6,1127.31 1865.25,1129.64C1867.63,1132.91 1870.76,1134.77 1873.54,1135.17C1876.37,1135.58 1878.86,1134.55 1880.14,1132.25C1881.28,1130.15 1881.46,1128.03 1880.94,1126.24C1880.33,1124.1 1878.81,1122.42 1876.84,1121.78C1875.89,1121.48 1875.03,1120.81 1874.17,1120.17C1873.11,1119.36 1872.06,1118.59 1870.96,1118.35C1869.95,1118.12 1868.88,1118.26 1867.73,1119.22L1867.54,1118.83ZM1868.36,1120.04C1869.21,1119.45 1869.94,1119.38 1870.63,1119.6C1871.53,1119.88 1872.33,1120.64 1873.18,1121.39C1874.12,1122.23 1875.11,1123.07 1876.21,1123.52C1877.52,1124.05 1878.46,1125.29 1878.78,1126.78C1879.06,1128.07 1878.83,1129.55 1877.94,1130.98C1877.44,1131.81 1876.65,1132.28 1875.74,1132.47C1874.81,1132.66 1873.76,1132.55 1872.67,1132.2C1870.8,1131.58 1868.84,1130.24 1867.25,1128.15C1866.04,1126.62 1865.77,1125.26 1866,1124.11C1866.45,1121.85 1868.55,1120.43 1868.55,1120.43L1868.36,1120.04Z"/>
                </g>
                <g transform="matrix(1,0,0,1,-1157.71,-734.592)">
                    <path d="M1842.97,1118.87C1842.97,1118.87 1846.1,1119.02 1847.81,1122.55C1849.52,1126.08 1860.61,1129.2 1855.37,1136.15C1850.13,1143.1 1839.24,1138.87 1837.93,1132.83C1836.62,1126.78 1836.83,1119.42 1842.97,1118.87Z" style="fill:rgb(155,71,38);"/>
                    <path d="M1842.92,1118.35C1839.96,1118.52 1838.21,1120.19 1837.27,1122.54C1836.11,1125.43 1836.26,1129.45 1836.93,1133.04C1837.62,1136.62 1841.25,1139.77 1845.47,1140.75C1849.32,1141.63 1853.59,1140.69 1856.44,1136.96C1858.22,1134.56 1858.38,1132.52 1857.75,1130.76C1857.03,1128.78 1855.15,1127.11 1853.15,1125.66C1852.1,1124.91 1851.04,1124.21 1850.17,1123.52C1849.56,1123.03 1849.05,1122.57 1848.79,1122.07C1848.12,1120.77 1847.31,1119.88 1846.49,1119.27C1844.73,1117.96 1843.02,1117.92 1843.02,1117.92L1842.92,1118.35ZM1842.92,1119.82C1842.92,1119.82 1844.07,1119.93 1845.23,1120.88C1845.81,1121.36 1846.38,1122.05 1846.83,1123.03C1847.34,1124.14 1848.63,1125.27 1850.15,1126.43C1851.72,1127.62 1853.54,1128.89 1854.64,1130.4C1855.63,1131.76 1855.83,1133.34 1854.29,1135.34C1852.17,1138.19 1848.94,1138.84 1846,1138.25C1842.67,1137.58 1839.61,1135.4 1838.94,1132.61C1838.14,1129.38 1837.75,1125.74 1838.64,1123.05C1839.29,1121.1 1840.63,1119.67 1843.02,1119.38L1842.92,1119.82Z"/>
                </g>
                <g transform="matrix(1,0,0,1,-1157.71,-734.592)">
                    <path d="M1856.76,1104.01C1856.76,1104.01 1866.35,1104.31 1865.94,1099.17C1865.54,1094.03 1866.45,1090.31 1861.01,1092.32C1855.57,1094.34 1854.86,1094.84 1854.96,1097.26C1855.06,1099.67 1851.71,1101.59 1856.76,1104.01Z" style="fill:rgb(155,71,38);"/>
                    <path d="M1856.54,1104.87C1856.6,1104.92 1856.67,1104.95 1856.74,1104.96C1856.73,1104.96 1861.11,1105.22 1864.09,1103.86C1866.03,1102.98 1867.37,1101.44 1867.24,1099.07C1867.12,1097.26 1867.16,1095.62 1867.02,1094.33C1866.9,1093.3 1866.66,1092.45 1866.25,1091.84C1865.41,1090.57 1863.81,1089.87 1860.57,1091.14C1857.35,1092.48 1855.71,1093.28 1854.91,1094.15C1854.13,1094.99 1853.92,1095.89 1854.04,1097.3C1854.12,1098.19 1853.63,1099.03 1853.4,1099.84C1853.17,1100.69 1853.1,1101.51 1853.59,1102.33C1854.01,1103.03 1854.86,1103.78 1856.54,1104.48L1856.54,1104.87ZM1856.9,1103.5C1857,1103.5 1857.09,1103.52 1857.17,1103.54L1856.98,1103.54L1856.9,1103.5ZM1856.79,1103.43C1855.25,1102.57 1854.71,1101.89 1854.69,1101.17C1854.68,1100.62 1854.98,1100.1 1855.24,1099.56C1855.58,1098.82 1855.88,1098.05 1855.88,1097.22C1855.88,1096.26 1856.04,1095.75 1856.89,1095.25C1857.77,1094.73 1859.19,1094.24 1861.44,1093.5C1862.18,1093.24 1862.78,1093.11 1863.27,1093.08C1863.62,1093.06 1863.86,1093.1 1863.99,1093.31C1864.28,1093.75 1864.33,1094.43 1864.39,1095.26C1864.48,1096.4 1864.52,1097.78 1864.65,1099.27C1864.78,1100.48 1864.02,1101.23 1863.04,1101.74C1860.56,1103.05 1856.79,1103.06 1856.79,1103.06L1856.79,1103.43Z"/>
                </g>
                <g transform="matrix(1,0,0,1,-1157.71,-734.592)">
                    <path d="M1856.76,1082.55C1856.76,1082.55 1863.45,1085.47 1865.96,1082.65C1868.46,1079.83 1870.88,1076.2 1868.06,1074.59C1865.24,1072.97 1857.85,1073.17 1856.76,1077.51C1855.67,1081.84 1854.23,1081.44 1856.76,1082.55Z" style="fill:rgb(155,71,38);"/>
                    <path d="M1856.55,1083.42L1856.38,1083.42C1856.38,1083.42 1859.48,1084.88 1862.38,1085.03C1864.14,1085.11 1865.79,1084.67 1866.9,1083.49C1867.87,1082.43 1868.83,1081.27 1869.52,1080.13C1870.16,1079.08 1870.57,1078.04 1870.66,1077.1C1870.81,1075.61 1870.29,1074.31 1868.72,1073.44C1868.02,1073.06 1867.11,1072.75 1866.07,1072.6C1864.23,1072.32 1861.99,1072.44 1860.11,1073.12C1858.04,1073.86 1856.38,1075.22 1855.96,1077.31C1855.42,1079.99 1854.7,1080.96 1854.73,1081.52C1854.76,1081.87 1854.87,1082.17 1855.27,1082.44C1855.52,1082.61 1855.93,1082.79 1856.55,1083.02L1856.55,1083.42ZM1855.93,1081.45C1855.97,1081.35 1856.12,1081.16 1856.21,1080.98C1856.54,1080.35 1857.05,1079.38 1857.56,1077.71C1857.99,1076.3 1859.28,1075.55 1860.75,1075.15C1861.86,1074.85 1863.09,1074.8 1864.24,1074.89C1865.49,1074.99 1866.65,1075.28 1867.4,1075.74C1868.08,1076.13 1868.05,1076.77 1867.82,1077.47C1867.37,1078.86 1866.2,1080.43 1865.01,1081.81C1864.41,1082.52 1863.43,1082.7 1862.42,1082.72C1859.9,1082.76 1857.14,1081.68 1857.14,1081.68L1857.14,1082.07L1856.97,1082.07C1856.56,1081.87 1856.27,1081.71 1856.07,1081.58C1856.02,1081.54 1855.95,1081.47 1855.93,1081.45ZM1855.93,1081.45C1855.95,1081.47 1855.99,1081.51 1855.97,1081.51C1855.93,1081.51 1855.92,1081.49 1855.93,1081.45Z"/>
                </g>
                <path d="M561.93,526.351C561.93,526.351 561.209,530.764 562.744,535.876C563.099,537.057 563.586,538.271 564.231,539.467C564.634,540.212 565.098,540.951 565.641,541.661C566.864,543.262 568.431,544.764 570.423,546.013C572.758,547.477 575.666,548.594 579.293,549.164C579.572,549.226 579.85,549.049 579.911,548.769C579.973,548.489 579.796,548.212 579.516,548.15C576.225,547.212 573.685,545.828 571.658,544.249C570.032,542.982 568.788,541.563 567.79,540.106C567.352,539.467 566.96,538.823 566.609,538.178C566.04,537.13 565.584,536.081 565.218,535.062C563.597,530.535 563.816,526.565 563.816,526.565C563.875,526.044 563.5,525.574 562.98,525.515C562.459,525.456 561.989,525.831 561.93,526.351Z"/>
                <path d="M583.814,422.595C583.814,422.595 583.256,426.003 583.554,430.182C583.67,431.809 583.923,433.55 584.385,435.245C584.773,436.665 585.304,438.057 586.03,439.316C586.791,440.639 587.757,441.821 588.944,442.77C590.085,443.682 591.421,444.398 593.002,444.793C595.584,445.436 598.812,445.28 602.854,443.827C603.128,443.745 603.285,443.456 603.203,443.181C603.121,442.907 602.832,442.75 602.557,442.832C600.021,443.435 597.875,443.56 596.04,443.353C593.679,443.087 591.905,442.186 590.539,440.917C589.645,440.088 588.955,439.087 588.374,438.009C587.782,436.91 587.317,435.725 586.957,434.512C586.5,432.977 586.197,431.407 586.003,429.933C585.489,426.035 585.7,422.815 585.7,422.815C585.761,422.295 585.388,421.823 584.868,421.762C584.347,421.701 583.875,422.074 583.814,422.595Z"/>
                <path d="M683.845,475.945C683.845,475.945 684.806,478.891 686.101,483.068C686.764,485.205 687.501,487.665 688.261,490.213C688.635,491.469 689.025,492.744 689.406,494.014C689.989,495.962 690.56,497.89 691.028,499.728C691.725,502.46 692.234,504.958 692.32,506.938C692.372,508.145 692.298,509.142 691.985,509.847C691.854,510.102 691.955,510.415 692.21,510.546C692.465,510.677 692.778,510.576 692.908,510.321C693.746,508.885 693.915,506.202 693.609,502.899C693.406,500.713 693.001,498.257 692.462,495.727C692.165,494.33 691.831,492.912 691.45,491.512C691.067,490.102 690.638,488.713 690.202,487.373C689.636,485.631 689.05,483.978 688.495,482.483C686.918,478.231 685.618,475.265 685.618,475.265C685.431,474.776 684.881,474.531 684.392,474.718C683.903,474.906 683.658,475.455 683.845,475.945Z"/>
                <path d="M632.501,637.955C632.501,637.955 630.743,642.777 630.716,648.438C630.709,649.852 630.822,651.317 631.096,652.764C631.278,653.725 631.533,654.679 631.879,655.602C632.525,657.329 633.453,658.966 634.749,660.378C637.146,662.991 640.756,664.893 646.145,665.225C646.43,665.257 646.687,665.053 646.72,664.768C646.753,664.484 646.548,664.226 646.263,664.194C640.691,663.263 637.476,660.731 635.646,657.595C635.004,656.494 634.549,655.319 634.2,654.119C633.839,652.875 633.602,651.603 633.465,650.342C633.288,648.711 633.264,647.104 633.33,645.622C633.508,641.611 634.312,638.527 634.312,638.527C634.469,638.027 634.192,637.493 633.692,637.336C633.193,637.178 632.659,637.455 632.501,637.955Z"/>
            </g>
        </g>
    </g>
</svg>
