<?xml version="1.0" encoding="UTF-8" standalone="no"?>
<!DOCTYPE svg PUBLIC "-//W3C//DTD SVG 1.1//EN" "http://www.w3.org/Graphics/SVG/1.1/DTD/svg11.dtd">
<svg width="100%" height="100%" viewBox="0 0 328 472" version="1.1" xmlns="http://www.w3.org/2000/svg" xmlns:xlink="http://www.w3.org/1999/xlink" xml:space="preserve" xmlns:serif="http://www.serif.com/" style="fill-rule:evenodd;clip-rule:evenodd;stroke-linejoin:round;stroke-miterlimit:2;">
    <g transform="matrix(1,0,0,1,-152.138,-71.4628)">
        <g transform="matrix(0.97604,0,0,0.97604,1208.18,669.533)">
            <g id="hair2" transform="matrix(1.02455,0,0,1.02455,-1624.01,-968.744)">
                <g>
                    <path d="M645.778,395.311C645.778,395.311 633.559,389.475 629.426,388.097C625.293,386.72 611.911,393.608 611.911,393.608L587.901,392.23L531.23,468.54C531.23,468.54 537.541,514.558 540.985,520.462C544.429,526.366 526.394,546.292 531.23,557.362C536.065,568.432 541.021,568.678 547.153,558.838C547.153,558.838 565.832,624.766 579.116,632.884C592.4,641.002 610.649,529.32 610.649,529.32L645.778,395.311" style="fill:rgb(190,79,35);"/>
                    <path d="M646.081,396.21C646.316,396.131 646.519,395.961 646.634,395.72C646.86,395.247 646.66,394.68 646.187,394.454C646.187,394.454 641.141,392.029 636.434,389.926C633.783,388.741 631.237,387.659 629.74,387.156C628.393,386.703 626.148,386.974 623.661,387.679C618.83,389.049 612.976,391.915 611.693,392.557C611.694,392.556 587.964,391.14 587.964,391.14C587.596,391.119 587.243,391.284 587.024,391.579L530.21,467.784C530.012,468.05 529.927,468.384 529.972,468.713C529.972,468.713 532.846,489.871 535.773,505.362C537.204,512.934 538.694,519.173 539.835,521.133C540.229,521.809 540.147,522.738 539.9,523.85C539.575,525.309 538.895,527.013 538.043,528.884C535.272,534.966 530.74,542.673 529.431,549.388C528.826,552.492 528.898,555.401 529.99,557.903C531.487,561.329 533.018,563.765 534.564,565.262C535.803,566.462 537.082,567.104 538.373,567.265C539.737,567.435 541.146,567.079 542.591,566.128C543.892,565.271 545.252,563.89 546.663,561.974C549.085,570.164 556.632,594.842 564.842,613.098C569.4,623.232 574.251,631.378 578.468,633.943C580.242,635.022 582.107,634.696 583.975,632.945C586.657,630.431 589.489,624.499 592.196,616.61C602.195,587.471 611.308,531.251 611.588,529.515L646.081,396.21ZM645.053,396.019C643.881,395.465 639.639,393.471 635.642,391.708C633.055,390.567 630.573,389.522 629.112,389.039C627.709,388.575 625.158,389.248 622.486,390.16C617.601,391.828 612.385,394.53 612.385,394.53C612.221,394.614 612.036,394.653 611.851,394.643C611.851,394.643 588.429,393.353 588.429,393.353C588.429,393.353 532.559,468.879 532.559,468.879C533.023,472.185 535.676,490.857 538.357,504.871C539.726,512.023 541.055,517.941 542.136,519.79C543.082,521.41 542.856,523.936 541.724,527.004C539.42,533.247 533.567,542.227 532.079,549.902C531.59,552.423 531.581,554.79 532.469,556.82C533.556,559.309 534.639,561.226 535.752,562.567C536.729,563.744 537.681,564.455 538.708,564.584C539.746,564.714 540.787,564.221 541.906,563.268C543.219,562.15 544.574,560.426 546.009,558.125C546.291,557.672 546.814,557.429 547.342,557.503C547.87,557.578 548.304,557.957 548.45,558.471C548.45,558.471 557.348,589.963 567.198,612.042C569.825,617.932 572.512,623.149 575.124,626.891C576.723,629.181 578.268,630.908 579.763,631.825C580.358,632.191 580.968,632.098 581.593,631.697C582.257,631.272 582.918,630.567 583.597,629.638C586.816,625.233 590.113,616.177 593.27,605.262C602.159,574.529 609.703,529.165 609.703,529.165C609.708,529.135 609.714,529.106 609.722,529.077L645.053,396.019Z"/>
                    <path d="M536.228,502.711C536.228,502.711 535.29,511.944 540.028,522.22C541.084,524.51 542.431,526.847 544.135,529.133C545.166,530.516 546.328,531.88 547.643,533.196C550.501,536.056 554.051,538.724 558.433,540.974C563.498,543.574 569.687,545.6 577.228,546.762C577.51,546.814 577.781,546.627 577.832,546.345C577.884,546.063 577.697,545.793 577.416,545.741C570.149,544.192 564.267,541.847 559.462,539.082C555.423,536.759 552.179,534.114 549.541,531.344C548.343,530.085 547.267,528.806 546.303,527.515C544.707,525.38 543.42,523.217 542.38,521.1C537.678,511.527 538.121,502.858 538.121,502.858C538.161,502.335 537.77,501.878 537.248,501.838C536.725,501.798 536.268,502.189 536.228,502.711Z"/>
                    <path d="M616.556,449.831C616.554,449.776 616.553,449.743 616.553,449.743C616.527,449.458 616.274,449.247 615.989,449.273C615.704,449.299 615.493,449.552 615.52,449.838C615.52,449.838 615.586,450.774 615.757,451.313C615.892,451.736 616.173,451.957 616.377,452.011C616.59,452.067 616.851,452.037 617.111,451.743C617.232,451.605 617.384,451.329 617.542,450.849C618.183,448.903 619.224,442.745 620.88,426.377C621.256,422.237 621.271,418.593 620.949,415.39C620.635,412.268 620.013,409.562 619.201,407.219C618.144,404.167 616.749,401.72 615.188,399.763C608.412,391.271 598.605,391.898 598.605,391.898C598.082,391.922 597.676,392.366 597.7,392.89C597.724,393.413 598.168,393.819 598.691,393.795C598.691,393.795 607.369,393.592 613.196,401.309C614.551,403.105 615.748,405.328 616.67,408.081C617.402,410.266 617.946,412.78 618.275,415.676C618.623,418.739 618.747,422.222 618.498,426.194C617.731,440.884 617.069,447.297 616.556,449.831ZM616.687,450.904C616.729,451.03 616.784,451.095 616.857,451.038C616.94,450.973 616.814,450.926 616.687,450.904Z"/>
                    <path d="M605.884,483.38C605.884,483.38 600.218,480.092 593.262,474.213C590.827,472.154 588.235,469.778 585.662,467.118C583.723,465.114 581.801,462.946 579.959,460.633C578.199,458.424 576.507,456.088 574.976,453.609C572.509,449.611 570.441,445.266 569.098,440.572C567.824,436.119 567.177,431.37 567.454,426.328C567.477,426.042 567.264,425.792 566.979,425.768C566.693,425.745 566.442,425.958 566.419,426.243C565.572,434.159 566.932,441.508 569.61,448.141C571.509,452.844 574.065,457.187 576.951,461.101C578.148,462.723 579.409,464.266 580.702,465.73C582.742,468.042 584.863,470.16 586.964,472.072C596.216,480.49 604.97,485.044 604.97,485.044C605.43,485.297 606.007,485.128 606.259,484.669C606.511,484.21 606.343,483.632 605.884,483.38Z"/>
                    <path d="M597.449,504.999C597.449,504.999 591.106,503.372 582.627,499.662C579.684,498.374 576.485,496.835 573.196,495.035C570.729,493.684 568.216,492.181 565.717,490.531C563.335,488.959 560.964,487.259 558.681,485.392C554.992,482.377 551.52,478.955 548.551,475.046C545.682,471.267 543.264,467.056 541.575,462.338C541.485,462.066 541.192,461.918 540.92,462.007C540.647,462.097 540.499,462.39 540.589,462.662C542.844,470.155 546.843,476.574 551.744,481.995C555.162,485.775 559.01,489.072 562.993,491.903C564.648,493.079 566.332,494.167 568.015,495.177C570.683,496.777 573.352,498.182 575.93,499.405C587.413,504.85 597.021,506.849 597.021,506.849C597.532,506.967 598.042,506.648 598.16,506.138C598.278,505.628 597.96,505.117 597.449,504.999Z"/>
                    <path d="M540.167,524.436C540.167,524.436 539.229,532.684 544.409,540.931C545.551,542.75 547.001,544.563 548.822,546.272C549.889,547.273 551.086,548.24 552.432,549.141C555.222,551.008 558.631,552.633 562.776,553.83C567.347,555.149 572.82,555.931 579.373,555.994C579.66,556.006 579.902,555.784 579.914,555.498C579.927,555.212 579.705,554.969 579.418,554.957C573.055,554.467 567.803,553.312 563.431,551.779C559.614,550.44 556.503,548.782 553.938,546.957C552.733,546.1 551.648,545.211 550.671,544.298C549.016,542.75 547.678,541.133 546.594,539.514C541.638,532.106 542.058,524.6 542.058,524.6C542.103,524.078 541.716,523.617 541.194,523.572C540.672,523.527 540.212,523.914 540.167,524.436Z"/>
                </g>
                <g id="manhair">
                    <g transform="matrix(1,0,0,1,431.824,11.147)">
                        <path d="M260.687,760.79C260.687,760.79 257.904,723.853 259.479,715.194C261.053,706.535 266.091,626.397 266.091,626.397C266.091,626.397 265.147,543.741 266.091,532.09C267.036,520.439 280.849,489.896 280.849,489.896C280.849,489.896 288.022,457.785 297.37,444.747C306.718,431.709 313.36,424.821 313.36,424.821C313.36,424.821 328.366,420.885 345.586,424.083C362.806,427.281 377.075,423.345 383.471,418.917C383.471,418.917 355.672,416.703 332.548,407.109C309.424,397.515 273.508,387.675 255.058,389.397C236.608,391.119 211.269,389.643 205.857,404.157C205.857,404.157 188.391,445.731 180.519,456.063C172.647,466.395 155.919,521.008 154.443,538.474C152.967,555.94 156.411,568.978 152.229,586.69C148.047,604.402 138.207,658.277 136.485,676.973C134.763,695.669 115.575,797.944 115.329,806.8C115.329,806.8 141.22,789.949 157.702,782.569L192.327,768.055C192.327,768.055 220.125,710.183 221.109,699.113C222.093,688.043 219.437,672.376 215.747,658.783C212.057,645.189 205.759,620.54 205.759,620.54C205.759,620.54 204.869,622.544 192.01,610.399C181.383,600.362 176.857,590.522 176.857,590.522C176.857,590.522 170.756,571.039 175.676,561.002C180.596,550.965 186.697,546.439 186.697,546.439C186.697,546.439 197.324,543.093 205.983,549.391C214.643,555.688 223.696,564.545 223.696,564.545C223.696,564.545 221.728,595.049 223.105,608.825C224.483,622.601 236.684,650.153 239.046,665.11C241.408,680.067 241.408,683.019 242.195,694.04C242.982,705.061 255.759,752.56 260.687,760.79Z" style="fill:rgb(190,79,35);"/>
                        <path d="M206.592,620.94C206.685,620.746 206.709,620.523 206.654,620.311C206.654,620.311 209.577,631.7 212.612,643.261C214.041,648.702 215.495,654.182 216.68,658.529C218.803,666.317 220.588,674.782 221.552,682.684C222.284,688.693 222.54,694.378 222.116,699.202C221.805,702.747 218.813,711.037 214.828,720.709C206.306,741.397 193.307,768.526 193.307,768.526C193.192,768.766 192.993,768.955 192.748,769.058C192.748,769.058 158.151,783.599 158.145,783.602C152.97,785.926 146.865,789.19 140.933,792.567C128.042,799.906 115.967,807.781 115.967,807.781C115.602,808.019 115.136,808.034 114.756,807.821C114.377,807.609 114.146,807.203 114.158,806.768C114.339,800.061 125.311,739.855 131.397,702.793C133.35,690.898 134.798,681.4 135.213,676.856C136.067,667.521 138.933,649.435 142.114,631.439C145.317,613.319 148.84,595.29 150.938,586.385C152.12,581.367 152.679,576.731 152.912,572.262C153.499,561.016 152.054,550.812 153.103,538.36C153.82,529.862 158.111,512.625 163.261,495.911C168.789,477.969 175.332,460.64 179.443,455.243C182.281,451.519 186.371,443.679 190.436,435.23C197.43,420.694 204.317,404.356 204.603,403.678C206.637,398.236 211.235,394.834 217.266,392.708C227.807,388.991 242.836,389.197 254.934,388.071C263.111,387.311 274.677,388.776 287.06,391.501C302.849,394.974 319.98,400.482 333.046,405.909C341.218,409.303 349.979,411.765 357.87,413.532C372.14,416.728 383.572,417.648 383.572,417.648C384.108,417.69 384.56,418.066 384.7,418.586C384.84,419.106 384.638,419.657 384.195,419.964C380.315,422.646 373.64,425.18 365.182,426.119C359.32,426.77 352.594,426.661 345.358,425.312C339.655,424.25 334.198,423.984 329.468,424.097C321.395,424.291 315.442,425.59 314.005,425.931C313.175,426.816 310.258,429.988 306.024,435.304C303.794,438.103 301.201,441.493 298.357,445.454C295.313,449.693 292.512,455.989 290.113,462.51C285.203,475.854 281.998,490.152 281.998,490.152C281.981,490.231 281.955,490.308 281.922,490.381C281.922,490.381 276.166,503.083 271.836,515.204C269.496,521.754 267.563,528.129 267.231,532.182C266.925,535.929 266.811,547.042 266.794,560.378C266.759,588.466 267.162,626.385 267.162,626.385C267.162,626.411 267.162,626.438 267.16,626.464C267.16,626.464 264.873,662.327 262.885,688.666C261.897,701.751 260.979,712.493 260.453,715.371C259.985,717.932 259.911,723.005 260.024,728.851C260.289,742.657 261.633,760.719 261.633,760.719L261.204,760.719C261.222,761.158 261.073,761.562 260.844,761.695C260.614,761.828 260.365,761.656 260.241,761.278L260.241,761.057C257.729,756.874 253.171,742.578 249.191,728.047C245.316,713.904 241.985,699.539 241.589,694.083C241.139,687.894 240.941,684.253 240.43,679.595C240.034,675.974 239.449,671.739 238.409,665.211C236.583,653.734 228.938,634.836 224.869,620.46C223.63,616.081 222.721,612.116 222.395,608.896C221.925,604.257 221.83,597.73 221.912,591.102C222.06,579.244 222.774,567.06 222.908,564.85C222.001,563.976 218.726,560.853 214.571,557.274C211.798,554.885 208.631,552.293 205.516,550.033C202.596,547.915 199.444,546.94 196.583,546.562C191.816,545.933 187.85,546.959 187.075,547.181C186.529,547.613 184.015,549.697 181.102,553.638C179.578,555.701 177.947,558.27 176.43,561.372C174.891,564.521 174.497,568.633 174.637,572.747C174.921,581.084 177.44,589.441 177.677,590.207C177.919,590.716 179.997,594.977 184.302,600.551C186.489,603.384 189.248,606.552 192.632,609.741C199.483,616.197 202.867,618.594 204.541,619.421C205.005,619.65 205.425,619.739 205.425,619.739C205.425,619.739 205.111,619.886 205.067,619.932C204.715,620.305 204.852,620.668 205.094,620.948L205.759,621.464C205.759,621.464 205.935,621.434 206.137,621.383C206.274,621.322 206.395,621.228 206.489,621.107C206.518,621.07 206.543,621.031 206.566,620.99C206.579,620.965 206.583,620.936 206.592,620.94L206.575,620.973L206.566,620.99L206.563,620.996C206.542,621.033 206.497,621.111 206.409,621.204C206.372,621.243 206.319,621.299 206.242,621.355C206.589,621.258 206.938,621.106 206.592,620.94L206.592,620.94ZM259.463,756.994C256.922,750.79 253.422,739.343 250.278,727.751C246.465,713.692 243.181,699.417 242.801,693.997C242.365,687.787 242.176,684.134 241.676,679.46C241.287,675.823 240.71,671.568 239.683,665.01C237.878,653.492 230.264,634.512 226.217,620.08C225.014,615.79 224.127,611.907 223.816,608.754C223.361,604.157 223.285,597.689 223.382,591.122C223.576,578.055 224.461,564.594 224.461,564.594C224.475,564.371 224.391,564.153 224.232,563.997C224.232,563.997 220.53,560.366 215.591,556.093C212.792,553.67 209.595,551.041 206.451,548.748C203.297,546.449 199.891,545.38 196.796,544.964C191.09,544.196 186.451,545.658 186.451,545.658C186.364,545.686 186.282,545.727 186.209,545.782C186.209,545.782 183.255,547.958 179.77,552.651C178.189,554.78 176.496,557.43 174.922,560.632C173.266,564.001 172.789,568.397 172.929,572.803C173.213,581.779 176.021,590.784 176.021,590.784C176.032,590.82 176.045,590.854 176.061,590.888C176.061,590.888 178.167,595.492 182.89,601.639C185.12,604.541 187.935,607.788 191.389,611.058C196.785,616.166 200.1,618.798 202.126,620.136C203.608,621.114 204.52,621.449 205.062,621.549C205.765,624.307 208.23,633.962 210.774,643.741C212.193,649.192 213.636,654.681 214.813,659.036C216.895,666.739 218.644,675.11 219.579,682.923C220.28,688.781 220.525,694.322 220.102,699.023C219.792,702.472 216.811,710.515 212.915,719.918C204.957,739.123 193.118,763.893 191.526,767.211C191.526,767.211 157.268,781.533 157.268,781.533C157.26,781.536 157.252,781.54 157.243,781.543C152.003,783.884 145.816,787.174 139.805,790.581C130.015,796.129 120.692,801.985 116.711,804.522C118.29,791.446 128.2,737.426 133.876,703.202C135.862,691.228 137.331,681.665 137.756,677.09C138.618,667.799 141.496,649.803 144.682,631.894C147.894,613.837 151.42,595.869 153.52,586.995C154.747,581.811 155.331,577.02 155.576,572.403C156.171,561.185 154.73,551.007 155.783,538.587C156.493,530.201 160.755,513.198 165.84,496.706C171.252,479.151 177.572,462.163 181.595,456.883C184.501,453.069 188.709,445.052 192.868,436.4C200.038,421.483 207.095,404.677 207.095,404.677C207.102,404.66 207.109,404.643 207.115,404.626C208.871,399.914 212.94,397.076 218.157,395.234C228.515,391.577 243.293,391.835 255.181,390.722C263.151,389.975 274.422,391.431 286.494,394.076C302.135,397.504 319.106,402.944 332.05,408.309C340.366,411.755 349.279,414.257 357.309,416.047C366.646,418.128 374.785,419.247 379.384,419.779C375.729,421.506 370.769,422.953 364.902,423.611C359.259,424.244 352.783,424.143 345.815,422.853C339.925,421.763 334.29,421.492 329.407,421.615C319.766,421.857 313.048,423.629 313.048,423.629C312.829,423.686 312.63,423.803 312.473,423.966C312.473,423.966 309.24,427.32 304.108,433.781C301.861,436.61 299.249,440.036 296.383,444.04C293.242,448.428 290.333,454.934 287.861,461.684C283.175,474.478 280.039,488.137 279.725,489.524C279.154,490.797 273.763,502.874 269.656,514.427C267.246,521.204 265.288,527.806 264.951,531.997C264.648,535.769 264.546,546.954 264.549,560.377C264.557,587.953 265.003,625.002 265.02,626.37C264.936,627.722 262.763,662.695 260.861,688.515C259.904,701.499 259.021,712.161 258.504,715.017C258.027,717.654 257.941,722.874 258.067,728.89C258.276,738.81 259.044,750.918 259.463,756.994Z"/>
                    </g>
                    <path d="M695.433,473.518C695.433,473.518 695.529,480.853 695.715,490.948C695.78,494.541 695.859,498.482 695.961,502.566C696.019,504.856 696.086,507.191 696.166,509.534C696.286,513.039 696.427,516.562 696.563,519.983C697.013,531.239 697.403,541.377 697.246,546.08C697.229,546.366 697.448,546.611 697.734,546.628C698.02,546.645 698.265,546.426 698.282,546.14C698.626,542.047 698.845,533.815 698.889,524.3C698.91,519.645 698.898,514.687 698.828,509.758C698.8,507.808 698.755,505.863 698.702,503.944C698.618,500.949 698.516,498.017 698.402,495.227C697.899,482.956 697.331,473.448 697.331,473.448C697.311,472.924 696.871,472.515 696.347,472.534C695.823,472.554 695.414,472.994 695.433,473.518Z"/>
                    <path d="M667.641,521.274C667.641,521.274 665.871,525.95 663.64,532.691C662.863,535.04 662.032,537.639 661.21,540.381C660.584,542.471 659.957,544.643 659.375,546.85C658.803,549.015 658.277,551.213 657.788,553.392C656.929,557.22 656.205,560.986 655.693,564.435C655.027,568.928 654.738,572.875 655.002,575.721C655.018,576.007 655.264,576.226 655.55,576.21C655.836,576.193 656.055,575.948 656.038,575.662C655.943,571.766 657.11,565.86 658.744,559.355C659.48,556.425 660.321,553.382 661.175,550.34C661.74,548.326 662.313,546.316 662.869,544.344C664.005,540.309 665.105,536.447 666.084,533.101C668.019,526.493 669.436,521.892 669.436,521.892C669.607,521.396 669.343,520.856 668.847,520.685C668.352,520.515 667.811,520.779 667.641,521.274Z"/>
                    <g transform="matrix(1,0,0,1,415.437,14.7601)">
                        <path d="M223.792,396.633C223.792,396.633 251.984,382.142 285.932,391.244C319.88,400.346 335.87,409.773 348.17,411.393C360.471,413.013 386.547,420.393 386.547,420.393L395.974,421.594C395.974,421.594 420.219,425.825 421.695,428.777L439.575,453.78C439.575,453.78 439.683,444.747 439.191,434.169C438.699,423.591 429.597,411.393 429.597,411.393C429.597,411.393 413.853,372.177 411.147,369.717C408.441,367.257 352.353,334.046 352.353,334.046L312.254,344.379L303.152,342.165C303.152,342.165 227.531,359.536 223.792,396.633Z" style="fill:rgb(190,79,35);"/>
                        <path d="M420.521,429.425C420.546,429.47 420.574,429.515 420.604,429.557L438.476,454.566C438.816,455.041 439.423,455.244 439.98,455.069C440.537,454.894 440.919,454.381 440.926,453.797C440.926,453.797 440.973,449.772 440.857,443.946C440.8,441.026 440.701,437.653 440.535,434.107C440.377,430.757 439.403,427.248 438.106,423.991C435.443,417.306 431.44,411.685 430.754,410.744C430.051,409.005 423.596,393.065 418.423,381.419C416.585,377.281 414.905,373.682 413.702,371.438C412.96,370.056 412.344,369.144 411.972,368.809C411.023,367.949 403.6,363.356 394.285,357.745C376.897,347.271 352.883,333.15 352.883,333.15C352.645,333.009 352.361,332.969 352.093,333.038L312.245,343.439C312.245,343.439 303.36,341.31 303.36,341.31C303.227,341.278 303.089,341.277 302.955,341.308C302.955,341.308 270.35,348.915 246.859,364.657C234.41,372.999 224.533,383.632 223.276,396.581L223.276,396.538C223.257,396.884 223.343,397.221 223.5,397.417C223.657,397.613 223.86,397.636 224.029,397.477L224.226,397.477C224.226,397.477 236.479,391.233 254.498,389.654C263.67,388.85 274.337,389.256 285.644,392.317C314.018,399.99 329.828,407.867 341.437,411.198C343.771,411.868 345.94,412.356 348.007,412.632C352.087,413.176 357.692,414.365 363.349,415.701C374.67,418.376 386.191,421.651 386.191,421.651C386.253,421.669 386.317,421.682 386.382,421.69L395.774,422.898C396.308,422.992 404.482,424.447 411.453,426.211C414.669,427.025 417.626,427.898 419.404,428.74C419.901,428.976 420.457,429.378 420.521,429.425ZM224.497,395.242C226.381,383.283 235.869,373.509 247.599,365.769C269.904,351.052 300.369,343.717 303.145,343.069C303.145,343.068 312.039,345.264 312.039,345.264C312.184,345.299 312.337,345.298 312.482,345.261L352.19,335.163C355.269,336.999 377,349.97 393.063,359.761C402.14,365.292 409.397,369.78 410.321,370.625C410.593,370.873 410.985,371.581 411.525,372.6C412.698,374.811 414.329,378.36 416.12,382.436C421.533,394.759 428.376,411.883 428.376,411.883C428.418,411.989 428.474,412.089 428.542,412.18C428.542,412.18 432.846,417.972 435.619,424.978C436.799,427.961 437.707,431.166 437.847,434.232C438.01,437.752 438.106,441.1 438.162,443.999C438.203,446.143 438.222,448.041 438.23,449.58C438.23,449.58 422.826,428.051 422.826,428.051C422.554,427.598 421.983,427.068 421.093,426.59C419.715,425.85 417.416,425.063 414.742,424.318C407.064,422.179 396.2,420.294 396.2,420.294C396.18,420.291 396.16,420.288 396.14,420.285L386.807,419.108C385.674,418.79 374.713,415.73 363.932,413.217C358.181,411.877 352.48,410.694 348.334,410.155C346.377,409.9 344.325,409.441 342.115,408.816C330.489,405.529 314.637,397.724 286.22,390.17C274.625,387.092 263.701,386.725 254.313,387.596C239.133,389.004 227.973,393.643 224.498,395.242L224.497,395.242Z"/>
                    </g>
                    <path d="M713.394,441.852C713.394,441.852 702.867,465.572 683.061,487.204C675.976,494.942 667.704,502.413 658.289,508.442C652.262,512.301 645.776,515.586 638.814,517.938C622.429,523.55 612.383,531.38 605.988,540.286C599.788,548.921 597.023,558.566 595.234,568.183C593.341,578.36 592.551,588.5 589.808,597.334C589.721,597.606 589.871,597.899 590.144,597.986C590.417,598.074 590.709,597.924 590.797,597.651C593.716,588.834 594.715,578.671 596.799,568.488C598.706,559.168 601.533,549.833 607.688,541.526C613.984,533.03 623.773,525.623 639.644,520.413C646.826,518.021 653.54,514.696 659.747,510.719C669.361,504.56 677.778,496.879 684.948,488.918C704.833,466.835 715.135,442.609 715.135,442.609C715.344,442.128 715.123,441.568 714.642,441.36C714.162,441.151 713.602,441.372 713.394,441.852Z"/>
                    <path d="M812.025,437.077C812.025,437.077 818.955,431.535 810.84,418.837C808.863,415.744 805.964,412.197 801.778,408.193C798.897,405.438 795.393,402.472 791.172,399.266C786.276,395.614 781.491,392.641 776.859,390.28C771.33,387.462 766.036,385.491 761.117,384.121C741.386,378.625 727.668,382.86 727.668,382.86C727.392,382.94 727.233,383.227 727.313,383.503C727.392,383.778 727.68,383.937 727.955,383.858C727.955,383.858 741.436,380.263 760.512,386.177C765.258,387.649 770.344,389.718 775.678,392.55C780.152,394.926 784.808,397.826 789.547,401.426C793.706,404.528 797.148,407.414 800.004,410.073C804.07,413.859 806.929,417.189 808.886,420.115C816.053,430.827 810.796,435.63 810.796,435.63C810.396,435.97 810.348,436.569 810.687,436.968C811.026,437.368 811.626,437.416 812.025,437.077Z"/>
                    <path d="M801.15,434.534C801.15,434.534 789.359,416.618 761.868,403.882C756.255,401.282 749.983,398.905 743.024,396.956C738.916,395.805 734.567,394.804 729.972,394.003C720.042,392.272 708.967,391.439 696.698,391.903C682.049,392.458 665.697,394.894 647.529,399.844C647.252,399.916 647.085,400.2 647.157,400.477C647.23,400.754 647.513,400.92 647.79,400.848C665.93,396.34 682.211,394.333 696.759,394.055C708.852,393.824 719.739,394.816 729.504,396.614C734.003,397.442 738.265,398.434 742.295,399.561C749.112,401.466 755.263,403.757 760.785,406.251C787.739,418.425 799.575,435.594 799.575,435.594C799.868,436.029 800.458,436.144 800.893,435.851C801.328,435.559 801.443,434.968 801.15,434.534Z"/>
                    <path d="M836.33,443.026C836.33,443.026 839.755,441.061 842.411,437.144C843.024,436.239 843.584,435.225 844.043,434.112C844.329,433.419 844.576,432.685 844.758,431.914C845.169,430.175 845.322,428.258 845.061,426.193C844.755,423.771 843.896,421.158 842.26,418.362C842.133,418.105 841.821,418 841.565,418.127C841.308,418.254 841.203,418.566 841.33,418.823C842.469,421.589 842.891,424.084 842.913,426.338C842.93,428.134 842.638,429.752 842.196,431.228C842.003,431.875 841.782,432.493 841.541,433.085C841.147,434.048 840.694,434.935 840.212,435.747C838.063,439.362 835.295,441.435 835.295,441.435C834.855,441.72 834.731,442.309 835.016,442.748C835.302,443.187 835.891,443.312 836.33,443.026Z"/>
                    <path d="M586.167,555.666C586.167,555.666 587.331,543.679 594.172,531.575C596.516,527.428 599.529,523.268 603.4,519.555C605.737,517.313 608.374,515.219 611.39,513.415C618.746,508.916 625.37,504.719 630.958,501.055C642.827,493.274 650.068,488.002 650.068,488.002C650.303,487.839 650.362,487.515 650.198,487.28C650.035,487.045 649.712,486.986 649.476,487.149C649.476,487.149 642.02,492.063 629.924,499.419C624.231,502.881 617.525,506.901 610.063,511.173C606.847,513.056 604.007,515.226 601.529,517.604C597.457,521.51 594.33,525.934 591.941,530.339C585.068,543.009 584.275,555.515 584.275,555.515C584.233,556.037 584.623,556.495 585.146,556.536C585.668,556.578 586.126,556.188 586.167,555.666Z"/>
                </g>
                <path d="M711.557,421.118C711.557,421.118 707.893,421.507 701.972,421.625C700.055,421.663 697.902,421.673 695.559,421.647C693.871,421.628 692.086,421.584 690.218,421.529C688.502,421.479 686.719,421.426 684.878,421.335C682.03,421.194 679.054,420.984 675.986,420.651C673.097,420.337 670.138,419.939 667.137,419.387C666.858,419.323 666.579,419.498 666.515,419.777C666.452,420.056 666.626,420.335 666.906,420.399C671.442,421.636 675.91,422.567 680.189,423.198C683.325,423.66 686.35,423.975 689.206,424.157C690.448,424.236 691.659,424.281 692.831,424.304C694.755,424.343 696.576,424.325 698.273,424.267C706.521,423.988 711.833,422.997 711.833,422.997C712.352,422.921 712.711,422.438 712.635,421.92C712.559,421.401 712.076,421.042 711.557,421.118Z"/>
            </g>
        </g>
    </g>
</svg>
