<?xml version="1.0" encoding="UTF-8" standalone="no"?>
<!DOCTYPE svg PUBLIC "-//W3C//DTD SVG 1.1//EN" "http://www.w3.org/Graphics/SVG/1.1/DTD/svg11.dtd">
<svg width="100%" height="100%" viewBox="0 0 321 319" version="1.1" xmlns="http://www.w3.org/2000/svg" xmlns:xlink="http://www.w3.org/1999/xlink" xml:space="preserve" xmlns:serif="http://www.serif.com/" style="fill-rule:evenodd;clip-rule:evenodd;stroke-linejoin:round;stroke-miterlimit:2;">
    <g transform="matrix(1,0,0,1,-152.967,-67.5204)">
        <g transform="matrix(0.97604,0,0,0.97604,1208.18,669.533)">
            <g id="womanhair" transform="matrix(1.02455,0,0,1.02455,-1624.01,-968.744)">
                <path d="M839.364,444.741C839.364,444.741 828.692,433.884 820.975,434.916C813.259,435.948 795.374,433.681 783.282,428.265C771.191,422.849 753.935,419.197 742.851,415.418C742.851,415.418 736.679,411.891 728.492,415.418C720.306,418.945 709.6,423.353 698.012,423.479C686.424,423.605 670.05,434.941 665.012,438.719C659.974,442.498 642.718,462.524 639.57,464.792C636.421,467.059 628.36,473.986 628.486,479.402C628.612,484.818 630.249,486.707 630.249,486.707C630.249,486.707 625.085,503.207 624.329,508.245C623.574,513.284 621.81,556.342 621.81,556.342C621.81,556.342 606.508,556.582 605.546,577.54C604.585,598.499 608.716,603.94 612.343,609.079C615.971,614.218 628.566,626.108 628.566,626.108C628.566,626.108 626.752,634.673 620.606,631.851C614.459,629.03 609.824,620.767 609.824,620.767C609.824,620.767 605.592,633.564 602.368,636.285C599.143,639.005 603.879,656.941 600.151,659.057C596.423,661.173 592.997,661.979 590.579,656.941C588.16,651.903 589.772,643.036 587.858,639.509C585.944,635.983 574.658,626.41 572.542,623.79C570.426,621.171 552.087,568.875 550.475,561.721C548.863,554.567 548.863,553.962 548.863,553.962C548.863,553.962 545.135,562.829 543.623,562.628C542.112,562.426 533.547,562.349 533.547,556.342C533.547,550.334 537.275,536.026 537.88,531.794C538.484,527.562 541.306,518.594 541.306,518.594L534.353,486.753L531.23,467.709C531.23,467.709 573.449,418.638 575.162,412.995C576.875,407.353 588.261,393.548 588.261,393.548C588.261,393.548 609.421,393.044 610.53,393.044C611.638,393.044 631.085,389.719 631.085,389.719L652.144,400.198L668.468,387.2L716.733,355.158C716.733,355.158 721.066,350.422 729.832,352.235C738.599,354.049 743.738,353.243 743.738,353.243C743.738,353.243 747.768,351.832 753.512,349.616C759.255,347.399 772.052,341.454 779.911,347.5C787.771,353.545 811.752,365.838 811.752,365.838L830.091,377.93L847.926,406.95C847.926,406.95 850.848,418.134 847.321,423.676C843.795,429.218 838.259,442.025 839.364,444.741Z" style="fill:rgb(71,13,28);"/>
                <path d="M548.353,558.199C548.567,559.2 548.841,560.45 549.192,562.01C550.089,566.005 556.159,584.019 561.75,599.676C565.156,609.214 568.384,617.876 570.139,621.962C570.756,623.399 571.241,624.323 571.494,624.637C572.925,626.409 578.507,631.341 582.618,635.468C584.504,637.362 586.078,639.058 586.672,640.153C587.297,641.305 587.45,643.103 587.564,645.13C587.718,647.888 587.729,651.033 588.224,653.789C588.468,655.15 588.829,656.421 589.36,657.526C590.79,660.508 592.594,661.726 594.503,661.999C596.431,662.275 598.59,661.499 600.819,660.234C601.416,659.895 601.91,659.331 602.264,658.537C602.668,657.629 602.897,656.355 602.979,654.848C603.183,651.091 602.515,645.716 602.518,641.652C602.519,640.469 602.576,639.407 602.747,638.552C602.857,638 602.96,637.547 603.236,637.314C604.255,636.454 605.399,634.704 606.464,632.611C607.933,629.725 609.311,626.18 610.176,623.812C611.219,625.323 612.749,627.327 614.612,629.153C616.214,630.722 618.06,632.155 620.048,633.067C622.402,634.147 624.259,633.858 625.705,633.012C626.914,632.304 627.838,631.155 628.495,629.979C629.492,628.194 629.872,626.384 629.872,626.384C629.968,625.929 629.82,625.457 629.482,625.137C629.482,625.137 624.191,620.146 619.492,615.248C616.998,612.648 614.67,610.078 613.424,608.316C611.444,605.514 609.296,602.623 607.985,596.96C606.965,592.552 606.446,586.501 606.85,577.6C607.125,571.529 608.638,567.277 610.648,564.309C615.071,557.779 621.83,557.629 621.83,557.629C622.513,557.618 623.069,557.076 623.096,556.394C623.096,556.394 623.875,537.001 624.614,522.727C624.974,515.791 625.319,510.073 625.564,508.431C625.833,506.632 626.675,503.349 627.634,499.896C629.341,493.75 631.424,487.075 631.424,487.075C631.551,486.668 631.459,486.224 631.179,485.901C631.179,485.901 630.525,485.069 630.086,482.937C629.891,481.991 629.744,480.815 629.709,479.374C629.663,477.449 630.843,475.337 632.377,473.331C634.89,470.044 638.441,467.091 640.273,465.769C642.689,464.026 653.366,451.893 660.544,444.529C662.71,442.306 664.545,440.529 665.712,439.652C668.834,437.305 676.361,432.012 684.368,428.36C689.026,426.236 693.843,424.656 698.024,424.606C702.451,424.554 706.751,423.891 710.836,422.89C717.592,421.235 723.757,418.656 728.925,416.423C731.425,415.343 733.725,414.959 735.693,414.938C739.71,414.894 742.316,416.354 742.316,416.354C742.376,416.388 742.438,416.416 742.503,416.438C750.281,419.079 761.093,421.654 771.034,424.82C775.234,426.157 779.278,427.6 782.863,429.2C788.406,431.675 795.147,433.499 801.593,434.653C809.421,436.054 816.813,436.464 821.105,435.884C823.49,435.562 826.17,436.502 828.7,437.847C834.036,440.684 838.687,445.406 838.687,445.406L838.687,445.104C839.005,445.281 839.507,445.31 839.886,445.174C840.265,445.038 840.415,444.775 840.244,444.545L839.845,444.545C839.649,444.061 839.727,443.218 839.944,442.139C840.271,440.51 840.961,438.398 841.836,436.147C843.539,431.768 845.944,426.871 847.794,423.977C848.982,422.117 849.486,419.648 849.606,417.152C849.853,412.029 848.497,406.8 848.497,406.8C848.482,406.744 848.459,406.69 848.429,406.641L830.644,377.59C830.595,377.509 830.528,377.44 830.449,377.388L812.13,365.266C812.109,365.252 812.087,365.24 812.065,365.228C812.065,365.228 801.942,360.018 792.708,354.71C787.772,351.874 783.091,349.011 780.366,346.908C777.213,344.474 773.303,343.857 769.332,344.183C763.148,344.691 756.822,347.496 753.226,348.877C751.407,349.575 749.759,350.194 748.358,350.712C745.699,351.696 743.926,352.319 743.547,352.452C743.124,352.508 740.76,352.778 736.82,352.439C734.902,352.274 732.615,351.965 730.001,351.42C727.128,350.821 724.709,350.899 722.741,351.282C718.782,352.054 716.608,354.068 716.18,354.498C716.183,354.496 667.944,386.411 667.944,386.411C667.921,386.426 667.899,386.442 667.878,386.459L652.024,399.045C652.024,399.045 631.537,388.812 631.537,388.812C631.344,388.716 631.126,388.684 630.914,388.72C630.914,388.72 622.605,390.128 616.542,391.102C613.415,391.605 610.903,392 610.53,392L588.235,392.473C587.923,392.481 587.63,392.623 587.432,392.864C587.432,392.864 582.696,398.59 578.849,404.191C576.643,407.402 574.74,410.583 574.103,412.674C573.534,414.539 568.387,421.21 561.884,429.279C548.866,445.428 530.321,466.928 530.321,466.928C530.09,467.197 529.99,467.554 530.047,467.903L533.15,486.951C533.154,486.972 533.158,486.993 533.162,487.013L540.009,518.537C539.692,519.556 538.675,522.873 537.821,526.146C537.295,528.161 536.832,530.161 536.623,531.615C536.203,534.528 534.291,542.228 533.148,548.691C532.618,551.686 532.255,554.424 532.253,556.342C532.251,558.962 533.545,560.685 535.323,561.821C538.164,563.634 542.398,563.778 543.451,563.919C543.819,563.968 544.244,563.902 544.687,563.634C545.119,563.373 545.655,562.819 546.19,562.047C546.901,561.02 547.681,559.562 548.353,558.199ZM548.911,555.16C549.124,554.666 549.989,552.772 550.199,554.068C550.257,554.429 550.399,555.198 550.739,556.805C550.974,557.911 551.301,559.409 551.759,561.431C552.536,564.871 557.217,578.795 562.073,592.567C566.058,603.87 570.165,615.07 572.361,620.302C572.957,621.723 573.363,622.663 573.59,622.944C575.188,624.921 582.047,630.878 586.088,635.168C587.478,636.644 588.547,637.949 589.044,638.865C589.663,640.005 589.991,641.632 590.158,643.518C590.42,646.483 590.318,650.16 590.884,653.311C591.083,654.419 591.366,655.456 591.798,656.356C592.697,658.228 593.687,659.15 594.886,659.321C596.302,659.523 597.846,658.81 599.483,657.881C599.772,657.717 599.869,657.321 599.992,656.848C600.206,656.029 600.29,654.986 600.312,653.813C600.385,649.835 599.716,644.486 599.838,640.67C599.884,639.216 600.049,637.964 600.367,637.035C600.637,636.248 601.027,635.654 601.5,635.256C602.571,634.352 603.718,632.207 604.804,629.875C606.856,625.467 608.55,620.346 608.55,620.346C608.717,619.841 609.166,619.483 609.696,619.432C610.225,619.381 610.734,619.647 610.994,620.111C610.994,620.111 613.166,623.983 616.487,627.24C617.868,628.595 619.449,629.848 621.164,630.636C622.883,631.426 624.14,631.035 625.026,630.194C626.171,629.107 626.796,627.461 627.076,626.533C625.574,625.099 621.381,621.063 617.574,617.086C614.976,614.372 612.559,611.682 611.262,609.842C609.125,606.811 606.831,603.674 605.422,597.552C604.369,592.98 603.815,586.708 604.243,577.481C604.554,570.79 606.284,566.122 608.503,562.854C612.497,556.971 618.122,555.525 620.571,555.17C620.755,550.843 621.443,534.837 622.097,522.594C622.473,515.543 622.842,509.73 623.094,508.06C623.375,506.2 624.243,502.802 625.242,499.229C626.67,494.116 628.359,488.639 628.899,486.902C628.602,486.389 628.199,485.529 627.865,484.233C627.562,483.056 627.308,481.481 627.262,479.431C627.209,477.035 628.532,474.344 630.446,471.851C633.129,468.358 636.912,465.218 638.866,463.814C641.251,462.101 651.773,450.133 658.864,442.889C661.145,440.559 663.085,438.705 664.312,437.786C667.511,435.393 675.224,429.998 683.421,426.28C688.392,424.025 693.542,422.395 698,422.352C702.251,422.31 706.382,421.678 710.308,420.725C716.937,419.116 722.986,416.592 728.06,414.413C730.872,413.205 733.459,412.785 735.671,412.765C739.877,412.728 742.746,414.139 743.288,414.428C751.041,417.074 761.787,419.664 771.668,422.837C775.941,424.21 780.054,425.691 783.701,427.33C789.098,429.756 795.668,431.543 801.949,432.684C809.528,434.06 816.686,434.5 820.846,433.949C823.593,433.585 826.7,434.587 829.608,436.143C833.477,438.212 836.999,441.228 838.794,442.881L838.794,442.881C839.02,441.08 839.778,438.514 840.838,435.76C842.552,431.306 844.981,426.323 846.849,423.376C847.934,421.665 848.362,419.391 848.464,417.099C848.668,412.524 847.548,407.866 847.377,407.183C847.377,407.183 829.614,378.394 829.614,378.394C829.614,378.394 811.407,366.432 811.409,366.433C810.794,366.119 800.974,361.088 791.99,355.964C786.977,353.105 782.225,350.214 779.456,348.091C776.597,345.9 773.049,345.401 769.46,345.708C763.439,346.222 757.294,348.998 753.797,350.355C751.973,351.062 750.321,351.688 748.916,352.213C745.888,353.344 744.005,354.007 744.005,354.007C743.959,354.023 743.911,354.035 743.863,354.043C743.863,354.043 741.294,354.456 736.682,354.075C734.708,353.912 732.354,353.603 729.664,353.051C727.052,352.515 724.854,352.585 723.066,352.939C719.261,353.693 717.364,355.735 717.364,355.735C717.318,355.787 717.264,355.832 717.206,355.87C717.206,355.87 669.027,387.965 669.027,387.965L652.754,400.964C652.457,401.2 652.049,401.244 651.709,401.074C651.709,401.074 630.931,390.774 630.931,390.774C629.341,391.048 622.231,392.269 616.874,393.146C613.576,393.687 610.924,394.088 610.53,394.089C610.53,394.089 588.782,394.611 588.782,394.611C587.682,395.967 583.854,400.742 580.654,405.428C578.609,408.422 576.809,411.369 576.221,413.317C575.634,415.26 570.398,422.288 563.653,430.701C551.73,445.573 535.156,464.966 532.502,468.065C532.502,468.065 535.551,486.523 535.551,486.523L542.532,518.327C542.578,518.54 542.568,518.762 542.503,518.971C542.503,518.971 541.269,522.908 540.267,526.781C539.772,528.695 539.333,530.593 539.137,531.974C538.722,534.902 536.823,542.643 535.686,549.137C535.192,551.959 534.84,554.536 534.841,556.342C534.842,557.922 535.644,558.949 536.718,559.633C538.943,561.048 542.17,561.197 543.451,561.302C543.478,561.277 543.505,561.251 543.527,561.227C545.178,559.453 547.655,553.454 547.655,553.454C547.584,553.623 547.55,553.803 547.554,553.981C548.801,553.964 548.863,555.272 548.863,555.272L548.911,555.16ZM547.559,554.085L547.555,554.022L547.575,554.197L547.569,554.164C547.565,554.138 547.562,554.112 547.559,554.085Z"/>
                <path d="M614.731,508.494C614.731,508.494 616.994,505.643 619.767,501.76C620.391,500.887 621.033,499.957 621.673,498.991C622.082,498.376 622.489,497.745 622.883,497.102C623.869,495.494 624.817,493.838 625.693,492.239C627.312,489.283 628.644,486.537 629.398,484.617C629.52,484.358 629.409,484.048 629.15,483.926C628.891,483.804 628.581,483.915 628.459,484.174C627.317,486.239 625.184,489.242 622.9,492.464C622.135,493.544 621.355,494.643 620.598,495.745C620.087,496.488 619.591,497.232 619.112,497.966C618.252,499.283 617.443,500.558 616.712,501.721C614.634,505.022 613.177,507.404 613.177,507.404C612.876,507.833 612.98,508.426 613.409,508.726C613.838,509.027 614.431,508.923 614.731,508.494Z"/>
                <path d="M612.014,504.477C612.014,504.477 613.327,502.251 615.393,498.967C616.403,497.363 617.602,495.516 618.895,493.537C619.505,492.602 620.127,491.633 620.765,490.65C621.686,489.229 622.629,487.777 623.615,486.351C625.415,483.747 627.296,481.225 629.285,479.105C629.493,478.908 629.503,478.579 629.306,478.371C629.109,478.163 628.78,478.154 628.572,478.351C626.287,480.267 624.016,482.567 621.909,485.037C620.533,486.65 619.227,488.321 618.036,489.987C617.54,490.679 617.072,491.375 616.626,492.064C615.914,493.163 615.258,494.241 614.663,495.271C611.928,500.007 610.324,503.612 610.324,503.612C610.086,504.078 610.271,504.651 610.737,504.889C611.203,505.128 611.776,504.943 612.014,504.477Z"/>
                <path d="M614.342,485.262C614.342,485.262 617.65,484.013 622.183,481.358C623.128,480.804 624.121,480.182 625.14,479.488C625.765,479.063 626.4,478.611 627.034,478.125C628.504,476.996 629.994,475.727 631.468,474.332C633.509,472.399 635.483,470.228 637.328,467.863C637.519,467.649 637.499,467.32 637.285,467.13C637.071,466.94 636.743,466.959 636.553,467.173C635.176,468.525 633.743,469.764 632.302,470.943C630.794,472.176 629.276,473.304 627.794,474.362C626.845,475.039 625.909,475.674 625.01,476.294C624.037,476.964 623.106,477.608 622.215,478.207C620.985,479.033 619.842,479.782 618.81,480.436C615.66,482.429 613.567,483.529 613.567,483.529C613.088,483.743 612.874,484.305 613.087,484.783C613.301,485.261 613.863,485.476 614.342,485.262Z"/>
                <path d="M639.843,421.006C639.843,421.006 634.076,415.515 624.907,412.774C622.816,412.148 620.545,411.676 618.133,411.452C616.646,411.315 615.103,411.271 613.517,411.356C609.984,411.546 606.228,412.316 602.354,413.91C597.804,415.782 593.097,418.802 588.354,423.343C588.141,423.534 588.123,423.862 588.314,424.076C588.505,424.289 588.833,424.307 589.047,424.116C593.904,420.052 598.635,417.481 603.117,415.923C606.807,414.641 610.324,414.09 613.622,414.007C615.089,413.97 616.511,414.021 617.885,414.146C620.126,414.35 622.238,414.755 624.197,415.28C632.897,417.611 638.572,422.417 638.572,422.417C638.962,422.768 639.563,422.736 639.913,422.347C640.264,421.957 640.232,421.357 639.843,421.006Z"/>
                <path d="M663.159,392.375C663.159,392.375 668.235,390.865 674.429,388.727C678.016,387.489 681.968,386.019 685.548,384.576C688.018,383.526 690.793,382.66 693.72,381.93C696.456,381.249 699.324,380.689 702.234,380.31C708.17,379.536 714.25,379.449 719.593,380.313C719.874,380.368 720.147,380.184 720.202,379.903C720.256,379.622 720.072,379.349 719.791,379.294C714.376,378.063 708.141,377.713 702.015,378.17C698.987,378.395 695.989,378.811 693.138,379.428C690.039,380.099 687.122,381.019 684.51,382.085C681,383.595 677.107,385.102 673.599,386.447C667.515,388.781 662.565,390.572 662.565,390.572C662.068,390.735 661.797,391.273 661.96,391.77C662.124,392.268 662.661,392.539 663.159,392.375Z"/>
                <path d="M822.102,435.714C822.102,435.714 825.372,435.273 829.266,433.09C830.105,432.62 830.966,432.058 831.819,431.399C832.343,430.994 832.865,430.551 833.368,430.06C834.514,428.942 835.606,427.626 836.563,426.089C837.784,424.13 838.778,421.838 839.436,419.151C839.525,418.879 839.376,418.586 839.104,418.497C838.832,418.407 838.539,418.556 838.449,418.828C837.459,421.217 836.179,423.164 834.813,424.836C833.779,426.101 832.676,427.163 831.579,428.102C831.101,428.511 830.629,428.898 830.161,429.262C829.396,429.858 828.644,430.389 827.919,430.861C824.544,433.055 821.726,433.853 821.726,433.853C821.212,433.957 820.879,434.458 820.983,434.972C821.087,435.485 821.588,435.818 822.102,435.714Z"/>
                <path d="M691.929,396.191C691.929,396.191 708.543,390.736 725.109,393.461C728.688,394.049 732.265,395.018 735.677,396.511C738.938,397.937 742.055,399.832 744.858,402.365C748.454,405.571 751.609,408.41 754.499,410.877C760.599,416.083 765.499,419.685 770.615,421.83C776.661,424.364 783.016,424.876 792.06,423.498C792.343,423.46 792.543,423.199 792.505,422.915C792.467,422.631 792.205,422.431 791.921,422.47C783.172,423.489 777.074,422.818 771.334,420.189C766.447,417.951 761.837,414.289 756.056,409.098C753.239,406.569 750.143,403.689 746.626,400.422C743.619,397.666 740.282,395.57 736.761,394.032C733.136,392.448 729.323,391.45 725.515,390.876C720.762,390.159 716.014,390.106 711.633,390.41C700.218,391.202 691.314,394.395 691.314,394.395C690.818,394.565 690.554,395.105 690.724,395.601C690.894,396.096 691.434,396.361 691.929,396.191Z"/>
                <path d="M739.359,413.091C739.359,413.091 729.503,409.564 718.822,407.546C713.955,406.626 708.918,406.035 704.554,406.187C700.011,406.374 693.06,406.83 684.939,408.133C678.996,409.087 672.429,410.499 665.716,412.497C653.565,416.114 640.953,421.695 630.684,430.114C630.46,430.292 630.422,430.618 630.6,430.843C630.778,431.067 631.105,431.105 631.329,430.927C639.577,424.603 649.239,420.144 658.903,416.93C668.402,413.772 677.913,411.875 686.122,410.667C693.8,409.537 700.336,408.996 704.667,408.802C708.859,408.589 713.706,409.108 718.401,409.9C728.954,411.679 738.743,414.887 738.743,414.887C739.239,415.057 739.779,414.792 739.949,414.297C740.119,413.801 739.854,413.261 739.359,413.091Z"/>
                <path d="M611.639,622.501C611.639,622.501 611.326,621.047 610.931,618.61C610.749,617.489 610.57,616.162 610.353,614.678C610.231,613.85 610.086,612.977 609.942,612.059C609.81,611.214 609.66,610.343 609.526,609.431C609.261,607.632 609.012,605.738 608.893,603.725C608.904,603.439 608.68,603.198 608.394,603.187C608.107,603.176 607.866,603.4 607.856,603.686C607.581,605.739 607.412,607.696 607.377,609.564C607.351,610.953 607.39,612.27 607.491,613.506C607.536,614.046 607.601,614.569 607.677,615.072C607.801,615.902 607.95,616.68 608.113,617.398C608.922,620.955 609.833,623.089 609.833,623.089C609.996,623.587 610.532,623.86 611.03,623.698C611.528,623.536 611.801,623 611.639,622.501Z"/>
                <g>
                    <path d="M530.285,468.299C530.285,468.299 531.314,480.767 534.079,495.838C535.151,501.681 536.487,507.913 538.125,513.959C539.234,518.052 540.48,522.062 541.882,525.803C544.385,532.48 547.376,538.31 550.793,542.362C558.82,551.783 563.721,557.798 568.595,561.707C573.204,565.402 577.778,567.253 584.871,568.301C585.154,568.348 585.421,568.156 585.467,567.874C585.514,567.591 585.322,567.324 585.039,567.277C578.267,566.051 573.932,564.151 569.618,560.471C564.924,556.467 560.259,550.391 552.598,540.868C549.402,536.936 546.724,531.28 544.392,524.876C543.051,521.192 541.826,517.261 540.718,513.249C539.068,507.278 537.675,501.131 536.522,495.37C533.537,480.454 532.174,468.117 532.174,468.117C532.124,467.595 531.66,467.212 531.138,467.263C530.617,467.313 530.234,467.777 530.285,468.299Z"/>
                    <path d="M787.208,430.855C787.208,430.855 794.382,433.395 801.652,432.285C804.858,431.796 808.07,430.595 810.742,428.235C815.623,423.893 819.555,421.944 822.163,419.057C824.193,416.811 825.501,414.044 825.881,409.398C826.345,403.1 826.653,398.024 823.961,392.012C822.162,387.994 818.998,383.556 813.596,378.043C809.451,373.84 805.601,370.223 802.264,367.244C794.997,360.759 790.183,357.285 790.183,357.285C789.954,357.113 789.628,357.16 789.456,357.389C789.284,357.618 789.331,357.944 789.56,358.116C789.56,358.116 794.203,361.736 801.193,368.405C804.406,371.47 808.116,375.176 812.095,379.477C817.108,384.861 820.015,389.157 821.659,393.017C824.055,398.644 823.681,403.342 823.186,409.184C822.889,413.065 821.863,415.396 820.186,417.288C817.658,420.143 813.826,422.097 809.104,426.42C806.832,428.515 804.057,429.584 801.288,430.071C794.549,431.258 787.821,429.058 787.821,429.058C787.325,428.889 786.785,429.154 786.616,429.65C786.447,430.146 786.712,430.686 787.208,430.855Z"/>
                    <path d="M651.335,399.703C651.335,399.703 644.089,411.346 638.393,419.862C635.832,423.691 633.599,426.881 632.501,428.026C629.877,430.767 622.415,438.077 617.73,442.833C616.033,444.556 614.696,445.951 614.063,446.684C612.515,448.487 607.607,456.569 605.458,468.335C604.237,475.022 603.92,482.902 605.566,491.465C607.348,500.573 608.225,504.572 608.503,506.53C608.596,507.183 608.641,507.524 608.573,507.77C608.533,507.917 608.436,508.002 608.334,508.14C607.947,508.664 607.37,509.451 606.739,511.578C605.453,515.93 602.944,523.229 601.783,530.413C601.02,535.132 600.842,539.801 601.909,543.591C602.728,546.494 603.607,549.919 604.433,553.269C606.284,560.776 607.867,567.896 607.867,567.896C607.926,568.177 608.201,568.356 608.481,568.297C608.762,568.238 608.941,567.963 608.882,567.682C608.882,567.682 607.456,560.515 605.76,552.956C605.001,549.573 604.187,546.114 603.425,543.181C602.489,539.578 602.783,535.169 603.59,530.723C604.873,523.651 607.48,516.491 608.829,512.217C609.531,509.986 610.121,509.545 610.429,509.071C610.795,508.507 611.016,507.921 610.708,505.783C610.403,503.669 609.582,499.579 608.034,491.001C606.522,482.778 606.921,475.232 608.11,468.823C610.162,457.761 614.615,450.102 616.068,448.403C616.676,447.689 617.964,446.333 619.593,444.652C624.244,439.848 631.636,432.442 634.236,429.669C635.363,428.463 637.666,425.126 640.276,421.103C645.87,412.482 652.954,400.694 652.954,400.694C653.228,400.247 653.087,399.662 652.64,399.389C652.193,399.115 651.608,399.256 651.335,399.703Z"/>
                    <path d="M637.347,422.72C637.347,422.72 631.596,419.788 622.923,420.694C620.059,420.993 616.873,421.718 613.493,423.122C611.804,423.823 610.066,424.698 608.303,425.783C606.038,427.177 603.724,428.911 601.4,431.047C597.004,435.087 592.572,440.568 588.261,447.887C588.109,448.13 588.181,448.45 588.423,448.603C588.666,448.756 588.987,448.684 589.139,448.441C593.779,441.567 598.457,436.534 602.939,432.807C605.241,430.892 607.493,429.337 609.671,428.063C611.34,427.086 612.963,426.277 614.536,425.61C618.574,423.898 622.279,423.154 625.472,422.955C632.149,422.538 636.534,424.435 636.534,424.435C637.007,424.66 637.574,424.457 637.798,423.984C638.023,423.511 637.82,422.944 637.347,422.72Z"/>
                    <path d="M640.101,421.39C640.101,421.39 638.249,415.776 632.804,411.017C630.02,408.583 626.296,406.369 621.438,405.273C619.579,404.853 617.55,404.602 615.347,404.58C612.617,404.553 609.614,404.868 606.33,405.629C600.479,406.986 593.725,409.763 585.927,414.46C585.677,414.601 585.589,414.918 585.729,415.167C585.87,415.417 586.186,415.506 586.436,415.365C594.3,411.239 601.04,408.969 606.803,407.919C609.915,407.352 612.732,407.158 615.292,407.238C617.304,407.302 619.153,407.537 620.855,407.907C625.252,408.864 628.652,410.752 631.239,412.868C636.348,417.048 638.314,422.033 638.314,422.033C638.492,422.526 639.036,422.782 639.529,422.605C640.022,422.428 640.278,421.883 640.101,421.39Z"/>
                </g>
            </g>
        </g>
    </g>
</svg>
