<?xml version="1.0" encoding="UTF-8" standalone="no"?>
<!DOCTYPE svg PUBLIC "-//W3C//DTD SVG 1.1//EN" "http://www.w3.org/Graphics/SVG/1.1/DTD/svg11.dtd">
<svg width="100%" height="100%" viewBox="0 0 278 314" version="1.1" xmlns="http://www.w3.org/2000/svg" xmlns:xlink="http://www.w3.org/1999/xlink" xml:space="preserve" xmlns:serif="http://www.serif.com/" style="fill-rule:evenodd;clip-rule:evenodd;stroke-linejoin:round;stroke-miterlimit:2;">
    <g transform="matrix(1,0,0,1,-227.128,-134.403)">
        <g transform="matrix(0.97604,0,0,0.97604,1208.18,669.533)">
            <g id="head" transform="matrix(1.02455,0,0,1.02455,-1624.01,-968.744)">
                <path d="M666.8,630.319L681.314,663.283C681.314,663.283 684.02,670.417 691.154,676.321L773.565,715.436C773.565,715.436 789.063,723.554 809.235,722.324C829.408,721.094 837.28,720.356 846.874,702.889C856.468,685.423 865.57,655.657 870.49,634.255C875.41,612.852 877.87,589.482 874.918,568.08C874.918,568.08 880.532,559.254 874.486,555.526C874.486,555.526 884.562,545.047 876.703,537.389C876.703,537.389 876.501,532.754 878.013,526.607C879.524,520.46 881.842,519.453 877.71,515.422C873.579,511.392 866.929,496.68 865.417,491.844C863.906,487.007 846.172,450.934 838.413,444.284C838.413,444.284 818.718,412.351 758.891,411.761C699.063,411.171 658.521,428.686 643.761,452.893C629.001,477.099 612.667,494.418 617.587,546.767L618.018,556.37C618.018,556.37 597.747,565.62 608.571,597.305C608.571,597.305 613.294,617.772 632.581,629.777C651.868,641.782 652.655,643.553 659.74,639.42C666.825,635.288 666.8,630.319 666.8,630.319Z" style="fill:rgb(204,141,72);"/>
                <path d="M818.383,721.668L833.079,679.449L840.951,675.827L841.581,670.789L842.054,637.727L845.832,623.872L862.678,603.404L849.138,602.46L839.062,597.422L836.543,529.407L826.782,509.884L824.892,497.603L797.812,431.635C797.812,431.635 790.57,416.521 783.485,414.474C783.485,414.474 813.622,419.465 830.744,435.8C830.744,435.8 849.637,454.496 858.493,476.734C858.493,476.734 867.153,495.824 870.301,502.122C870.301,502.122 872.526,508.392 876.267,513.099C880.007,517.807 880.526,518.388 880.041,520.387C879.556,522.386 877.685,529.415 877.363,532.575C877.04,535.735 876.654,536.831 876.654,536.831C876.654,536.831 880.784,540.056 880.041,543.796C879.298,547.536 874.848,555.404 874.848,555.404C874.848,555.404 878.072,558.177 876.912,562.433C875.751,566.689 875.106,568.172 875.106,568.172C875.106,568.172 876.525,589.002 876.396,591.066C876.267,593.129 874.525,614.926 873.687,617.957C872.849,620.988 867.754,644.139 867.754,644.139L860.854,667.678L851.826,692.505C851.826,692.505 841.894,711.787 840.411,712.948C838.928,714.109 830.017,723.552 818.383,721.668Z" style="fill:rgb(224,148,74);"/>
                <path d="M666.791,632.662L680.386,663.665C680.504,663.97 681.773,667.157 684.665,670.987C686.156,672.96 688.079,675.105 690.499,677.113C690.564,677.168 690.636,677.214 690.713,677.25L773.051,716.466C773.472,716.685 780.354,720.201 790.752,722.229C796.132,723.278 802.454,723.929 809.308,723.519C819.277,722.924 826.291,722.413 831.993,720.042C838.149,717.483 842.841,712.802 847.968,703.49C851.998,696.171 855.947,686.705 859.539,676.592C864.555,662.468 868.876,647.079 871.766,634.548C874.235,623.843 876.093,612.649 876.97,601.451C877.847,590.261 877.745,579.069 876.311,568.357C877.009,567.112 878.864,563.448 878.611,560.032C878.483,558.313 877.869,556.651 876.433,555.316C877.975,553.381 880.822,549.233 881.039,544.765C881.168,542.112 880.425,539.345 878.046,536.825C878.046,536.033 878.085,534.357 878.365,532.126C878.554,530.612 878.854,528.847 879.325,526.93C879.839,524.837 880.452,523.354 880.858,522.142C881.177,521.192 881.376,520.376 881.39,519.592C881.418,518.057 880.812,516.562 878.653,514.456C877.026,512.87 875.014,509.545 873.081,505.87C870.227,500.447 867.58,494.253 866.701,491.443C865.781,488.505 858.934,474.137 851.909,461.714C847.287,453.54 842.562,446.218 839.409,443.42C838.26,441.666 828.093,427.048 802.98,417.9C791.577,413.746 777.072,410.717 758.902,410.562C728.568,410.31 703.173,414.686 683.55,422.205C664.106,429.655 650.308,440.202 642.914,452.376C634.198,466.728 624.941,478.685 619.83,496.845C616.264,509.514 614.711,525.201 616.785,546.824C616.785,546.824 617.211,555.904 617.211,555.904C615.412,556.888 609.036,560.931 606.124,570.097C604.097,576.476 603.741,585.375 607.905,597.501C608.058,598.135 610.257,606.868 617.063,616.143C620.69,621.087 625.627,626.186 632.259,630.295C642.245,636.482 647.308,639.949 650.835,641.297C654.326,642.63 656.392,642.014 660.014,639.891C662.755,638.284 664.459,636.555 665.522,635.026C666.124,634.16 666.525,633.355 666.791,632.663L666.791,632.662ZM667.669,630.109C667.487,629.884 667.042,629.76 666.602,629.811C666.162,629.862 665.848,630.075 665.851,630.321L666.281,630.321C666.281,630.321 666.261,632.613 663.952,635.325C662.945,636.508 661.508,637.764 659.465,638.95C656.209,640.84 654.365,641.452 651.24,640.243C647.754,638.895 642.764,635.427 632.903,629.259C626.441,625.219 621.641,620.217 618.117,615.373C611.27,605.962 609.247,597.149 609.247,597.149C609.242,597.126 609.235,597.103 609.227,597.081C606.101,587.869 605.623,580.587 606.521,574.896C608.629,561.537 618.343,557.083 618.343,557.083C618.634,556.951 618.815,556.654 618.801,556.335L618.389,546.731C618.388,546.718 618.388,546.705 618.386,546.692C616.421,525.325 617.998,509.836 621.566,497.337C626.695,479.377 635.928,467.588 644.609,453.409C651.85,441.58 665.363,431.416 684.32,424.224C703.75,416.852 728.881,412.618 758.879,412.961C776.708,413.16 790.936,416.16 802.116,420.263C827.839,429.703 837.301,444.969 837.301,444.969C837.372,445.084 837.461,445.188 837.563,445.275C840.583,447.868 845.11,455.044 849.603,463.016C856.49,475.238 863.233,489.356 864.133,492.245C865.038,495.143 867.755,501.534 870.695,507.125C872.786,511.102 875.008,514.671 876.768,516.388C878.139,517.725 878.708,518.569 878.69,519.543C878.677,520.261 878.402,521.005 878.064,521.954C877.658,523.095 877.146,524.474 876.701,526.284C876.201,528.315 875.883,530.186 875.682,531.79C875.251,535.222 875.351,537.447 875.351,537.447C875.366,537.792 875.512,538.117 875.759,538.358C877.79,540.336 878.441,542.528 878.339,544.635C878.087,549.886 873.515,554.592 873.515,554.592C873.232,554.886 873.098,555.291 873.149,555.696C873.2,556.1 873.432,556.459 873.779,556.673C875.25,557.58 875.825,558.879 875.926,560.232C876.182,563.65 873.785,567.359 873.785,567.359C873.614,567.628 873.544,567.948 873.588,568.263C875.062,578.929 875.177,590.087 874.314,601.244C873.458,612.312 871.639,623.378 869.214,633.961C866.362,646.412 862.091,661.703 857.133,675.74C853.609,685.719 849.74,695.063 845.78,702.288C841.033,710.951 836.764,715.387 831.049,717.778C825.553,720.078 818.779,720.529 809.163,721.128C802.529,721.541 796.408,720.925 791.199,719.922C780.848,717.93 774.1,714.415 774.1,714.415C774.086,714.408 774.073,714.402 774.059,714.395L691.711,675.447C689.467,673.581 687.677,671.592 686.285,669.759C683.435,666.011 682.252,662.927 682.252,662.927C682.246,662.911 682.24,662.895 682.233,662.879L667.669,629.936L667.669,630.109Z"/>
            </g>
        </g>
    </g>
</svg>
