<?xml version="1.0" encoding="UTF-8" standalone="no"?>
<!DOCTYPE svg PUBLIC "-//W3C//DTD SVG 1.1//EN" "http://www.w3.org/Graphics/SVG/1.1/DTD/svg11.dtd">
<svg width="100%" height="100%" viewBox="0 0 378 436" version="1.1" xmlns="http://www.w3.org/2000/svg" xmlns:xlink="http://www.w3.org/1999/xlink" xml:space="preserve" xmlns:serif="http://www.serif.com/" style="fill-rule:evenodd;clip-rule:evenodd;stroke-linejoin:round;stroke-miterlimit:2;">
    <g transform="matrix(1,0,0,1,-178.861,-66.1015)">
        <g transform="matrix(0.97604,0,0,0.97604,1208.18,669.533)">
            <g id="headkabadeon" transform="matrix(1.02455,0,0,1.02455,-5253.09,-2384.47)">
                <g transform="matrix(1,0,0,1,-422.958,0)">
                    <path d="M4805.25,1806.87L4802.47,1761.23L4768.02,1791.71L4757.14,1740.73L4730.78,1776.29L4708.6,1725.25L4673.04,1794.07L4644.17,1761.44L4635.17,1809.13L4608.4,1795.33L4607.56,1819.6L4588.81,1868.34L4522.21,1857.04L4559.23,1906.62L4751.7,1855.47L4805.25,1806.87Z" style="fill:rgb(147,123,95);"/>
                    <path d="M4805.6,1807.57C4805.72,1807.38 4805.78,1807.1 4805.77,1806.81L4806.2,1806.81L4803.49,1761.17C4803.47,1760.78 4803.22,1760.43 4802.86,1760.29C4802.5,1760.13 4802.09,1760.2 4801.8,1760.46L4768.7,1789.66C4768.7,1789.66 4758.27,1740.48 4758.27,1740.48C4758.18,1740.04 4757.83,1739.69 4757.38,1739.59C4756.94,1739.5 4756.48,1739.67 4756.21,1740.04L4731.06,1773.87C4731.06,1773.87 4709.77,1724.74 4709.77,1724.74C4709.58,1724.29 4709.14,1723.99 4708.65,1723.97C4708.15,1723.95 4707.7,1724.22 4707.47,1724.66L4672.75,1791.73C4672.75,1791.73 4645.18,1760.54 4645.18,1760.54C4644.84,1760.16 4644.31,1760 4643.81,1760.14C4643.32,1760.27 4642.94,1760.68 4642.85,1761.19L4634.19,1807.11C4634.19,1807.11 4609.01,1794.14 4609.01,1794.14C4608.6,1793.92 4608.11,1793.94 4607.72,1794.17C4607.32,1794.4 4607.07,1794.82 4607.06,1795.28L4606.25,1819.33C4606.25,1819.33 4588,1866.92 4588,1866.92C4588,1866.92 4522.4,1855.89 4522.4,1855.89C4521.93,1855.81 4521.46,1856.02 4521.21,1856.43C4520.96,1856.84 4520.98,1857.36 4521.27,1857.74L4558.38,1907.26C4558.64,1907.61 4559.09,1907.77 4559.51,1907.65L4751.87,1856.13C4751.98,1856.1 4752.07,1856.05 4752.15,1855.97L4805.6,1807.25L4805.6,1807.57ZM4804.31,1806.9C4804.29,1806.74 4804.4,1806.59 4804.62,1806.48L4804.9,1806.48L4751.37,1854.86C4751.37,1854.86 4559.66,1905.4 4559.66,1905.4C4559.66,1905.4 4524.9,1858.69 4524.9,1858.69C4524.9,1858.69 4588.6,1869.59 4588.6,1869.59C4589.19,1869.69 4589.77,1869.36 4589.99,1868.79L4608.79,1820.07C4608.85,1819.93 4608.87,1819.79 4608.88,1819.64L4609.66,1797.49C4609.66,1797.49 4634.56,1810.33 4634.56,1810.33C4634.94,1810.53 4635.38,1810.53 4635.77,1810.35C4636.15,1810.16 4636.42,1809.8 4636.5,1809.38L4644.98,1764.39C4644.98,1764.39 4672.04,1794.96 4672.04,1794.96C4672.33,1795.29 4672.77,1795.45 4673.2,1795.4C4673.64,1795.34 4674.02,1795.08 4674.22,1794.68L4708.51,1728.22C4708.51,1728.22 4729.66,1776.78 4729.66,1776.78C4729.84,1777.17 4730.21,1777.45 4730.64,1777.5C4731.07,1777.55 4731.5,1777.37 4731.76,1777.02L4756.54,1743.48C4756.54,1743.48 4766.95,1791.94 4766.95,1791.94C4767.03,1792.32 4767.31,1792.63 4767.68,1792.75C4768.04,1792.87 4768.45,1792.79 4768.74,1792.53L4801.58,1763.38C4801.58,1763.38 4804.31,1806.92 4804.31,1806.92L4804.31,1806.9Z"/>
                </g>
                <g transform="matrix(1,0,0,1,-422.958,0)">
                    <path d="M4802.47,1761.23L4777.64,1806.87L4789.56,1820.95L4805.25,1806.87L4802.47,1761.23Z" style="fill:rgb(205,196,147);"/>
                    <path d="M4802.99,1761.17C4802.98,1760.75 4802.81,1760.39 4802.58,1760.3C4802.36,1760.21 4802.13,1760.4 4802.02,1760.77L4801.64,1760.77C4801.64,1760.77 4793.49,1775.36 4786.48,1788.02C4781.14,1797.68 4776.46,1806.22 4776.46,1806.22C4776.2,1806.71 4776.26,1807.31 4776.61,1807.73L4788.56,1821.81C4788.79,1822.08 4789.12,1822.24 4789.47,1822.27C4789.83,1822.29 4790.18,1822.17 4790.44,1821.93L4806.01,1807.7C4806.26,1807.47 4806.4,1807.14 4806.38,1806.8L4802.99,1761.2L4802.99,1761.17ZM4802.08,1763.99L4804.1,1806.38C4804.1,1806.38 4789.7,1819.08 4789.7,1819.08C4789.7,1819.08 4779.26,1806.7 4779.26,1806.7C4780.53,1804.35 4784.4,1797.17 4788.66,1789.2C4793.85,1779.5 4799.62,1768.63 4802.08,1763.99L4802.08,1763.99Z"/>
                </g>
                <g transform="matrix(1,0,0,1,-422.958,0)">
                    <path d="M4758.18,1741.46L4769.69,1799.62C4769.69,1799.62 4754.84,1818.03 4754,1815.93C4753.16,1813.84 4745.63,1799.2 4745.63,1799.2L4758.18,1741.46Z" style="fill:rgb(205,196,147);"/>
                    <path d="M4759.11,1741.36C4759.03,1741.12 4758.64,1740.94 4758.19,1740.94C4757.74,1740.94 4757.35,1741.11 4757.26,1741.35L4757.68,1741.35L4744.48,1798.95C4744.42,1799.22 4744.45,1799.5 4744.58,1799.74C4744.58,1799.74 4747.96,1806.46 4750.41,1811.45C4751.57,1813.8 4752.52,1815.76 4752.78,1816.42C4752.94,1816.82 4753.2,1817.08 4753.52,1817.24C4753.82,1817.4 4754.21,1817.48 4754.7,1817.36C4755.15,1817.25 4755.9,1816.83 4756.78,1816.08C4761.05,1812.45 4770.73,1800.46 4770.73,1800.46C4770.98,1800.15 4771.08,1799.75 4771.01,1799.36C4771.01,1799.36 4768.82,1788.46 4766.3,1776.11C4763,1759.94 4759.11,1741.27 4759.11,1741.27L4759.11,1741.36ZM4754.72,1814.34C4754.25,1813.35 4753.53,1811.91 4752.72,1810.3C4750.54,1806.02 4747.64,1800.48 4746.88,1799.02C4746.88,1799.02 4757.93,1745.26 4757.93,1745.26L4757.93,1745.26C4759.11,1751.49 4761.6,1764.72 4763.88,1776.59C4765.91,1787.24 4767.77,1796.79 4768.26,1799.26C4766.43,1801.5 4758.7,1810.93 4755.05,1814.07C4754.95,1814.15 4754.83,1814.25 4754.72,1814.34Z"/>
                </g>
                <g transform="matrix(1,0,0,1,-422.958,0)">
                    <path d="M4708.81,1725.25L4731.62,1776.19L4710.9,1801.71L4698.98,1791.09L4708.81,1725.25Z" style="fill:rgb(205,196,147);"/>
                    <path d="M4709.68,1725.03C4709.51,1724.82 4709.1,1724.7 4708.68,1724.73C4708.27,1724.76 4707.94,1724.94 4707.87,1725.17L4708.3,1725.17L4697.79,1790.91C4697.73,1791.32 4697.87,1791.72 4698.18,1791.99L4710.03,1802.69C4710.3,1802.93 4710.65,1803.05 4711.01,1803.02C4711.37,1802.99 4711.7,1802.81 4711.92,1802.54C4711.92,1802.54 4717.13,1796.18 4722.31,1789.8C4727.49,1783.42 4732.64,1777.02 4732.64,1777.02C4732.95,1776.63 4733.02,1776.1 4732.82,1775.65C4732.82,1775.65 4728.51,1766.11 4723.6,1755.32C4717.16,1741.17 4709.68,1724.86 4709.68,1724.86L4709.68,1725.03ZM4708.96,1727.95C4711.16,1732.98 4716.55,1745.31 4721.39,1756.3C4725.38,1765.37 4728.99,1773.53 4730.08,1775.98C4728.65,1777.73 4724.42,1782.9 4720.21,1788.1C4716.31,1792.91 4712.42,1797.74 4710.74,1799.82C4710.74,1799.82 4700.27,1790.61 4700.27,1790.61C4700.27,1790.61 4708.96,1727.95 4708.96,1727.95L4708.96,1727.95Z"/>
                </g>
                <g transform="matrix(1,0,0,1,-422.958,0)">
                    <path d="M4645.22,1763.48L4674.3,1797.11L4671.57,1809.03L4659.86,1801.71L4645.22,1763.48Z" style="fill:rgb(205,196,147);"/>
                    <path d="M4645.93,1763.14C4645.63,1762.95 4645.12,1762.9 4644.73,1763.03C4644.33,1763.16 4644.16,1763.43 4644.33,1763.66L4644.73,1763.66L4658.76,1802.13C4658.85,1802.37 4659.02,1802.57 4659.23,1802.71L4670.88,1810.15C4671.24,1810.38 4671.69,1810.41 4672.08,1810.25C4672.48,1810.08 4672.77,1809.74 4672.86,1809.32L4675.61,1797.41C4675.7,1796.99 4675.6,1796.55 4675.32,1796.22C4675.32,1796.22 4669.85,1789.93 4663.61,1782.84C4655.44,1773.54 4645.93,1762.86 4645.93,1762.86L4645.93,1763.14ZM4647.42,1767.57C4650.78,1771.55 4656.5,1778.33 4661.72,1784.47C4666.8,1790.45 4671.41,1795.82 4672.83,1797.47C4672.83,1797.47 4670.69,1806.94 4670.69,1806.94C4670.69,1806.94 4660.81,1800.9 4660.81,1800.9C4660.81,1800.9 4647.42,1767.57 4647.42,1767.57L4647.42,1767.57Z"/>
                </g>
                <g transform="matrix(1,0,0,1,-422.958,0)">
                    <path d="M4609.02,1795.85L4635.59,1809.03L4633.08,1820.95L4622.62,1816.1L4609.02,1795.85Z" style="fill:rgb(205,196,147);"/>
                    <path d="M4609.45,1795.39C4609.06,1795.28 4608.6,1795.33 4608.31,1795.51C4608.03,1795.68 4608,1795.94 4608.24,1796.14L4608.59,1796.14L4621.71,1816.71C4621.82,1816.88 4621.98,1817.01 4622.16,1817.1L4632.54,1822.13C4632.9,1822.3 4633.31,1822.29 4633.66,1822.11C4634.02,1821.94 4634.27,1821.61 4634.35,1821.22L4636.91,1809.31C4637.03,1808.71 4636.74,1808.1 4636.19,1807.83C4636.19,1807.83 4631.2,1805.38 4625.52,1802.64C4618.07,1799.07 4609.45,1795 4609.45,1795L4609.45,1795.39ZM4611.23,1798.07C4614.3,1799.66 4619.6,1802.41 4624.41,1804.87C4628.57,1807 4632.38,1808.92 4634.07,1809.77C4634.07,1809.77 4632.14,1819.12 4632.14,1819.12C4632.14,1819.12 4623.34,1815.22 4623.34,1815.22C4623.34,1815.22 4611.22,1798.06 4611.22,1798.06L4611.23,1798.07Z"/>
                </g>
                <g transform="matrix(1,0,0,1,-422.958,0)">
                    <path d="M4537.38,1958.47C4537.38,1958.47 4546.85,2055.23 4672.54,2066.7C4672.54,2066.7 4684.4,2061.93 4695.22,2077.46C4706.05,2092.99 4761.82,2141.2 4769.59,2143.65C4769.59,2143.65 4786.54,2144.88 4792.88,2143.24C4799.21,2141.61 4810.65,2137.11 4822.3,2118.32C4833.94,2099.52 4843.75,2064.59 4850.28,2050.29C4856.82,2035.99 4852.53,2032.31 4853.35,2023.32C4854.17,2014.33 4848.85,1964.89 4851.72,1953.65C4854.57,1942.42 4868.88,1907.69 4859.27,1883.79C4849.67,1859.88 4837.41,1856.82 4837.41,1856.82C4837.41,1856.82 4825.77,1821.68 4819.84,1815.14C4813.92,1808.6 4800.03,1801.25 4783.28,1800.84C4766.52,1800.43 4733.84,1796.35 4724.03,1794.1C4714.22,1791.85 4698.49,1791.44 4686.85,1791.85C4675.2,1792.26 4627.4,1801.66 4594.1,1819.84C4560.8,1838.02 4559.57,1850.89 4552.83,1868.26C4546.09,1885.62 4532.96,1919.56 4537.38,1958.47Z" style="fill:rgb(110,136,62);"/>
                    <path d="M4536.43,1958.56C4536.43,1958.56 4540.85,2004.51 4584.56,2037.15C4604.53,2052.06 4632.71,2064.2 4672.44,2067.87C4672.62,2067.89 4672.81,2067.86 4672.98,2067.79C4672.98,2067.79 4678.33,2065.71 4684.97,2069.33C4687.93,2070.95 4691.12,2073.68 4694.23,2078.15C4699.33,2085.47 4714.33,2100.03 4729.65,2113.68C4741.07,2123.85 4752.66,2133.53 4760.43,2139.31C4764.6,2142.43 4767.73,2144.42 4769.2,2144.89C4769.29,2144.92 4769.39,2144.93 4769.49,2144.94C4769.49,2144.94 4776.78,2145.47 4783.61,2145.38C4787.34,2145.34 4790.93,2145.09 4793.2,2144.51C4796.76,2143.59 4801.87,2141.81 4807.73,2137.26C4812.6,2133.48 4817.99,2127.78 4823.43,2119.02C4826.88,2113.45 4830.18,2106.47 4833.28,2099.02C4840.65,2081.31 4846.9,2060.94 4851.52,2050.85C4853.55,2046.4 4854.56,2042.94 4855.02,2040.03C4855.54,2036.67 4855.33,2034.03 4855.04,2031.42C4854.76,2028.95 4854.41,2026.52 4854.69,2023.44C4855.31,2016.63 4852.43,1986.64 4852.21,1967.54C4852.14,1961.55 4852.32,1956.66 4853,1953.98C4854.84,1946.73 4861.4,1929.74 4863.31,1912.15C4864.39,1902.19 4863.97,1892.05 4860.45,1883.31C4856.94,1874.62 4853.09,1868.63 4849.59,1864.53C4844.44,1858.5 4840.01,1856.44 4838.38,1855.85C4837.33,1852.73 4832.25,1837.84 4827.37,1826.62C4824.95,1821.05 4822.55,1816.38 4820.71,1814.36C4817.24,1810.54 4811.13,1806.43 4803.32,1803.55C4797.47,1801.38 4790.65,1799.9 4783.3,1799.73C4775.55,1799.55 4764.39,1798.59 4753.66,1797.38C4741.28,1796 4729.49,1794.29 4724.26,1793.1C4720.08,1792.15 4714.85,1791.53 4709.3,1791.16C4701.73,1790.66 4693.58,1790.64 4686.81,1790.89C4679.95,1791.14 4660.58,1794.51 4639,1800.96C4623.81,1805.5 4607.51,1811.57 4593.71,1819.14C4580.72,1826.26 4572.58,1832.58 4567.09,1838.66C4558.41,1848.27 4556.33,1857.28 4552.19,1868.01C4548.32,1878.03 4542.34,1893.54 4538.82,1912.33C4536.21,1926.23 4534.94,1941.93 4536.86,1958.52L4536.43,1958.56ZM4537.89,1958.41C4536.05,1941.92 4537.37,1926.35 4540.01,1912.55C4543.58,1893.87 4549.59,1878.46 4553.47,1868.51C4557.58,1857.97 4559.62,1849.08 4568.19,1839.66C4573.62,1833.69 4581.66,1827.52 4594.48,1820.55C4608.21,1813.08 4624.41,1807.12 4639.5,1802.66C4660.9,1796.34 4680.08,1793.04 4686.88,1792.82C4693.59,1792.59 4701.67,1792.64 4709.17,1793.16C4714.59,1793.54 4719.72,1794.15 4723.8,1795.1C4729.07,1796.31 4740.95,1798.08 4753.42,1799.51C4764.21,1800.75 4775.45,1801.75 4783.25,1801.95C4790.33,1802.13 4796.89,1803.58 4802.53,1805.68C4809.91,1808.44 4815.7,1812.3 4818.98,1815.93C4821.15,1818.33 4824.08,1824.72 4826.93,1831.72C4831.75,1843.57 4836.25,1857.2 4836.25,1857.2C4836.38,1857.6 4836.71,1857.9 4837.12,1858.01C4837.12,1858.01 4841.87,1859.27 4847.7,1866.14C4851.06,1870.1 4854.74,1875.87 4858.1,1884.26C4861.45,1892.62 4861.78,1902.34 4860.73,1911.87C4858.82,1929.31 4852.27,1946.14 4850.43,1953.33C4849.71,1956.14 4849.47,1961.27 4849.54,1967.57C4849.74,1986.58 4852.62,2016.42 4852.01,2023.2C4851.71,2026.48 4852.06,2029.08 4852.35,2031.72C4852.62,2034.11 4852.83,2036.53 4852.34,2039.61C4851.92,2042.33 4850.96,2045.56 4849.05,2049.72C4844.44,2059.84 4838.19,2080.25 4830.81,2098C4827.77,2105.3 4824.55,2112.15 4821.16,2117.62C4817.02,2124.31 4812.91,2129.16 4809.05,2132.7C4802.36,2138.82 4796.45,2140.97 4792.55,2141.98C4790.43,2142.53 4787.06,2142.73 4783.57,2142.78C4777.44,2142.87 4770.94,2142.45 4769.84,2142.37C4768.45,2141.87 4765.67,2140.01 4761.96,2137.25C4754.24,2131.5 4742.69,2121.9 4731.31,2111.8C4716.14,2098.34 4701.26,2084 4696.21,2076.77C4692.82,2071.92 4689.33,2068.98 4686.11,2067.24C4679.33,2063.55 4673.7,2065.07 4672.39,2065.5C4633.31,2061.94 4605.54,2050.07 4585.84,2035.43C4542.82,2003.47 4538.32,1958.37 4538.32,1958.37L4537.89,1958.41Z"/>
                </g>
                <g transform="matrix(1,0,0,1,-0.154262,-0.822526)">
                    <path d="M4403.89,1830.2L4413.52,1857.18C4413.52,1857.18 4403.74,1848.64 4402.36,1838.98C4400.98,1829.32 4392.31,1811.76 4392.31,1811.76L4403.89,1830.2Z" style="fill:rgb(220,200,127);"/>
                </g>
                <g transform="matrix(1,0,0,1,-0.154262,-0.822526)">
                    <path d="M4429.95,1937.32C4429.95,1937.32 4423.64,1950.73 4423.84,1955.66C4424.03,1960.59 4426.01,2002.79 4426.01,2002.79C4426.01,2002.79 4427.58,2010.51 4430,2015.15L4428.89,1984.35C4428.89,1984.35 4427.38,1959.72 4427.78,1957.7C4428.19,1955.68 4430,1950.33 4430.2,1948.91C4430.41,1947.5 4429.95,1937.32 4429.95,1937.32Z" style="fill:rgb(220,200,127);"/>
                </g>
                <g id="nosekabadeon" transform="matrix(1,0,0,1,-422.958,0)">
                    <g transform="matrix(1,0,0,1,422.958,0)">
                        <path d="M4369.92,2143.24C4369.92,2143.24 4348.85,2143.96 4321.91,2114.92C4294.98,2085.88 4264.84,2067.41 4226.16,1988.41C4187.48,1909.42 4206.88,1929.81 4226.16,1938.09C4245.45,1946.37 4260.27,1962.06 4307.34,1940.7C4307.34,1940.7 4321.65,1936.57 4329.18,1937.41C4329.18,1937.41 4311.31,1932.75 4300.43,1936.9C4289.55,1941.05 4222.21,1917.06 4218.01,1873.27L4220.25,1849.87C4220.25,1849.87 4238.68,1843.06 4249.67,1845.83C4260.67,1848.59 4240.04,1838.64 4218.01,1845.83C4218.01,1845.83 4243.53,1817.69 4293.74,1835.26C4293.74,1835.26 4321.42,1848.19 4331.46,1871.17C4331.46,1871.17 4327.39,1841.17 4299.72,1826.35C4299.72,1826.35 4283.03,1817.76 4265.21,1821.41C4265.21,1821.41 4280.86,1823.58 4292.74,1828.95C4292.74,1828.95 4240.96,1809.62 4214.25,1847.91C4214.25,1847.91 4200.16,1867.34 4198.64,1875.72C4197.12,1884.1 4187.27,1858.32 4193.7,1849.27C4200.13,1840.23 4205.84,1829.13 4208.22,1826.35C4210.6,1823.57 4214.8,1802.63 4214.8,1802.63C4214.8,1802.63 4167.27,1814.82 4144.58,1838.73C4144.58,1838.73 4135.82,1850.75 4135.04,1854.03C4134.26,1857.31 4125.21,1881.09 4125.21,1881.09L4116.79,1910.73C4116.79,1910.73 4111.02,1945.91 4114.92,1959.32C4118.82,1972.74 4121.19,2009.61 4175.84,2045.22C4175.84,2045.22 4204.44,2063.41 4249.19,2066.53C4249.19,2066.53 4260.42,2062.72 4270.02,2075.01C4270.02,2075.01 4287.51,2095.2 4297.62,2103.6L4346.13,2144.09C4346.13,2144.09 4364.63,2144.67 4369.92,2143.24Z" style="fill:rgb(89,97,46);"/>
                    </g>
                    <g transform="matrix(1,0,0,1,0.0367903,0)">
                        <path d="M4536.43,1958.56C4536.43,1958.56 4540.85,2004.51 4584.56,2037.15C4604.53,2052.06 4632.71,2064.2 4672.44,2067.87C4672.62,2067.89 4672.81,2067.86 4672.98,2067.79C4672.98,2067.79 4678.33,2065.71 4684.97,2069.33C4687.93,2070.95 4691.12,2073.68 4694.23,2078.15C4699.33,2085.47 4714.33,2100.03 4729.65,2113.68C4741.07,2123.85 4752.66,2133.53 4760.43,2139.31C4764.6,2142.43 4767.73,2144.42 4769.2,2144.89C4769.29,2144.92 4769.39,2144.93 4769.49,2144.94C4769.49,2144.94 4776.78,2145.47 4783.61,2145.38C4787.34,2145.34 4790.93,2145.09 4793.2,2144.51C4796.76,2143.59 4801.87,2141.81 4807.73,2137.26C4812.6,2133.48 4817.99,2127.78 4823.43,2119.02C4826.88,2113.45 4830.18,2106.47 4833.28,2099.02C4840.65,2081.31 4846.9,2060.94 4851.52,2050.85C4853.55,2046.4 4854.56,2042.94 4855.02,2040.03C4855.54,2036.67 4855.33,2034.03 4855.04,2031.42C4854.76,2028.95 4854.41,2026.52 4854.69,2023.44C4855.31,2016.63 4852.43,1986.64 4852.21,1967.54C4852.14,1961.55 4852.32,1956.66 4853,1953.98C4854.84,1946.73 4861.4,1929.74 4863.31,1912.15C4864.39,1902.19 4863.97,1892.05 4860.45,1883.31C4856.94,1874.62 4853.09,1868.63 4849.59,1864.53C4844.44,1858.5 4840.01,1856.44 4838.38,1855.85C4837.33,1852.73 4832.25,1837.84 4827.37,1826.62C4824.95,1821.05 4822.55,1816.38 4820.71,1814.36C4817.24,1810.54 4811.13,1806.43 4803.32,1803.55C4797.47,1801.38 4790.65,1799.9 4783.3,1799.73C4775.55,1799.55 4764.39,1798.59 4753.66,1797.38C4741.28,1796 4729.49,1794.29 4724.26,1793.1C4720.08,1792.15 4714.85,1791.53 4709.3,1791.16C4701.73,1790.66 4693.58,1790.64 4686.81,1790.89C4679.95,1791.14 4660.58,1794.51 4639,1800.96C4623.81,1805.5 4607.51,1811.57 4593.71,1819.14C4580.72,1826.26 4572.58,1832.58 4567.09,1838.66C4558.41,1848.27 4556.33,1857.28 4552.19,1868.01C4548.32,1878.03 4542.34,1893.54 4538.82,1912.33C4536.21,1926.23 4534.94,1941.93 4536.86,1958.52L4536.43,1958.56ZM4537.89,1958.41C4536.05,1941.92 4537.37,1926.35 4540.01,1912.55C4543.58,1893.87 4549.59,1878.46 4553.47,1868.51C4557.58,1857.97 4559.62,1849.08 4568.19,1839.66C4573.62,1833.69 4581.66,1827.52 4594.48,1820.55C4608.21,1813.08 4624.41,1807.12 4639.5,1802.66C4660.9,1796.34 4680.08,1793.04 4686.88,1792.82C4693.59,1792.59 4701.67,1792.64 4709.17,1793.16C4714.59,1793.54 4719.72,1794.15 4723.8,1795.1C4729.07,1796.31 4740.95,1798.08 4753.42,1799.51C4764.21,1800.75 4775.45,1801.75 4783.25,1801.95C4790.33,1802.13 4796.89,1803.58 4802.53,1805.68C4809.91,1808.44 4815.7,1812.3 4818.98,1815.93C4821.15,1818.33 4824.08,1824.72 4826.93,1831.72C4831.75,1843.57 4836.25,1857.2 4836.25,1857.2C4836.38,1857.6 4836.71,1857.9 4837.12,1858.01C4837.12,1858.01 4841.87,1859.27 4847.7,1866.14C4851.06,1870.1 4854.74,1875.87 4858.1,1884.26C4861.45,1892.62 4861.78,1902.34 4860.73,1911.87C4858.82,1929.31 4852.27,1946.14 4850.43,1953.33C4849.71,1956.14 4849.47,1961.27 4849.54,1967.57C4849.74,1986.58 4852.62,2016.42 4852.01,2023.2C4851.71,2026.48 4852.06,2029.08 4852.35,2031.72C4852.62,2034.11 4852.83,2036.53 4852.34,2039.61C4851.92,2042.33 4850.96,2045.56 4849.05,2049.72C4844.44,2059.84 4838.19,2080.25 4830.81,2098C4827.77,2105.3 4824.55,2112.15 4821.16,2117.62C4817.02,2124.31 4812.91,2129.16 4809.05,2132.7C4802.36,2138.82 4796.45,2140.97 4792.55,2141.98C4790.43,2142.53 4787.06,2142.73 4783.57,2142.78C4777.44,2142.87 4770.94,2142.45 4769.84,2142.37C4768.45,2141.87 4765.67,2140.01 4761.96,2137.25C4754.24,2131.5 4742.69,2121.9 4731.31,2111.8C4716.14,2098.34 4701.26,2084 4696.21,2076.77C4692.82,2071.92 4689.33,2068.98 4686.11,2067.24C4679.33,2063.55 4673.7,2065.07 4672.39,2065.5C4633.31,2061.94 4605.54,2050.07 4585.84,2035.43C4542.82,2003.47 4538.32,1958.37 4538.32,1958.37L4537.89,1958.41Z"/>
                    </g>
                    <path d="M4781.15,1982.03C4781.15,1982.03 4780.11,1976.4 4785.86,1976.8C4791.61,1977.19 4792.27,1984.64 4795.8,1989.74C4799.33,1994.84 4799.98,1998.37 4799.98,1998.37C4799.98,1998.37 4788.87,1986.87 4781.15,1982.03Z" style="fill:rgb(18,17,13);"/>
                    <path d="M4780.88,1982.47C4783.26,1984.07 4785.95,1986.36 4788.53,1988.73C4794.09,1993.8 4799.09,1999.23 4799.09,1999.23C4799.47,1999.63 4800.06,1999.73 4800.55,1999.48C4801.04,1999.22 4801.3,1998.68 4801.2,1998.14C4801.2,1998.14 4800.91,1996.28 4799.45,1993.28C4798.84,1992.03 4798.01,1990.58 4796.91,1988.97C4795.82,1987.42 4795.02,1985.63 4794.24,1983.91C4793.3,1981.85 4792.39,1979.89 4791.18,1978.42C4789.86,1976.83 4788.23,1975.77 4785.94,1975.66C4783.48,1975.55 4782.06,1976.34 4781.22,1977.37C4779.66,1979.29 4780.22,1982.2 4780.22,1982.2L4780.88,1982.47ZM4796.5,1993.38C4794.56,1991.62 4792.15,1989.49 4789.63,1987.45C4786.86,1985.2 4783.96,1983.06 4781.43,1981.59L4782.09,1981.85C4782.09,1981.85 4781.75,1979.93 4782.82,1978.73C4783.36,1978.12 4784.28,1977.8 4785.78,1977.93C4787.33,1978.07 4788.39,1978.86 4789.24,1979.97C4790.28,1981.32 4791.03,1983.12 4791.83,1984.98C4792.65,1986.87 4793.52,1988.81 4794.69,1990.51C4795.41,1991.54 4796,1992.51 4796.5,1993.38Z"/>
                    <g transform="matrix(1,0,0,1,422.84,0.085486)">
                        <path d="M4354.94,1977.05C4354.94,1977.05 4352.84,1979.31 4353.32,1982.2C4353.56,1983.6 4354.4,1985.15 4356.41,1986.65C4357.22,1987.24 4358.06,1987.84 4358.93,1988.44C4359.76,1989.01 4360.62,1989.58 4361.48,1990.15C4362.49,1990.83 4363.52,1991.51 4364.53,1992.2C4366.05,1993.24 4367.54,1994.32 4368.93,1995.46C4370.66,1996.89 4372.23,1998.4 4373.48,2000.08C4373.58,2000.22 4373.77,2000.25 4373.91,2000.15C4374.05,2000.06 4374.08,1999.87 4373.99,1999.73C4372.44,1997.33 4370.34,1995.16 4367.99,1993.17C4365.98,1991.46 4363.8,1989.86 4361.65,1988.36C4360.16,1987.33 4358.68,1986.36 4357.31,1985.39C4355.66,1984.25 4354.9,1983.06 4354.67,1981.94C4354.19,1979.67 4355.78,1977.8 4355.78,1977.8C4355.99,1977.57 4355.97,1977.21 4355.74,1977C4355.51,1976.8 4355.15,1976.82 4354.94,1977.05Z"/>
                    </g>
                    <path d="M4797.56,2107.42C4797.56,2107.42 4800.75,2100.65 4804.3,2090.33C4805.51,2086.81 4806.76,2082.87 4807.93,2078.64C4808.8,2075.47 4809.64,2072.15 4810.36,2068.72C4811.05,2065.44 4811.64,2062.07 4812.11,2058.65C4812.88,2053.02 4813.33,2047.28 4813.29,2041.64C4813.25,2035.81 4812.68,2030.09 4811.42,2024.71C4811.36,2024.43 4811.09,2024.25 4810.81,2024.31C4810.53,2024.37 4810.35,2024.65 4810.4,2024.93C4811.39,2030.26 4811.67,2035.89 4811.47,2041.62C4811.28,2047.16 4810.62,2052.78 4809.69,2058.28C4809.12,2061.63 4808.45,2064.93 4807.73,2068.15C4806.98,2071.53 4806.18,2074.81 4805.35,2077.94C4804.23,2082.13 4803.07,2086.05 4801.96,2089.56C4798.7,2099.84 4795.83,2106.64 4795.83,2106.64C4795.61,2107.12 4795.83,2107.68 4796.31,2107.89C4796.78,2108.11 4797.35,2107.89 4797.56,2107.42Z"/>
                </g>
                <g id="feelerrightkabadeon" transform="matrix(1,0,0,1,-422.958,0)">
                    <path d="M4842.07,2071.92L4897.13,2124.13L4885.4,2157.92L4887.61,2123.75L4837.06,2087.77C4837.06,2087.77 4840.38,2078.82 4842.07,2071.92Z" style="fill:rgb(176,144,114);"/>
                    <path d="M4842.72,2071.54C4842.48,2071.41 4842.12,2071.37 4841.8,2071.42C4841.48,2071.47 4841.23,2071.61 4841.15,2071.79L4841.56,2071.79C4841.05,2073.83 4840.38,2076.04 4839.71,2078.15C4838.11,2083.14 4836.44,2087.54 4836.44,2087.54C4836.33,2087.82 4836.43,2088.14 4836.68,2088.32L4886.41,2124.31C4886.41,2124.31 4884.08,2157.83 4884.08,2157.83C4884.03,2158.5 4884.49,2159.09 4885.14,2159.22C4885.79,2159.35 4886.44,2158.98 4886.66,2158.36L4898.38,2124.57C4898.55,2124.08 4898.42,2123.53 4898.04,2123.17C4898.04,2123.17 4887.7,2113.41 4875.94,2102.37C4860.54,2087.9 4842.72,2071.23 4842.72,2071.23L4842.72,2071.54ZM4842.24,2073.4C4845.89,2076.9 4860.96,2091.39 4874.27,2104.13C4884.23,2113.67 4893.2,2122.23 4895.6,2124.51C4895.6,2124.51 4887.3,2148.41 4887.3,2148.41C4887.3,2148.41 4888.76,2123.83 4888.76,2123.83C4888.78,2123.43 4888.6,2123.05 4888.28,2122.81L4837.86,2087.52C4838.26,2086.4 4839.27,2083.49 4840.33,2080.09C4840.99,2077.95 4841.68,2075.61 4842.24,2073.4L4842.24,2073.4Z"/>
                </g>
                <g transform="matrix(1,0,0,1,-422.958,0)">
                    <path d="M4836.57,1857.26C4836.57,1857.26 4843.4,1870.73 4848.04,1885.89C4850.07,1892.53 4851.73,1899.5 4852.09,1905.82C4852.56,1912.38 4852.56,1920.37 4852.4,1928.24C4852.05,1945.39 4850.82,1961.97 4850.82,1961.97C4850.79,1962.25 4851,1962.51 4851.29,1962.54C4851.57,1962.56 4851.83,1962.35 4851.85,1962.07C4851.85,1962.07 4853.76,1945.5 4854.59,1928.32C4854.97,1920.37 4855.1,1912.3 4854.77,1905.66C4854.36,1899.14 4852.7,1891.94 4850.51,1885.11C4845.61,1869.82 4838.25,1856.38 4838.25,1856.38C4838.01,1855.91 4837.44,1855.73 4836.97,1855.98C4836.51,1856.22 4836.33,1856.8 4836.57,1857.26Z"/>
                </g>
                <g transform="matrix(1,0,0,1,-422.958,0)">
                    <path d="M4802.74,1842.08L4819.88,1845.83L4833.94,1806.87L4794.04,1823.47C4794.04,1823.47 4798.05,1836.05 4802.74,1842.08Z" style="fill:rgb(147,123,95);"/>
                    <path d="M4802.33,1842.66C4802.4,1842.84 4802.51,1842.96 4802.63,1843.01L4802.54,1843.01L4819.63,1846.94C4820.19,1847.07 4820.76,1846.75 4820.95,1846.22C4820.95,1846.22 4825.61,1833.73 4829.57,1822.9C4832.59,1814.63 4835.2,1807.32 4835.2,1807.32C4835.38,1806.82 4835.25,1806.26 4834.86,1805.89C4834.48,1805.53 4833.91,1805.42 4833.42,1805.63C4833.42,1805.63 4825.96,1808.78 4817.52,1812.4C4806.46,1817.15 4793.71,1822.69 4793.71,1822.69C4793.31,1822.86 4793.1,1823.31 4793.23,1823.73C4793.23,1823.73 4795.2,1829.61 4797.99,1835.25C4799.3,1837.89 4800.79,1840.48 4802.33,1842.4L4802.33,1842.66ZM4802.94,1841.48C4801.58,1839.6 4800.31,1837.16 4799.18,1834.69C4797.16,1830.27 4795.64,1825.72 4795.08,1823.96C4797.94,1822.82 4808.84,1818.48 4818.44,1814.61C4823.77,1812.46 4828.7,1810.45 4831.64,1809.25C4830.6,1812.13 4828.89,1816.87 4827.06,1822C4823.82,1831.1 4820.21,1841.4 4819.13,1844.5C4819.13,1844.5 4802.94,1841.15 4802.94,1841.15L4802.94,1841.48ZM4803.02,1841.58C4803.2,1841.61 4803.37,1841.67 4803.49,1841.76L4803.15,1841.76L4803.02,1841.58Z"/>
                </g>
                <g transform="matrix(1,0,0,1,-422.958,0)">
                    <path d="M4802.47,1842.35L4833.94,1806.87L4819.34,1845.83L4802.47,1842.35" style="fill:rgb(205,196,147);"/>
                    <path d="M4803.13,1843.03L4819.17,1846.64C4819.58,1846.73 4819.98,1846.51 4820.12,1846.12C4820.12,1846.12 4825.05,1833.68 4829.24,1822.88C4832.44,1814.63 4835.2,1807.34 4835.2,1807.34C4835.43,1806.73 4835.19,1806.05 4834.63,1805.71C4834.07,1805.38 4833.36,1805.48 4832.93,1805.97C4832.93,1805.97 4827.02,1812.62 4820.39,1820.21C4811.71,1830.16 4801.76,1841.72 4801.76,1841.72C4801.41,1842.11 4801.45,1842.71 4801.84,1843.06C4802.22,1843.39 4802.78,1843.37 4803.13,1843.03ZM4803.98,1842.1L4818.79,1844.87C4819.76,1842.15 4823.55,1831.44 4826.96,1822.02C4828.14,1818.76 4829.27,1815.65 4830.21,1813.08C4828.01,1815.55 4825.24,1818.65 4822.31,1821.9C4814.94,1830.09 4806.56,1839.27 4803.98,1842.1Z"/>
                </g>
                <g id="eyekabadeon" transform="matrix(1,0,0,1,-422.958,0)">
                    <path d="M4744.98,1933.83C4744.98,1933.83 4711.53,1819.94 4642.83,1849.82C4642.83,1849.82 4618.57,1915.19 4744.98,1933.83Z" style="fill:rgb(130,100,64);"/>
                    <path d="M4744.91,1934.77C4745.08,1934.82 4745.26,1934.7 4745.37,1934.46C4745.49,1934.21 4745.53,1933.88 4745.48,1933.57L4745.89,1933.57C4745.89,1933.57 4740.05,1913.3 4728.11,1892.02C4720.92,1879.21 4711.53,1866.03 4699.89,1856.67C4684.55,1844.34 4665.36,1838.59 4642.3,1848.6C4641.97,1848.75 4641.72,1849.02 4641.59,1849.36C4641.59,1849.36 4630.68,1878.76 4660.87,1903.96C4676.06,1916.64 4701.8,1928.26 4744.91,1934.35L4744.91,1934.77ZM4743.76,1933.12C4701.97,1926.53 4677,1914.89 4662.26,1902.32C4636.07,1879.98 4642.67,1854.72 4643.9,1850.8C4665.63,1841.56 4683.71,1847.1 4698.26,1858.71C4709.69,1867.83 4718.97,1880.66 4726.11,1893.16C4736.52,1911.37 4742.4,1928.86 4743.76,1933.12L4743.76,1933.12Z"/>
                    <g transform="matrix(0.986733,0,0,0.962544,480.298,70.3172)">
                        <path d="M4250.4,1845.5C4250.4,1845.5 4208.2,1850.03 4227.17,1890.79C4227.17,1890.79 4239.94,1923.68 4320.86,1935.36C4320.86,1935.36 4299.99,1856.81 4250.4,1845.5Z" style="fill:rgb(156,134,107);"/>
                    </g>
                    <path d="M4685.94,1907.98C4685.94,1907.98 4689.47,1910.73 4691.17,1902.36C4692.87,1893.99 4694.38,1881.18 4687.61,1872.29C4687.61,1872.29 4681.89,1882.09 4683.2,1892.55C4684.5,1903.01 4682.67,1905.37 4685.94,1907.98Z" style="fill:rgb(13,12,10);"/>
                    <path d="M4685.62,1908.72C4685.62,1908.72 4685.62,1908.73 4685.62,1908.73L4685.36,1908.73C4685.36,1908.73 4687.66,1910.65 4689.95,1908.06C4690.78,1907.13 4691.62,1905.47 4692.26,1902.58C4693.4,1897.31 4694.51,1890.3 4693.52,1883.55C4692.89,1879.25 4691.39,1875.07 4688.65,1871.49C4688.39,1871.14 4687.97,1870.95 4687.53,1870.98C4687.1,1871.01 4686.7,1871.25 4686.48,1871.62C4686.48,1871.62 4684.05,1875.89 4682.77,1881.84C4682.07,1885.09 4681.72,1888.85 4682.28,1892.67C4683.37,1899.92 4682.86,1903.31 4683.55,1905.55C4683.89,1906.65 4684.47,1907.52 4685.62,1908.38L4685.62,1908.72ZM4686.52,1907.57C4686.53,1907.57 4686.53,1907.57 4686.53,1907.58L4686.27,1907.58C4685.39,1906.83 4684.94,1906.12 4684.71,1905.23C4684.15,1902.97 4684.83,1899.65 4684.11,1892.44C4683.74,1888.85 4684.23,1885.37 4685,1882.36C4685.81,1879.16 4686.95,1876.5 4687.75,1874.83C4689.44,1877.64 4690.38,1880.77 4690.88,1883.95C4691.89,1890.38 4691.05,1897.08 4690.08,1902.14C4689.64,1904.54 4689.05,1905.95 4688.4,1906.74C4688.09,1907.13 4687.78,1907.34 4687.48,1907.41C4686.95,1907.52 4686.52,1907.23 4686.52,1907.23L4686.52,1907.57Z"/>
                    <path d="M4760.83,1906.53C4760.83,1906.53 4761.94,1892.51 4757.2,1875.78C4756.12,1871.97 4754.73,1868.02 4752.94,1864.08C4751.83,1861.6 4750.56,1859.12 4749.11,1856.69C4745.72,1851.01 4741.4,1845.52 4735.94,1840.65C4728.96,1834.43 4720.1,1829.23 4708.89,1825.89C4708.61,1825.81 4708.32,1825.96 4708.24,1826.23C4708.15,1826.51 4708.3,1826.8 4708.57,1826.88C4719.41,1830.54 4727.85,1835.95 4734.48,1842.24C4739.61,1847.1 4743.63,1852.49 4746.82,1858.03C4748.18,1860.4 4749.4,1862.8 4750.48,1865.19C4752.21,1869.02 4753.59,1872.83 4754.7,1876.51C4759.57,1892.76 4758.94,1906.41 4758.94,1906.41C4758.91,1906.94 4759.31,1907.39 4759.83,1907.42C4760.35,1907.45 4760.8,1907.06 4760.83,1906.53Z"/>
                    <path d="M4703.75,1813.68C4703.75,1813.68 4692.94,1812.43 4678.74,1816.47C4675.7,1817.33 4672.5,1818.45 4669.23,1819.88C4667.23,1820.76 4665.21,1821.75 4663.19,1822.88C4658.61,1825.43 4653.99,1828.64 4649.53,1832.67C4643.9,1837.75 4638.53,1844.14 4633.76,1852.1C4633.61,1852.34 4633.69,1852.66 4633.93,1852.82C4634.17,1852.97 4634.49,1852.89 4634.64,1852.65C4639.66,1845.06 4645.23,1839.07 4650.94,1834.3C4655.41,1830.56 4659.98,1827.59 4664.45,1825.2C4666.43,1824.15 4668.39,1823.2 4670.31,1822.36C4673.48,1820.97 4676.55,1819.86 4679.48,1818.97C4693.13,1814.8 4703.57,1815.57 4703.57,1815.57C4704.1,1815.62 4704.56,1815.23 4704.61,1814.71C4704.66,1814.19 4704.28,1813.73 4703.75,1813.68Z"/>
                    <path d="M4633.29,1881.37C4633.29,1881.37 4630.05,1892.04 4632.31,1904.97C4632.83,1907.95 4633.65,1911.05 4634.88,1914.16C4635.64,1916.09 4636.55,1918.02 4637.65,1919.92C4640.11,1924.15 4643.46,1928.27 4647.95,1931.97C4653.18,1936.28 4659.99,1940.02 4668.77,1942.76C4669.04,1942.85 4669.33,1942.7 4669.43,1942.43C4669.52,1942.16 4669.37,1941.87 4669.1,1941.78C4660.69,1938.7 4654.27,1934.73 4649.35,1930.34C4645.24,1926.66 4642.21,1922.67 4639.96,1918.61C4638.96,1916.8 4638.11,1914.98 4637.39,1913.17C4636.23,1910.23 4635.42,1907.31 4634.87,1904.49C4632.45,1892.17 4635.12,1881.89 4635.12,1881.89C4635.26,1881.38 4634.97,1880.86 4634.46,1880.72C4633.96,1880.58 4633.43,1880.87 4633.29,1881.37Z"/>
                </g>
                <g id="feelerleftkabadeon" transform="matrix(1,0,0,1,-422.958,0)">
                    <path d="M4659.56,2018.13C4659.56,2018.13 4654.22,2011.22 4645.24,2012.69L4625.83,2091.15L4619.54,2118.47C4619.54,2118.47 4616.86,2124.49 4624.36,2127.97C4631.86,2131.45 4679.17,2152.74 4679.17,2152.74L4632.69,2118.87C4632.69,2118.87 4640.56,2097.58 4641.76,2091.29C4642.97,2084.99 4645.91,2060.76 4647.52,2054.6C4649.13,2048.44 4659.56,2018.13 4659.56,2018.13Z" style="fill:rgb(116,72,51);"/>
                    <path d="M4660.05,2018.44C4660.11,2018.14 4660.08,2017.81 4659.97,2017.55L4660.31,2017.55C4660.31,2017.55 4657.87,2014.35 4653.47,2012.6C4651.18,2011.69 4648.36,2011.17 4645.08,2011.69C4644.68,2011.76 4644.36,2012.06 4644.26,2012.45L4624.59,2090.85C4624.59,2090.85 4624.59,2090.86 4624.58,2090.87L4618.26,2118.07C4618.01,2118.73 4617.01,2121.76 4618.74,2124.85C4619.59,2126.37 4621.1,2127.94 4623.79,2129.19C4627.27,2130.8 4639.29,2136.25 4651.2,2141.62C4664.99,2147.82 4678.64,2153.92 4678.64,2153.92C4679.24,2154.19 4679.95,2153.96 4680.28,2153.39C4680.61,2152.82 4680.46,2152.09 4679.93,2151.7L4633.96,2118.48C4634.78,2116.21 4637.28,2109.24 4639.41,2102.74C4640.92,2098.15 4642.24,2093.79 4642.67,2091.46C4643.56,2086.71 4645.38,2071.74 4646.9,2062.02C4647.39,2058.88 4647.84,2056.29 4648.23,2054.79C4648.71,2052.89 4650.02,2048.7 4651.6,2043.82C4655.15,2032.82 4660.05,2018.3 4660.05,2018.3L4660.05,2018.44ZM4658.81,2018.71C4657.73,2021.81 4653.5,2033.92 4650.33,2043.4C4648.68,2048.3 4647.32,2052.51 4646.81,2054.42C4646.41,2055.95 4645.91,2058.58 4645.38,2061.78C4643.76,2071.46 4641.79,2086.38 4640.86,2091.11C4640.41,2093.39 4639.07,2097.64 4637.55,2102.12C4634.89,2109.96 4631.69,2118.5 4631.69,2118.5C4631.52,2118.95 4631.68,2119.45 4632.06,2119.73L4668.48,2146.49C4668.48,2146.49 4624.92,2126.75 4624.92,2126.75C4622.9,2125.82 4621.71,2124.69 4621.07,2123.55C4619.78,2121.25 4620.76,2119.01 4620.76,2119.01C4620.79,2118.93 4620.82,2118.85 4620.84,2118.77L4627.08,2091.45C4627.08,2091.45 4646.07,2013.6 4646.07,2013.6C4648.65,2013.28 4650.9,2013.71 4652.76,2014.43C4656.57,2015.91 4658.75,2018.63 4658.81,2018.71ZM4658.81,2018.71L4658.81,2018.45C4658.62,2018.31 4658.56,2018.13 4658.66,2017.97L4659.07,2017.97L4658.81,2018.71Z"/>
                    <path d="M4653.53,2035.88C4653.53,2035.88 4630.75,2104.82 4629.28,2114.73C4627.81,2124.64 4632.69,2118.88 4632.69,2118.88C4632.69,2118.88 4642.8,2092.24 4643.74,2078.31C4644.68,2064.39 4651.01,2041.1 4653.53,2035.88Z" style="fill:rgb(176,144,114);"/>
                    <path d="M4652.72,2035.61C4652.95,2035.39 4653.45,2035.3 4653.89,2035.39C4654.35,2035.5 4654.59,2035.78 4654.44,2036.04L4654.44,2036.17C4654.44,2036.17 4652.01,2043.73 4648.7,2054.2C4648.49,2055.11 4648.28,2056.03 4648.08,2056.96C4646.44,2064.36 4645.07,2072.28 4644.72,2078.38C4644.45,2083.03 4643.19,2089.1 4641.61,2095.14C4638.41,2107.3 4633.91,2119.35 4633.91,2119.35C4633.86,2119.49 4633.78,2119.62 4633.69,2119.73C4633.69,2119.73 4632.64,2120.95 4631.56,2121.51C4630.48,2122.06 4629.4,2122.02 4628.6,2121.18C4628.27,2120.85 4627.97,2120.32 4627.81,2119.5C4627.61,2118.52 4627.6,2116.95 4627.95,2114.53C4628.43,2111.3 4631.14,2101.82 4634.65,2090.5C4636.82,2083.52 4639.29,2075.83 4641.69,2068.48C4647.35,2051.1 4652.63,2035.58 4652.63,2035.58L4652.72,2035.61ZM4643.9,2069.47C4643.36,2072.61 4642.96,2075.6 4642.76,2078.25C4642.41,2082.78 4641.05,2088.67 4639.41,2094.54C4636.32,2105.55 4632.2,2116.46 4631.55,2118.18C4631.4,2118.34 4631.14,2118.59 4630.85,2118.83C4630.75,2118.91 4630.59,2119 4630.46,2119.07C4630.42,2118.93 4630.38,2118.74 4630.37,2118.56C4630.3,2117.74 4630.36,2116.57 4630.61,2114.93C4631.08,2111.75 4633.79,2102.43 4637.17,2091.28C4639.27,2084.37 4641.62,2076.77 4643.9,2069.47ZM4653.07,2035.65L4652.82,2035.65L4653.03,2035.73L4653.07,2035.65Z"/>
                </g>
                <g transform="matrix(1,0,0,1,-422.958,0)">
                    <path d="M4604.14,2040.15C4604.14,2040.15 4602.8,2021.54 4596.64,2016.59L4573.48,2027.03C4573.48,2027.03 4591.95,2037.74 4604.14,2040.15Z" style="fill:rgb(171,134,99);"/>
                    <path d="M4604.04,2041.09C4604.2,2041.14 4604.36,2041.06 4604.48,2040.87C4604.6,2040.67 4604.67,2040.38 4604.66,2040.09L4605.09,2040.09C4605.09,2040.09 4604.64,2031.99 4602.58,2024.95C4601.43,2021.02 4599.73,2017.44 4597.46,2015.57C4597.07,2015.27 4596.55,2015.2 4596.11,2015.4C4596.11,2015.4 4588.63,2018.69 4582.19,2021.63C4577.28,2023.88 4572.98,2025.92 4572.98,2025.92C4572.56,2026.11 4572.28,2026.51 4572.26,2026.97C4572.24,2027.43 4572.47,2027.86 4572.87,2028.09C4572.87,2028.09 4581.63,2032.97 4591.12,2036.73C4595.55,2038.48 4600.12,2039.98 4604.04,2040.66L4604.04,2041.09ZM4603.1,2039.37C4599.57,2038.46 4595.61,2036.92 4591.77,2035.2C4585.33,2032.33 4579.25,2028.96 4576.18,2027.2C4577.92,2026.44 4580.52,2025.31 4583.29,2024.08C4588.52,2021.75 4594.36,2019.07 4596.41,2018.13C4598.1,2019.81 4599.34,2022.63 4600.31,2025.65C4602.06,2031.07 4602.86,2037.17 4603.1,2039.37Z"/>
                </g>
                <g>
                    <g transform="matrix(1,0,0,1,-589.811,42.59)">
                        <path d="M5015.61,1880.98C5015.61,1880.98 5013.22,1886.9 5010.13,1891.5C5008.55,1893.84 5006.83,1895.87 5005.12,1896.44C5005.12,1896.44 4989.1,1878.81 4989.1,1878.81C4989.1,1878.81 4989.7,1849.4 4989.7,1849.4C4989.71,1849.14 4989.59,1848.9 4989.38,1848.75L4968.58,1833.2C4968.33,1833.01 4967.98,1833.01 4967.72,1833.2C4967.72,1833.2 4963.86,1836.1 4959.18,1837.76C4957.17,1838.47 4955.01,1838.96 4952.95,1838.86C4952.77,1838.85 4952.6,1838.91 4952.48,1839.04C4952.35,1839.16 4952.28,1839.33 4952.29,1839.51L4953.41,1865.97C4953.42,1866.13 4953.51,1866.28 4953.66,1866.36C4953.66,1866.36 4959.44,1869.33 4964.74,1872.94C4967.29,1874.68 4969.73,1876.57 4971.35,1878.34C4971.46,1878.47 4971.65,1878.48 4971.78,1878.37C4971.91,1878.25 4971.92,1878.06 4971.81,1877.93C4970.19,1876.1 4967.73,1874.14 4965.16,1872.33C4960.5,1869.06 4955.46,1866.29 4954.32,1865.67C4954.32,1865.67 4953.56,1840.13 4953.56,1840.13C4955.58,1840.14 4957.66,1839.68 4959.62,1839.02C4963.56,1837.67 4966.95,1835.47 4968.13,1834.66C4968.13,1834.66 4988.1,1849.78 4988.1,1849.78C4988.1,1849.78 4987.58,1879.08 4987.58,1879.08C4987.57,1879.27 4987.65,1879.46 4987.78,1879.6L5004.41,1897.63C5004.57,1897.8 5004.81,1897.88 5005.04,1897.83C5006.69,1897.47 5008.41,1895.93 5009.99,1893.86C5013.66,1889.04 5016.66,1881.39 5016.66,1881.39C5016.77,1881.1 5016.63,1880.78 5016.34,1880.66C5016.05,1880.55 5015.73,1880.69 5015.61,1880.98Z"/>
                    </g>
                    <g transform="matrix(1,0,0,1,-589.811,42.59)">
                        <path d="M4953.23,1838.83C4953.23,1838.83 4944.4,1832.79 4937.89,1827.86C4935.29,1825.9 4933.07,1824.13 4931.93,1822.99C4931.93,1822.99 4930.89,1801.01 4930.89,1801.01C4930.89,1801.01 4943.91,1796.5 4943.91,1796.5C4945.29,1797.19 4951.43,1800.34 4956.71,1803.71C4960.1,1805.88 4963.15,1808.12 4964.25,1809.88C4965.8,1812.34 4967.21,1816.84 4968,1821.48C4968.76,1825.98 4968.94,1830.62 4968.05,1833.68C4968,1833.84 4968.09,1834.02 4968.25,1834.06C4968.41,1834.11 4968.58,1834.02 4968.63,1833.86C4969.61,1830.74 4969.55,1825.98 4968.85,1821.34C4968.13,1816.53 4966.74,1811.87 4965.19,1809.3C4964.06,1807.43 4960.94,1804.97 4957.41,1802.63C4951.42,1798.67 4944.3,1795.02 4944.3,1795.02C4944.12,1794.93 4943.91,1794.91 4943.72,1794.98L4929.81,1799.69C4929.47,1799.81 4929.25,1800.13 4929.27,1800.49L4930.47,1823.34C4930.48,1823.51 4930.55,1823.68 4930.67,1823.81C4931.78,1824.96 4934.2,1826.87 4937.06,1828.97C4943.66,1833.83 4952.6,1839.76 4952.6,1839.76C4952.86,1839.93 4953.21,1839.86 4953.38,1839.61C4953.55,1839.35 4953.49,1839 4953.23,1838.83Z"/>
                    </g>
                    <g transform="matrix(1,0,0,1,-589.811,42.59)">
                        <path d="M4952.62,1865L4942.92,1870.78C4941.54,1869.51 4936.76,1865.17 4932.61,1862.22C4930.74,1860.89 4928.97,1859.85 4927.69,1859.43C4927.57,1858.39 4927.28,1855.92 4926.83,1852.76C4926.39,1849.61 4925.78,1845.78 4925.07,1842.03C4924.23,1837.59 4923.22,1833.26 4922.14,1830.27C4922.08,1830.11 4921.91,1830.03 4921.75,1830.08C4921.59,1830.14 4921.5,1830.31 4921.56,1830.47C4922.52,1833.47 4923.34,1837.79 4924.03,1842.21C4924.61,1845.97 4925.08,1849.79 4925.44,1852.94C4925.93,1857.13 4926.2,1860.12 4926.2,1860.12C4926.24,1860.46 4926.49,1860.73 4926.82,1860.8C4927.35,1860.91 4928.02,1861.22 4928.77,1861.65C4930.1,1862.38 4931.67,1863.48 4933.27,1864.67C4937.71,1868.01 4942.34,1872.19 4942.34,1872.19C4942.58,1872.4 4942.92,1872.43 4943.19,1872.27L4953.21,1865.95C4953.47,1865.79 4953.56,1865.45 4953.39,1865.18C4953.23,1864.92 4952.89,1864.84 4952.62,1865Z"/>
                    </g>
                    <g transform="matrix(1,0,0,1,-589.811,42.59)">
                        <path d="M4964.8,1810.52C4964.8,1810.52 4967.44,1810.06 4970.15,1808.98C4971.17,1808.57 4972.19,1808.08 4973.09,1807.49C4974.47,1808.55 4979.53,1812.52 4983.72,1817.19C4986.03,1819.78 4988.1,1822.58 4989.05,1825.23C4989.09,1825.34 4989.16,1825.44 4989.24,1825.53C4989.24,1825.53 4990.55,1826.82 4992.19,1828.32C4993.11,1829.14 4994.13,1830.03 4995.09,1830.8C4995.35,1832.09 4996.48,1837.67 4997.18,1842.79C4997.63,1846.17 4997.92,1849.34 4997.59,1850.9C4997.55,1851.07 4997.6,1851.25 4997.71,1851.37C4997.71,1851.37 5000.74,1854.48 5003.17,1857.73C5004.43,1859.41 5005.53,1861.12 5005.96,1862.46C5006.01,1862.63 5006.18,1862.72 5006.34,1862.67C5006.51,1862.62 5006.6,1862.45 5006.55,1862.29C5006.14,1860.87 5005.06,1859.05 5003.81,1857.27C5001.79,1854.39 4999.33,1851.63 4998.65,1850.87C4998.97,1849.17 4998.8,1846 4998.42,1842.64C4997.77,1836.74 4996.52,1830.22 4996.52,1830.22C4996.48,1830.05 4996.39,1829.89 4996.25,1829.78C4995.47,1829.15 4994.63,1828.41 4993.85,1827.7C4992.28,1826.28 4990.9,1824.93 4990.49,1824.52C4989.44,1821.75 4987.31,1818.83 4984.86,1816.15C4979.81,1810.62 4973.49,1806.15 4973.49,1806.15C4973.26,1805.98 4972.95,1805.98 4972.72,1806.15C4971.59,1806.99 4970.18,1807.66 4968.86,1808.16C4966.6,1809.02 4964.6,1809.42 4964.6,1809.42C4964.29,1809.48 4964.09,1809.77 4964.15,1810.08C4964.2,1810.38 4964.5,1810.58 4964.8,1810.52Z"/>
                    </g>
                    <g transform="matrix(1,0,0,1,-589.811,42.59)">
                        <path d="M4965.02,1778.11C4965.02,1778.11 4960.21,1774.54 4956.02,1771.48C4952.83,1769.15 4949.99,1767.11 4949.99,1767.11C4949.72,1766.91 4949.35,1766.91 4949.08,1767.1C4949.08,1767.1 4947.71,1768.05 4945.6,1768.48C4944.52,1768.7 4943.23,1768.8 4941.84,1768.54C4941.58,1768.5 4941.31,1768.58 4941.13,1768.77C4940.95,1768.95 4940.88,1769.22 4940.93,1769.48C4940.93,1769.48 4941.51,1771.95 4942.16,1775.43C4942.65,1778.08 4943.18,1781.29 4943.52,1784.46C4943.92,1788.24 4944.05,1791.94 4943.48,1794.5C4943.43,1794.67 4943.53,1794.84 4943.7,1794.88C4943.86,1794.92 4944.03,1794.82 4944.07,1794.65C4944.77,1792.05 4944.83,1788.25 4944.57,1784.37C4944.36,1781.16 4943.95,1777.88 4943.54,1775.2C4943.21,1773.06 4942.88,1771.29 4942.67,1770.23C4943.86,1770.33 4944.96,1770.24 4945.92,1770.05C4947.59,1769.71 4948.86,1769.07 4949.51,1768.69C4950.43,1769.34 4952.69,1770.93 4955.18,1772.66C4959.44,1775.63 4964.37,1779.02 4964.37,1779.02C4964.62,1779.2 4964.97,1779.14 4965.15,1778.89C4965.33,1778.64 4965.28,1778.29 4965.02,1778.11Z"/>
                    </g>
                    <g transform="matrix(1,0,0,1,-589.811,42.59)">
                        <path d="M4930.32,1800.34C4930.32,1800.34 4922.31,1796.03 4915.72,1791.06C4913.78,1789.6 4911.97,1788.09 4910.53,1786.61C4909.4,1785.45 4908.49,1784.32 4907.96,1783.24C4907.88,1782.63 4907.54,1780.01 4907.14,1777.08C4906.68,1773.69 4906.14,1769.89 4905.93,1768.36C4905.93,1768.36 4909.26,1768.31 4909.26,1768.31C4909.32,1768.31 4909.38,1768.3 4909.43,1768.28C4909.43,1768.28 4913.57,1766.94 4917.33,1764.99C4919.18,1764.03 4920.94,1762.91 4922.06,1761.74C4922.18,1761.62 4922.18,1761.43 4922.06,1761.31C4921.94,1761.19 4921.75,1761.19 4921.63,1761.31C4920.51,1762.39 4918.77,1763.39 4916.96,1764.25C4913.54,1765.88 4909.81,1767 4909.19,1767.18C4909.19,1767.19 4905.21,1767.12 4905.21,1767.12C4905.03,1767.12 4904.86,1767.2 4904.74,1767.33C4904.62,1767.47 4904.57,1767.65 4904.59,1767.83C4904.59,1767.83 4905.14,1772.89 4905.65,1777.27C4906.03,1780.62 4906.4,1783.57 4906.4,1783.57C4906.41,1783.65 4906.43,1783.73 4906.47,1783.81C4907.05,1785.05 4908.07,1786.38 4909.39,1787.72C4910.9,1789.25 4912.79,1790.81 4914.81,1792.28C4921.57,1797.2 4929.81,1801.33 4929.81,1801.33C4930.08,1801.47 4930.42,1801.37 4930.56,1801.09C4930.71,1800.82 4930.6,1800.48 4930.32,1800.34Z"/>
                    </g>
                    <g transform="matrix(1,0,0,1,-589.811,42.59)">
                        <path d="M4917.55,1850.45L4907.73,1838.92C4907.75,1838.86 4907.77,1838.8 4907.77,1838.74L4908.23,1830.41C4908.24,1830.14 4908.1,1829.88 4907.87,1829.75L4892.62,1821.06L4892.8,1813.1L4904.07,1807.22C4904.28,1807.11 4904.41,1806.88 4904.39,1806.64L4904.05,1800.79C4904.04,1800.63 4903.97,1800.47 4903.84,1800.36L4896.67,1794.09C4896.55,1793.98 4896.4,1793.93 4896.24,1793.93L4884.53,1793.89C4884.39,1793.89 4884.26,1793.93 4884.15,1794.01L4875.14,1800.03L4862.44,1798.88L4859.14,1794.15C4858.97,1793.91 4858.68,1793.79 4858.39,1793.84L4844.9,1796.32C4844.83,1796.33 4844.76,1796.35 4844.7,1796.38L4839.99,1798.68C4839.71,1798.82 4839.54,1799.11 4839.55,1799.41C4839.57,1799.72 4839.76,1799.99 4840.04,1800.11L4849.71,1804.03C4849.88,1804.09 4850.06,1804.1 4850.23,1804.05L4862.16,1800.46C4862.16,1800.46 4874.6,1801.58 4874.6,1801.58C4874.6,1801.58 4876.31,1807.28 4876.31,1807.28C4876.31,1807.28 4866.19,1813.53 4866.19,1813.53C4865.98,1813.66 4865.85,1813.87 4865.82,1814.11C4865.79,1814.34 4865.87,1814.58 4866.03,1814.75L4878.03,1827.08C4878.24,1827.29 4878.56,1827.37 4878.84,1827.26L4892.09,1822.48C4892.09,1822.48 4906.77,1830.78 4906.77,1830.78C4906.77,1830.78 4906.39,1838.23 4906.39,1838.23C4906.39,1838.23 4891.71,1844.74 4891.71,1844.74C4891.54,1844.82 4891.4,1844.96 4891.34,1845.14C4891.28,1845.32 4891.3,1845.52 4891.4,1845.68L4901.02,1862.68C4901.17,1862.95 4901.49,1863.07 4901.78,1862.97L4912.15,1859.14C4912.26,1859.1 4912.36,1859.03 4912.43,1858.94L4917.86,1851.69C4917.86,1851.69 4924.9,1853.79 4924.9,1853.79C4925.19,1853.88 4925.51,1853.71 4925.6,1853.42C4925.69,1853.12 4925.52,1852.81 4925.22,1852.72L4917.8,1850.46C4917.72,1850.44 4917.63,1850.43 4917.55,1850.45ZM4907.2,1839.41L4892.93,1845.67C4892.93,1845.67 4901.85,1861.6 4901.85,1861.6C4901.85,1861.6 4911.57,1858.07 4911.57,1858.07L4917.06,1850.82L4907.2,1839.41ZM4877.64,1808.33L4867.85,1814.36C4867.85,1814.36 4878.79,1825.65 4878.79,1825.65L4891.72,1821.02L4891.85,1813.14L4877.64,1808.33ZM4877.98,1807.33L4892.28,1812.08C4892.28,1812.08 4903.15,1806.33 4903.15,1806.33C4903.15,1806.33 4902.82,1801.13 4902.82,1801.13C4902.82,1801.13 4896,1795.23 4896,1795.23C4896,1795.23 4884.73,1795.26 4884.73,1795.26L4876.11,1801.08L4877.98,1807.33ZM4860.85,1799.19L4858.19,1795.4C4858.19,1795.4 4845.28,1797.82 4845.28,1797.82C4845.28,1797.82 4842.24,1799.31 4842.24,1799.31C4842.24,1799.31 4850.04,1802.45 4850.04,1802.45L4860.85,1799.19Z"/>
                    </g>
                    <g transform="matrix(1,0,0,1,-589.811,42.59)">
                        <path d="M4865.66,1784.6L4858.28,1793.96C4858.28,1793.96 4844.51,1796.56 4844.51,1796.56C4844.51,1796.56 4840.44,1795.19 4840.44,1795.19C4841.58,1793.73 4844.04,1790.7 4846.68,1788.14C4848.55,1786.34 4850.48,1784.74 4852.12,1784.2C4852.41,1784.11 4852.61,1783.85 4852.62,1783.55C4852.63,1783.25 4852.46,1782.98 4852.18,1782.86L4846.49,1780.58C4846.34,1780.52 4846.17,1780.52 4846.01,1780.57C4846.01,1780.57 4836.48,1784.26 4829.85,1788.18C4827.03,1789.86 4824.73,1791.58 4823.87,1793.08C4823.78,1793.23 4823.83,1793.41 4823.97,1793.5C4824.12,1793.59 4824.31,1793.54 4824.4,1793.39C4825.49,1791.62 4828.79,1789.6 4832.5,1787.73C4838.2,1784.85 4844.87,1782.37 4846.22,1781.87C4846.22,1781.87 4850.13,1783.54 4850.13,1783.54C4848.69,1784.34 4847.11,1785.61 4845.61,1787.03C4841.86,1790.6 4838.49,1795.11 4838.49,1795.11C4838.34,1795.32 4838.29,1795.59 4838.37,1795.83C4838.44,1796.07 4838.63,1796.27 4838.88,1796.35L4844.21,1798.11C4844.33,1798.15 4844.47,1798.16 4844.6,1798.13L4858.78,1795.25C4858.94,1795.21 4859.09,1795.12 4859.19,1794.99L4866.55,1785.28C4866.74,1785.04 4866.69,1784.69 4866.45,1784.5C4866.2,1784.31 4865.85,1784.35 4865.66,1784.6Z"/>
                    </g>
                    <g transform="matrix(1,0,0,1,-589.811,42.59)">
                        <path d="M4815.01,1847.87L4814.98,1847.87C4814.84,1847.87 4814.69,1847.92 4814.57,1848.03L4809.76,1852.47L4799.7,1851.38C4799.39,1851.35 4799.12,1851.57 4799.08,1851.88C4799.05,1852.19 4799.27,1852.46 4799.58,1852.5L4809.51,1853.63L4811.87,1862.55C4811.91,1862.68 4811.98,1862.8 4812.1,1862.89L4818.72,1868.22L4819.48,1878.09C4819.49,1878.31 4819.61,1878.52 4819.79,1878.65L4824.93,1882.29C4825.05,1882.38 4825.19,1882.42 4825.33,1882.43L4832.58,1882.86L4836.65,1890.82C4836.75,1891.02 4836.94,1891.17 4837.16,1891.23L4851.28,1894.67C4851.35,1894.69 4851.41,1894.7 4851.48,1894.7L4856.58,1899.28L4855.32,1902.79L4856.3,1903.15L4857.58,1899.67L4872.44,1900.15L4873.69,1903.47L4874.49,1903.17L4873.32,1899.96L4879.21,1900.34C4879.25,1900.34 4879.29,1900.34 4879.32,1900.33L4897.94,1896.17C4898.11,1896.13 4898.21,1895.97 4898.18,1895.8C4898.14,1895.64 4897.98,1895.53 4897.81,1895.57L4879.21,1899.56L4873.32,1899.14L4873.26,1892.98C4873.26,1892.98 4876.16,1885.83 4876.16,1885.83C4876.3,1885.49 4876.14,1885.09 4875.79,1884.94L4858.24,1877.17C4857.89,1877.01 4857.47,1877.16 4857.28,1877.5L4851.94,1887.43C4851.9,1887.5 4851.88,1887.57 4851.86,1887.65L4850.85,1892.96C4850.85,1892.96 4837.9,1889.77 4837.9,1889.77C4837.9,1889.77 4833.98,1882.09 4833.98,1882.09C4833.98,1882.09 4840.03,1868.5 4840.03,1868.5L4838.58,1867.86L4832.58,1881.31L4825.64,1880.92C4825.64,1880.92 4820.95,1877.62 4820.95,1877.62C4820.95,1877.62 4820.19,1868.19 4820.19,1868.19C4820.19,1868.19 4827.65,1860.79 4827.65,1860.79L4826.65,1859.78L4819.34,1866.97L4813.09,1862C4813.09,1862 4810.73,1853.3 4810.73,1853.3C4810.73,1853.3 4815.41,1848.93 4815.41,1848.93C4815.66,1848.7 4815.67,1848.31 4815.44,1848.06C4815.32,1847.94 4815.17,1847.87 4815.01,1847.87ZM4852.27,1893.87L4857.46,1898.47C4857.46,1898.47 4872.01,1898.84 4872.01,1898.84L4871.91,1892.86C4871.91,1892.77 4871.93,1892.68 4871.96,1892.6C4871.96,1892.6 4874.62,1885.94 4874.62,1885.94C4874.62,1885.94 4858.28,1878.81 4858.28,1878.81C4858.28,1878.81 4853.35,1888.05 4853.35,1888.05L4852.27,1893.87Z"/>
                    </g>
                    <g transform="matrix(1,0,0,1,-589.811,42.59)">
                        <path d="M4905.61,1902.93C4905.61,1902.93 4904.74,1901.86 4903.56,1900.55C4903.29,1900.25 4903,1899.94 4902.7,1899.63C4902.5,1899.43 4902.31,1899.24 4902.1,1899.05C4901.57,1898.56 4901.03,1898.09 4900.53,1897.66C4899.18,1896.51 4898.09,1895.65 4898.09,1895.65C4897.98,1895.53 4897.78,1895.53 4897.66,1895.65C4897.54,1895.77 4897.54,1895.96 4897.66,1896.08C4897.66,1896.08 4898.49,1897.18 4899.62,1898.55C4900.05,1899.06 4900.5,1899.61 4900.98,1900.14C4901.17,1900.35 4901.36,1900.56 4901.56,1900.75C4901.86,1901.06 4902.16,1901.35 4902.46,1901.62C4903.75,1902.83 4904.81,1903.72 4904.81,1903.72C4905.03,1903.94 4905.38,1903.94 4905.6,1903.72C4905.82,1903.51 4905.82,1903.15 4905.61,1902.93Z"/>
                    </g>
                    <g transform="matrix(1,0,0,1,-589.811,42.59)">
                        <path d="M4885.84,1923.17L4882.94,1922.96C4882.94,1922.96 4875.9,1916.87 4875.9,1916.87C4875.7,1916.7 4875.42,1916.65 4875.17,1916.74C4874.93,1916.83 4874.74,1917.04 4874.7,1917.3L4874.12,1920.35C4873.27,1920.73 4871.03,1921.73 4868.79,1922.74C4866.53,1923.77 4864.26,1924.81 4863.45,1925.19C4863.45,1925.19 4848.97,1918.33 4848.97,1918.33C4848.76,1918.22 4848.51,1918.28 4848.37,1918.47L4843.41,1925.32C4843.31,1925.46 4843.33,1925.65 4843.47,1925.75C4843.6,1925.85 4843.8,1925.83 4843.9,1925.69L4848.89,1919.38C4848.89,1919.38 4863.1,1926.73 4863.1,1926.73C4863.31,1926.83 4863.55,1926.83 4863.76,1926.74C4863.76,1926.74 4866.61,1925.48 4869.45,1924.19C4872.29,1922.91 4875.12,1921.59 4875.12,1921.59C4875.35,1921.49 4875.52,1921.28 4875.56,1921.03L4875.94,1918.81C4875.94,1918.81 4882.3,1924.02 4882.3,1924.02C4882.4,1924.11 4882.53,1924.16 4882.66,1924.16L4885.78,1924.29C4886.08,1924.31 4886.35,1924.07 4886.37,1923.77C4886.38,1923.46 4886.15,1923.19 4885.84,1923.17Z"/>
                    </g>
                    <g transform="matrix(1,0,0,1,-589.811,42.59)">
                        <path d="M4832.44,1769.09L4843.24,1775.85L4844.07,1774.53L4833.09,1767.65C4832.97,1767.58 4832.83,1767.53 4832.69,1767.53L4822.51,1767.32L4820.87,1760.2C4820.87,1760.2 4832.07,1752.27 4832.07,1752.27C4832.07,1752.27 4848.55,1749.89 4848.55,1749.89C4848.55,1749.89 4850.41,1751.36 4850.41,1751.36C4850.43,1751.38 4850.46,1751.39 4850.48,1751.41L4859.47,1756.83C4859.47,1756.83 4845.93,1763.58 4845.93,1763.58C4845.67,1763.71 4845.52,1763.98 4845.54,1764.27C4845.56,1764.55 4845.76,1764.8 4846.04,1764.88L4870.86,1772.4C4871.02,1772.44 4871.18,1772.44 4871.32,1772.38L4888.19,1765.29L4904.69,1767.61C4904.69,1767.61 4906.93,1783.54 4906.93,1783.54C4906.93,1783.54 4901.26,1786.79 4901.26,1786.79C4900.99,1786.95 4900.9,1787.29 4901.06,1787.56C4901.21,1787.83 4901.55,1787.92 4901.82,1787.77L4907.83,1784.34C4908.03,1784.22 4908.14,1783.99 4908.11,1783.76L4905.79,1767.01C4905.76,1766.75 4905.55,1766.55 4905.29,1766.51L4888.47,1764.1L4884.05,1756.16C4885.22,1755.98 4887.31,1755.63 4889.28,1755.2C4890.93,1754.85 4892.5,1754.43 4893.39,1754.03C4893.63,1753.92 4893.77,1753.82 4893.84,1753.76C4894.08,1753.55 4894.09,1753.32 4894.07,1753.18C4894.05,1752.97 4893.95,1752.74 4893.62,1752.63C4893.52,1752.59 4893.16,1752.58 4892.61,1752.67C4890.51,1753.05 4884.41,1754.66 4883.11,1755C4883,1755.02 4882.94,1755.03 4882.94,1755.03C4882.73,1755.06 4882.55,1755.19 4882.45,1755.38C4882.36,1755.57 4882.36,1755.79 4882.47,1755.98L4887.09,1764.33C4887.09,1764.33 4871.03,1771.04 4871.03,1771.04C4871.03,1771.04 4848.13,1764.05 4848.13,1764.05C4848.13,1764.05 4861.28,1757.53 4861.28,1757.53C4861.51,1757.41 4861.66,1757.18 4861.67,1756.92C4861.69,1756.65 4861.55,1756.41 4861.33,1756.27L4851.28,1750.19C4851.28,1750.19 4849.21,1748.55 4849.21,1748.55C4849.05,1748.42 4848.85,1748.37 4848.65,1748.4L4831.68,1750.83C4831.56,1750.84 4831.45,1750.89 4831.35,1750.95L4819.59,1759.27C4819.34,1759.44 4819.22,1759.75 4819.29,1760.05L4821.03,1767.65L4810.62,1772.96L4796.02,1773.84C4795.89,1773.85 4795.76,1773.89 4795.65,1773.95L4781.67,1782.5C4781.43,1782.64 4781.29,1782.91 4781.29,1783.19L4781.63,1803.8L4773.63,1813.54C4773.53,1813.66 4773.47,1813.82 4773.46,1813.98L4773.14,1820.74C4773.13,1820.83 4773.14,1820.91 4773.16,1820.99L4778.22,1838.27L4769.11,1848.07C4768.96,1848.22 4768.91,1848.45 4768.97,1848.65L4773.83,1865.22C4773.89,1865.42 4774.04,1865.58 4774.24,1865.64L4792.87,1871.65C4792.9,1871.66 4792.92,1871.67 4792.95,1871.68L4795.67,1874.79L4802.03,1892.9L4796.11,1902.34C4796.05,1902.43 4796.04,1902.55 4796.08,1902.66L4796.95,1905L4805.81,1925.65C4805.84,1925.73 4805.91,1925.8 4806,1925.83L4815.15,1929C4815.31,1929.06 4815.49,1928.97 4815.54,1928.81C4815.6,1928.65 4815.52,1928.48 4815.36,1928.42L4806.34,1925.26C4806.34,1925.26 4797.62,1904.73 4797.62,1904.73C4797.62,1904.73 4796.83,1902.58 4796.83,1902.58L4802.62,1893.4L4820.8,1900.05L4821.09,1899.27L4802.85,1892.54L4796.65,1874.69L4803.88,1870C4804.1,1869.85 4804.17,1869.55 4804.02,1869.32C4803.94,1869.19 4803.81,1869.12 4803.66,1869.1L4803.62,1869.1C4803.52,1869.09 4803.43,1869.12 4803.34,1869.17L4796.16,1873.81L4793.86,1871.16L4801.43,1863.4C4801.62,1863.19 4801.67,1862.89 4801.55,1862.63C4800.96,1861.46 4800.63,1860.02 4800.43,1858.6C4799.99,1855.33 4800.32,1852.13 4800.32,1852.13C4800.32,1852.11 4800.32,1852.08 4800.32,1852.06L4800.34,1841.19C4800.34,1840.88 4800.14,1840.61 4799.84,1840.52L4793.92,1838.69C4793.92,1838.69 4790.06,1834.18 4790.06,1834.18C4789.87,1833.96 4789.56,1833.88 4789.29,1833.97L4779.47,1837.37C4779.47,1837.37 4774.63,1820.69 4774.63,1820.69C4774.63,1820.69 4774.95,1814.3 4774.95,1814.3L4782.74,1804.84L4796.93,1805.79C4796.93,1805.79 4800.71,1809.78 4800.71,1809.78C4800.87,1809.94 4801.08,1810.03 4801.29,1810.02L4801.33,1810.02C4801.51,1810.01 4801.68,1809.94 4801.81,1809.81C4802.12,1809.51 4802.14,1809.02 4801.84,1808.71L4797.85,1804.49C4797.72,1804.35 4797.53,1804.26 4797.34,1804.25L4783.2,1803.29C4783.2,1803.29 4782.89,1783.62 4782.89,1783.62C4782.89,1783.62 4796.31,1775.42 4796.31,1775.42C4796.31,1775.42 4810,1774.6 4810,1774.6L4809.58,1790.48C4809.57,1790.91 4809.91,1791.28 4810.35,1791.29C4810.37,1791.29 4810.38,1791.29 4810.39,1791.29L4810.43,1791.29C4810.84,1791.26 4811.16,1790.93 4811.17,1790.52C4811.17,1790.52 4811.6,1774.23 4811.6,1774.23L4822.09,1768.88C4822.09,1768.88 4832.44,1769.09 4832.44,1769.09ZM4779.13,1839.02L4770.23,1848.64C4770.23,1848.64 4774.94,1864.54 4774.94,1864.54C4774.94,1864.54 4792.88,1870.28 4792.88,1870.28C4792.88,1870.28 4800.14,1862.8 4800.14,1862.8C4799.61,1861.59 4799.28,1860.18 4799.09,1858.78C4798.65,1855.56 4798.92,1852.4 4798.95,1852.03C4798.95,1852.03 4798.94,1841.71 4798.94,1841.71L4793.31,1839.98C4793.18,1839.94 4793.06,1839.87 4792.98,1839.76C4792.98,1839.76 4789.3,1835.48 4789.3,1835.48L4779.22,1838.99C4779.19,1839 4779.16,1839.01 4779.13,1839.02Z"/>
                    </g>
                    <g transform="matrix(1,0,0,1,-589.811,42.59)">
                        <path d="M4820.88,1900.38L4820.84,1900.38L4820.81,1900.37L4820.77,1900.37L4820.74,1900.36L4820.71,1900.35L4820.67,1900.34L4820.64,1900.33L4820.61,1900.32L4820.58,1900.3L4820.55,1900.29L4820.52,1900.27L4820.49,1900.26L4820.46,1900.24L4820.44,1900.22L4820.41,1900.2L4820.39,1900.17L4820.36,1900.15L4820.34,1900.13L4820.32,1900.1L4820.29,1900.08L4820.27,1900.05L4820.26,1900.02L4820.24,1899.99L4820.22,1899.96L4820.2,1899.93L4820.19,1899.9L4820.18,1899.87L4820.17,1899.84L4820.16,1899.8L4820.15,1899.77L4820.14,1899.73C4820.14,1899.73 4820.33,1900.88 4820.64,1902.59C4820.86,1903.8 4821.14,1905.3 4821.44,1906.87C4822.4,1911.82 4823.58,1917.53 4823.58,1917.53L4823.58,1917.49C4823.61,1917.58 4823.72,1917.66 4823.86,1917.7C4823.92,1917.91 4824.05,1918.03 4824.19,1917.98C4824.28,1917.95 4824.36,1917.84 4824.4,1917.7C4824.61,1917.64 4824.73,1917.51 4824.68,1917.38L4824.44,1917.38L4824.43,1917.33L4824.68,1917.33C4824.68,1917.33 4823.79,1911.57 4822.96,1906.59C4822.69,1905.02 4822.43,1903.52 4822.21,1902.31C4821.91,1900.6 4821.68,1899.46 4821.68,1899.46L4820.91,1900.38L4820.88,1900.38Z"/>
                    </g>
                    <g transform="matrix(1,0,0,1,-589.811,42.59)">
                        <path d="M4839.05,1948.12C4839.02,1948.18 4839,1948.24 4838.99,1948.31L4837.94,1953.93C4837.94,1953.93 4827.39,1950.05 4827.39,1950.05C4827.17,1949.97 4826.93,1949.99 4826.72,1950.12C4826.52,1950.24 4826.38,1950.44 4826.35,1950.67L4825.27,1958.44C4825.25,1958.55 4825.26,1958.66 4825.29,1958.77L4830.15,1974.6C4830.19,1974.72 4830.25,1974.83 4830.34,1974.91L4843.29,1986.36C4843.44,1986.49 4843.64,1986.53 4843.83,1986.47C4843.83,1986.47 4846.1,1985.69 4848.1,1984.35C4849.03,1983.72 4849.9,1982.97 4850.48,1982.12C4850.61,1981.94 4850.6,1981.68 4850.44,1981.52L4840.97,1971.31C4840.97,1971.31 4837.05,1963.63 4837.05,1963.63C4836.97,1963.48 4836.79,1963.41 4836.64,1963.49C4836.49,1963.57 4836.43,1963.75 4836.5,1963.9L4840.32,1971.7C4840.33,1971.73 4840.35,1971.76 4840.38,1971.79L4849.45,1981.87C4848.94,1982.49 4848.25,1983.03 4847.53,1983.5C4846.06,1984.46 4844.44,1985.09 4843.78,1985.33C4843.78,1985.33 4831.37,1974.05 4831.37,1974.05C4831.37,1974.05 4826.78,1958.5 4826.78,1958.5C4826.78,1958.5 4827.76,1951.85 4827.76,1951.85C4827.76,1951.85 4838.27,1955.75 4838.27,1955.75C4838.49,1955.83 4838.74,1955.81 4838.94,1955.7C4839.15,1955.58 4839.29,1955.38 4839.34,1955.15L4840.31,1949.89L4852.39,1959.36C4852.54,1959.48 4852.71,1959.53 4852.88,1959.52L4852.91,1959.52C4853.11,1959.51 4853.31,1959.41 4853.45,1959.24C4853.7,1958.91 4853.65,1958.44 4853.32,1958.18L4840.39,1947.94L4838,1927.43C4837.96,1927.12 4837.69,1926.9 4837.38,1926.93C4837.07,1926.97 4836.85,1927.25 4836.88,1927.55L4839.05,1948.12Z"/>
                    </g>
                    <g transform="matrix(1,0,0,1,-589.811,42.59)">
                        <path d="M4752.98,1809.75C4752.95,1809.78 4752.93,1809.8 4752.91,1809.83L4745.11,1821.46C4745.04,1821.57 4745,1821.7 4745.01,1821.83L4746.73,1841.69C4746.74,1841.83 4746.8,1841.96 4746.9,1842.07L4750.22,1845.7L4743.32,1854.59C4743.15,1854.81 4743.11,1855.1 4743.22,1855.36L4752.07,1876.22C4752.19,1876.49 4752.44,1876.67 4752.73,1876.7L4769,1878.22C4769,1878.22 4778.01,1899.63 4778.01,1899.63C4778.01,1899.63 4773.4,1909.3 4773.4,1909.3C4773.31,1909.5 4773.3,1909.74 4773.4,1909.95L4781.97,1929.02C4782.04,1929.19 4782.18,1929.33 4782.36,1929.4L4796.59,1935.28L4804.71,1953.59C4804.78,1953.75 4804.92,1953.88 4805.1,1953.93L4825.85,1960.09C4826.15,1960.17 4826.46,1960.01 4826.55,1959.71C4826.64,1959.41 4826.47,1959.1 4826.18,1959.01L4805.72,1952.83L4797.87,1934.89L4805.66,1926.51L4804.66,1925.57L4796.88,1933.85C4796.88,1933.85 4783.2,1928.14 4783.2,1928.14C4783.2,1928.14 4774.95,1909.64 4774.95,1909.64C4774.95,1909.64 4779.58,1899.99 4779.58,1899.99C4779.68,1899.79 4779.68,1899.55 4779.6,1899.35L4770.29,1877.15C4770.18,1876.88 4769.92,1876.69 4769.63,1876.67L4753.35,1875.16C4753.35,1875.16 4744.81,1855.17 4744.81,1855.17C4744.81,1855.17 4751.48,1846.52 4751.48,1846.52C4751.48,1846.52 4769.48,1848.33 4769.48,1848.33L4769.62,1846.92L4751.36,1845.01L4747.98,1841.36C4747.98,1841.36 4746.19,1821.93 4746.19,1821.93C4746.19,1821.93 4753.58,1810.77 4753.58,1810.77C4753.58,1810.77 4762.74,1813.72 4762.74,1813.72C4762.78,1813.73 4762.82,1813.74 4762.87,1813.74L4772.19,1814.26L4772.24,1813.32L4762.99,1812.74L4753.79,1809.71L4754.38,1800.66C4754.38,1800.66 4756.22,1800.17 4756.22,1800.17C4756.38,1800.13 4756.49,1800 4756.5,1799.84C4756.51,1799.68 4756.41,1799.53 4756.27,1799.48L4752.74,1798.06C4752.74,1798.06 4741.76,1791.57 4741.76,1791.57C4741.61,1791.48 4741.42,1791.53 4741.34,1791.67C4741.25,1791.82 4741.3,1792.01 4741.44,1792.09L4752.4,1798.68C4752.42,1798.68 4752.43,1798.69 4752.45,1798.7L4754.97,1799.74C4754.97,1799.74 4753.93,1800.01 4753.93,1800.01C4753.77,1800.05 4753.66,1800.18 4753.65,1800.34L4752.98,1809.75Z"/>
                    </g>
                    <g transform="matrix(1,0,0,1,-589.811,42.59)">
                        <path d="M4727.42,1853.01L4723.28,1864.94L4712.14,1858.23C4712,1858.14 4711.81,1858.19 4711.72,1858.34C4711.63,1858.48 4711.68,1858.67 4711.82,1858.76L4723.15,1865.66L4731.64,1885.52C4731.69,1885.65 4731.8,1885.74 4731.93,1885.78L4747.38,1890.33L4753.66,1905.48C4753.69,1905.54 4753.72,1905.59 4753.76,1905.64L4751.9,1920.21C4751.89,1920.34 4751.91,1920.48 4751.99,1920.59L4761.49,1935.69C4761.56,1935.8 4761.66,1935.89 4761.78,1935.93L4777.86,1942.55L4785.12,1959.85L4783.11,1972.19C4783.09,1972.3 4783.1,1972.4 4783.13,1972.5L4787.04,1986.15C4787.12,1986.43 4787.36,1986.63 4787.64,1986.67L4803.72,1989.03C4803.92,1989.06 4804.12,1989.01 4804.29,1988.88C4804.45,1988.76 4804.55,1988.58 4804.58,1988.38L4806.26,1975.51C4806.27,1975.38 4806.26,1975.26 4806.22,1975.14L4802.01,1964.01L4806.12,1953.4L4804.64,1952.83L4800.69,1963.02C4800.69,1963.02 4786.45,1958.89 4786.45,1958.89C4786.45,1958.89 4779.39,1942.12 4779.39,1942.12C4779.39,1942.12 4784.54,1929 4784.54,1929C4784.62,1928.79 4784.61,1928.56 4784.51,1928.36L4774.68,1909.06C4774.57,1908.86 4774.38,1908.71 4774.15,1908.66L4754.9,1904.55C4754.9,1904.55 4748.81,1889.98 4748.81,1889.98C4748.81,1889.98 4753.8,1875.93 4753.8,1875.93C4753.86,1875.76 4753.86,1875.57 4753.78,1875.4L4744.77,1855.34C4744.68,1855.13 4744.49,1854.99 4744.27,1854.95L4728.24,1852.01C4728.24,1852.01 4723.5,1848.11 4723.5,1848.11C4723.5,1848.11 4724.11,1830.99 4724.11,1830.99C4724.11,1830.99 4736.47,1823.12 4736.47,1823.12C4736.47,1823.12 4745.75,1822.34 4745.75,1822.34C4746.06,1822.31 4746.29,1822.04 4746.26,1821.73C4746.24,1821.42 4745.97,1821.19 4745.66,1821.22L4736.23,1821.98C4736.13,1821.99 4736.04,1822.02 4735.97,1822.07L4723.19,1830.14C4723.03,1830.25 4722.92,1830.43 4722.91,1830.63L4722.22,1848.38C4722.21,1848.58 4722.29,1848.77 4722.45,1848.89L4727.42,1853.01ZM4786.4,1960.54L4784.53,1972.26C4784.53,1972.26 4788.32,1985.29 4788.32,1985.29C4788.32,1985.29 4803.18,1987.42 4803.18,1987.42C4803.18,1987.42 4804.7,1975.51 4804.7,1975.51L4800.58,1964.64L4786.4,1960.54ZM4754.8,1906.06L4753.06,1920.15C4753.06,1920.15 4762.42,1934.87 4762.42,1934.87L4778.04,1941.23L4782.95,1928.75C4782.95,1928.75 4773.47,1910.08 4773.47,1910.08L4754.8,1906.06ZM4728.12,1853.31L4723.96,1865.47C4723.96,1865.47 4732.4,1884.96 4732.4,1884.96L4747.5,1889.32L4752.38,1875.72C4752.38,1875.72 4743.68,1856.21 4743.68,1856.21L4728.12,1853.31Z"/>
                    </g>
                    <g transform="matrix(1,0,0,1,-589.811,42.59)">
                        <path d="M4732.91,1915.26L4752.14,1920.92L4752.58,1919.42C4752.58,1919.42 4732.6,1913.51 4732.6,1913.51L4727.78,1899.84L4734.22,1887.15C4734.36,1886.87 4734.26,1886.54 4733.98,1886.39C4733.7,1886.25 4733.37,1886.36 4733.23,1886.64L4726.79,1899.07L4719.06,1896.59L4718.66,1897.83L4726.53,1900.41L4731.26,1914.11C4731.26,1914.15 4731.26,1914.18 4731.26,1914.22L4732.05,1930.97C4732.06,1931.05 4732.07,1931.13 4732.1,1931.2L4738.25,1947.71C4738.34,1947.97 4738.57,1948.15 4738.85,1948.19L4758.53,1950.53L4761.74,1955.37C4761.74,1955.37 4761.56,1963.09 4761.56,1963.09C4761.56,1963.18 4761.59,1963.28 4761.65,1963.36L4766.34,1969.99C4766.4,1970.08 4766.51,1970.14 4766.62,1970.15L4783.77,1972.17C4783.94,1972.19 4784.09,1972.07 4784.11,1971.9C4784.13,1971.73 4784.01,1971.58 4783.85,1971.56L4766.9,1969.38C4766.9,1969.38 4762.46,1962.97 4762.46,1962.97C4762.46,1962.97 4762.72,1955.24 4762.72,1955.24C4762.72,1955.14 4762.69,1955.04 4762.64,1954.95L4759.4,1949.96L4763.24,1936.42L4762.11,1936.09L4758.27,1949.18C4758.27,1949.18 4739.47,1946.79 4739.47,1946.79C4739.47,1946.79 4733.61,1930.77 4733.61,1930.77C4733.61,1930.77 4732.91,1915.26 4732.91,1915.26Z"/>
                    </g>
                    <g transform="matrix(1,0,0,1,-589.811,42.59)">
                        <path d="M4825.87,1981.5C4826.24,1981.61 4827.18,1982.18 4828.3,1982.87C4830.31,1984.11 4832.85,1985.79 4833.72,1986.38C4833.78,1987.18 4833.95,1989.21 4834.12,1991.02C4834.28,1992.78 4834.44,1994.34 4834.44,1994.34C4834.46,1994.57 4834.58,1994.77 4834.77,1994.91C4834.77,1994.91 4837.56,1996.84 4840.75,1999C4844.94,2001.83 4849.8,2005.06 4849.8,2005.06C4849.93,2005.15 4850.13,2005.12 4850.22,2004.99C4850.32,2004.85 4850.29,2004.66 4850.15,2004.56C4850.15,2004.56 4845.53,2001.01 4841.49,1997.97C4839.02,1996.1 4836.76,1994.43 4835.97,1993.85C4835.93,1993.29 4835.83,1992.13 4835.71,1990.87C4835.48,1988.55 4835.2,1985.88 4835.2,1985.88C4835.18,1985.65 4835.05,1985.44 4834.86,1985.31C4834.86,1985.31 4831.49,1983.22 4828.94,1981.78C4827.66,1981.07 4826.58,1980.52 4826.16,1980.42C4825.86,1980.34 4825.56,1980.51 4825.47,1980.81C4825.39,1981.11 4825.57,1981.42 4825.87,1981.5Z"/>
                    </g>
                    <g transform="matrix(1,0,0,1,-589.811,42.59)">
                        <path d="M4741.49,1962.62L4749.54,1972.06C4749.64,1972.19 4749.84,1972.21 4749.97,1972.1C4750.1,1971.99 4750.12,1971.8 4750.01,1971.67L4742.37,1961.91C4742.37,1961.89 4742.37,1961.88 4742.37,1961.86C4742.37,1961.86 4742.4,1958.79 4742.4,1955.72C4742.4,1952.65 4742.37,1949.59 4742.37,1949.59C4742.37,1949.59 4740.83,1949.59 4740.83,1949.59C4740.83,1949.59 4740.8,1952.65 4740.8,1955.72C4740.8,1957.79 4740.81,1959.85 4740.82,1960.98C4740.82,1960.98 4725.73,1958.99 4725.73,1958.99C4725.43,1958.95 4725.14,1959.16 4725.1,1959.47C4725.05,1959.78 4725.27,1960.06 4725.57,1960.1L4741.49,1962.62L4741.49,1962.62Z"/>
                    </g>
                    <g transform="matrix(1,0,0,1,-589.811,42.59)">
                        <path d="M4832.4,2005.29C4832.4,2005.29 4834,2006.32 4836.18,2007.66C4837.34,2008.37 4838.66,2009.18 4840.01,2009.95C4841.07,2010.56 4842.14,2011.14 4843.14,2011.67C4845.24,2012.8 4847.01,2013.69 4847.64,2014.01C4847.64,2014.01 4847.54,2016.86 4847.54,2016.86C4847.53,2017.03 4847.65,2017.18 4847.82,2017.2C4847.99,2017.21 4848.14,2017.09 4848.15,2016.92L4848.61,2013.76C4848.63,2013.57 4848.54,2013.39 4848.38,2013.3C4848.38,2013.3 4846.41,2012 4843.86,2010.41C4842.9,2009.82 4841.86,2009.18 4840.81,2008.57C4839.47,2007.79 4838.1,2007.06 4836.91,2006.41C4834.65,2005.19 4832.96,2004.32 4832.96,2004.32C4832.69,2004.17 4832.35,2004.26 4832.19,2004.53C4832.04,2004.8 4832.13,2005.14 4832.4,2005.29Z"/>
                    </g>
                </g>
                <path d="M4142.77,1972.96L4133.52,1978.67C4133.52,1978.67 4122.86,1974.09 4122.86,1974.09C4122.6,1972.98 4121.84,1969.67 4120.96,1966.02C4119.67,1960.67 4118.15,1954.58 4117.89,1953.51C4117.89,1953.51 4122.45,1942.37 4122.45,1942.37C4122.52,1942.22 4122.45,1942.04 4122.29,1941.97C4122.14,1941.9 4121.96,1941.98 4121.89,1942.13L4116.81,1953.25C4116.76,1953.36 4116.75,1953.48 4116.78,1953.59C4116.78,1953.59 4118.2,1960.44 4119.5,1966.36C4120.48,1970.87 4121.39,1974.85 4121.39,1974.85C4121.45,1975.1 4121.62,1975.3 4121.86,1975.4L4133.31,1980.13C4133.52,1980.22 4133.77,1980.2 4133.97,1980.08L4143.37,1973.91C4143.64,1973.74 4143.71,1973.39 4143.55,1973.13C4143.38,1972.87 4143.03,1972.8 4142.77,1972.96Z"/>
                <path d="M4233.5,1960.62L4224.42,1970.82C4224.22,1971.04 4224.18,1971.37 4224.32,1971.63L4226.34,1975.62C4227.64,1978.2 4229.39,1981.65 4231.01,1984.85C4233.38,1989.53 4235.49,1993.64 4235.49,1993.64L4236.91,1992.92C4236.91,1992.92 4234.81,1988.8 4232.41,1984.13C4230.79,1980.97 4229.02,1977.55 4227.7,1974.99L4225.85,1971.41C4225.85,1971.41 4234.28,1961.74 4234.28,1961.74C4234.28,1961.74 4247.31,1970.54 4247.31,1970.54C4247.57,1970.72 4247.92,1970.65 4248.09,1970.4C4248.27,1970.14 4248.2,1969.79 4247.95,1969.62L4234.74,1960.46L4231.92,1942.18C4231.9,1942.01 4231.78,1941.86 4231.61,1941.8L4212.76,1934.91C4212.6,1934.85 4212.42,1934.93 4212.36,1935.09C4212.3,1935.25 4212.38,1935.43 4212.54,1935.49L4231.01,1942.6L4233.5,1960.62Z"/>
            </g>
        </g>
    </g>
</svg>
