<?xml version="1.0" encoding="UTF-8" standalone="no"?>
<!DOCTYPE svg PUBLIC "-//W3C//DTD SVG 1.1//EN" "http://www.w3.org/Graphics/SVG/1.1/DTD/svg11.dtd">
<svg width="100%" height="100%" viewBox="0 0 192 248" version="1.1" xmlns="http://www.w3.org/2000/svg" xmlns:xlink="http://www.w3.org/1999/xlink" xml:space="preserve" xmlns:serif="http://www.serif.com/" style="fill-rule:evenodd;clip-rule:evenodd;stroke-linejoin:round;stroke-miterlimit:2;">
    <g transform="matrix(1,0,0,1,-240.987,-318.462)">
        <g transform="matrix(0.97604,0,0,0.97604,1208.18,669.533)">
            <g id="krk" transform="matrix(1.02455,0,0,1.02455,-1624.01,-968.744)">
                <path d="M808.069,809.237C808.069,809.237 801.875,804.359 796.291,794.326C787.171,777.938 778.522,748.262 792.557,707.064C815.185,640.644 795.769,620.43 770.553,616.432C745.338,612.435 622.644,579.532 627.872,602.595C633.099,625.658 630.639,621.968 638.942,640.418C647.244,658.868 653.629,727.268 624.723,778.134C624.723,778.134 624.191,779.341 624.665,779.547C627.236,780.665 636.898,784.603 648.971,791.62C652.983,793.952 658.216,796.697 662.529,799.641C671.425,805.712 680.646,815.439 689.502,821.815C702.237,830.983 721.213,836.198 730.382,838.545C770.815,848.892 811.451,820.307 808.069,809.237Z" style="fill:rgb(205,140,74);"/>
                <path d="M625.617,776.684C625.617,776.684 634.421,761.913 640.652,737.396C642.733,729.208 644.531,719.933 645.59,709.761C646.5,701.024 646.876,691.624 646.428,681.694C645.84,668.671 643.818,654.739 639.88,640.172C639.866,640.117 639.847,640.063 639.823,640.011C639.823,640.011 636.163,632.283 630.059,620.665C627.127,615.082 623.628,608.603 619.704,601.648C619.566,601.397 619.25,601.306 618.999,601.444C618.748,601.582 618.656,601.898 618.794,602.149C622.561,609.174 625.91,615.718 628.72,621.351C634.2,632.333 637.62,639.851 638.021,640.737C641.675,655.169 643.374,668.944 643.832,681.799C644.182,691.599 643.798,700.864 642.917,709.485C641.892,719.527 640.208,728.694 638.24,736.797C632.355,761.025 623.977,775.728 623.977,775.728C623.713,776.18 623.866,776.762 624.318,777.026C624.771,777.29 625.353,777.136 625.617,776.684Z"/>
                <path d="M803.049,653.938C803.027,653.976 803.01,654.016 802.999,654.057C802.954,654.227 802.687,655.304 802.06,657.86C800.609,663.782 797.222,677.666 790.165,706.645C783.231,735.189 783.331,756.46 786.339,772.023C791.13,796.809 803.276,807.305 806.565,809.747C805.487,812.803 800.761,823.71 786.117,831.448C775.956,836.817 761.087,840.66 739.449,839.435C739.423,839.433 739.396,839.433 739.37,839.433C739.37,839.433 726.706,839.44 707.23,829.821C698.825,825.671 689.164,819.742 678.712,811.26C678.701,811.252 678.691,811.244 678.68,811.236C678.68,811.236 658.468,795.963 641.976,785.791C634.956,781.461 628.593,778.062 624.703,777.083C624.196,776.953 623.678,777.26 623.549,777.768C623.419,778.275 623.726,778.793 624.233,778.923C628.97,780.152 637.437,785.169 646.232,790.958C660.956,800.651 676.552,812.556 677.239,813.081C687.811,821.757 697.587,827.835 706.103,832.09C725.602,841.833 738.551,842.088 739.338,842.095C761.608,843.364 776.922,839.373 787.376,833.825C805.732,824.085 809.309,809.552 809.309,809.552C809.446,809.01 809.216,808.442 808.74,808.148C808.74,808.148 794.084,799.059 788.547,771.587C785.455,756.251 785.193,735.263 791.786,707.032C798.553,677.984 801.801,664.068 803.192,658.131L803.744,655.775L804.064,654.438L804.082,654.349L804.084,654.34C804.091,654.313 804.095,654.286 804.096,654.258C804.162,653.746 803.913,653.568 803.634,653.585C803.426,653.512 803.194,653.584 803.049,653.938Z"/>
            </g>
        </g>
    </g>
</svg>
