<?xml version="1.0" encoding="UTF-8" standalone="no"?>
<!DOCTYPE svg PUBLIC "-//W3C//DTD SVG 1.1//EN" "http://www.w3.org/Graphics/SVG/1.1/DTD/svg11.dtd">
<svg width="100%" height="100%" viewBox="0 0 58 41" version="1.1" xmlns="http://www.w3.org/2000/svg" xmlns:xlink="http://www.w3.org/1999/xlink" xml:space="preserve" xmlns:serif="http://www.serif.com/" style="fill-rule:evenodd;clip-rule:evenodd;stroke-linejoin:round;stroke-miterlimit:2;">
    <g transform="matrix(1,0,0,1,-385.55,-243.643)">
        <g transform="matrix(0.97604,0,0,0.97604,1208.18,669.533)">
            <g id="lefteye" transform="matrix(1.02455,0,0,1.02455,-1624.01,-968.744)">
                <path d="M819.62,532.177C819.62,532.177 816.027,528.275 812.338,524.925C810.322,523.094 808.266,521.444 806.745,520.604C805.013,519.667 802.225,519.489 798.934,519.795C796.366,520.034 793.467,520.532 790.558,521.011C787.745,521.475 784.927,521.944 782.383,522.061C782.164,522.066 781.951,522.136 781.772,522.263C781.772,522.263 777.03,525.817 772.457,528.723C769.932,530.328 767.473,531.745 765.899,532.205C765.622,532.276 765.454,532.56 765.526,532.837C765.597,533.114 765.88,533.282 766.158,533.21C767.83,532.838 770.503,531.555 773.24,530.045C777.348,527.78 781.595,525.019 782.744,524.263C786.242,524.221 790.251,523.669 794.029,523.138C796.729,522.759 799.303,522.387 801.482,522.33C803.145,522.286 804.554,522.378 805.535,522.886C806.958,523.609 808.875,525.089 810.791,526.697C814.541,529.843 818.255,533.497 818.255,533.497C818.619,533.873 819.22,533.883 819.597,533.519C819.974,533.155 819.984,532.554 819.62,532.177Z"/>
                <g id="lefteye1" serif:id="lefteye">
                    <path d="M763.812,539.775C763.812,539.775 777.101,530.932 792.255,530.126C807.41,529.32 806.926,531.013 811.037,534.318C815.149,537.623 818.937,546.328 818.937,546.328C818.937,546.328 799.107,547.215 785.081,545.2C785.081,545.2 770.998,540.719 763.812,539.775Z" style="fill:rgb(233,231,192);"/>
                    <path d="M763.286,539.343C762.957,539.463 762.798,539.682 762.887,539.893C762.977,540.104 763.296,540.262 763.688,540.29L763.744,540.29C766.089,540.638 769.168,541.382 772.245,542.218C778.537,543.927 784.816,546.032 784.816,546.032C784.862,546.046 784.909,546.057 784.957,546.064C789.191,546.735 793.955,547.155 798.55,547.4C809.234,547.968 818.995,547.624 818.995,547.624C819.422,547.605 819.811,547.377 820.037,547.015C820.263,546.653 820.296,546.202 820.126,545.811C820.126,545.811 818.364,541.677 815.904,537.961C814.69,536.126 813.298,534.402 811.885,533.263C809.214,531.126 808.295,529.664 804.494,528.993C802.081,528.568 798.426,528.496 792.188,528.864C786.742,529.205 781.539,530.546 777.086,532.164C768.92,535.131 763.286,538.985 763.286,538.985L763.286,539.343ZM766.017,539.567C768.233,538.311 772.487,536.1 777.831,534.282C782.119,532.824 787.111,531.616 792.322,531.387C798.256,531.107 801.729,531.195 804.02,531.619C807.231,532.213 807.939,533.554 810.19,535.372C811.418,536.356 812.601,537.87 813.665,539.453C815.036,541.494 816.195,543.665 816.924,545.122C813.575,545.258 806.354,545.479 798.637,545.266C794.123,545.142 789.441,544.879 785.265,544.343C784.497,544.114 778.537,542.342 772.574,540.928C770.292,540.387 768.011,539.899 766.018,539.567L766.017,539.567Z"/>
                    <path d="M792.694,530.7C792.694,530.7 789.227,533.548 789.763,536.561C790.3,539.574 790.713,545.228 797.027,545.6C803.342,545.971 806.396,545.847 807.758,542.339C809.12,538.831 808.914,531.877 803.053,530.67C797.193,529.462 792.694,530.7 792.694,530.7" style="fill:rgb(90,136,87);"/>
                    <path d="M793.334,529.999C792.991,529.686 792.461,529.663 792.091,529.967C792.091,529.967 790.218,531.444 789.23,533.466C788.739,534.47 788.486,535.601 788.664,536.757C789.008,538.935 789.359,542.336 791.475,544.572C792.665,545.83 794.392,546.748 796.949,546.931C800.303,547.133 802.789,547.189 804.609,546.72C806.751,546.168 808.124,545.006 808.942,542.799C809.828,540.335 810.022,536.391 808.418,533.493C807.421,531.691 805.781,530.254 803.23,529.81C801.249,529.471 799.429,529.387 797.871,529.438C795.813,529.507 794.219,529.797 793.334,529.999ZM793.569,531.068C793.511,531.206 793.42,531.332 793.296,531.434C793.296,531.434 792.159,532.432 791.399,533.819C790.984,534.577 790.68,535.464 790.863,536.365C791.171,537.911 791.433,540.22 792.63,542.002C793.467,543.248 794.83,544.165 797.106,544.269C800.106,544.441 802.324,544.509 803.956,544.112C805.222,543.805 806.053,543.164 806.575,541.88C807.251,540.257 807.57,537.786 806.972,535.624C806.453,533.744 805.238,532.091 802.876,531.529C801.038,531.086 799.335,530.896 797.869,530.844C795.93,530.775 794.412,530.94 793.569,531.068Z"/>
                    <path d="M799.669,535.488C799.669,535.488 797.21,536.587 798.708,538.225C800.205,539.863 801.361,539.069 801.526,537.942C801.691,536.814 801.815,535.282 799.669,535.488Z" style="fill:rgb(40,49,30);"/>
                    <path d="M799.619,534.543C799.563,534.553 799.508,534.579 799.457,534.621L799.282,534.621C799.282,534.621 798.65,534.844 798.058,535.275C797.586,535.618 797.242,536.139 797.069,536.719C796.87,537.384 797.014,538.177 797.739,539.111C798.149,539.592 798.553,539.924 798.932,540.131C799.753,540.579 800.507,540.588 801.088,540.346C801.952,539.986 802.621,539.152 802.659,538.107C802.654,537.248 802.646,536.242 802.118,535.624C801.665,535.092 800.967,534.6 799.619,534.971L799.619,534.543ZM800.056,536.058C800.337,536.128 800.517,536.252 800.643,536.393C800.724,536.485 800.639,536.615 800.642,536.737C800.651,537.085 800.494,537.442 800.394,537.776C800.372,537.854 800.295,537.994 800.239,537.946C800.225,537.934 800.201,537.907 800.216,537.899C800.239,537.888 800.274,537.851 800.302,537.825C800.259,537.805 800.191,537.74 800.14,537.707C799.997,537.615 799.837,537.501 799.676,537.339C799.611,537.276 799.447,537.21 799.507,537.174C799.539,537.155 799.443,537.19 799.415,537.186C799.362,537.177 799.403,537.075 799.431,537.03C799.672,536.646 800.056,536.355 800.056,536.355L800.056,536.058ZM800.302,537.825C800.324,537.836 800.34,537.836 800.343,537.814C800.348,537.786 800.328,537.8 800.302,537.825Z"/>
                </g>
                <path d="M815.059,551.675C815.059,551.675 813.763,552.435 811.572,553.455C810.859,553.786 810.053,554.141 809.171,554.52C808.537,554.793 807.862,555.071 807.158,555.369C806.51,555.644 805.845,555.942 805.145,556.23C804.06,556.677 802.927,557.126 801.713,557.531C800.573,557.913 799.403,558.277 798.158,558.569C797.874,558.605 797.673,558.865 797.709,559.149C797.745,559.433 798.006,559.635 798.29,559.598C800.318,559.54 802.232,559.334 804.032,558.98C805.367,558.717 806.618,558.382 807.776,557.992C808.28,557.822 808.762,557.633 809.222,557.436C809.977,557.113 810.677,556.773 811.315,556.428C814.427,554.747 816.18,553.207 816.18,553.207C816.603,552.898 816.695,552.304 816.386,551.881C816.077,551.458 815.482,551.366 815.059,551.675Z"/>
            </g>
        </g>
    </g>
</svg>
