<?xml version="1.0" encoding="UTF-8" standalone="no"?>
<!DOCTYPE svg PUBLIC "-//W3C//DTD SVG 1.1//EN" "http://www.w3.org/Graphics/SVG/1.1/DTD/svg11.dtd">
<svg width="100%" height="100%" viewBox="0 0 96 23" version="1.1" xmlns="http://www.w3.org/2000/svg" xmlns:xlink="http://www.w3.org/1999/xlink" xml:space="preserve" xmlns:serif="http://www.serif.com/" style="fill-rule:evenodd;clip-rule:evenodd;stroke-linejoin:round;stroke-miterlimit:2;">
    <g transform="matrix(1,0,0,1,-355.022,-219.13)">
        <g transform="matrix(0.97604,0,0,0.97604,1208.18,669.533)">
            <g id="lefteyebrow" transform="matrix(1.02455,0,0,1.02455,-1624.01,-968.744)">
                <path d="M733.285,516.554C733.285,516.554 753.76,508.655 762.143,508.655C770.526,508.655 784.452,507.768 792.483,509.541C800.513,511.315 813.581,514.136 818.937,513.652C824.293,513.169 826.228,508.493 825.583,505.43C824.938,502.367 824.293,498.981 824.293,498.981C824.293,498.981 819.699,495.918 800.594,496.563C781.489,497.208 769.479,495.193 753.357,502.931C737.235,510.67 733.93,513.894 733.285,516.554Z" style="fill:rgb(42,13,9);"/>
                <path d="M732.78,516.331C732.735,516.674 732.797,517.035 732.942,517.268C733.087,517.501 733.291,517.567 733.471,517.44L733.626,517.44C733.626,517.44 742.307,514.167 750.658,511.897C755.026,510.71 759.3,509.787 762.143,509.804C767.853,509.835 776.142,509.472 783.373,509.807C786.658,509.96 789.72,510.253 792.202,510.812C796.659,511.808 802.662,513.134 808.049,514.032C812.524,514.779 816.588,515.219 819.059,514.998C821.869,514.742 823.871,513.49 825.171,511.881C826.821,509.838 827.323,507.195 826.889,505.155L825.579,498.736C825.513,498.391 825.311,498.087 825.019,497.892C825.019,497.892 822.803,496.335 815.103,495.623C811.576,495.297 806.841,495.143 800.555,495.395C789.188,495.871 780.319,495.385 771.621,496.566C765.593,497.384 759.648,498.994 753.028,502.247C745.534,505.933 740.81,508.613 737.837,510.696C734.245,513.213 733.129,514.928 732.78,516.432L732.78,516.331ZM734.609,515.029C735.309,514.093 736.501,513.025 738.509,511.676C741.488,509.674 746.208,507.117 753.685,503.615C760.177,500.572 765.984,499.118 771.857,498.423C780.522,497.398 789.328,498.021 800.633,497.731C806.784,497.563 811.411,497.775 814.856,498.133C819.871,498.655 822.243,499.471 823.131,499.856C823.131,499.856 824.277,505.705 824.277,505.705C824.562,507.069 824.185,508.824 823.079,510.186C822.174,511.3 820.766,512.132 818.816,512.307C816.497,512.518 812.688,512.07 808.486,511.384C803.143,510.511 797.186,509.235 792.763,508.271C790.151,507.704 786.932,507.407 783.479,507.28C776.208,507.011 767.881,507.474 762.143,507.505C759.151,507.523 754.659,508.512 750.079,509.821C743.895,511.59 737.54,513.919 734.61,515.028L734.609,515.029Z"/>
            </g>
        </g>
    </g>
</svg>
