<?xml version="1.0" encoding="UTF-8" standalone="no"?>
<!DOCTYPE svg PUBLIC "-//W3C//DTD SVG 1.1//EN" "http://www.w3.org/Graphics/SVG/1.1/DTD/svg11.dtd">
<svg width="100%" height="100%" viewBox="0 0 231 375" version="1.1" xmlns="http://www.w3.org/2000/svg" xmlns:xlink="http://www.w3.org/1999/xlink" xml:space="preserve" xmlns:serif="http://www.serif.com/" style="fill-rule:evenodd;clip-rule:evenodd;stroke-linejoin:round;stroke-miterlimit:2;">
    <g transform="matrix(1,0,0,1,-291.127,-288.391)">
        <g transform="matrix(0.97604,0,0,0.97604,1208.18,669.533)">
            <g id="manbeard" transform="matrix(1.02455,0,0,1.02455,-1201.92,-943.989)">
                <path d="M356.108,616.119C355.329,616.284 352.627,616.436 345.975,613.366C337.788,609.587 328.813,609.587 320.312,605.494C311.81,601.4 307.401,602.187 303.938,594.473C300.474,586.758 294.334,568.652 289.925,564.559C285.517,560.466 279.692,541.573 279.692,541.573C279.692,541.573 266.467,548.657 262.058,548.815C257.65,548.972 258.437,551.964 257.807,560.623C257.178,569.282 256.863,588.258 260.327,598.608C263.79,608.957 265.05,615.255 264.892,621.71C264.735,628.165 269.616,636.264 271.19,640.874C272.764,645.484 299.214,686.104 306.142,693.031C313.069,699.958 322.201,714.915 323.933,718.222C325.665,721.528 335.111,756.322 336.686,767.028C338.26,777.734 352.745,835.358 352.745,841.813C352.745,848.268 354.634,852.834 361.876,856.613C369.118,860.391 386.752,870.94 391.633,876.293C396.513,881.646 397.93,881.803 399.977,890.935C402.024,900.066 409.423,913.291 409.423,913.291C409.423,913.291 421.861,909.355 428.631,911.717C435.401,914.079 450.358,913.449 450.358,913.449C450.358,913.449 457.6,900.066 460.277,895.501C462.953,890.935 463.741,890.305 467.519,890.62C471.298,890.935 471.298,887.628 471.298,887.628C471.298,887.628 473.659,856.927 474.132,843.86C474.604,830.792 476.021,802.138 476.021,795.525C476.021,788.913 476.966,753.646 477.123,743.255C477.281,732.864 476.336,692.716 475.549,688.78C474.762,684.844 475.706,675.555 475.706,675.555L480.744,680.278C480.744,680.278 487.357,673.193 485.153,665.164C482.948,657.134 478.225,644.608 477.91,640.874C477.595,637.139 483.421,625.016 481.531,617.932C479.642,610.847 468.149,602.66 468.149,602.66L450.988,596.677L440.439,591.796C440.439,591.796 434.142,595.575 429.418,595.417C429.418,595.417 423.593,594.63 417.925,593.213C412.257,591.796 385.807,594.158 381.084,595.26C376.361,596.362 369.906,600.141 362.034,608.8C356.451,614.941 355.936,616.014 356.108,616.119ZM373.369,660.705C373.369,660.705 379.774,662.701 382.998,660.705C386.223,658.709 389.447,651.353 395.291,648.532C401.136,645.711 402.647,643.494 409.096,643.595C415.545,643.695 431.969,644.098 434.79,645.912C434.79,645.912 434.79,637.549 437.914,634.224C441.038,630.898 443.657,627.775 443.657,627.775C443.657,627.775 427.334,613.97 426.326,610.544C426.326,610.544 403.655,625.961 397.004,627.976C390.354,629.992 376.751,638.959 375.542,642.083C374.333,645.207 373.369,660.705 373.369,660.705ZM356.108,616.119C356.179,616.162 356.366,616.042 356.366,616.042C356.366,616.042 356.288,616.081 356.108,616.119Z" style="fill:rgb(181,83,38);"/>
                <path d="M356.041,615.032L356.067,614.992C356.708,614.071 358.237,612.192 361.636,608.438C365.531,604.137 369.084,601.028 372.255,598.843C375.581,596.551 378.496,595.27 380.951,594.692C383.725,594.039 393.962,592.935 403.124,592.417C409.685,592.046 415.699,591.987 418.084,592.579C420.043,593.065 422.022,593.475 423.769,593.804C426.816,594.377 429.159,594.701 429.482,594.744C430.863,594.78 432.381,594.46 433.823,594.008C437.154,592.963 440.081,591.199 440.081,591.199C440.279,591.081 440.522,591.068 440.732,591.165C440.732,591.165 451.256,596.011 451.256,596.011L468.396,601.952C468.463,601.975 468.526,602.008 468.584,602.049C468.584,602.049 473.852,605.788 477.895,610.42C479.927,612.747 481.641,615.304 482.292,617.729C482.86,619.844 482.785,622.39 482.376,625.039C481.409,631.302 478.51,638.168 478.737,640.804C478.824,641.818 479.256,643.501 479.87,645.57C481.495,651.055 484.4,659.156 485.996,664.932C486.851,668.024 486.482,670.987 485.655,673.507C484.221,677.876 481.405,680.895 481.405,680.895C481.242,681.071 481.015,681.174 480.774,681.182C480.534,681.19 480.301,681.103 480.126,680.938C480.126,680.938 476.457,677.51 476.457,677.51C476.34,679.037 476.196,681.299 476.17,683.507C476.147,685.43 476.209,687.31 476.468,688.596C476.833,690.407 477.254,699.827 477.579,710.525C477.963,723.173 478.226,737.618 478.15,743.27C478.046,750.879 477.541,771.823 477.281,785.093C477.187,789.938 477.124,793.758 477.127,795.525C477.129,797.351 477.027,800.851 476.868,805.238C476.449,816.758 475.636,834.427 475.307,843.902C475.152,848.348 474.782,854.831 474.36,861.455C473.548,874.19 472.546,887.448 472.526,887.691C472.51,888.051 472.355,889.881 470.879,891.002C470.136,891.566 469.047,891.987 467.416,891.853C466.035,891.739 465.14,891.712 464.383,892.133C463.378,892.691 462.651,893.913 461.354,896.132C460.415,897.738 458.912,900.437 457.359,903.259C454.502,908.451 451.478,914.055 451.478,914.055C451.264,914.449 450.86,914.702 450.412,914.721C450.412,914.721 443.659,915.014 437.132,914.497C433.805,914.233 430.538,913.752 428.205,912.94C426.165,912.23 423.571,912.158 420.998,912.353C415.367,912.779 409.819,914.54 409.819,914.54C409.226,914.728 408.584,914.473 408.28,913.931C408.28,913.931 404.736,907.609 401.849,900.659C400.523,897.466 399.337,894.141 398.681,891.225C397.806,887.338 397.072,885.152 396.091,883.475C394.858,881.369 393.254,880.058 390.641,877.196C388.619,874.98 384.346,871.865 379.568,868.715C372.966,864.363 365.397,859.97 361.252,857.808C357.615,855.911 355.25,853.806 353.742,851.419C352.009,848.675 351.394,845.539 351.394,841.813C351.393,840.06 350.281,834.464 348.674,827.058C344.388,807.309 336.502,774.977 335.364,767.223C334.648,762.336 332.28,752.401 329.767,742.764C326.824,731.478 323.699,720.597 322.774,718.829C321.671,716.72 317.533,709.831 312.897,703.358C310.35,699.802 307.655,696.37 305.23,693.943C301.895,690.602 294.059,679.507 286.626,668.317C278.492,656.07 270.85,643.704 270.022,641.273C268.91,638.007 266.151,632.996 264.68,628.053C264.03,625.871 263.628,623.699 263.679,621.681C263.755,618.732 263.525,615.817 262.914,612.511C262.213,608.716 261.012,604.415 259.202,598.984C257.819,594.836 257.023,589.332 256.618,583.641C255.999,574.956 256.277,565.834 256.668,560.54C257.042,555.482 256.981,552.301 257.652,550.463C258.311,548.659 259.492,547.777 262.018,547.689C263.543,547.637 266.171,546.678 268.907,545.524C273.885,543.423 279.17,540.599 279.17,540.599C279.461,540.443 279.806,540.426 280.112,540.551C280.417,540.677 280.65,540.932 280.747,541.247C280.747,541.247 283.077,548.834 285.897,555.403C287.451,559.025 289.124,562.346 290.656,563.772C292.272,565.276 294.14,568.574 296,572.591C299.283,579.684 302.638,589.049 304.876,594.051C306.218,597.052 307.7,598.678 309.57,599.82C312.335,601.509 315.861,602.232 320.746,604.592C322.355,605.369 323.981,605.996 325.616,606.528C332.61,608.806 339.751,609.421 346.379,612.491C348.823,613.623 350.719,614.31 352.176,614.715C353.61,615.114 354.575,615.234 355.194,615.243C354.627,615.853 355.196,616.512 355.721,616.93L355.788,616.93L355.773,616.873L355.763,616.826C355.676,616.686 355.619,616.497 355.598,616.291C355.565,616.206 355.551,616.098 355.569,615.963C355.576,615.915 355.593,615.847 355.628,615.758C355.654,615.645 355.691,615.543 355.737,615.457L355.744,615.375L355.761,615.215C355.619,615.234 355.432,615.247 355.194,615.243C355.305,615.123 355.459,615.005 355.667,614.891C355.7,614.873 355.755,614.957 355.791,614.97L355.807,614.851C355.808,614.84 355.827,614.867 355.843,614.88C355.835,614.909 355.835,614.948 355.86,614.975L355.861,614.972C355.865,614.942 355.883,614.98 355.897,614.998L355.908,615.002L355.911,615.002L355.914,614.995C355.92,614.964 355.934,614.985 355.949,615.006L355.958,615.007C355.961,615.009 355.961,615.007 355.96,615.011L355.957,615.017C355.969,615.035 355.981,615.046 355.988,615.021C356,614.973 356.02,615.001 356.041,615.032L355.961,615.15L355.961,615.183L355.962,615.208L355.925,615.231L355.909,615.243L355.839,616.563C355.797,616.537 355.753,616.506 355.714,616.466C355.724,616.606 355.741,616.725 355.763,616.826C355.786,616.865 355.811,616.9 355.839,616.93L355.788,616.93L355.799,616.967L355.81,616.999C355.858,617.036 355.906,617.07 355.951,617.102L355.949,617.103L355.945,617.105L355.912,617.11L355.886,617.112C355.897,617.148 355.921,617.119 355.945,617.105L355.955,617.104L355.951,617.102C355.959,617.098 355.967,617.097 355.973,617.102C356.108,617.086 356.217,617.066 356.305,617.048L356.305,616.79L356.216,616.627L356.473,615.75C356.444,615.721 356.412,615.696 356.378,615.675L356.494,615.675L356.602,615.308C356.538,615.358 356.594,615.2 356.535,615.256C356.491,615.297 356.522,615.176 356.481,615.221C356.45,615.254 356.469,615.161 356.44,615.196C356.418,615.223 356.428,615.151 356.407,615.179C356.335,615.272 356.352,615.016 356.291,615.124C356.268,615.163 356.267,615.065 356.246,615.106C356.183,615.23 356.151,614.913 356.101,615.055C356.085,615.1 356.062,615.065 356.041,615.032ZM356.355,617.367C356.298,617.39 356.031,617.476 355.856,617.115L355.886,617.112C355.884,617.107 355.883,617.101 355.882,617.093C355.877,617.051 355.857,617.064 355.839,617.075L355.856,617.115C355.139,617.185 353.831,617.153 351.666,616.556C350.135,616.135 348.14,615.423 345.571,614.241C339.004,611.221 331.93,610.653 325.004,608.418C323.283,607.863 321.571,607.208 319.877,606.395C314.906,604.01 311.327,603.267 308.511,601.558C306.333,600.236 304.57,598.379 302.999,594.894C300.751,589.904 297.375,580.56 294.076,573.485C292.355,569.793 290.685,566.727 289.195,565.346C287.518,563.793 285.607,560.214 283.9,556.263C281.728,551.236 279.838,545.619 279.04,543.163C276.871,544.29 272.079,546.711 267.978,548.319C265.613,549.246 263.459,549.89 262.099,549.94C260.8,549.988 260.114,550.309 259.778,551.236C259.152,552.964 259.287,555.956 258.947,560.706C258.573,565.924 258.319,574.914 258.949,583.472C259.352,588.947 260.112,594.243 261.451,598.231C263.318,603.786 264.552,608.188 265.279,612.072C265.931,615.556 266.178,618.63 266.105,621.74C266.05,624.097 266.724,626.681 267.636,629.221C269.171,633.496 271.388,637.643 272.358,640.475C273.174,642.856 280.734,654.931 288.727,666.919C296.06,677.917 303.766,688.838 307.053,692.12C309.565,694.628 312.365,698.17 315.004,701.846C319.74,708.442 323.965,715.466 325.092,717.615C326.041,719.423 329.303,730.544 332.329,742.095C334.882,751.841 337.278,761.891 338.007,766.834C339.146,774.565 347.042,806.794 351.318,826.484C352.988,834.173 354.096,839.993 354.096,841.813C354.095,844.974 354.555,847.65 356.025,849.978C357.317,852.025 359.38,853.789 362.5,855.417C366.697,857.608 374.364,862.058 381.049,866.469C386.054,869.771 390.506,873.066 392.624,875.389C395.408,878.447 397.084,879.879 398.396,882.129C399.473,883.975 400.318,886.366 401.273,890.644C401.895,893.427 403.028,896.599 404.289,899.647C406.459,904.891 409.01,909.772 410.068,911.738C412.007,911.195 416.382,910.086 420.804,909.758C423.753,909.539 426.721,909.677 429.058,910.494C431.22,911.25 434.254,911.678 437.338,911.928C442.454,912.343 447.712,912.252 449.588,912.2C450.467,910.583 452.865,906.182 455.156,902.043C456.728,899.203 458.25,896.485 459.2,894.869C460.84,892.078 461.912,890.661 463.18,889.96C464.295,889.344 465.591,889.215 467.622,889.387C468.446,889.457 469.013,889.32 469.389,889.035C470.073,888.518 470.067,887.628 470.067,887.628C470.067,887.597 470.068,887.566 470.071,887.534C470.071,887.534 471.116,874.151 471.967,861.3C472.404,854.702 472.79,848.245 472.956,843.817C473.312,834.342 474.177,816.673 474.63,805.153C474.8,800.804 474.913,797.335 474.915,795.525C474.918,793.75 474.991,789.913 475.101,785.047C475.4,771.781 475.97,750.845 476.097,743.239C476.191,737.602 475.975,723.196 475.633,710.581C475.347,700.036 474.983,690.749 474.629,688.964C474.355,687.578 474.281,685.553 474.312,683.482C474.372,679.556 474.795,675.462 474.795,675.462C474.83,675.116 475.059,674.82 475.385,674.697C475.711,674.575 476.078,674.649 476.333,674.887C476.333,674.887 480.669,678.966 480.669,678.966C481.505,677.911 483.041,675.732 483.965,672.949C484.702,670.731 485.052,668.122 484.309,665.396C482.736,659.623 479.864,651.525 478.261,646.044C477.614,643.83 477.173,642.027 477.084,640.943C476.861,638.242 479.783,631.203 480.796,624.792C481.177,622.381 481.282,620.063 480.771,618.134C480.182,615.908 478.586,613.575 476.73,611.434C473.114,607.262 468.479,603.828 467.798,603.331L450.752,597.354C450.73,597.346 450.708,597.338 450.687,597.328C450.687,597.328 440.473,592.58 440.474,592.58C439.597,593.074 437.05,594.439 434.23,595.313C432.624,595.81 430.93,596.146 429.396,596.092C429.373,596.091 429.351,596.089 429.328,596.086C429.328,596.086 426.836,595.745 423.521,595.109C421.752,594.77 419.75,594.347 417.767,593.848C415.445,593.263 409.585,593.33 403.193,593.667C394.113,594.146 383.967,595.192 381.217,595.828C378.867,596.372 376.082,597.596 372.894,599.775C369.772,601.909 366.273,604.952 362.431,609.162C359.071,612.843 357.556,614.684 356.922,615.589C356.88,615.649 356.84,615.709 356.804,615.766C357.002,615.882 357.095,616.044 357.044,616.206C356.979,616.416 356.686,616.583 356.305,616.627L356.305,616.79C356.599,617.326 356.299,616.712 356.599,617.119C356.774,617.358 356.7,617.138 356.813,617.239C356.867,617.288 356.906,617.253 356.919,617.237L356.92,617.236C356.925,617.228 356.924,617.231 356.919,617.237L356.887,617.286L356.88,617.296C356.934,617.283 356.98,617.249 357.017,617.222C357.057,617.194 357.049,617.163 357.066,617.166C357.562,617.243 357.215,617.298 356.856,617.33C356.54,617.752 356.366,617.362 356.366,617.362L356.355,617.367ZM372.851,660.646C372.836,661.083 372.987,661.481 373.215,661.611L373.087,661.611C373.087,661.611 376.166,662.592 379.211,662.585C380.786,662.582 382.345,662.301 383.537,661.575C384.717,660.857 385.918,659.494 387.214,657.867C388.58,656.151 390.078,654.132 391.865,652.398C393.03,651.266 394.32,650.258 395.788,649.56C399.304,647.89 401.234,646.424 403.64,645.567C405.096,645.049 406.737,644.778 409.077,644.828C413.103,644.908 421.041,645.126 427.083,645.722C429.125,645.923 430.946,646.167 432.31,646.467C433.106,646.642 433.721,646.811 434.068,647.035C434.479,647.299 435.001,647.318 435.43,647.084C435.859,646.85 436.125,646.4 436.125,645.912C436.125,645.912 436.131,642.286 437.05,638.957C437.453,637.497 438.019,636.085 438.9,635.15C439.963,634.016 440.969,632.906 441.834,631.932C443.531,630.023 444.689,628.64 444.689,628.64C445.165,628.072 445.093,627.226 444.527,626.747C444.527,626.747 437.001,620.418 431.861,615.313C430.488,613.95 429.284,612.681 428.458,611.645C427.976,611.041 427.619,610.556 427.511,610.196C427.4,609.817 427.114,609.515 426.743,609.382C426.371,609.249 425.958,609.301 425.632,609.523C425.632,609.523 416.764,615.644 408.531,620.718C403.725,623.68 399.149,626.297 396.725,627.055C393.101,628.191 387.448,631.372 382.813,634.582C378.721,637.416 375.446,640.313 374.877,641.826C374.507,642.813 374.158,644.986 373.871,647.534C373.237,653.17 372.851,660.673 372.851,660.673L372.851,660.646ZM373.953,659.883C374.118,657.769 374.583,652.143 375.176,647.694C375.494,645.304 375.839,643.262 376.207,642.34C376.392,641.875 376.915,641.281 377.65,640.579C379.464,638.843 382.554,636.616 385.893,634.542C389.919,632.043 394.31,629.769 397.284,628.898C399.308,628.304 402.794,626.527 406.685,624.302C414.009,620.113 422.814,614.351 425.893,612.315C426.754,613.591 428.244,615.302 430.043,617.125C434.045,621.181 439.516,625.979 441.762,627.921C441.275,628.486 440.605,629.255 439.818,630.138C438.966,631.094 437.975,632.184 436.928,633.297C435.78,634.523 434.974,636.335 434.453,638.244C433.879,640.343 433.636,642.549 433.532,644.053C431.983,643.661 429.806,643.337 427.33,643.111C421.216,642.554 413.188,642.407 409.115,642.361C406.401,642.335 404.504,642.693 402.823,643.314C400.36,644.225 398.387,645.741 394.795,647.503C393.114,648.328 391.634,649.495 390.309,650.816C388.476,652.642 386.94,654.755 385.546,656.558C384.449,657.976 383.467,659.201 382.46,659.835C381.568,660.396 380.381,660.577 379.192,660.598C376.983,660.636 374.745,660.096 373.953,659.883L373.953,659.883ZM356.035,617.159C356.046,617.195 356.06,617.195 356.074,617.184L356.035,617.159ZM355.988,617.127L355.991,617.136C355.995,617.157 356.003,617.15 356.012,617.143L355.988,617.127ZM356.001,615.264C356.017,615.243 356.027,615.263 356.001,615.611L356.001,615.264ZM355.895,615.254L355.909,615.243L355.91,615.231L355.895,615.254C355.835,615.303 355.782,615.372 355.737,615.457L355.729,615.541C355.773,615.457 355.827,615.362 355.895,615.254ZM356.001,615.264L356.001,615.19C355.988,615.195 355.975,615.201 355.962,615.208C355.966,615.337 355.986,615.283 356.001,615.264ZM355.843,614.88C355.852,614.844 355.873,614.824 355.869,614.867C355.867,614.893 355.855,614.891 355.843,614.88Z"/>
                <path d="M410.144,913.958C410.144,913.958 421.416,892.476 429.638,870.88C431.986,864.713 434.077,858.533 435.593,852.844C436.816,848.254 437.653,843.976 437.976,840.275C438.638,832.154 440.182,820.726 441.89,809.123C445.269,786.154 449.367,762.516 449.367,762.516C449.42,762.234 449.234,761.963 448.952,761.91C448.671,761.857 448.399,762.043 448.347,762.324C448.347,762.324 443.598,785.868 439.762,808.788C437.816,820.417 436.128,831.886 435.334,840.038C435.007,843.606 434.156,847.721 432.979,852.148C431.487,857.76 429.453,863.861 427.2,869.965C419.241,891.525 408.455,913.092 408.455,913.092C408.216,913.558 408.4,914.131 408.867,914.37C409.333,914.609 409.906,914.424 410.144,913.958Z"/>
                <path d="M425.606,611.162C425.606,611.162 430.222,616.897 435.433,622.199C437.924,624.733 440.572,627.142 442.856,628.857C444.218,629.837 445.717,631.061 447.288,632.399C449.382,634.181 451.588,636.174 453.687,638.166C458.132,642.382 462.108,646.554 463.545,648.579C463.703,648.819 464.025,648.885 464.264,648.728C464.503,648.57 464.57,648.248 464.412,648.009C463.098,645.849 459.401,641.285 455.15,636.717C453.145,634.561 451.02,632.407 448.968,630.507C447.391,629.049 445.848,627.753 444.459,626.693C442.241,625.07 439.707,622.739 437.24,620.371C431.943,615.287 427.047,609.927 427.047,609.927C426.706,609.529 426.106,609.483 425.708,609.824C425.311,610.165 425.265,610.765 425.606,611.162Z"/>
                <g transform="matrix(1,0,0,1,0.757962,-1.23892)">
                    <path d="M376.076,640.175C376.076,640.175 374.118,641.774 372.805,645.847C372.388,647.14 372.037,648.69 371.87,650.524C371.742,651.925 371.744,653.494 371.862,655.236C372.156,657.958 372.125,659.78 371.892,661.132C371.576,662.974 370.89,663.901 370.182,665.028C369.489,666.13 368.783,667.38 368.357,669.581C368.285,669.859 368.451,670.142 368.728,670.214C369.006,670.287 369.289,670.12 369.361,669.843C370.164,667.404 371.2,666.378 372.108,665.252C372.872,664.304 373.547,663.302 374.01,661.602C374.412,660.128 374.608,658.103 374.522,655.056C374.413,653.456 374.442,652.019 374.524,650.729C374.628,649.086 374.838,647.686 375.129,646.507C375.977,643.07 377.361,641.572 377.361,641.572C377.747,641.218 377.772,640.617 377.417,640.231C377.062,639.845 376.461,639.82 376.076,640.175Z"/>
                </g>
            </g>
        </g>
    </g>
</svg>
