<?xml version="1.0" encoding="UTF-8" standalone="no"?>
<!DOCTYPE svg PUBLIC "-//W3C//DTD SVG 1.1//EN" "http://www.w3.org/Graphics/SVG/1.1/DTD/svg11.dtd">
<svg width="100%" height="100%" viewBox="0 0 64 35" version="1.1" xmlns="http://www.w3.org/2000/svg" xmlns:xlink="http://www.w3.org/1999/xlink" xml:space="preserve" xmlns:serif="http://www.serif.com/" style="fill-rule:evenodd;clip-rule:evenodd;stroke-linejoin:round;stroke-miterlimit:2;">
    <g transform="matrix(1,0,0,1,-423.095,-360.116)">
        <g transform="matrix(0.97604,0,0,0.97604,1208.18,669.533)">
            <g id="mouth" transform="matrix(1.02455,0,0,1.02455,-1624.01,-968.744)">
                <path d="M862.571,655.597C862.571,655.597 863.453,643.128 859.044,640.105C854.636,637.082 852.117,641.49 852.117,641.49C852.117,641.49 847.708,643.002 845.819,639.979C843.93,636.956 839.773,637.334 836.625,637.712C833.476,638.09 816.094,644.009 809.293,649.677C802.491,655.345 801.358,654.212 801.358,654.212C801.358,654.212 802.995,654.086 809.922,659.25C816.85,664.414 827.178,669.956 841.537,669.704C855.895,669.452 859.674,665.17 861.815,660.006L862.571,655.597Z" style="fill:rgb(219,96,127);"/>
                <path d="M801.882,652.975L801.954,652.959C802.89,652.722 804.747,651.741 808.431,648.644C810.969,646.529 814.926,644.361 819.112,642.47C826.426,639.165 834.418,636.679 836.472,636.44C838.485,636.211 840.88,636.007 842.917,636.543C844.517,636.964 845.914,637.809 846.852,639.333C847.35,640.144 848.114,640.487 848.862,640.615C849.883,640.79 850.891,640.607 851.4,640.484C851.931,639.773 853.173,638.394 855.018,638.021C856.285,637.765 857.855,637.934 859.666,639.198C861.388,640.401 862.46,642.85 863.011,645.586C863.948,650.243 863.518,655.664 863.518,655.664L863.089,655.664C863.087,655.695 863.085,655.727 863.082,655.758L863.082,655.685L862.386,660.103C862.378,660.146 862.366,660.187 862.35,660.227C861.187,663.136 859.516,665.774 855.923,667.68C852.869,669.299 848.389,670.38 841.552,670.585C835.097,670.77 829.429,669.797 824.499,668.203C818.238,666.178 813.17,663.149 809.186,660.237C807.556,659.043 806.223,658.142 805.138,657.46C803.518,656.44 802.481,655.931 801.84,655.682C801.768,655.654 801.698,655.629 801.634,655.608C801.471,655.602 801.346,655.58 801.252,655.56C800.906,655.483 800.718,655.358 800.63,655.296C800.574,655.257 800.535,655.225 800.51,655.203L800.498,655.193L800.489,655.185C800.47,655.167 800.446,655.156 800.451,655.15L800.451,655.15C800.218,654.924 800.068,654.611 800.054,654.262C800.027,653.561 800.559,652.965 801.258,652.911C801.258,652.911 801.434,652.872 801.882,652.975ZM805.052,654.41C806.27,653.7 807.924,652.553 810.154,650.711C812.544,648.72 816.289,646.715 820.225,644.92C827.212,641.732 834.814,639.226 836.777,638.984C838.499,638.766 840.549,638.518 842.298,638.955C843.295,639.204 844.191,639.686 844.786,640.625C845.53,641.795 846.555,642.449 847.637,642.775C849.938,643.468 852.494,642.591 852.494,642.591C852.762,642.499 852.987,642.313 853.127,642.068C853.127,642.068 853.944,640.573 855.484,640.236C856.284,640.061 857.262,640.23 858.422,641.012C859.779,641.925 860.504,643.893 860.972,646.016C861.938,650.4 861.624,655.53 861.624,655.53L861.624,655.561C861.626,655.543 861.63,655.526 861.635,655.509L862.059,655.509L861.258,659.836C860.134,662.435 858.571,664.791 855.28,666.431C852.334,667.9 848.037,668.79 841.521,668.823C835.312,668.862 829.887,667.801 825.179,666.17C819.223,664.108 814.422,661.123 810.659,658.262C808.179,656.382 806.364,655.179 805.052,654.41Z"/>
                <path d="M862.71,655.935C862.71,655.935 860.526,655.709 858.15,654.511C856.888,653.875 855.571,652.954 854.517,651.619C854.299,651.355 853.976,651.198 853.634,651.191C853.634,651.191 850.685,651.059 846.08,650.968C843.891,650.925 841.327,650.88 838.529,650.889C835.399,650.9 831.977,650.965 828.459,651.087C824.291,651.231 819.992,651.472 815.878,651.774C811.315,652.109 806.99,652.549 803.331,653.07C803.046,653.101 802.841,653.358 802.872,653.643C802.903,653.928 803.16,654.133 803.445,654.102C807.772,653.762 813.015,653.634 818.467,653.581C822.552,653.541 826.747,653.563 830.757,653.583C832.56,653.592 834.325,653.596 836.024,653.596C838.539,653.595 840.91,653.589 843.048,653.58C848.062,653.56 851.793,653.549 853.087,653.546C854.346,654.876 855.814,655.811 857.227,656.447C860.032,657.71 862.575,657.829 862.575,657.829C863.098,657.866 863.553,657.472 863.59,656.949C863.627,656.427 863.233,655.972 862.71,655.935Z"/>
            </g>
        </g>
    </g>
</svg>
