<?xml version="1.0" encoding="UTF-8" standalone="no"?>
<!DOCTYPE svg PUBLIC "-//W3C//DTD SVG 1.1//EN" "http://www.w3.org/Graphics/SVG/1.1/DTD/svg11.dtd">
<svg width="100%" height="100%" viewBox="0 0 192 248" version="1.1" xmlns="http://www.w3.org/2000/svg" xmlns:xlink="http://www.w3.org/1999/xlink" xml:space="preserve" xmlns:serif="http://www.serif.com/" style="fill-rule:evenodd;clip-rule:evenodd;stroke-linejoin:round;stroke-miterlimit:2;">
    <g transform="matrix(1,0,0,1,-240.987,-318.462)">
        <g transform="matrix(0.97604,0,0,0.97604,1208.18,669.533)">
            <g id="neckkabadeon" transform="matrix(1.02455,0,0,1.02455,-2399.59,-685.969)">
                <g id="krk" transform="matrix(1,0,0,1,756.993,-276)">
                    <path d="M808.069,809.237C808.069,809.237 768.348,773.259 790.976,706.838C813.604,640.418 795.769,620.43 770.553,616.432C745.338,612.435 622.644,579.532 627.872,602.595C633.099,625.658 630.639,621.968 638.942,640.418C647.244,658.868 653.629,727.268 624.723,778.134C624.723,778.134 624.191,779.341 624.665,779.547C627.236,780.665 636.898,784.603 648.971,791.62C652.983,793.952 658.216,796.697 662.529,799.641C671.425,805.712 680.646,815.439 689.502,821.815C702.237,830.983 721.213,836.198 730.382,838.545C770.815,848.892 811.451,820.307 808.069,809.237Z" style="fill:rgb(89,97,46);"/>
                    <path d="M625.617,776.684C625.617,776.684 634.421,761.913 640.652,737.396C642.733,729.208 644.531,719.933 645.59,709.761C646.5,701.024 646.876,691.624 646.428,681.694C645.84,668.671 643.818,654.739 639.88,640.172C639.866,640.117 639.847,640.063 639.823,640.011C639.823,640.011 636.163,632.283 630.059,620.665C627.127,615.082 623.628,608.603 619.704,601.648C619.566,601.397 619.25,601.306 618.999,601.444C618.748,601.582 618.656,601.898 618.794,602.149C622.561,609.174 625.91,615.718 628.72,621.351C634.2,632.333 637.62,639.851 638.021,640.737C641.675,655.169 643.374,668.944 643.832,681.799C644.182,691.599 643.798,700.864 642.917,709.485C641.892,719.527 640.208,728.694 638.24,736.797C632.355,761.025 623.977,775.728 623.977,775.728C623.713,776.18 623.866,776.762 624.318,777.026C624.771,777.29 625.353,777.136 625.617,776.684Z"/>
                    <path d="M624.468,778.003C637.405,781.309 677.971,812.167 677.971,812.167C713.081,840.822 739.373,840.764 739.373,840.764C799.201,844.17 808.069,809.237 808.069,809.237C808.069,809.237 771.898,786.919 790.976,706.838C810.053,626.758 801.75,661.813 801.75,661.813" style="fill:rgb(89,97,46);"/>
                    <path d="M803.049,653.938C803.027,653.976 803.01,654.016 802.999,654.057C802.954,654.227 802.687,655.304 802.06,657.86C800.609,663.782 797.222,677.666 790.165,706.645C783.231,735.189 783.331,756.46 786.339,772.023C791.13,796.809 803.276,807.305 806.565,809.747C805.487,812.803 800.761,823.71 786.117,831.448C775.956,836.817 761.087,840.66 739.449,839.435C739.423,839.433 739.396,839.433 739.37,839.433C739.37,839.433 726.706,839.44 707.23,829.821C698.825,825.671 689.164,819.742 678.712,811.26C678.701,811.252 678.691,811.244 678.68,811.236C678.68,811.236 658.468,795.963 641.976,785.791C634.956,781.461 628.593,778.062 624.703,777.083C624.196,776.953 623.678,777.26 623.549,777.768C623.419,778.275 623.726,778.793 624.233,778.923C628.97,780.152 637.437,785.169 646.232,790.958C660.956,800.651 676.552,812.556 677.239,813.081C687.811,821.757 697.587,827.835 706.103,832.09C725.602,841.833 738.551,842.088 739.338,842.095C761.608,843.364 776.922,839.373 787.376,833.825C805.732,824.085 809.309,809.552 809.309,809.552C809.446,809.01 809.216,808.442 808.74,808.148C808.74,808.148 794.084,799.059 788.547,771.587C785.455,756.251 785.193,735.263 791.786,707.032C798.553,677.984 801.801,664.068 803.192,658.131L803.744,655.775L804.064,654.438L804.082,654.349L804.084,654.34C804.091,654.313 804.095,654.286 804.096,654.258C804.162,653.746 803.913,653.568 803.634,653.585C803.426,653.512 803.194,653.584 803.049,653.938Z"/>
                </g>
                <g transform="matrix(0.936751,0.349996,-0.349996,0.936751,-1785.79,-2843.16)">
                    <g transform="matrix(1,0,0,1,-589.811,42.59)">
                        <path d="M4796.99,1805.66L4800.81,1809.68L4801.74,1808.8L4797.76,1804.58C4797.65,1804.46 4797.49,1804.39 4797.33,1804.38L4783.01,1803.39L4782.85,1788.88C4782.85,1788.57 4782.6,1788.32 4782.29,1788.33C4781.98,1788.33 4781.73,1788.58 4781.73,1788.89L4781.82,1803.69L4773.67,1813.57C4773.57,1813.68 4773.52,1813.83 4773.51,1813.98L4773.16,1820.75C4773.16,1820.82 4773.17,1820.9 4773.19,1820.98L4778.14,1838.08L4768.98,1847.95C4768.79,1848.15 4768.72,1848.44 4768.8,1848.7L4773.67,1865.27C4773.74,1865.52 4773.94,1865.72 4774.19,1865.8L4792.83,1871.79L4792.85,1871.8L4795.57,1874.89L4801.93,1892.95L4796.07,1902.31C4796,1902.42 4795.99,1902.56 4796.03,1902.68L4796.91,1905.02L4805.79,1925.65C4805.83,1925.74 4805.9,1925.81 4805.99,1925.84L4815.15,1929C4815.31,1929.06 4815.49,1928.97 4815.54,1928.81C4815.6,1928.65 4815.52,1928.48 4815.36,1928.42L4806.36,1925.25C4806.36,1925.25 4797.66,1904.71 4797.66,1904.71C4797.66,1904.71 4796.88,1902.58 4796.88,1902.58L4802.62,1893.52L4820.77,1900.14L4821.12,1899.19L4802.94,1892.45L4796.82,1874.76L4803.95,1870.12L4803.26,1869.05L4796.19,1873.61L4794.06,1871.15L4801.51,1863.48C4801.75,1863.24 4801.8,1862.88 4801.65,1862.58C4801.07,1861.42 4800.74,1859.99 4800.55,1858.58C4800.1,1855.33 4800.42,1852.14 4800.42,1852.14C4800.42,1852.11 4800.42,1852.09 4800.42,1852.06L4800.41,1841.19C4800.41,1840.85 4800.19,1840.55 4799.87,1840.45L4793.95,1838.64C4793.95,1838.64 4790.1,1834.15 4790.1,1834.15C4789.89,1833.91 4789.57,1833.83 4789.27,1833.93L4779.48,1837.35C4779.48,1837.35 4774.6,1820.69 4774.6,1820.69C4774.6,1820.69 4774.9,1814.28 4774.9,1814.28C4774.9,1814.28 4782.73,1804.73 4782.73,1804.73C4782.73,1804.73 4796.99,1805.66 4796.99,1805.66ZM4779.45,1838.93L4770.43,1848.69C4770.43,1848.69 4775.08,1864.41 4775.08,1864.41C4775.08,1864.41 4792.84,1870.12 4792.84,1870.12C4792.84,1870.12 4800,1862.77 4800,1862.77C4799.49,1861.57 4799.17,1860.18 4798.98,1858.79C4798.55,1855.57 4798.82,1852.41 4798.85,1852.02C4798.85,1852.02 4798.86,1841.76 4798.86,1841.76L4793.29,1840.04C4793.15,1840 4793.03,1839.91 4792.93,1839.8C4792.93,1839.8 4789.28,1835.53 4789.28,1835.53L4779.45,1838.93Z"/>
                    </g>
                    <g transform="matrix(1,0,0,1,-589.811,42.59)">
                        <path d="M4820.14,1899.73C4820.14,1899.73 4820.33,1900.88 4820.64,1902.59C4820.86,1903.8 4821.14,1905.3 4821.44,1906.87C4822.4,1911.82 4823.58,1917.53 4823.58,1917.53L4823.6,1917.57C4823.6,1917.71 4823.76,1917.79 4823.97,1917.78C4824.06,1917.9 4824.17,1917.97 4824.27,1917.97C4824.41,1917.96 4824.49,1917.81 4824.48,1917.59C4824.58,1917.51 4824.65,1917.42 4824.66,1917.34L4824.68,1917.33C4824.68,1917.33 4823.79,1911.57 4822.96,1906.59C4822.69,1905.02 4822.43,1903.52 4822.21,1902.31C4821.91,1900.6 4821.68,1899.46 4821.68,1899.46C4821.68,1899.46 4821.19,1900.33 4821.19,1900.33L4820.14,1899.73Z"/>
                    </g>
                    <g transform="matrix(1,0,0,1,-589.811,42.59)">
                        <path d="M4839.05,1948.12C4839.02,1948.18 4839,1948.24 4838.99,1948.31L4837.94,1953.93C4837.94,1953.93 4827.39,1950.05 4827.39,1950.05C4827.17,1949.97 4826.93,1949.99 4826.72,1950.12C4826.52,1950.24 4826.38,1950.44 4826.35,1950.67L4825.27,1958.44C4825.25,1958.55 4825.26,1958.66 4825.29,1958.77L4830.15,1974.6C4830.19,1974.72 4830.25,1974.83 4830.34,1974.91L4843.29,1986.36C4843.44,1986.49 4843.64,1986.53 4843.83,1986.47C4843.83,1986.47 4846.1,1985.69 4848.1,1984.35C4849.03,1983.72 4849.9,1982.97 4850.48,1982.12C4850.61,1981.94 4850.6,1981.68 4850.44,1981.52L4840.97,1971.31C4840.97,1971.31 4837.05,1963.63 4837.05,1963.63C4836.97,1963.48 4836.79,1963.41 4836.64,1963.49C4836.49,1963.57 4836.43,1963.75 4836.5,1963.9L4840.32,1971.7C4840.33,1971.73 4840.35,1971.76 4840.38,1971.79L4849.45,1981.87C4848.94,1982.49 4848.25,1983.03 4847.53,1983.5C4846.06,1984.46 4844.44,1985.09 4843.78,1985.33C4843.78,1985.33 4831.37,1974.05 4831.37,1974.05C4831.37,1974.05 4826.78,1958.5 4826.78,1958.5C4826.78,1958.5 4827.76,1951.85 4827.76,1951.85C4827.76,1951.85 4838.27,1955.75 4838.27,1955.75C4838.49,1955.83 4838.74,1955.81 4838.94,1955.7C4839.15,1955.58 4839.29,1955.38 4839.34,1955.15L4840.31,1949.89L4852.39,1959.36C4852.61,1959.53 4852.89,1959.57 4853.12,1959.48L4853.16,1959.46C4853.27,1959.41 4853.37,1959.34 4853.45,1959.24C4853.7,1958.91 4853.65,1958.44 4853.32,1958.18C4853.32,1958.18 4840.39,1947.94 4840.39,1947.94L4838,1927.43C4837.96,1927.12 4837.69,1926.9 4837.38,1926.93C4837.07,1926.97 4836.85,1927.25 4836.88,1927.55L4839.05,1948.12Z"/>
                    </g>
                    <g transform="matrix(1,0,0,1,-589.811,42.59)">
                        <path d="M4752.98,1809.75C4752.95,1809.78 4752.93,1809.8 4752.91,1809.83L4745.11,1821.46C4745.04,1821.57 4745,1821.7 4745.01,1821.83L4746.73,1841.69C4746.74,1841.83 4746.8,1841.96 4746.9,1842.07L4750.22,1845.7L4743.32,1854.59C4743.15,1854.81 4743.11,1855.1 4743.22,1855.36L4752.07,1876.22C4752.19,1876.49 4752.44,1876.67 4752.73,1876.7L4769,1878.22C4769,1878.22 4778.01,1899.63 4778.01,1899.63C4778.01,1899.63 4773.4,1909.3 4773.4,1909.3C4773.31,1909.5 4773.3,1909.74 4773.4,1909.95L4781.97,1929.02C4782.04,1929.19 4782.18,1929.33 4782.36,1929.4L4796.59,1935.28L4804.71,1953.59C4804.78,1953.75 4804.92,1953.88 4805.1,1953.93L4825.85,1960.09C4826.15,1960.17 4826.46,1960.01 4826.55,1959.71C4826.64,1959.41 4826.47,1959.1 4826.18,1959.01L4805.72,1952.83L4797.87,1934.89L4805.66,1926.51L4804.66,1925.57L4796.88,1933.85C4796.88,1933.85 4783.2,1928.14 4783.2,1928.14C4783.2,1928.14 4774.95,1909.64 4774.95,1909.64C4774.95,1909.64 4779.58,1899.99 4779.58,1899.99C4779.68,1899.79 4779.68,1899.55 4779.6,1899.35L4770.29,1877.15C4770.18,1876.88 4769.92,1876.69 4769.63,1876.67L4753.35,1875.16C4753.35,1875.16 4744.81,1855.17 4744.81,1855.17C4744.81,1855.17 4751.48,1846.52 4751.48,1846.52C4751.48,1846.52 4769.48,1848.33 4769.48,1848.33L4769.62,1846.92L4751.36,1845.01L4747.98,1841.36C4747.98,1841.36 4746.19,1821.93 4746.19,1821.93C4746.19,1821.93 4753.58,1810.77 4753.58,1810.77C4753.58,1810.77 4762.74,1813.72 4762.74,1813.72C4762.78,1813.73 4762.82,1813.74 4762.87,1813.74L4772.19,1814.26L4772.24,1813.32L4762.99,1812.74L4753.79,1809.71L4754.38,1800.66C4754.38,1800.66 4756.22,1800.17 4756.22,1800.17C4756.38,1800.13 4756.49,1800 4756.5,1799.84C4756.51,1799.68 4756.41,1799.53 4756.27,1799.48L4752.74,1798.06C4752.74,1798.06 4741.76,1791.57 4741.76,1791.57C4741.61,1791.48 4741.42,1791.53 4741.34,1791.67C4741.25,1791.82 4741.3,1792.01 4741.44,1792.09L4752.4,1798.68C4752.42,1798.68 4752.43,1798.69 4752.45,1798.7L4754.97,1799.74C4754.97,1799.74 4753.93,1800.01 4753.93,1800.01C4753.77,1800.05 4753.66,1800.18 4753.65,1800.34L4752.98,1809.75Z"/>
                    </g>
                    <g transform="matrix(1,0,0,1,-589.811,42.59)">
                        <path d="M4727.42,1853.01L4723.28,1864.94L4712.14,1858.23C4712,1858.14 4711.81,1858.19 4711.72,1858.34C4711.63,1858.48 4711.68,1858.67 4711.82,1858.76L4723.15,1865.66L4731.64,1885.52C4731.69,1885.65 4731.8,1885.74 4731.93,1885.78L4747.38,1890.33L4753.66,1905.48C4753.69,1905.54 4753.72,1905.59 4753.76,1905.64L4751.9,1920.21C4751.89,1920.34 4751.91,1920.48 4751.99,1920.59L4761.49,1935.69C4761.56,1935.8 4761.66,1935.89 4761.78,1935.93L4777.86,1942.55L4785.12,1959.85L4783.11,1972.19C4783.09,1972.3 4783.1,1972.4 4783.13,1972.5L4787.04,1986.15C4787.12,1986.43 4787.36,1986.63 4787.64,1986.67L4803.72,1989.03C4803.92,1989.06 4804.12,1989.01 4804.29,1988.88C4804.45,1988.76 4804.55,1988.58 4804.58,1988.38L4806.26,1975.51C4806.27,1975.38 4806.26,1975.26 4806.22,1975.14L4802.01,1964.01L4806.12,1953.4L4804.64,1952.83L4800.69,1963.02C4800.69,1963.02 4786.45,1958.89 4786.45,1958.89C4786.45,1958.89 4779.39,1942.12 4779.39,1942.12C4779.39,1942.12 4784.54,1929 4784.54,1929C4784.62,1928.79 4784.61,1928.56 4784.51,1928.36L4774.68,1909.06C4774.57,1908.86 4774.38,1908.71 4774.15,1908.66L4754.9,1904.55C4754.9,1904.55 4748.81,1889.98 4748.81,1889.98C4748.81,1889.98 4753.8,1875.93 4753.8,1875.93C4753.86,1875.76 4753.86,1875.57 4753.78,1875.4L4744.77,1855.34C4744.68,1855.13 4744.49,1854.99 4744.27,1854.95L4728.24,1852.01C4728.24,1852.01 4723.5,1848.11 4723.5,1848.11C4723.5,1848.11 4724.11,1830.99 4724.11,1830.99C4724.11,1830.99 4736.47,1823.12 4736.47,1823.12C4736.47,1823.12 4745.75,1822.34 4745.75,1822.34C4746.06,1822.31 4746.29,1822.04 4746.26,1821.73C4746.24,1821.42 4745.97,1821.19 4745.66,1821.22L4736.23,1821.98C4736.13,1821.99 4736.04,1822.02 4735.97,1822.07L4723.19,1830.14C4723.03,1830.25 4722.92,1830.43 4722.91,1830.63L4722.22,1848.38C4722.21,1848.58 4722.29,1848.77 4722.45,1848.89L4727.42,1853.01ZM4786.4,1960.54L4784.53,1972.26C4784.53,1972.26 4788.32,1985.29 4788.32,1985.29C4788.32,1985.29 4803.18,1987.42 4803.18,1987.42C4803.18,1987.42 4804.7,1975.51 4804.7,1975.51L4800.58,1964.64L4786.4,1960.54ZM4754.8,1906.06L4753.06,1920.15C4753.06,1920.15 4762.42,1934.87 4762.42,1934.87L4778.04,1941.23L4782.95,1928.75C4782.95,1928.75 4773.47,1910.08 4773.47,1910.08L4754.8,1906.06ZM4728.12,1853.31L4723.96,1865.47C4723.96,1865.47 4732.4,1884.96 4732.4,1884.96L4747.5,1889.32L4752.38,1875.72C4752.38,1875.72 4743.68,1856.21 4743.68,1856.21L4728.12,1853.31Z"/>
                    </g>
                    <g transform="matrix(1,0,0,1,-589.811,42.59)">
                        <path d="M4732.91,1915.26L4752.14,1920.92L4752.58,1919.42C4752.58,1919.42 4732.6,1913.51 4732.6,1913.51L4727.78,1899.84L4734.22,1887.15C4734.36,1886.87 4734.26,1886.54 4733.98,1886.39C4733.7,1886.25 4733.37,1886.36 4733.23,1886.64L4726.79,1899.07L4719.06,1896.59L4718.66,1897.83L4726.53,1900.41L4731.26,1914.11C4731.26,1914.15 4731.26,1914.18 4731.26,1914.22L4732.05,1930.97C4732.06,1931.05 4732.07,1931.13 4732.1,1931.2L4738.25,1947.71C4738.34,1947.97 4738.57,1948.15 4738.85,1948.19L4758.53,1950.53L4761.74,1955.37C4761.74,1955.37 4761.56,1963.09 4761.56,1963.09C4761.56,1963.18 4761.59,1963.28 4761.65,1963.36L4766.34,1969.99C4766.4,1970.08 4766.51,1970.14 4766.62,1970.15L4783.77,1972.17C4783.94,1972.19 4784.09,1972.07 4784.11,1971.9C4784.13,1971.73 4784.01,1971.58 4783.85,1971.56L4766.9,1969.38C4766.9,1969.38 4762.46,1962.97 4762.46,1962.97C4762.46,1962.97 4762.72,1955.24 4762.72,1955.24C4762.72,1955.14 4762.69,1955.04 4762.64,1954.95L4759.4,1949.96L4763.24,1936.42C4763.33,1936.11 4763.15,1935.78 4762.84,1935.69C4762.72,1935.65 4762.6,1935.66 4762.49,1935.69L4762.47,1935.7C4762.3,1935.77 4762.16,1935.9 4762.11,1936.09L4758.27,1949.18C4758.27,1949.18 4739.47,1946.79 4739.47,1946.79C4739.47,1946.79 4733.61,1930.77 4733.61,1930.77C4733.61,1930.77 4732.91,1915.26 4732.91,1915.26Z"/>
                    </g>
                    <g transform="matrix(1,0,0,1,-589.811,42.59)">
                        <path d="M4741.46,1962.62L4749.54,1972.06C4749.64,1972.19 4749.84,1972.21 4749.97,1972.1C4750.1,1971.99 4750.12,1971.8 4750.01,1971.67L4742.35,1961.85C4742.35,1961.6 4742.39,1957.8 4742.4,1954.5C4742.4,1951.89 4742.39,1949.59 4742.39,1949.59C4742.39,1949.59 4740.81,1949.59 4740.81,1949.59C4740.81,1949.59 4740.8,1951.89 4740.8,1954.5C4740.81,1957.05 4740.84,1959.91 4740.85,1961.18C4740.85,1961.18 4729.14,1962.28 4729.14,1962.28C4728.83,1962.3 4728.6,1962.57 4728.63,1962.88C4728.65,1963.19 4728.92,1963.42 4729.23,1963.4L4741.46,1962.62Z"/>
                    </g>
                </g>
                <path d="M1461.86,554.043C1461.86,554.043 1452.36,452.53 1484.07,416.688C1515.77,380.846 1544.45,368.715 1559.06,386.36C1559.06,386.36 1554.32,403.295 1553.87,406.457C1553.42,409.619 1546.3,437.061 1546.3,438.981C1546.3,440.901 1542.35,460.212 1542.69,474.554C1543.03,488.896 1545.29,507.191 1550.82,516.225C1556.35,525.26 1565.26,533.504 1565.26,533.504C1565.26,533.504 1562.11,551.234 1532.86,561.171C1532.86,561.171 1492.72,572.777 1461.86,554.043Z" style="fill:rgb(155,111,74);"/>
                <path d="M1461.7,554.306C1472.87,561.124 1485.27,563.977 1496.55,564.835C1516.52,566.354 1533,561.627 1533,561.627C1533,561.625 1533.01,561.623 1533.02,561.62C1543.96,557.928 1551.29,553.141 1556.17,548.587C1564.56,540.772 1565.82,533.603 1565.82,533.603C1565.85,533.412 1565.79,533.218 1565.65,533.086C1565.65,533.086 1562.02,529.71 1557.96,524.919C1555.7,522.242 1553.31,519.124 1551.34,515.904C1548.95,511.984 1547.2,506.3 1545.94,499.962C1544.33,491.795 1543.56,482.547 1543.38,474.538C1543.28,470.059 1543.61,465.094 1544.1,460.331C1545.17,449.831 1547.05,440.302 1547.05,438.981C1547.05,438.457 1547.61,435.983 1548.41,432.621C1550.52,423.738 1554.32,408.849 1554.64,406.568C1554.78,405.593 1555.34,403.292 1556.04,400.587C1557.59,394.565 1559.83,386.574 1559.83,386.574C1559.9,386.323 1559.84,386.054 1559.67,385.853C1551.75,376.286 1539.82,375.121 1525.52,381.663C1512.98,387.403 1498.57,399.12 1483.5,416.183C1472.72,428.4 1466.65,448.155 1463.4,468.975C1457.06,509.531 1461.3,554.096 1461.3,554.096L1461.7,554.306ZM1462.42,553.991C1462.42,553.991 1458.34,509.58 1464.77,469.192C1468.03,448.684 1473.99,429.206 1484.64,417.193C1499.56,400.351 1513.79,388.773 1526.18,383.108C1539.53,377.014 1550.7,377.815 1558.18,386.551C1557.71,388.251 1555.85,394.964 1554.51,400.195C1553.8,402.976 1553.24,405.344 1553.09,406.346C1552.77,408.617 1549.02,423.432 1546.94,432.274C1546.11,435.816 1545.56,438.429 1545.56,438.981C1545.56,440.293 1543.71,449.758 1542.67,460.187C1542.19,465.01 1541.88,470.037 1542,474.57C1542.2,482.651 1543.02,491.98 1544.68,500.215C1545.99,506.713 1547.83,512.533 1550.3,516.546C1552.3,519.811 1554.75,522.973 1557.06,525.684C1560.56,529.794 1563.76,532.868 1564.63,533.698C1564.3,535.085 1562.49,541.185 1555.45,547.809C1550.66,552.309 1543.47,557.038 1532.73,560.718C1532.25,560.855 1516.12,565.447 1496.61,564.052C1485.42,563.252 1473.12,560.487 1462.02,553.781L1462.42,553.991Z"/>
                <path d="M1501.5,428.767C1501.5,428.767 1506.11,429.536 1512.68,429.8C1514.98,429.892 1517.51,429.922 1520.17,429.83C1522.2,429.76 1524.29,429.623 1526.41,429.384C1528.47,429.151 1530.55,428.821 1532.6,428.389C1536.07,427.657 1539.46,426.625 1542.55,425.212C1545.85,423.707 1548.79,421.766 1551.14,419.292C1551.26,419.172 1551.26,418.977 1551.14,418.858C1551.02,418.739 1550.82,418.74 1550.7,418.86C1548.32,421.157 1545.38,422.898 1542.13,424.228C1539.06,425.484 1535.72,426.358 1532.32,426.972C1530.3,427.336 1528.26,427.602 1526.24,427.807C1524.16,428.02 1522.1,428.165 1520.11,428.252C1517.49,428.366 1514.99,428.385 1512.72,428.346C1506.23,428.237 1501.66,427.658 1501.66,427.658C1501.35,427.613 1501.07,427.825 1501.02,428.131C1500.98,428.437 1501.19,428.723 1501.5,428.767Z"/>
                <g transform="matrix(1,0,0,1,-5.1679,22.6538)">
                    <path d="M1501.5,428.767C1501.5,428.767 1506.11,429.536 1512.68,429.8C1514.98,429.892 1517.51,429.922 1520.17,429.83C1522.2,429.76 1524.29,429.623 1526.41,429.384C1528.47,429.151 1530.55,428.821 1532.6,428.389C1536.07,427.657 1539.46,426.625 1542.55,425.212C1545.85,423.707 1548.79,421.766 1551.14,419.292C1551.26,419.172 1551.26,418.977 1551.14,418.858C1551.02,418.739 1550.82,418.74 1550.7,418.86C1548.32,421.157 1545.38,422.898 1542.13,424.228C1539.06,425.484 1535.72,426.358 1532.32,426.972C1530.3,427.336 1528.26,427.602 1526.24,427.807C1524.16,428.02 1522.1,428.165 1520.11,428.252C1517.49,428.366 1514.99,428.385 1512.72,428.346C1506.23,428.237 1501.66,427.658 1501.66,427.658C1501.35,427.613 1501.07,427.825 1501.02,428.131C1500.98,428.437 1501.19,428.723 1501.5,428.767Z"/>
                </g>
                <g transform="matrix(1.19373,0,0,1.19955,-308.557,-36.188)">
                    <path d="M1501.51,428.675C1501.51,428.675 1506.12,429.428 1512.69,429.679C1514.98,429.767 1517.52,429.792 1520.17,429.698C1522.2,429.627 1524.29,429.489 1526.41,429.252C1528.46,429.021 1530.54,428.696 1532.59,428.269C1536.05,427.546 1539.44,426.526 1542.53,425.125C1545.81,423.636 1548.76,421.712 1551.11,419.256C1551.2,419.155 1551.2,418.993 1551.1,418.894C1551,418.795 1550.84,418.796 1550.74,418.896C1548.36,421.205 1545.42,422.962 1542.17,424.306C1539.1,425.575 1535.76,426.464 1532.35,427.088C1530.33,427.458 1528.29,427.729 1526.26,427.938C1524.18,428.152 1522.12,428.297 1520.12,428.383C1517.5,428.495 1514.99,428.51 1512.72,428.468C1506.22,428.345 1501.65,427.75 1501.65,427.75C1501.39,427.713 1501.15,427.889 1501.11,428.144C1501.08,428.4 1501.25,428.637 1501.51,428.675Z"/>
                </g>
                <g transform="matrix(1.30965,-0.0476398,0.0489897,1.34676,-507.529,1.72751)">
                    <path d="M1501.51,428.624C1501.51,428.624 1506.13,429.37 1512.71,429.613C1515.01,429.698 1517.55,429.721 1520.21,429.625C1522.23,429.551 1524.33,429.412 1526.45,429.174C1528.51,428.943 1530.58,428.619 1532.63,428.193C1536.09,427.472 1539.48,426.455 1542.57,425.057C1545.83,423.579 1548.76,421.671 1551.09,419.234C1551.18,419.144 1551.18,418.999 1551.09,418.912C1550.99,418.825 1550.84,418.828 1550.75,418.918C1548.39,421.223 1545.46,422.982 1542.23,424.331C1539.17,425.611 1535.82,426.511 1532.41,427.142C1530.39,427.518 1528.34,427.794 1526.31,428.005C1524.22,428.222 1522.16,428.368 1520.16,428.454C1517.53,428.566 1515.02,428.579 1512.74,428.535C1506.23,428.406 1501.64,427.801 1501.64,427.801C1501.41,427.767 1501.19,427.923 1501.15,428.151C1501.12,428.378 1501.28,428.59 1501.51,428.624Z"/>
                </g>
                <g transform="matrix(1.5842,-0.0576269,0.0622815,1.71216,-929.903,-109.855)">
                    <path d="M1501.52,428.536C1501.52,428.536 1506.16,429.27 1512.76,429.499C1515.07,429.579 1517.61,429.597 1520.29,429.496C1522.32,429.42 1524.42,429.277 1526.55,429.038C1528.61,428.805 1530.69,428.481 1532.74,428.055C1536.2,427.337 1539.58,426.323 1542.66,424.927C1545.87,423.47 1548.76,421.592 1551.07,419.197C1551.14,419.124 1551.13,419.011 1551.05,418.944C1550.98,418.877 1550.85,418.882 1550.78,418.955C1548.44,421.246 1545.56,423.006 1542.37,424.362C1539.31,425.663 1535.96,426.583 1532.55,427.231C1530.52,427.617 1528.46,427.902 1526.43,428.119C1524.33,428.342 1522.25,428.489 1520.24,428.575C1517.6,428.689 1515.07,428.699 1512.79,428.651C1506.24,428.513 1501.63,427.889 1501.63,427.889C1501.44,427.861 1501.26,427.983 1501.23,428.161C1501.2,428.34 1501.33,428.508 1501.52,428.536Z"/>
                </g>
            </g>
        </g>
    </g>
</svg>
