<?xml version="1.0" encoding="UTF-8" standalone="no"?>
<!DOCTYPE svg PUBLIC "-//W3C//DTD SVG 1.1//EN" "http://www.w3.org/Graphics/SVG/1.1/DTD/svg11.dtd">
<svg width="100%" height="100%" viewBox="0 0 48 87" version="1.1" xmlns="http://www.w3.org/2000/svg" xmlns:xlink="http://www.w3.org/1999/xlink" xml:space="preserve" xmlns:serif="http://www.serif.com/" style="fill-rule:evenodd;clip-rule:evenodd;stroke-linejoin:round;stroke-miterlimit:2;">
    <g transform="matrix(1,0,0,1,-441.778,-255.95)">
        <g transform="matrix(0.97604,0,0,0.97604,1208.18,669.533)">
            <g id="nose" transform="matrix(1.02455,0,0,1.02455,-1624.01,-968.744)">
                <path d="M831.688,614.376C831.688,614.376 832.555,613.698 834.1,612.894C834.609,612.63 835.191,612.363 835.838,612.084C836.298,611.886 836.793,611.693 837.316,611.489C837.793,611.303 838.285,611.098 838.814,610.914C839.625,610.631 840.478,610.356 841.427,610.148C842.295,609.958 843.193,609.786 844.182,609.701C844.468,609.715 844.712,609.494 844.726,609.208C844.74,608.922 844.519,608.678 844.232,608.664C842.609,608.373 841.129,608.287 839.739,608.372C838.645,608.439 837.64,608.619 836.72,608.872C836.31,608.985 835.923,609.125 835.556,609.275C834.948,609.525 834.395,609.803 833.901,610.097C831.473,611.543 830.312,613.069 830.312,613.069C829.951,613.449 829.966,614.05 830.346,614.411C830.726,614.772 831.328,614.756 831.688,614.376Z"/>
                <path d="M850.058,618.028C850.058,618.028 852.79,617.66 856.245,615.475C857.826,614.475 859.558,613.086 861.249,611.176C863.795,608.291 865.393,605.646 866.066,603.001C866.843,599.95 866.413,596.877 864.713,593.404C862.539,589.032 859.829,586.271 857.425,582.365C856.564,580.965 855.736,579.416 855.005,577.56C853.305,573.324 851.369,568.653 850.088,563.801C849.268,560.7 848.708,557.528 848.683,554.342C848.64,549.956 848.845,545.522 849.273,541.687C849.646,538.343 850.18,535.46 850.882,533.477C850.983,533.209 850.847,532.909 850.579,532.808C850.311,532.707 850.012,532.843 849.911,533.111C849.102,535.125 848.415,538.072 847.891,541.505C847.299,545.379 846.919,549.871 846.789,554.324C846.698,557.68 847.155,561.046 847.918,564.339C849.074,569.326 850.937,574.14 852.558,578.505C853.329,580.536 854.197,582.244 855.129,583.771C857.476,587.621 860.201,590.293 862.358,594.582C863.798,597.403 864.239,599.902 863.654,602.414C863.109,604.759 861.718,607.101 859.535,609.7C858.048,611.475 856.511,612.777 855.103,613.725C852.134,615.725 849.767,616.152 849.767,616.152C849.25,616.232 848.894,616.718 848.974,617.235C849.055,617.753 849.54,618.109 850.058,618.028Z"/>
                <path d="M825.106,598.195C825.106,598.195 822.076,600.577 820.216,603.46C819.134,605.137 818.522,606.996 818.751,608.636C818.947,609.748 819.345,610.947 820.016,612.081C820.872,613.528 822.112,614.901 823.724,615.919C825.881,617.283 828.669,618.06 832.041,617.565C832.326,617.543 832.54,617.293 832.518,617.007C832.495,616.721 832.245,616.508 831.96,616.53C828.994,616.562 826.691,615.585 824.966,614.187C823.982,613.39 823.227,612.435 822.638,611.454C821.989,610.375 821.568,609.251 821.423,608.209C821.227,607.124 821.733,605.918 822.378,604.757C823.884,602.048 826.353,599.626 826.353,599.626C826.748,599.282 826.789,598.681 826.445,598.287C826.101,597.892 825.501,597.851 825.106,598.195Z"/>
            </g>
        </g>
    </g>
</svg>
