<?xml version="1.0" encoding="UTF-8" standalone="no"?>
<!DOCTYPE svg PUBLIC "-//W3C//DTD SVG 1.1//EN" "http://www.w3.org/Graphics/SVG/1.1/DTD/svg11.dtd">
<svg width="100%" height="100%" viewBox="0 0 34 37" version="1.1" xmlns="http://www.w3.org/2000/svg" xmlns:xlink="http://www.w3.org/1999/xlink" xml:space="preserve" xmlns:serif="http://www.serif.com/" style="fill-rule:evenodd;clip-rule:evenodd;stroke-linejoin:round;stroke-miterlimit:2;">
    <g transform="matrix(1,0,0,1,-471.512,-257.041)">
        <g transform="matrix(0.97604,0,0,0.97604,1208.18,669.533)">
            <g id="righteye" transform="matrix(1.02455,0,0,1.02455,-1624.01,-968.744)">
                <path d="M875.167,557.299C875.167,557.299 876.358,558.624 876.568,560.292C876.633,560.805 876.56,561.35 876.305,561.923C876.158,562.255 875.961,562.601 875.667,562.945C874.816,564.088 873.913,564.926 873.067,565.558C871.248,566.915 869.769,567.329 869.769,567.329C869.485,567.361 869.28,567.618 869.312,567.903C869.344,568.188 869.601,568.392 869.886,568.36C869.886,568.36 871.708,568.385 874.089,567.257C875.226,566.718 876.432,565.873 877.655,564.696C878.17,564.13 878.545,563.562 878.783,562.994C879.25,561.885 879.282,560.801 879.053,559.836C878.85,558.983 878.47,558.217 878.031,557.6C877.27,556.527 876.432,555.884 876.432,555.884C876.042,555.535 875.441,555.568 875.092,555.959C874.743,556.349 874.776,556.95 875.167,557.299Z"/>
                <path d="M849.774,551.266C849.774,551.266 857.038,544.704 860.464,542.888C863.889,541.072 873.877,541.361 876.147,545.116C878.417,548.872 878.665,548.955 878.665,548.955C878.665,548.955 876.312,554.031 876.354,555.104C876.395,556.177 873.341,556.508 868.594,556.59C863.848,556.673 855.181,551.101 849.774,551.266Z" style="fill:rgb(245,246,230);"/>
                <path d="M879.68,549.63C879.965,549.247 880.053,548.666 879.443,547.818C879.142,547.399 878.529,546.471 877.302,544.418C876.195,542.599 873.604,541.342 870.583,540.825C866.642,540.152 862.052,540.645 859.898,541.821C858.682,542.493 856.994,543.748 855.316,545.122C852.222,547.656 849.138,550.562 849.138,550.562L849.138,550.881C848.842,551.027 848.745,551.258 848.893,551.46C849.042,551.662 849.405,551.791 849.803,551.785C850.907,551.784 852.157,552.052 853.484,552.457C856.271,553.308 859.361,554.788 862.198,555.937C864.613,556.914 866.86,557.627 868.613,557.641C871.685,557.654 874.078,557.533 875.451,557.186C877.035,556.784 877.593,555.859 877.577,555.057C877.575,554.97 877.635,554.838 877.687,554.666C877.823,554.218 878.046,553.648 878.29,553.052C878.978,551.372 879.866,549.511 879.866,549.511L879.68,549.63ZM877.132,549.156C876.751,550.035 876.125,551.523 875.688,552.768C875.41,553.562 875.22,554.28 875.154,554.763C874.805,554.924 874.279,555.035 873.609,555.139C872.331,555.336 870.615,555.459 868.576,555.539C867.022,555.605 865.011,555.017 862.825,554.263C859.895,553.253 856.687,551.932 853.82,551.232C853.106,551.058 852.413,550.921 851.75,550.835L851.749,550.835C852.958,549.822 854.829,548.284 856.694,546.87C858.293,545.659 859.883,544.537 861.029,543.955C862.597,543.149 865.648,542.907 868.564,543.215C870.174,543.385 871.746,543.732 873.011,544.301C873.88,544.691 874.601,545.167 874.992,545.815C876.117,547.655 876.763,548.635 877.132,549.156Z"/>
                <path d="M867.728,542.269C867.728,542.269 862.569,542.764 863.023,548.253C863.477,553.742 865.581,556.551 869.337,556.591C873.093,556.631 876.147,554.233 876.436,551.715C876.725,549.197 877.096,545.653 874.992,544.539C872.887,543.424 871.071,541.938 867.728,542.269Z" style="fill:rgb(115,155,95);"/>
                <path d="M867.637,541.324C867.637,541.324 864.94,541.524 863.216,543.556C862.331,544.598 861.703,546.123 861.827,548.352C862.038,551.661 862.866,554.094 864.194,555.657C865.457,557.143 867.173,557.908 869.323,557.939C871.279,557.933 873.072,557.376 874.464,556.469C876.278,555.287 877.428,553.56 877.574,551.846C877.693,550.327 877.828,548.461 877.508,546.924C877.214,545.512 876.578,544.352 875.392,543.783C873.963,543.102 872.653,542.261 870.984,541.876C870.022,541.654 868.95,541.568 867.677,541.752L867.637,541.324ZM867.779,542.785C868.895,542.725 869.816,542.88 870.632,543.145C872.161,543.641 873.31,544.545 874.591,545.294C875.249,545.677 875.471,546.423 875.578,547.25C875.757,548.624 875.5,550.255 875.298,551.585C875.144,552.648 874.274,553.601 873.11,554.289C872.073,554.902 870.77,555.278 869.352,555.243C867.714,555.235 866.487,554.539 865.653,553.168C864.912,551.949 864.436,550.278 864.218,548.154C864.056,546.68 864.365,545.636 864.911,544.911C866,543.463 867.818,543.214 867.818,543.214L867.779,542.785Z"/>
                <path d="M869.541,551.968L869.538,551.968C869.538,551.968 869.592,551.98 869.644,551.989C869.809,552.016 870.161,552.075 870.542,552.023C870.961,551.965 871.415,551.84 871.751,551.534C872.22,551.107 872.757,550.45 872.425,549.234C872.053,548.088 871.868,546.928 871.425,546.466C870.989,546.011 870.43,545.653 869.578,546.353L869.578,545.976C869.52,546.034 869.468,546.113 869.426,546.207L869.093,546.207C869.093,546.207 868.559,546.743 868.13,547.513C867.838,548.039 867.673,548.677 867.675,549.321C867.678,550.182 868.091,551.034 869.073,551.77C869.216,551.865 869.374,551.933 869.541,551.968ZM870.166,548.776C870.163,548.805 870.161,548.834 870.16,548.864L870.166,548.776ZM870.38,547.23C870.355,547.177 870.19,547.228 870.077,547.264L870.283,547.264C870.317,547.254 870.349,547.243 870.38,547.23Z"/>
                <path d="M857.15,538.628C857.15,538.628 859.431,537.466 862.46,536.6C864.129,536.122 866.027,535.721 867.913,535.736C869.142,535.698 870.431,535.944 871.701,536.355C872.961,536.763 874.204,537.32 875.332,538.035C877.806,539.604 879.779,541.778 880.171,544.177C880.199,544.462 880.453,544.67 880.738,544.642C881.023,544.614 881.232,544.36 881.204,544.075C881.107,541.263 879.227,538.412 876.579,536.291C875.12,535.122 873.421,534.194 871.677,533.628C870.41,533.218 869.113,533.032 867.873,533.035C865.727,533.115 863.571,533.614 861.712,534.285C858.503,535.444 856.183,536.994 856.183,536.994C855.732,537.261 855.583,537.843 855.849,538.294C856.116,538.745 856.699,538.895 857.15,538.628Z"/>
            </g>
        </g>
    </g>
</svg>
