<?xml version="1.0" encoding="UTF-8" standalone="no"?>
<!DOCTYPE svg PUBLIC "-//W3C//DTD SVG 1.1//EN" "http://www.w3.org/Graphics/SVG/1.1/DTD/svg11.dtd">
<svg width="100%" height="100%" viewBox="0 0 30 22" version="1.1" xmlns="http://www.w3.org/2000/svg" xmlns:xlink="http://www.w3.org/1999/xlink" xml:space="preserve" xmlns:serif="http://www.serif.com/" style="fill-rule:evenodd;clip-rule:evenodd;stroke-linejoin:round;stroke-miterlimit:2;">
    <g transform="matrix(1,0,0,1,-475.621,-228.809)">
        <g transform="matrix(0.97604,0,0,0.97604,1208.18,669.533)">
            <g id="righteyebrow" transform="matrix(1.02455,0,0,1.02455,-1624.01,-968.744)">
                <path d="M873.206,506.514C873.206,506.514 861.276,505.7 857.165,506.514C853.054,507.328 853.779,514.737 854.263,516.554C854.747,518.371 854.344,521.345 862.485,520.019C870.627,518.694 873.69,520.145 876.35,522.966C879.01,525.787 881.106,526.674 880.22,521.918C879.333,517.162 877.398,509.408 873.206,506.514Z" style="fill:rgb(76,20,29);"/>
                <path d="M873.501,505.733C873.425,505.636 873.335,505.579 873.242,505.567C873.271,505.567 868.25,505.131 863.579,505.033C860.954,504.978 858.438,505.043 856.928,505.318C854.844,505.704 853.622,507.332 853.035,509.4C852.254,512.148 852.659,515.673 852.973,516.898C853.351,518.34 853.478,520.233 855.79,521.184C857.06,521.706 859.156,521.924 862.7,521.339C866.458,520.677 869.069,520.633 871.059,521.092C873.004,521.541 874.315,522.475 875.542,523.728C877.043,525.257 878.446,526.206 879.334,526.299C879.861,526.354 880.304,526.233 880.656,525.94C880.918,525.722 881.155,525.406 881.285,524.936C881.458,524.311 881.469,523.276 881.148,521.745C880.547,518.898 879.553,514.999 877.941,511.695C876.79,509.337 875.331,507.283 873.501,506.087L873.501,505.733ZM879.482,524.277C879.544,524.229 879.602,524.198 879.595,524.253C879.588,524.31 879.545,524.309 879.482,524.277ZM873.142,507.117C874.64,508.306 875.779,510.18 876.675,512.274C878.068,515.529 878.844,519.325 879.291,522.091C879.405,522.786 879.451,523.346 879.44,523.787C879.436,523.937 879.408,524.096 879.382,524.216C879.274,524.14 879.144,524.029 879.038,523.957C878.484,523.579 877.846,522.962 877.159,522.204C875.68,520.576 874.065,519.361 871.645,518.722C869.432,518.137 866.502,518.067 862.271,518.7C859.472,519.149 857.818,519.094 856.816,518.684C856.148,518.41 855.951,517.92 855.83,517.449C855.721,517.019 855.655,516.59 855.553,516.211C855.278,515.213 854.904,512.335 855.496,510.072C855.789,508.953 856.286,507.946 857.402,507.711C858.796,507.412 861.131,507.304 863.569,507.274C868.177,507.217 873.142,507.461 873.142,507.461L873.142,507.117ZM873.021,507.023C872.894,507.009 872.774,506.981 872.667,506.941L872.912,506.941L873.021,507.023Z"/>
            </g>
        </g>
    </g>
</svg>
