<?xml version="1.0" encoding="UTF-8" standalone="no"?>
<!DOCTYPE svg PUBLIC "-//W3C//DTD SVG 1.1//EN" "http://www.w3.org/Graphics/SVG/1.1/DTD/svg11.dtd">
<svg width="100%" height="100%" viewBox="0 0 447 418" version="1.1" xmlns="http://www.w3.org/2000/svg" xmlns:xlink="http://www.w3.org/1999/xlink" xml:space="preserve" xmlns:serif="http://www.serif.com/" style="fill-rule:evenodd;clip-rule:evenodd;stroke-linejoin:round;stroke-miterlimit:2;">
    <g transform="matrix(1,0,0,1,-169.995,-53.9375)">
        <g transform="matrix(0.97604,0,0,0.97604,1208.18,669.533)">
            <g id="robothead2" transform="matrix(1.02455,0,0,1.02455,-2502.16,-747.769)">
                <g id="robothead1" transform="matrix(1,0,0,1,1796.15,-939.125)">
                    <g transform="matrix(1,0,0,1.43786,-511.504,-507.417)">
                        <path d="M407.623,1120.41L395.624,1093.55L352.525,1086.44C352.525,1086.44 304.702,1095.88 248.024,1116.94C248.024,1116.94 210.238,1132.12 199.611,1149.42L194.494,1158.86L407.623,1120.41Z" style="fill:rgb(88,46,46);"/>
                        <path d="M407.753,1121.05C407.891,1121 408.008,1120.89 408.077,1120.73C408.146,1120.57 408.161,1120.38 408.119,1120.21L408.53,1120.21L396.642,1093.33C396.531,1093.08 396.237,1092.88 395.87,1092.83L352.796,1085.64C352.601,1085.61 352.397,1085.61 352.204,1085.65C352.204,1085.65 330.387,1089.91 298.747,1099.16C283.468,1103.62 265.902,1109.25 247.389,1116.11C247.376,1116.12 247.363,1116.12 247.35,1116.13C247.35,1116.13 229.366,1123.34 214.647,1133.53C207.867,1138.22 201.792,1143.54 198.414,1149.07C198.407,1149.08 198.4,1149.09 198.394,1149.1L193.304,1158.55C193.136,1158.86 193.23,1159.2 193.548,1159.45C193.865,1159.7 194.353,1159.8 194.813,1159.72C194.813,1159.72 234.735,1152.44 280.001,1144.16C339.292,1133.32 407.753,1120.76 407.753,1120.76L407.753,1121.05ZM406.546,1120.23C398.108,1121.72 334.803,1132.95 279.49,1142.8C240.669,1149.7 205.787,1155.93 196.553,1157.58C196.553,1157.58 200.817,1149.76 200.817,1149.76C204.098,1144.45 210.004,1139.36 216.541,1134.85C230.672,1125.11 247.813,1118.11 248.665,1117.77C267.087,1110.9 284.562,1105.29 299.751,1100.81C329.072,1092.17 349.892,1087.83 352.557,1087.28C352.558,1087.28 394.79,1094.17 394.79,1094.17L406.546,1120.23Z"/>
                    </g>
                    <g transform="matrix(1,0,0,1,-494.062,0)">
                        <path d="M243.721,1091.41C243.721,1091.41 244.42,1096.84 245.722,1104.29C246.006,1105.91 246.328,1107.63 246.686,1109.41C246.911,1110.52 247.151,1111.66 247.413,1112.81C248.046,1115.58 248.762,1118.43 249.518,1121.25C250.703,1125.66 252.013,1129.97 253.29,1133.75C253.37,1134.02 253.659,1134.18 253.934,1134.1C254.209,1134.02 254.367,1133.73 254.287,1133.45C253.65,1130.84 253.051,1127.98 252.448,1125.01C251.771,1121.67 251.141,1118.2 250.495,1114.81C250.051,1112.49 249.604,1110.2 249.163,1108.02C248.672,1105.6 248.18,1103.32 247.742,1101.25C246.465,1095.23 245.593,1091.09 245.593,1091.09C245.506,1090.57 245.016,1090.22 244.499,1090.31C243.983,1090.4 243.634,1090.89 243.721,1091.41Z"/>
                    </g>
                    <g transform="matrix(1,0,0,1,-494.062,0)">
                        <path d="M205,1117.18C205,1117.18 204.358,1119.37 204.6,1124.71C204.664,1126.12 204.794,1127.75 205.042,1129.61C205.163,1130.52 205.315,1131.49 205.511,1132.51C205.767,1133.85 206.088,1135.27 206.48,1136.8C207.269,1139.88 208.344,1143.34 209.677,1147.28C209.753,1147.55 210.038,1147.71 210.315,1147.64C210.591,1147.56 210.754,1147.28 210.678,1147C210.221,1144.78 209.848,1142.71 209.505,1140.78C209.104,1138.51 208.782,1136.45 208.498,1134.55C208.321,1133.38 208.168,1132.28 208.012,1131.24C207.732,1129.38 207.491,1127.74 207.307,1126.29C206.523,1120.11 206.854,1117.59 206.854,1117.59C206.967,1117.08 206.643,1116.57 206.131,1116.46C205.619,1116.34 205.112,1116.67 205,1117.18Z"/>
                    </g>
                    <g transform="matrix(1,0,0,1,-494.062,0)">
                        <path d="M287.052,1071.81C287.052,1071.81 288.008,1078.29 289.562,1087.04C289.905,1088.97 290.285,1091.01 290.699,1093.11C290.96,1094.44 291.235,1095.78 291.531,1097.14C292.252,1100.46 293.047,1103.86 293.858,1107.18C295.181,1112.6 296.577,1117.79 297.825,1122.12C297.894,1122.4 298.176,1122.57 298.454,1122.5C298.732,1122.43 298.901,1122.15 298.832,1121.87C297.727,1116.67 296.589,1110.23 295.42,1103.7C294.983,1101.26 294.544,1098.81 294.094,1096.42C293.785,1094.77 293.467,1093.15 293.15,1091.58C292.573,1088.71 292.006,1085.99 291.488,1083.53C289.992,1076.42 288.92,1071.47 288.92,1071.47C288.827,1070.95 288.332,1070.61 287.817,1070.7C287.301,1070.8 286.958,1071.29 287.052,1071.81Z"/>
                    </g>
                    <g transform="matrix(1,0,0,1.43786,-511.504,-507.417)">
                        <path d="M352.131,1086.44L354.296,1124.41C376.974,1131.32 394.406,1129.11 409.394,1122.65L395.624,1093.55L352.131,1086.44Z" style="fill:rgb(199,147,125);"/>
                        <path d="M352.25,1085.79C352.092,1085.75 351.926,1085.8 351.801,1085.93C351.676,1086.06 351.606,1086.26 351.613,1086.46L351.183,1086.46L353.015,1124.45C353.035,1124.79 353.332,1125.09 353.782,1125.23C364.29,1128.45 373.703,1129.75 382.278,1129.58C392.602,1129.37 401.71,1127.03 410.066,1123.4C410.566,1123.19 410.789,1122.76 410.605,1122.37L396.523,1093.34C396.42,1093.12 396.161,1092.96 395.841,1092.91L352.25,1086.09L352.25,1085.79ZM353.117,1086.98L394.886,1094.1C394.886,1094.1 407.873,1122.25 407.873,1122.25C400.116,1125.47 391.691,1127.5 382.199,1127.7C374.162,1127.86 365.359,1126.71 355.541,1123.82C355.54,1123.82 353.117,1086.98 353.117,1086.98L353.117,1086.98Z"/>
                    </g>
                    <g transform="matrix(1,0,0,1,-511.504,0)">
                        <path d="M140.539,1193.32C126.132,1285.31 193.488,1267.15 193.488,1267.15C197.109,1297.85 214.585,1315.01 214.585,1315.01C214.585,1315.01 224.662,1316.74 235.997,1315.64C247.333,1314.54 249.222,1320.84 249.222,1320.84L259.485,1338.76C327.672,1470.62 401.674,1469.47 413.064,1468.43C376.539,1473.05 335.411,1459.07 321.336,1452.03C307.068,1444.9 295.26,1427.67 283.944,1416.11C272.628,1404.55 238.679,1351.17 238.679,1351.17C238.679,1351.17 233.721,1347.16 204.939,1347.65C176.157,1348.14 166.563,1343.72 155.985,1336.34C145.407,1328.96 131.385,1313.21 125.235,1283.94C119.085,1254.66 116.625,1233.26 135.075,1200.54C136.423,1198.15 138.263,1195.73 140.539,1193.32Z" style="fill:rgb(114,86,82);"/>
                        <path d="M141.477,1193.4C141.541,1193.18 141.33,1192.96 140.957,1192.86C140.583,1192.76 140.134,1192.8 139.849,1192.97L140.161,1192.97C139.061,1194.12 138.062,1195.29 137.168,1196.45C136.182,1197.73 135.325,1199.01 134.605,1200.28C125.864,1215.7 121.765,1228.62 120.501,1241.04C119.074,1255.08 121.275,1268.47 124.522,1284.09C126.993,1295.97 130.759,1305.65 135.067,1313.45C141.483,1325.08 149.11,1332.57 155.493,1337.04C161.033,1340.92 166.311,1344 174.145,1346.01C181.424,1347.88 190.928,1348.83 204.956,1348.61C213.842,1348.48 220.445,1348.77 225.325,1349.24C234.499,1350.11 237.366,1351.56 237.924,1351.9C239.406,1354.23 255.27,1379.17 268.497,1397.97C274.376,1406.33 279.742,1413.47 283.111,1416.93C290.911,1424.92 298.943,1435.6 307.857,1443.82C311.959,1447.6 316.25,1450.87 320.781,1453.14C328.894,1457.21 345.936,1463.59 365.932,1467.43C380.882,1470.3 397.481,1471.74 413.233,1469.76C413.959,1469.67 414.477,1469.01 414.398,1468.28C414.319,1467.55 413.671,1467.03 412.942,1467.09C405.962,1467.73 375.215,1468.32 336.755,1437.66C313.033,1418.75 286.412,1388.01 260.604,1338.18C260.596,1338.17 260.587,1338.15 260.578,1338.14L250.357,1320.33C250.127,1319.69 249.021,1317.18 245.467,1315.58C243.341,1314.63 240.275,1313.99 235.879,1314.43C232.103,1314.8 228.468,1314.85 225.31,1314.76C220.199,1314.61 216.341,1314.08 215.162,1313.9C213.757,1312.43 206.948,1304.96 201.418,1292.26C198.409,1285.35 195.78,1276.89 194.602,1267.02C194.564,1266.69 194.387,1266.4 194.117,1266.22C193.847,1266.04 193.511,1265.98 193.196,1266.07C193.196,1266.07 159.981,1275.12 145.829,1248.04C140.003,1236.89 137.409,1219.71 141.477,1193.47L141.477,1193.4ZM139.238,1195.56C134.274,1229.6 140.792,1248.27 150.701,1258.36C165.183,1273.09 187.093,1269.66 192.527,1268.52C193.776,1278.12 196.355,1286.38 199.295,1293.18C205.668,1307.93 213.75,1315.86 213.75,1315.86C213.923,1316.03 214.144,1316.15 214.383,1316.19C214.383,1316.19 218.866,1316.96 225.236,1317.17C228.485,1317.27 232.227,1317.23 236.115,1316.86C239.129,1316.57 241.431,1316.82 243.181,1317.36C247.15,1318.56 248.036,1321.19 248.036,1321.19C248.063,1321.28 248.101,1321.37 248.148,1321.45L258.379,1339.36C284.34,1389.64 311.164,1420.67 335.077,1439.76C356.852,1457.14 376.241,1464.68 390.435,1467.83C382.226,1467.41 374.102,1466.33 366.419,1464.88C346.708,1461.14 329.895,1454.91 321.891,1450.92C317.549,1448.76 313.443,1445.63 309.507,1442.03C300.602,1433.87 292.571,1423.24 284.776,1415.3C280.595,1411.04 273.313,1401.06 265.799,1390.2C252.998,1371.69 239.546,1350.62 239.546,1350.62C239.486,1350.52 239.411,1350.44 239.325,1350.37C239.325,1350.37 236.884,1348.29 225.512,1347.25C220.578,1346.79 213.904,1346.52 204.923,1346.69C191.118,1346.95 181.761,1346.08 174.59,1344.26C166.988,1342.34 161.863,1339.37 156.476,1335.63C150.227,1331.29 142.765,1324 136.455,1312.68C132.177,1305.01 128.432,1295.49 125.947,1283.79C122.666,1268.33 120.416,1255.08 121.77,1241.17C122.965,1228.88 126.972,1216.09 135.545,1200.81C136.236,1199.58 137.06,1198.34 138.009,1197.09C138.398,1196.58 138.808,1196.07 139.239,1195.56L139.238,1195.56Z"/>
                    </g>
                    <g transform="matrix(1,0,0,1,-511.504,0)">
                        <path d="M140.539,1193.32C169.053,1162.44 263.763,1129.59 263.763,1129.59L266.046,1120.84C280.652,1108.54 321.012,1100.08 349.84,1107.77C378.668,1115.46 417.875,1113.15 417.875,1113.15C445.934,1143.9 464.263,1208.98 464.263,1208.98C464.263,1208.98 468.937,1229.15 473.119,1238.99C477.301,1248.83 475.579,1261.87 473.857,1273.19C472.135,1284.5 481.483,1300.49 481.483,1300.49C481.483,1300.49 495.013,1345.02 461.065,1406.52C427.116,1468.02 414.57,1468.27 414.57,1468.27L413.064,1468.43C401.674,1469.47 327.672,1470.62 259.485,1338.76L249.222,1320.84C249.222,1320.84 247.333,1314.54 235.997,1315.64C224.662,1316.74 214.585,1315.01 214.585,1315.01C214.585,1315.01 197.109,1297.85 193.488,1267.15C193.488,1267.15 126.132,1285.31 140.539,1193.32Z" style="fill:rgb(173,168,164);"/>
                        <path d="M140.026,1193.24C134.424,1228.59 140.919,1247.8 150.997,1258.06C165.77,1273.1 188.357,1269.04 192.873,1268.03C194.09,1277.78 196.689,1286.15 199.658,1293.02C205.991,1307.69 214.021,1315.59 214.021,1315.59C214.138,1315.7 214.287,1315.78 214.449,1315.81C214.449,1315.81 218.909,1316.58 225.247,1316.79C228.483,1316.89 232.208,1316.85 236.079,1316.48C239.155,1316.18 241.504,1316.45 243.29,1317C247.483,1318.27 248.391,1321.09 248.391,1321.09C248.411,1321.15 248.437,1321.21 248.47,1321.27L258.692,1339.19C284.588,1389.45 311.366,1420.47 335.235,1439.56C374.518,1470.99 406.033,1470.27 413.174,1469.62L414.673,1469.46C415.206,1469.43 420.674,1468.7 432.699,1453.47C439.885,1444.37 449.567,1429.96 462.194,1407.14C472.768,1388.02 478.777,1370.52 482.032,1355.47C489.35,1321.63 482.773,1300.1 482.773,1300.1C482.742,1300 482.7,1299.9 482.647,1299.81C482.647,1299.81 478.339,1292.44 476.181,1284.24C475.221,1280.59 474.679,1276.77 475.193,1273.39C476.213,1266.69 477.227,1259.38 477.046,1252.48C476.915,1247.48 476.155,1242.69 474.358,1238.47C473.012,1235.3 471.617,1231.05 470.344,1226.77C467.686,1217.81 465.566,1208.68 465.566,1208.68C465.562,1208.66 465.556,1208.64 465.551,1208.62C465.551,1208.62 456.852,1177.78 442.262,1148.47C435.588,1135.06 427.679,1121.98 418.82,1112.29C418.56,1112 418.185,1111.85 417.799,1111.87C417.799,1111.87 402.346,1112.79 383.736,1111.58C372.799,1110.86 360.769,1109.41 350.155,1106.59C336.808,1103.04 321.023,1102.91 306.413,1105.02C289.045,1107.52 273.347,1113.2 265.318,1119.97C265.139,1120.12 265.011,1120.33 264.952,1120.55L262.828,1128.73C257.779,1130.52 219.917,1144.08 186.218,1161.38C167.277,1171.11 149.656,1182.02 139.841,1192.68L140.026,1193.24ZM141.236,1193.97C150.958,1183.46 168.414,1172.76 187.148,1163.2C223.254,1144.77 264.13,1130.65 264.13,1130.65C264.483,1130.53 264.752,1130.24 264.847,1129.87L267.046,1121.48C274.938,1115.01 290.068,1109.71 306.746,1107.34C321.04,1105.32 336.479,1105.46 349.525,1108.95C360.284,1111.83 372.48,1113.33 383.57,1114.07C400.163,1115.19 414.272,1114.61 417.334,1114.46C425.869,1123.96 433.475,1136.65 439.921,1149.63C454.081,1178.15 462.631,1208.13 462.965,1209.31C463.106,1209.91 465.184,1218.81 467.768,1227.53C469.07,1231.92 470.502,1236.28 471.879,1239.52C473.548,1243.45 474.226,1247.91 474.346,1252.55C474.521,1259.3 473.518,1266.43 472.52,1272.98C471.954,1276.7 472.511,1280.91 473.568,1284.92C475.64,1292.79 479.605,1299.92 480.234,1301.03C480.765,1302.91 486.202,1323.45 479.434,1354.91C476.24,1369.76 470.337,1387.02 459.935,1405.9C449.998,1423.94 441.904,1436.7 435.426,1445.73C427.972,1456.11 422.692,1461.5 419.22,1464.29C415.938,1466.92 414.547,1467.06 414.547,1467.06C414.512,1467.06 414.477,1467.07 414.442,1467.07L412.945,1467.23C405.934,1467.88 375.137,1468.52 336.596,1437.86C312.83,1418.95 286.161,1388.2 260.287,1338.35C260.281,1338.34 260.275,1338.33 260.268,1338.31L250.017,1320.48C249.83,1319.95 248.792,1317.48 245.314,1315.93C243.229,1314.99 240.224,1314.38 235.916,1314.8C232.122,1315.18 228.47,1315.23 225.298,1315.14C219.965,1314.99 215.988,1314.41 214.974,1314.26C213.774,1313.02 206.742,1305.47 201.055,1292.42C198.03,1285.48 195.387,1276.99 194.2,1267.07C194.175,1266.86 194.062,1266.67 193.89,1266.56C193.717,1266.44 193.503,1266.4 193.302,1266.46C193.302,1266.46 159.76,1275.58 145.457,1248.23C139.601,1237.03 136.97,1219.78 141.051,1193.4L141.236,1193.97Z"/>
                    </g>
                    <g transform="matrix(1,0,0,1,-511.504,0)">
                        <path d="M191.603,1334.04C191.603,1334.04 187.196,1327.19 183.382,1315.51C182.595,1313.11 181.827,1310.5 181.115,1307.7C180.684,1306 180.273,1304.24 179.884,1302.41C179.001,1298.27 178.267,1293.79 177.826,1289C177.245,1282.68 177.128,1275.85 177.839,1268.57C177.874,1268.28 177.673,1268.02 177.388,1267.99C177.104,1267.95 176.844,1268.15 176.809,1268.44C175.689,1275.78 175.378,1282.72 175.678,1289.14C175.907,1294.06 176.478,1298.67 177.284,1302.94C177.64,1304.82 178.05,1306.63 178.494,1308.37C179.228,1311.23 180.052,1313.9 180.916,1316.35C185.118,1328.27 190.034,1335.11 190.034,1335.11C190.329,1335.54 190.92,1335.65 191.353,1335.36C191.786,1335.06 191.898,1334.47 191.603,1334.04Z"/>
                    </g>
                    <g transform="matrix(1,0,0,1,-511.504,0)">
                        <path d="M443.589,1219.13L469.251,1206.06C469.251,1206.06 486.412,1201.03 489.719,1176.46C493.025,1151.9 486.412,1131.91 479.485,1120.73C472.558,1109.55 457.386,1091.13 440.647,1093.81L386.753,1107.82C386.753,1107.82 374.472,1111.13 372.111,1132.22C369.749,1153.32 375.259,1180.4 387.54,1195.99C399.82,1211.57 416.981,1221.49 443.589,1219.13Z" style="fill:rgb(173,168,164);"/>
                        <path d="M443.634,1220.08C443.701,1220.07 443.765,1220.03 443.824,1219.98L444.019,1219.98L469.647,1207.05C470.581,1206.75 478.438,1204.04 484.472,1194.78C487.342,1190.38 489.803,1184.47 490.885,1176.62C492.351,1165.95 491.967,1156.13 490.495,1147.5C488.527,1135.96 484.613,1126.54 480.602,1120.04C476.356,1113.17 469.053,1103.62 460.191,1097.71C454.165,1093.7 447.423,1091.36 440.434,1092.48C440.392,1092.48 440.349,1092.49 440.308,1092.5L386.431,1106.63C386.431,1106.63 381.184,1107.99 376.712,1114.67C374.173,1118.47 371.861,1124.02 370.988,1132.1C369.86,1142.56 370.645,1154.48 373.222,1165.75C375.901,1177.47 380.515,1188.5 386.883,1196.51C393.624,1204.98 401.793,1211.78 412.107,1215.85C420.902,1219.32 431.261,1220.81 443.634,1219.65L443.634,1220.08ZM443.158,1218.64C431.164,1219.6 421.127,1218.04 412.614,1214.58C402.593,1210.51 394.692,1203.8 388.197,1195.47C382.053,1187.6 377.671,1176.78 375.156,1165.32C372.73,1154.26 372.044,1142.59 373.233,1132.35C373.927,1126.36 375.434,1121.85 377.226,1118.47C381.316,1110.75 386.867,1109.08 387.068,1109.02C387.072,1109.02 440.921,1095.13 440.921,1095.13C447.216,1094.14 453.263,1096.34 458.696,1099.96C467.234,1105.64 474.266,1114.82 478.368,1121.42C482.268,1127.69 486.062,1136.79 488.017,1147.93C489.493,1156.34 489.923,1165.9 488.552,1176.31C487.573,1183.76 485.287,1189.37 482.594,1193.57C476.725,1202.7 468.954,1205.05 468.954,1205.05C468.891,1205.07 468.831,1205.09 468.772,1205.12L443.158,1218.29L443.158,1218.64ZM443.342,1218.63C443.395,1218.62 443.449,1218.62 443.505,1218.61L443.543,1218.61L443.342,1218.63Z"/>
                    </g>
                    <g transform="matrix(1,0,0,1,-511.504,0)">
                        <path d="M266.046,1120.84C266.046,1120.84 293.122,1132.01 295.515,1149.42L296.145,1168.47C296.145,1168.47 272.718,1175.65 265.034,1201.98L239.718,1203.99C239.718,1203.99 235.184,1180.82 230.271,1174.27C225.359,1167.72 218.306,1152.85 197.02,1157.39L264.027,1129.43L266.046,1120.84Z" style="fill:rgb(116,89,85);"/>
                        <path d="M266.408,1120.36C266.15,1120.3 265.86,1120.31 265.612,1120.38C265.364,1120.44 265.185,1120.57 265.121,1120.72L265.54,1120.72L263.531,1129C263.531,1129 196.616,1156.42 196.616,1156.42C196.115,1156.63 195.856,1157.18 196.018,1157.7C196.179,1158.22 196.708,1158.53 197.239,1158.41C205.516,1156.7 211.544,1157.99 216.095,1160.58C222.905,1164.46 226.433,1171.2 229.27,1175.02C230.945,1177.27 232.535,1181.56 233.933,1186.13C236.544,1194.68 238.398,1204.25 238.398,1204.25C238.529,1204.92 239.143,1205.38 239.825,1205.33L265.141,1203.31C265.697,1203.27 266.167,1202.89 266.323,1202.35C268.816,1193.75 273.036,1187.25 277.541,1182.39C286.462,1172.78 296.505,1169.65 296.505,1169.65C297.036,1169.48 297.392,1168.99 297.373,1168.43L296.664,1149.38C296.663,1149.35 296.66,1149.31 296.654,1149.27C295.832,1143.46 292.416,1138.32 288.098,1134.03C279.154,1125.15 266.408,1119.96 266.408,1119.96L266.408,1120.36ZM266.315,1121.99C268.933,1123.17 279.142,1128.04 286.572,1135.55C290.485,1139.51 293.638,1144.2 294.366,1149.51C294.367,1149.52 294.89,1167.6 294.89,1167.6C292.133,1168.61 283.48,1172.26 275.639,1180.62C271.027,1185.54 266.699,1192.1 264.015,1200.71C264.015,1200.71 240.797,1202.56 240.797,1202.56C240.201,1199.71 238.555,1192.21 236.417,1185.37C234.889,1180.47 233.087,1175.91 231.273,1173.51C228.259,1169.53 224.42,1162.57 217.233,1158.56C213.774,1156.63 209.544,1155.37 204.263,1155.45C204.262,1155.45 264.251,1129.96 264.251,1129.96C264.423,1129.89 264.55,1129.74 264.593,1129.56L266.315,1121.99Z"/>
                    </g>
                    <g transform="matrix(1,0,0,1,-511.504,0)">
                        <path d="M194.494,1266.65C194.494,1266.65 216.082,1254.37 221.435,1215.8C226.788,1177.22 220.018,1162.74 207.895,1157.23L181.445,1149.51L153.106,1092.52L150.349,1086.44C150.349,1086.44 142.529,1082.56 140.353,1089.9C138.177,1097.23 166.551,1152.21 166.551,1152.21L156.959,1158.86L145.27,1134.23L142.529,1129.15C142.529,1129.15 136.081,1125.93 133.662,1132.22L147.688,1169.3C147.688,1169.3 138.779,1188.64 138.518,1200.01C138.257,1211.38 135.436,1234.67 144.787,1248.78C154.137,1262.89 163.81,1267.16 172.113,1268.37C180.416,1269.58 191.322,1268.72 194.494,1266.65Z" style="fill:rgb(177,172,166);"/>
                        <path d="M194.963,1267.48C194.963,1267.48 205.671,1261.46 214.04,1244.53C217.664,1237.2 220.853,1227.8 222.529,1215.95C224.96,1198.71 224.965,1186.24 223.175,1177.2C220.841,1165.42 215.467,1159.32 208.41,1156.1C208.356,1156.07 208.3,1156.05 208.243,1156.03L182.35,1148.43C182.35,1148.43 154.325,1091.94 154.325,1091.94C154.325,1091.94 151.581,1085.88 151.581,1085.88C151.452,1085.59 151.229,1085.36 150.949,1085.22C150.949,1085.22 147.318,1083.46 144.021,1084.3C141.996,1084.81 140.036,1086.22 139.059,1089.51C138.778,1090.46 138.858,1092.09 139.355,1094.23C140.223,1097.97 142.288,1103.54 144.917,1109.78C151.785,1126.08 162.469,1147.05 164.913,1151.8C164.913,1151.8 157.449,1157 157.449,1157C157.449,1157 146.333,1133.73 146.333,1133.73C146.325,1133.71 146.315,1133.69 146.306,1133.67L143.55,1128.6C143.437,1128.39 143.262,1128.22 143.048,1128.12C143.048,1128.12 139.939,1126.59 136.985,1127.44C135.302,1127.93 133.629,1129.13 132.608,1131.81C132.509,1132.07 132.508,1132.36 132.606,1132.62L146.594,1169.27C145.786,1171.08 142.362,1178.94 139.987,1187.11C138.675,1191.63 137.685,1196.24 137.611,1199.99C137.473,1207.08 136.364,1218.81 137.806,1230.06C138.696,1237 140.557,1243.76 144.177,1249.18C148.081,1255.03 152.036,1259.2 155.922,1262.16C161.547,1266.46 167.031,1268.26 172.026,1268.97C176.384,1269.59 181.449,1269.64 185.758,1269.25C189.818,1268.89 193.214,1268.11 194.778,1267.08L194.963,1267.48ZM194.21,1266.21C192.725,1267.18 189.501,1267.83 185.663,1268.15C181.435,1268.5 176.469,1268.41 172.2,1267.77C167.395,1267.05 162.126,1265.28 156.739,1261.11C152.975,1258.19 149.157,1254.1 145.396,1248.38C141.937,1243.12 140.208,1236.57 139.397,1229.86C138.045,1218.69 139.239,1207.07 139.426,1200.03C139.52,1196.42 140.516,1191.99 141.808,1187.65C144.537,1178.49 148.607,1169.72 148.607,1169.72C148.72,1169.48 148.73,1169.19 148.634,1168.94L134.877,1132.24C135.572,1130.7 136.566,1129.94 137.615,1129.65C139.277,1129.18 140.997,1129.76 141.692,1130.05C141.692,1130.05 144.219,1134.76 144.219,1134.76C144.219,1134.76 155.836,1159.39 155.836,1159.39C155.993,1159.72 156.286,1159.97 156.638,1160.06C156.991,1160.15 157.367,1160.09 157.666,1159.88L167.275,1153.25C167.799,1152.89 167.972,1152.19 167.68,1151.63C167.68,1151.63 155.123,1127.18 147.396,1108.74C144.851,1102.67 142.825,1097.26 141.983,1093.62C141.631,1092.1 141.448,1090.95 141.647,1090.28C142.264,1088.2 143.413,1087.24 144.688,1086.92C146.519,1086.45 148.486,1087.12 149.327,1087.46C149.328,1087.46 151.877,1093.08 151.877,1093.08C151.883,1093.09 151.89,1093.11 151.898,1093.12L180.29,1150.09C180.45,1150.41 180.738,1150.65 181.084,1150.75L207.462,1158.4C213.882,1161.33 218.669,1166.95 220.839,1177.67C222.632,1186.52 222.648,1198.75 220.341,1215.64C218.762,1227.24 215.697,1236.44 212.192,1243.62C204.232,1259.94 194.025,1265.82 194.025,1265.82L194.21,1266.21Z"/>
                    </g>
                    <g transform="matrix(1,0,0,1,-511.504,0)">
                        <path d="M415.931,1136.9L371.575,1153.16C371.575,1153.16 371.789,1184.39 396.602,1205.3C421.414,1226.21 444.338,1219.16 444.338,1219.16L471.795,1205.3C471.795,1205.3 444.841,1210.98 425.697,1179.05C425.697,1179.05 413.975,1156.85 415.931,1136.9Z" style="fill:rgb(111,81,79);"/>
                        <path d="M416.448,1137C416.465,1136.67 416.39,1136.35 416.249,1136.15C416.108,1135.95 415.92,1135.9 415.753,1136.01L415.605,1136.01L371.173,1152.06C370.71,1152.23 370.404,1152.67 370.407,1153.17C370.407,1153.17 370.43,1166.89 377.609,1182.35C381.363,1190.44 387.079,1199 395.738,1206.32C403.746,1213.08 411.562,1216.98 418.51,1219.14C433.673,1223.87 444.717,1220.39 444.717,1220.39C444.786,1220.37 444.853,1220.34 444.918,1220.31L472.312,1206.33C472.827,1206.07 473.069,1205.46 472.878,1204.92C472.687,1204.38 472.123,1204.06 471.559,1204.18C471.559,1204.18 459.213,1206.81 445.389,1198.44C439.025,1194.59 432.358,1188.42 426.41,1178.65C426.14,1178.14 421.619,1169.54 418.703,1158.41C416.961,1151.77 415.786,1144.22 416.448,1136.95L416.448,1137ZM415.297,1138.15C414.767,1145.14 415.817,1152.35 417.402,1158.75C420.299,1170.44 424.976,1179.43 424.976,1179.43C424.983,1179.44 424.99,1179.45 424.998,1179.46C431.01,1189.64 437.829,1196.08 444.352,1200.13C452.927,1205.46 461.013,1206.69 466.206,1206.81C466.208,1206.81 443.868,1217.95 443.868,1217.95C442.802,1218.25 432.784,1220.8 419.313,1216.57C412.652,1214.48 405.152,1210.75 397.465,1204.28C389.1,1197.26 383.58,1189.04 379.922,1181.27C373.93,1168.55 372.937,1157.05 372.775,1153.96C372.775,1153.96 415.297,1138.15 415.297,1138.15L415.297,1138.15Z"/>
                    </g>
                    <g transform="matrix(1,0,0,1,-511.504,0)">
                        <path d="M449.811,1117.81C449.811,1117.81 466.336,1117.1 472.583,1136.55C478.83,1156 479.535,1170.1 468.855,1179.48C458.174,1188.85 443.16,1173.2 439.432,1161.31C435.704,1149.42 432.983,1123.35 449.811,1117.81Z" style="fill:rgb(107,60,57);"/>
                        <path d="M449.648,1117.32C442.633,1119.54 438.836,1125.22 437.056,1132.03C434.453,1141.99 436.225,1154.38 438.413,1161.63C440.558,1168.68 446.512,1177.02 453.299,1181.09C458.732,1184.34 464.667,1184.9 469.742,1180.49C474.91,1175.95 477.571,1170.36 478.259,1163.66C479.042,1156.02 477.223,1146.89 473.725,1136.18C471.591,1129.7 468.366,1125.39 464.974,1122.53C457.752,1116.43 449.77,1116.86 449.77,1116.86L449.648,1117.32ZM449.851,1118.76C449.851,1118.76 457.088,1118.54 463.561,1124.18C466.651,1126.87 469.556,1130.9 471.441,1136.92C474.704,1147.25 476.397,1156.04 475.603,1163.38C474.953,1169.39 472.604,1174.4 467.967,1178.46C463.872,1182.09 459.044,1181.49 454.592,1178.9C448.222,1175.19 442.559,1167.52 440.451,1160.99C438.185,1154.03 436.214,1142.08 438.514,1132.39C440.038,1125.97 443.445,1120.54 449.973,1118.3L449.851,1118.76Z"/>
                    </g>
                    <g transform="matrix(1,0,0,1,-511.504,0)">
                        <path d="M446.318,1093.11C446.15,1092.79 445.806,1092.58 445.422,1092.6C445.422,1092.6 436.267,1093.09 428.192,1099.56C424.027,1102.89 420.148,1107.81 417.955,1115.06C414.954,1125 414.102,1137.08 415.074,1148.58C416.148,1161.31 419.467,1173.31 424.447,1180.97C429.818,1189.19 440.93,1198.61 451.942,1203.4C460.809,1207.26 469.603,1208.05 475.452,1203.38C476.577,1202.84 482.947,1199.45 487.411,1190.19C490.277,1184.25 492.373,1175.85 491.682,1164.15C491.688,1163.2 491.688,1147.61 485.65,1131.2C482.009,1121.31 476.175,1111.14 466.853,1103.68C466.49,1103.35 461.364,1098.75 454.837,1095.69C452.156,1094.44 449.239,1093.44 446.318,1093.11ZM446.211,1094.15C446.049,1094.35 445.809,1094.48 445.534,1094.49C445.534,1094.49 436.99,1095.06 429.497,1101.17C425.648,1104.31 422.083,1108.93 420.101,1115.7C417.254,1125.4 416.545,1137.17 417.562,1148.36C418.675,1160.6 421.848,1172.16 426.68,1179.51C431.824,1187.38 442.491,1196.33 453.018,1200.94C460.92,1204.39 468.748,1205.49 473.949,1201.29C474.041,1201.21 474.142,1201.15 474.251,1201.1C474.251,1201.1 482.471,1197.51 486.866,1185.25C488.762,1179.96 489.949,1173.09 489.512,1164.24C489.511,1164.22 489.51,1164.19 489.511,1164.17C489.511,1164.17 489.865,1148.45 483.967,1131.81C480.534,1122.12 474.987,1112.12 465.987,1104.73C465.975,1104.72 465.963,1104.71 465.952,1104.7C465.952,1104.7 460.887,1099.92 454.334,1096.75C451.782,1095.51 449.003,1094.51 446.211,1094.15Z"/>
                    </g>
                    <g transform="matrix(1,0,0,1,-511.504,0)">
                        <path d="M438.223,1130.81C438.223,1130.81 443.907,1120.13 453.308,1126.37C462.708,1132.62 466.537,1150.07 465.53,1158.33C464.522,1166.58 462.145,1180.79 453.308,1178.87C453.308,1178.87 441.548,1173.65 438.122,1156.51C434.696,1139.37 437.115,1135.64 438.223,1130.81Z" style="fill:rgb(164,88,72);"/>
                        <path d="M437.717,1130.69C437.02,1133.54 435.884,1136 435.692,1141C435.554,1144.58 435.903,1149.45 437.244,1156.69C438.286,1162.27 440.208,1166.64 442.342,1170C447.045,1177.41 452.811,1179.99 452.811,1179.99C452.887,1180.02 452.967,1180.05 453.048,1180.07C456.599,1180.87 459.292,1179.47 461.331,1176.86C462.79,1174.99 463.9,1172.46 464.726,1169.71C465.861,1165.94 466.467,1161.76 466.868,1158.49C467.392,1154.05 466.591,1147.04 464.282,1140.44C462.13,1134.29 458.67,1128.52 453.935,1125.43C450.191,1122.99 446.989,1122.97 444.423,1123.9C439.904,1125.56 437.385,1130.36 437.385,1130.36L437.717,1130.69ZM439.061,1131.25C439.061,1131.25 441.261,1127.2 445.122,1125.88C447.186,1125.17 449.728,1125.31 452.681,1127.32C456.972,1130.22 459.963,1135.61 461.866,1141.27C463.95,1147.47 464.714,1154.02 464.191,1158.16C463.657,1162.62 462.73,1168.85 460.542,1173.21C459.039,1176.2 456.942,1178.31 453.693,1177.7C452.896,1177.32 448.186,1174.88 444.141,1168.83C442.044,1165.69 440.123,1161.6 439.001,1156.34C437.488,1149.29 437.008,1144.54 437.041,1141.04C437.086,1136.15 438.132,1133.72 438.729,1130.92L439.061,1131.25Z"/>
                    </g>
                    <g transform="matrix(1,0,0,1,-511.504,0)">
                        <path d="M152.265,1258.84C152.265,1258.84 166.27,1265.52 178.475,1251.79C190.68,1238.06 197.104,1221.81 198.867,1203.99C200.631,1186.17 200.631,1165.89 181.738,1151.65L150.501,1086.44C150.501,1086.44 141.967,1082.66 139.955,1090.6L155.884,1130.44L166.676,1152.38L156.938,1158.64L142.558,1129.42C142.558,1129.42 135.408,1125.75 133.662,1132.33L147.717,1169.28C147.717,1169.28 138.942,1187.6 138.518,1209.52C138.095,1231.45 139.592,1244.8 152.265,1258.84Z" style="fill:rgb(122,109,101);"/>
                        <path d="M151.88,1259.48C151.925,1259.57 151.98,1259.64 152.042,1259.7L151.856,1259.7C151.856,1259.7 158.506,1262.91 166.77,1260.61C170.742,1259.5 175.095,1257.12 179.25,1252.48C185.421,1245.57 190.144,1238.03 193.558,1229.98C197.006,1221.84 199.117,1213.18 200.038,1204.11C200.998,1194.63 201.451,1184.47 198.925,1174.85C196.619,1166.08 191.849,1157.76 182.771,1150.81C182.772,1150.81 151.718,1085.85 151.718,1085.85C151.579,1085.56 151.341,1085.33 151.047,1085.2C151.047,1085.2 147.12,1083.5 143.66,1084.54C141.546,1085.18 139.542,1086.75 138.651,1090.27C138.582,1090.55 138.601,1090.84 138.706,1091.1L154.698,1130.91C154.71,1130.94 154.724,1130.98 154.738,1131.01L165.109,1151.95C165.109,1151.95 157.408,1156.93 157.408,1156.93C157.408,1156.93 143.524,1128.95 143.524,1128.95C143.422,1128.74 143.256,1128.57 143.05,1128.46C143.05,1128.46 139.855,1126.86 136.994,1127.49C135.176,1127.88 133.434,1129.09 132.656,1132.06C132.6,1132.27 132.612,1132.49 132.689,1132.7L146.741,1169.25C145.983,1170.92 142.751,1178.4 140.384,1188.77C138.992,1194.88 137.899,1201.98 137.783,1209.51C137.587,1222.33 138.04,1232.24 140.959,1241.06C143.076,1247.44 146.483,1253.26 151.88,1259.19L151.88,1259.48ZM152.673,1258.37C152.786,1258.4 152.886,1258.44 152.97,1258.49L152.65,1258.49C147.423,1252.65 144.134,1246.94 142.116,1240.68C139.308,1231.96 138.958,1222.18 139.253,1209.54C139.426,1202.13 140.558,1195.14 141.976,1189.14C144.717,1177.55 148.527,1169.66 148.527,1169.66C148.634,1169.44 148.644,1169.19 148.557,1168.96L134.759,1132.28C135.307,1130.57 136.319,1129.8 137.441,1129.56C139.162,1129.19 141.029,1129.91 141.753,1130.23C141.754,1130.23 155.878,1159.16 155.878,1159.16C156.027,1159.46 156.297,1159.68 156.622,1159.78C156.946,1159.87 157.294,1159.81 157.577,1159.63L167.331,1153.4C167.85,1153.07 168.036,1152.4 167.764,1151.85L157.052,1129.92C157.052,1129.92 141.373,1090.52 141.373,1090.52C141.991,1088.51 143.144,1087.51 144.438,1087.12C146.417,1086.53 148.597,1087.16 149.513,1087.5C149.513,1087.5 180.569,1152.21 180.569,1152.21C180.658,1152.4 180.792,1152.57 180.958,1152.69C189.7,1159.25 194.29,1167.15 196.52,1175.49C199.01,1184.81 198.585,1194.67 197.697,1203.87C196.844,1212.72 194.83,1221.17 191.512,1229.12C188.229,1236.98 183.672,1244.34 177.701,1251.1C173.889,1255.41 169.894,1257.65 166.232,1258.69C158.735,1260.83 152.673,1257.98 152.673,1257.98L152.673,1258.37Z"/>
                    </g>
                    <g transform="matrix(1,0,0,1,-511.504,0)">
                        <path d="M157.65,1228.6C157.65,1228.6 166.013,1230.74 169.641,1224.45C173.268,1218.16 176.492,1211.15 176.654,1196.88C176.815,1182.61 167.222,1181.56 164.159,1183.98C161.096,1186.4 152.551,1194.46 152.148,1208.57C151.745,1222.67 153.962,1227.19 157.65,1228.6Z" style="fill:rgb(88,44,45);"/>
                        <path d="M157.464,1229.49C157.483,1229.5 157.502,1229.51 157.521,1229.52L157.415,1229.52C157.415,1229.52 161.016,1230.48 164.671,1229.48C166.874,1228.88 169.083,1227.57 170.606,1225C172.841,1221.22 174.938,1217.17 176.327,1211.46C177.283,1207.54 177.892,1202.84 177.993,1196.89C178.072,1189.87 175.876,1185.81 173.244,1183.7C169.74,1180.88 165.368,1181.38 163.373,1182.99C161.435,1184.55 157.352,1188.35 154.464,1194.47C152.672,1198.26 151.336,1202.95 151.258,1208.54C151.168,1216.07 151.773,1220.9 152.908,1223.99C153.998,1226.96 155.564,1228.4 157.464,1229.08L157.464,1229.49ZM157.885,1228.1C157.92,1228.1 157.955,1228.11 157.989,1228.11L157.835,1228.11C155.837,1227.31 154.376,1225.49 153.582,1221.53C152.984,1218.54 152.777,1214.38 153.038,1208.59C153.266,1203.33 154.655,1198.96 156.437,1195.43C159.268,1189.84 163.114,1186.39 164.946,1184.98C165.507,1184.54 166.362,1184.3 167.319,1184.27C169.121,1184.22 171.264,1185.01 172.858,1187.14C174.36,1189.15 175.363,1192.26 175.314,1196.86C175.282,1202.58 174.74,1207.11 173.881,1210.89C172.642,1216.34 170.734,1220.24 168.675,1223.89C167.531,1225.93 165.814,1226.98 164.1,1227.49C160.99,1228.42 157.885,1227.68 157.885,1227.68L157.885,1228.1Z"/>
                    </g>
                    <g transform="matrix(1,0,0,1,-511.504,0)">
                        <path d="M168.887,1186.14C168.887,1186.14 164.805,1189.12 161.259,1194.29C160.447,1195.47 159.672,1196.77 158.99,1198.18C158.559,1199.07 158.165,1200 157.831,1200.97C157.044,1203.26 156.537,1205.76 156.484,1208.4C156.415,1211.82 157.107,1215.47 158.925,1219.25C159.035,1219.51 159.34,1219.64 159.604,1219.53C159.868,1219.41 159.993,1219.11 159.882,1218.85C158.555,1215.16 158.294,1211.72 158.633,1208.53C158.886,1206.15 159.515,1203.93 160.321,1201.88C160.663,1201.01 161.033,1200.17 161.425,1199.36C162.052,1198.06 162.737,1196.84 163.438,1195.71C166.546,1190.73 170.072,1187.62 170.072,1187.62C170.481,1187.3 170.548,1186.7 170.221,1186.29C169.894,1185.88 169.296,1185.82 168.887,1186.14Z"/>
                    </g>
                </g>
                <g transform="matrix(1.05513,0.184662,-0.169986,0.971275,1072.13,-1035.08)">
                    <ellipse cx="785.764" cy="1317.59" rx="96.671" ry="120.334" style="fill:rgb(153,93,74);"/>
                    <path d="M785.764,1196.73C757.734,1196.64 732.419,1211.36 714.599,1234.95C698.273,1256.56 688.243,1285.62 688.166,1317.59C688.1,1349.61 698.03,1378.77 714.291,1400.5C732.122,1424.33 757.558,1439.22 785.764,1439.27C813.991,1439.27 839.469,1424.42 857.347,1400.6C873.665,1378.86 883.64,1349.66 883.613,1317.59C883.566,1285.55 873.535,1256.4 857.188,1234.72C839.317,1211.02 813.906,1196.23 785.764,1196.29L785.764,1196.73ZM785.764,1198.22C813.323,1198.28 838.141,1212.88 855.565,1236.16C871.54,1257.5 881.303,1286.14 881.257,1317.59C881.23,1349.01 871.409,1377.59 855.406,1398.88C837.99,1422.05 813.237,1436.57 785.764,1436.58C758.271,1436.62 733.475,1422.13 716.013,1398.98C699.954,1377.68 690.086,1349.06 690.021,1317.59C689.945,1286.06 699.709,1257.34 715.705,1235.93C733.18,1212.54 758.094,1197.87 785.764,1197.78L785.764,1198.22Z"/>
                </g>
                <g transform="matrix(0.991358,0.173501,-0.169986,0.971275,1128.41,-1025.23)">
                    <ellipse cx="785.764" cy="1317.59" rx="96.671" ry="120.334" style="fill:rgb(207,137,88);"/>
                    <path d="M785.764,1196.73C757.193,1196.64 731.435,1211.92 713.554,1236.31C697.818,1257.77 688.189,1286.29 688.107,1317.59C688.035,1348.94 697.552,1377.55 713.215,1399.13C731.103,1423.77 756.998,1439.22 785.764,1439.27C814.553,1439.27 840.494,1423.85 858.434,1399.22C874.154,1377.64 883.718,1348.99 883.689,1317.59C883.638,1286.22 874.012,1257.62 858.259,1236.1C840.324,1211.59 814.459,1196.23 785.764,1196.29L785.764,1196.73ZM785.764,1198.22C813.818,1198.28 839.022,1213.43 856.471,1237.45C871.868,1258.66 881.231,1286.77 881.181,1317.59C881.153,1348.38 871.725,1376.44 856.295,1397.59C838.854,1421.5 813.724,1436.57 785.764,1436.58C757.783,1436.62 732.605,1421.58 715.113,1397.68C699.626,1376.53 690.151,1348.43 690.081,1317.59C689.999,1286.7 699.359,1258.51 714.773,1237.24C732.276,1213.09 757.587,1197.87 785.764,1197.78L785.764,1198.22Z"/>
                </g>
                <g transform="matrix(1,0,0,1,891.642,-922.284)">
                    <path d="M770.698,1375.25L747.271,1373.18C747.271,1373.18 728.126,1380.79 725.229,1392.86C725.229,1392.86 722.962,1407.7 726.237,1419.66C729.511,1431.63 743.492,1444.1 752.687,1447.37C761.881,1450.65 770.698,1375.25 770.698,1375.25Z" style="fill:rgb(220,177,132);"/>
                    <path d="M771.213,1375.36C771.23,1375.11 771.189,1374.85 771.1,1374.65C771.012,1374.45 770.883,1374.33 770.744,1374.31L770.781,1374.31L747.369,1372.07C747.195,1372.06 747.021,1372.08 746.859,1372.15C746.859,1372.15 737.734,1375.71 730.965,1381.89C727.686,1384.88 724.978,1388.49 723.98,1392.56C723.971,1392.59 723.964,1392.63 723.959,1392.66C723.959,1392.66 722.997,1398.77 723.157,1406.35C723.249,1410.71 723.719,1415.56 724.932,1420.02C726.569,1425.96 730.725,1432.04 735.702,1437.09C741.062,1442.54 747.354,1446.78 752.282,1448.51C753.584,1448.96 754.948,1448.53 756.215,1447.05C757.916,1445.06 759.608,1440.89 761.141,1435.46C766.99,1414.73 771.213,1375.31 771.213,1375.31L771.213,1375.36ZM770.057,1376.15C769.347,1381.54 765.689,1408.46 761.009,1427.55C759.189,1434.98 757.237,1441.2 755.21,1444.42C754.808,1445.06 754.41,1445.57 754.005,1445.91C753.693,1446.18 753.404,1446.35 753.091,1446.24C748.458,1444.56 742.606,1440.43 737.584,1435.25C732.973,1430.5 729.05,1424.86 727.542,1419.31C726.372,1415.06 725.926,1410.44 725.817,1406.29C725.637,1399.36 726.407,1393.7 726.492,1393.11C727.354,1389.51 729.772,1386.36 732.63,1383.69C738.405,1378.31 746.028,1374.92 747.449,1374.32C747.451,1374.32 770.057,1376.15 770.057,1376.15L770.057,1376.15Z"/>
                </g>
                <g transform="matrix(1,0,0,1,891.642,-922.284)">
                    <path d="M725.229,1392.86L764.21,1417.48C764.21,1417.48 757.599,1444.93 753.82,1447.48C750.042,1450.02 733.794,1435.41 728,1423.69C722.206,1411.98 723.718,1398.3 725.229,1392.86Z" style="fill:rgb(189,133,97);"/>
                    <path d="M725.736,1392.42C725.482,1392.33 725.168,1392.32 724.887,1392.38C724.607,1392.43 724.395,1392.56 724.314,1392.72L724.729,1392.72C723.803,1395.89 722.838,1401.83 723.284,1408.58C723.614,1413.58 724.722,1419.01 727.162,1424.11C730.012,1430.03 735.445,1436.71 740.694,1441.64C744.382,1445.09 748,1447.67 750.572,1448.62C752.279,1449.24 753.654,1449.14 754.545,1448.55C755.038,1448.23 755.597,1447.6 756.154,1446.69C757.144,1445.07 758.25,1442.46 759.322,1439.42C762.484,1430.45 765.486,1417.79 765.486,1417.79C765.618,1417.24 765.386,1416.67 764.911,1416.37L725.736,1392.06L725.736,1392.42ZM725.459,1394.13L762.709,1418.08C761.95,1421.1 759.381,1431.09 756.783,1438.53C755.949,1440.92 755.124,1443.04 754.338,1444.56C753.878,1445.45 753.495,1446.13 753.095,1446.4C752.954,1446.49 752.76,1446.49 752.536,1446.47C752.049,1446.42 751.479,1446.25 750.839,1445.97C747.871,1444.7 743.717,1441.45 739.685,1437.43C735.388,1433.15 731.234,1427.99 728.838,1423.28C726.37,1418.45 725.188,1413.25 724.745,1408.46C724.206,1402.64 724.756,1397.41 725.459,1394.13L725.459,1394.13Z"/>
                </g>
                <g transform="matrix(1,0,0,1,891.642,-922.284)">
                    <path d="M854.52,1234.68C854.52,1234.68 839.564,1240.83 841.925,1269.48C841.925,1269.48 845.231,1291.05 867.116,1295.62L936.704,1288.37C936.704,1288.37 907.263,1258.02 923.637,1215.79L854.52,1234.68Z" style="fill:rgb(220,176,127);"/>
                    <path d="M854.384,1233.77C854.363,1233.78 854.343,1233.79 854.323,1233.81L854.16,1233.81C854.16,1233.81 847.733,1236.35 843.705,1246.01C841.472,1251.36 839.971,1258.95 840.799,1269.57C840.801,1269.6 840.804,1269.62 840.808,1269.65C840.808,1269.65 842.237,1279.29 849.637,1287.28C853.522,1291.47 859.046,1295.2 866.856,1296.86C866.984,1296.89 867.117,1296.89 867.247,1296.88C867.247,1296.88 889.632,1294.62 909.009,1292.61C923.802,1291.08 936.842,1289.69 936.842,1289.69C937.348,1289.64 937.779,1289.3 937.953,1288.83C938.127,1288.35 938.012,1287.81 937.658,1287.45C937.658,1287.45 925.022,1274.47 921.013,1253.69C918.951,1243.01 919.162,1230.26 924.549,1216.15C924.683,1215.8 924.611,1215.41 924.363,1215.14C924.116,1214.86 923.735,1214.75 923.379,1214.85L854.384,1234.18L854.384,1233.77ZM854.881,1235.16C854.845,1235.17 854.808,1235.18 854.771,1235.19L854.657,1235.19L922.044,1217.23C916.985,1231.02 916.736,1243.55 918.68,1254.13C921.758,1270.89 930.329,1282.81 934.022,1287.31C929.52,1287.77 919.596,1288.79 908.729,1289.93C890.41,1291.84 869.414,1294.09 867.179,1294.33C860.056,1292.82 854.988,1289.44 851.403,1285.63C844.721,1278.53 843.155,1269.97 843.048,1269.34C842.172,1259.19 843.514,1251.93 845.602,1246.79C849.17,1238 854.881,1235.56 854.881,1235.56L854.881,1235.16Z"/>
                </g>
                <g transform="matrix(1,0,0,1,1302.09,-939.125)">
                    <path d="M431.478,1286.32L508.904,1267.76C508.904,1267.76 511.43,1292.51 527.033,1304.49L456.685,1312.46C456.685,1312.46 435.794,1308.67 431.478,1286.32Z" style="fill:rgb(187,128,94);"/>
                    <path d="M431.257,1285.82C430.763,1285.88 430.449,1286.15 430.546,1286.42L430.968,1286.42C432.389,1294.14 435.771,1299.7 439.613,1303.69C447.17,1311.53 456.535,1313.29 456.535,1313.29C456.616,1313.3 456.699,1313.3 456.78,1313.3C456.78,1313.3 479.422,1310.92 499.024,1308.82C513.988,1307.22 527.179,1305.78 527.179,1305.78C527.708,1305.72 528.147,1305.35 528.29,1304.84C528.432,1304.32 528.249,1303.78 527.827,1303.45C522.253,1299.15 518.434,1293.15 515.795,1287.32C511.241,1277.26 510.229,1267.63 510.229,1267.63C510.19,1267.25 509.988,1266.9 509.675,1266.68C509.362,1266.45 508.968,1266.38 508.594,1266.47C508.594,1266.47 494.09,1269.98 477.649,1274C456.114,1279.27 431.257,1285.4 431.257,1285.4L431.257,1285.82ZM432.183,1287.13C435.75,1286.3 458.399,1281.03 478.218,1276.37C491.615,1273.23 503.718,1270.36 507.775,1269.4C508.244,1272.58 509.68,1280.38 513.336,1288.44C515.763,1293.78 519.172,1299.23 523.879,1303.54C519.149,1304.1 509.404,1305.25 498.764,1306.53C480.033,1308.77 458.531,1311.38 456.714,1311.6C455.616,1311.38 447.408,1309.57 440.593,1302.73C436.981,1299.1 433.763,1294.07 432.183,1287.13L432.183,1287.13Z"/>
                </g>
                <g transform="matrix(1,0,0,1,891.642,-922.284)">
                    <path d="M923.637,1215.79C923.637,1215.79 939.853,1204.9 948.04,1222.06C956.227,1239.22 967.72,1299.99 936.704,1287.87C936.704,1287.87 925.683,1281.42 919.228,1251.82C919.228,1251.82 914.19,1231.88 923.637,1215.79Z" style="fill:rgb(220,176,127);"/>
                    <path d="M923.189,1215.53C919.716,1221.31 918.102,1227.59 917.464,1233.3C916.326,1243.48 918.298,1251.79 918.356,1252.03C920.524,1262.41 923.281,1270 925.955,1275.48C931.138,1286.09 936.08,1288.94 936.08,1288.94C936.136,1288.97 936.194,1289 936.255,1289.02C941.763,1291.21 946.048,1291.17 949.31,1289.64C953.073,1287.88 955.569,1284.07 956.96,1278.99C958.71,1272.59 958.751,1264.11 957.783,1255.48C956.285,1242.12 952.389,1228.4 949.084,1221.56C945.984,1215.17 941.829,1212.48 937.775,1211.65C930.323,1210.11 923.107,1215 923.107,1215L923.189,1215.53ZM924.166,1216.58C924.166,1216.58 930.68,1212.25 937.332,1213.72C940.852,1214.5 944.37,1216.96 946.996,1222.56C949.367,1227.6 951.979,1236.43 953.733,1246.05C955.223,1254.21 956.084,1262.94 955.583,1270.39C955.296,1274.64 954.572,1278.48 953.232,1281.52C952.178,1283.91 950.755,1285.8 948.82,1286.94C946.03,1288.59 942.257,1288.66 937.26,1286.76C936.654,1286.37 932.501,1283.43 927.949,1274.48C925.244,1269.16 922.415,1261.78 920.107,1251.63C920.104,1251.62 920.102,1251.61 920.1,1251.6C920.1,1251.6 917.968,1243.48 918.883,1233.44C919.39,1227.88 920.826,1221.74 924.084,1216.06L924.166,1216.58Z"/>
                </g>
                <g transform="matrix(1,0,0,1,891.642,-922.284)">
                    <path d="M871.594,1374.19C872.294,1372.67 913.781,1412.74 913.781,1412.74C913.781,1412.74 913.978,1449.73 872.256,1451.7L835.258,1415.3C835.258,1415.3 861.184,1396.88 871.594,1374.19Z" style="fill:rgb(222,181,135);"/>
                    <path d="M871.122,1373.98C867.241,1382.25 861.268,1389.92 855.279,1396.32C845.014,1407.28 834.69,1414.5 834.69,1414.5C834.453,1414.66 834.303,1414.93 834.28,1415.22C834.257,1415.51 834.363,1415.79 834.57,1416L871.343,1452.63C871.601,1452.89 871.955,1453.02 872.318,1453C886.444,1452.36 895.905,1447.78 902.232,1441.94C915.203,1429.98 915.045,1412.73 915.045,1412.73C915.043,1412.39 914.904,1412.07 914.659,1411.83C914.659,1411.83 887.775,1386.13 876.791,1376.78C874.819,1375.1 873.338,1373.94 872.592,1373.51C871.986,1373.16 871.525,1373.19 871.332,1373.26C871.049,1373.35 870.849,1373.53 870.731,1373.8L871.122,1373.98ZM871.704,1375.2C872.417,1375.64 873.744,1376.74 875.505,1378.27C885.569,1387.05 909.151,1409.99 912.504,1413.26C912.386,1416.08 911.255,1429.99 900.409,1439.96C894.518,1445.38 885.768,1449.63 872.757,1450.37C872.756,1450.37 836.767,1415.39 836.767,1415.39C839.541,1413.29 848.014,1406.6 856.395,1397.34C862.173,1390.96 867.905,1383.36 871.704,1375.2ZM871.762,1375.08C871.865,1374.85 871.966,1374.63 872.065,1374.41L872.456,1374.59C872.351,1374.81 872.184,1374.98 871.939,1375.06C871.905,1375.07 871.836,1375.07 871.762,1375.08Z"/>
                </g>
                <g transform="matrix(1,0,0,1,891.642,-922.284)">
                    <path d="M871.896,1374.19L880.077,1381.05C880.077,1381.05 871.088,1401.14 854.741,1417.07L895.553,1445.1C895.553,1445.1 882.096,1452.49 871.863,1451.7L835.258,1415.89C835.258,1415.89 850.891,1402.8 861.812,1389.23C865.976,1384.06 870.918,1378.81 871.896,1374.19Z" style="fill:rgb(187,128,95);"/>
                    <path d="M872.506,1373.8C872.25,1373.68 871.901,1373.64 871.586,1373.7C871.271,1373.76 871.036,1373.91 870.967,1374.09L871.388,1374.09C870.948,1376.08 869.733,1378.18 868.172,1380.34C866.176,1383.11 863.612,1385.97 861.287,1388.81C857.327,1393.65 852.756,1398.42 848.533,1402.55C841.041,1409.86 834.635,1415.14 834.635,1415.14C834.425,1415.32 834.299,1415.57 834.289,1415.85C834.278,1416.12 834.384,1416.39 834.58,1416.58L870.961,1452.62C871.178,1452.84 871.462,1452.96 871.764,1452.99C875.036,1453.25 878.629,1452.72 882.035,1451.85C889.584,1449.91 896.203,1446.28 896.203,1446.28C896.613,1446.06 896.878,1445.63 896.901,1445.17C896.924,1444.7 896.703,1444.25 896.317,1443.99L856.684,1416.89C861.873,1411.62 866.288,1405.99 869.869,1400.79C877.155,1390.21 881.003,1381.46 881.003,1381.46C881.188,1381.05 881.076,1380.56 880.728,1380.27L872.506,1373.46L872.506,1373.8ZM872.058,1375.58L878.827,1381.32C877.756,1383.54 874.049,1390.9 868.001,1399.49C864.196,1404.89 859.465,1410.78 853.872,1416.17C853.605,1416.43 853.468,1416.8 853.5,1417.17C853.532,1417.54 853.728,1417.88 854.036,1418.09L892.924,1444.92C890.501,1446.1 886.129,1448.04 881.37,1449.29C878.408,1450.07 875.294,1450.58 872.417,1450.44C872.416,1450.44 836.696,1415.93 836.696,1415.93C838.643,1414.23 843.841,1409.62 849.695,1403.72C853.89,1399.49 858.421,1394.6 862.337,1389.65C865.051,1386.22 868.099,1382.76 870.145,1379.47C870.971,1378.14 871.635,1376.84 872.058,1375.58L872.058,1375.58Z"/>
                </g>
                <g transform="matrix(1,0,0,1,891.642,-922.284)">
                    <path d="M784.012,1295.74C784.012,1295.74 785.651,1285.07 787.459,1270.86C787.863,1267.68 788.267,1264.33 788.654,1260.88C788.899,1258.69 789.137,1256.46 789.357,1254.22C789.898,1248.66 790.375,1242.99 790.773,1237.52C791.464,1228 791.88,1219.09 791.892,1212.4C791.899,1212.11 791.672,1211.87 791.386,1211.87C791.1,1211.86 790.862,1212.09 790.855,1212.37C790.634,1217.03 790.135,1222.76 789.51,1229.02C788.88,1235.32 788.081,1242.14 787.297,1248.95C786.779,1253.45 786.265,1257.93 785.783,1262.24C785.256,1266.95 784.775,1271.45 784.329,1275.54C783.058,1287.21 782.13,1295.49 782.13,1295.49C782.061,1296.01 782.426,1296.49 782.946,1296.56C783.465,1296.62 783.943,1296.26 784.012,1295.74Z"/>
                </g>
                <g transform="matrix(0.556728,0,0,0.556728,1307.2,-367.785)">
                    <path d="M923.637,1215.79C923.637,1215.79 939.853,1204.9 948.04,1222.06C956.227,1239.22 967.72,1299.99 936.704,1287.87C936.704,1287.87 925.683,1281.42 919.228,1251.82C919.228,1251.82 914.19,1231.88 923.637,1215.79Z" style="fill:rgb(171,118,96);"/>
                    <path d="M922.833,1215.32C919.272,1221.13 917.592,1227.48 916.899,1233.24C915.645,1243.68 917.663,1252.21 917.663,1252.21C919.769,1262.67 922.501,1270.34 925.161,1275.87C930.44,1286.86 935.583,1289.79 935.583,1289.79C935.683,1289.85 935.788,1289.9 935.896,1289.94C941.734,1292.29 946.287,1292.19 949.756,1290.58C953.778,1288.71 956.505,1284.69 957.995,1279.27C959.78,1272.76 959.838,1264.13 958.833,1255.36C957.289,1241.88 953.278,1228.06 949.915,1221.17C946.62,1214.46 942.22,1211.68 937.951,1210.82C930.179,1209.27 922.686,1214.38 922.686,1214.38L922.833,1215.32ZM924.588,1217.21C924.588,1217.21 930.82,1213.11 937.156,1214.55C940.464,1215.3 943.722,1217.67 946.165,1222.95C948.49,1227.95 951.016,1236.72 952.721,1246.23C954.17,1254.32 955.008,1262.95 954.508,1270.32C954.228,1274.43 953.544,1278.14 952.254,1281.08C951.302,1283.26 950.045,1285 948.293,1286.04C945.739,1287.57 942.286,1287.58 937.708,1285.88C936.959,1285.37 933.07,1282.46 928.743,1274.09C926.026,1268.83 923.166,1261.53 920.806,1251.47C920.802,1251.46 920.798,1251.44 920.794,1251.42C920.794,1251.42 918.625,1243.42 919.448,1233.5C919.904,1228 921.266,1221.91 924.441,1216.26L924.588,1217.21Z"/>
                </g>
                <g transform="matrix(0.420127,0,0,0.513847,1432.58,-314.83)">
                    <path d="M923.637,1215.79C923.637,1215.79 939.853,1204.9 948.04,1222.06C956.227,1239.22 967.72,1299.99 936.704,1287.87C936.704,1287.87 925.683,1281.42 919.228,1251.82C919.228,1251.82 914.19,1231.88 923.637,1215.79Z" style="fill:rgb(169,105,70);"/>
                    <path d="M922.523,1215.36C918.896,1221.21 917.173,1227.6 916.45,1233.4C915.16,1243.75 917.101,1252.18 917.101,1252.18C919.091,1262.35 921.689,1269.89 924.253,1275.38C929.592,1286.82 934.974,1289.85 934.974,1289.85C935.115,1289.93 935.266,1290 935.423,1290.06C941.087,1292.34 945.642,1292.4 949.202,1291.12C954.365,1289.27 957.792,1284.22 959.267,1277.23C960.94,1269.31 960.355,1258.8 958.641,1248.77C956.729,1237.59 953.403,1227.01 950.569,1221.25C947.347,1214.77 943.049,1211.91 938.907,1210.88C930.505,1208.78 922.202,1214.37 922.202,1214.37L922.523,1215.36ZM925.071,1217.22C925.071,1217.22 931.263,1213.09 937.377,1214.77C940.428,1215.62 943.279,1217.99 945.511,1222.87C948.082,1228.44 950.869,1238.67 952.513,1249.43C953.965,1258.93 954.509,1268.85 952.941,1276.34C952.342,1279.2 951.466,1281.69 950.133,1283.6C949.211,1284.91 948.107,1285.94 946.657,1286.49C944.49,1287.31 941.749,1287.06 938.274,1285.79C937.413,1285.18 933.557,1282.16 929.24,1273.75C926.554,1268.51 923.728,1261.32 921.367,1251.51C921.363,1251.49 921.36,1251.47 921.356,1251.46C921.356,1251.46 919.144,1243.51 919.869,1233.62C920.275,1228.08 921.585,1221.93 924.75,1216.23L925.071,1217.22Z"/>
                </g>
                <g transform="matrix(1,0,0,1,891.642,-922.284)">
                    <path d="M795.043,1302.73C795.043,1302.73 800.047,1302.99 807.204,1303.07C809.688,1303.1 812.431,1303.1 815.313,1303.06C817.503,1303.02 819.774,1302.97 822.071,1302.86C824.314,1302.75 826.58,1302.6 828.824,1302.41C832.724,1302.09 836.549,1301.67 840.049,1301.15C844.419,1300.51 848.272,1299.7 851.133,1298.74C851.407,1298.66 851.564,1298.37 851.482,1298.1C851.4,1297.82 851.111,1297.67 850.836,1297.75C846.79,1298.81 840.819,1299.38 834.267,1299.73C831.215,1299.89 828.042,1300 824.877,1300.09C822.77,1300.16 820.668,1300.21 818.611,1300.28C814.385,1300.41 810.35,1300.53 806.851,1300.62C799.91,1300.78 795.084,1300.83 795.084,1300.83C794.56,1300.82 794.126,1301.24 794.114,1301.76C794.103,1302.28 794.52,1302.72 795.043,1302.73Z"/>
                </g>
                <g transform="matrix(1,0,0,1,891.642,-922.284)">
                    <path d="M798.912,1322.77C798.912,1322.77 802.905,1326.95 808.749,1332.74C810.784,1334.76 813.044,1336.96 815.445,1339.25C817.275,1340.99 819.182,1342.78 821.139,1344.56C823.057,1346.3 825.023,1348.02 826.981,1349.7C830.419,1352.66 833.837,1355.49 837.004,1357.97C841.166,1361.24 844.896,1363.89 847.678,1365.46C847.923,1365.61 848.242,1365.54 848.391,1365.29C848.539,1365.05 848.461,1364.73 848.216,1364.58C844.525,1362.19 839.182,1357.59 833.356,1352.27C830.764,1349.9 828.086,1347.39 825.407,1344.88C823.634,1343.22 821.863,1341.56 820.119,1339.94C816.552,1336.62 813.129,1333.46 810.169,1330.7C804.321,1325.25 800.25,1321.42 800.25,1321.42C799.879,1321.05 799.277,1321.06 798.908,1321.43C798.538,1321.8 798.54,1322.4 798.912,1322.77Z"/>
                </g>
                <g transform="matrix(1,0,0,1,891.642,-922.284)">
                    <path d="M780.091,1316.65C780.091,1316.65 779.873,1322.39 779.787,1329.76C779.768,1331.44 779.764,1333.2 779.779,1335C779.789,1336.15 779.807,1337.32 779.842,1338.49C779.93,1341.46 780.071,1344.44 780.225,1347.23C780.559,1353.23 780.99,1358.29 781.332,1360.35C781.367,1360.63 781.626,1360.84 781.91,1360.8C782.195,1360.77 782.397,1360.51 782.362,1360.22C782.171,1357.87 782.305,1351.63 782.422,1344.57C782.457,1342.52 782.488,1340.4 782.495,1338.29C782.5,1336.88 782.491,1335.48 782.473,1334.1C782.44,1331.65 782.385,1329.28 782.327,1327.12C782.164,1321.07 781.99,1316.65 781.99,1316.65C781.99,1316.13 781.565,1315.7 781.041,1315.7C780.517,1315.7 780.091,1316.13 780.091,1316.65Z"/>
                </g>
                <g transform="matrix(1,0,0,1,891.642,-922.284)">
                    <path d="M764.523,1324.68C764.523,1324.68 760.791,1328.48 755.689,1333.66C753.865,1335.52 751.861,1337.54 749.81,1339.66C747.891,1341.64 745.925,1343.68 743.992,1345.7C740.897,1348.94 737.894,1352.1 735.236,1354.73C731.723,1358.2 728.898,1360.78 727.447,1361.41C727.18,1361.52 727.049,1361.82 727.154,1362.09C727.259,1362.35 727.56,1362.49 727.827,1362.38C729.385,1361.83 732.573,1359.43 736.468,1356.06C738.868,1353.98 741.545,1351.55 744.272,1348.95C745.783,1347.52 747.313,1346.05 748.806,1344.55C750.314,1343.04 751.787,1341.5 753.203,1340.01C755.048,1338.07 756.789,1336.18 758.359,1334.45C762.83,1329.55 765.92,1325.96 765.92,1325.96C766.274,1325.58 766.25,1324.98 765.864,1324.62C765.479,1324.27 764.877,1324.29 764.523,1324.68Z"/>
                </g>
                <g transform="matrix(1,0,0,1,891.642,-922.284)">
                    <path d="M771.988,1305.93C771.988,1305.93 770.333,1305.91 768.016,1305.96C767.201,1305.98 766.307,1306.01 765.377,1306.06C764.859,1306.09 764.33,1306.13 763.799,1306.18C763.009,1306.27 762.22,1306.38 761.442,1306.49C759.093,1306.82 756.942,1307.19 755.573,1307.27C755.287,1307.26 755.043,1307.48 755.03,1307.76C755.016,1308.05 755.237,1308.29 755.523,1308.31C756.717,1308.5 758.526,1308.69 760.564,1308.78C761.648,1308.83 762.779,1308.86 763.904,1308.84C764.352,1308.83 764.796,1308.81 765.234,1308.78C765.92,1308.73 766.587,1308.66 767.22,1308.58C770.036,1308.24 772.158,1307.83 772.158,1307.83C772.68,1307.78 773.065,1307.32 773.018,1306.8C772.971,1306.27 772.51,1305.89 771.988,1305.93Z"/>
                </g>
                <g transform="matrix(1,0,0,1,891.642,-922.284)">
                    <path d="M800.389,1280.98C800.389,1280.98 801.415,1279.65 802.801,1277.72C803.286,1277.05 803.813,1276.3 804.343,1275.51C804.637,1275.07 804.93,1274.62 805.214,1274.15C805.633,1273.46 806.034,1272.75 806.428,1272.05C807.573,1270.01 808.602,1268.07 809.45,1266.81C809.634,1266.59 809.605,1266.26 809.386,1266.08C809.166,1265.89 808.839,1265.92 808.655,1266.14C807.691,1267.07 806.438,1268.4 805.149,1269.94C804.433,1270.8 803.712,1271.7 803.036,1272.63C802.766,1273 802.511,1273.37 802.266,1273.75C801.883,1274.34 801.525,1274.92 801.198,1275.49C799.739,1278.01 798.773,1279.98 798.773,1279.98C798.498,1280.43 798.636,1281.01 799.082,1281.29C799.528,1281.56 800.113,1281.43 800.389,1280.98Z"/>
                </g>
                <g transform="matrix(1,0,0,1,892.649,-921.276)">
                    <path d="M771.841,1289.81C771.841,1289.81 766.612,1282.02 759.701,1272.07C758.132,1269.81 756.47,1267.45 754.755,1265.04C753.658,1263.5 752.539,1261.94 751.404,1260.39C748.539,1256.48 745.614,1252.57 742.847,1248.9C737.279,1241.52 732.329,1235.16 729.659,1231.9C729.484,1231.67 729.158,1231.63 728.931,1231.81C728.705,1231.98 728.663,1232.31 728.839,1232.53C731.713,1236.44 737.311,1244.65 743.535,1253.7C745.451,1256.48 747.426,1259.34 749.41,1262.17C750.738,1264.06 752.072,1265.94 753.387,1267.78C755.736,1271.05 758.02,1274.2 760.108,1277.06C765.981,1285.1 770.29,1290.9 770.29,1290.9C770.592,1291.33 771.185,1291.43 771.613,1291.13C772.041,1290.83 772.143,1290.24 771.841,1289.81Z"/>
                </g>
                <g transform="matrix(1,0,0,1,891.642,-922.284)">
                    <path d="M693.455,1388.36C693.455,1388.36 679.808,1367.77 674.729,1336.16C673.107,1326.07 672.36,1314.85 673.191,1302.81C673.68,1295.73 674.694,1288.37 676.43,1280.78C680.867,1260.96 688.953,1245.88 697.818,1234.52C716.239,1210.91 738.096,1203.41 738.096,1203.41C738.368,1203.32 738.515,1203.02 738.425,1202.75C738.335,1202.48 738.041,1202.33 737.769,1202.42C737.769,1202.42 715.37,1209.61 696.289,1233.31C687.075,1244.75 678.66,1260.04 673.877,1280.19C672.079,1287.91 670.986,1295.41 670.492,1302.63C669.652,1314.89 670.485,1326.31 672.22,1336.57C677.646,1368.67 691.881,1389.42 691.881,1389.42C692.174,1389.86 692.765,1389.97 693.199,1389.68C693.634,1389.39 693.748,1388.8 693.455,1388.36Z"/>
                </g>
                <g transform="matrix(1,0,0,1,885.874,-972.222)">
                    <path d="M644.967,1325.32C644.967,1325.32 650.932,1321.83 652.625,1328.6C654.318,1335.37 652.948,1342.94 648.192,1340.37C643.436,1337.79 640.856,1331.64 644.967,1325.32Z" style="fill:rgb(174,137,120);"/>
                    <path d="M644.532,1325.04C642.373,1328.05 641.781,1331.1 642.213,1333.8C642.737,1337.07 644.824,1339.8 647.606,1341.44C648.783,1342.12 649.835,1342.26 650.727,1342.09C651.81,1341.89 652.72,1341.18 653.39,1340.06C654.093,1338.89 654.531,1337.19 654.632,1335.23C654.742,1333.09 654.459,1330.64 653.833,1328.29C653.049,1325.48 651.646,1324.19 650.198,1323.66C649.168,1323.29 648.098,1323.29 647.153,1323.48C645.644,1323.78 644.487,1324.5 644.487,1324.5L644.532,1325.04ZM645.447,1326.14C645.447,1326.14 647.576,1324.95 649.382,1325.73C650.287,1326.12 651.012,1327.07 651.417,1328.9C651.758,1330.38 651.932,1331.89 651.975,1333.31C652.022,1334.9 651.891,1336.38 651.548,1337.56C651.396,1338.08 651.213,1338.54 650.971,1338.9C650.769,1339.2 650.55,1339.45 650.248,1339.55C649.839,1339.67 649.355,1339.58 648.777,1339.29C646.44,1338.13 644.633,1336.04 643.997,1333.44C643.428,1331.11 643.75,1328.41 645.402,1325.6L645.447,1326.14Z"/>
                </g>
                <g transform="matrix(1,0,0,1,885.874,-972.222)">
                    <path d="M651.013,1340.88C651.013,1340.88 645.612,1332.98 646.741,1324.42" style="fill:rgb(174,137,120);"/>
                    <path d="M651.797,1340.35C651.797,1340.35 651.123,1339.08 650.322,1337.08C650.054,1336.41 649.776,1335.65 649.491,1334.83C649.283,1334.24 649.079,1333.61 648.867,1332.95C648.668,1332.34 648.455,1331.71 648.267,1331.06C647.968,1330.03 647.694,1328.96 647.519,1327.83C647.35,1326.74 647.232,1325.64 647.255,1324.49C647.293,1324.2 647.092,1323.94 646.808,1323.9C646.524,1323.87 646.263,1324.07 646.226,1324.35C645.781,1326.18 645.631,1327.99 645.709,1329.75C645.765,1331.01 645.942,1332.22 646.206,1333.36C646.319,1333.84 646.458,1334.3 646.609,1334.75C646.852,1335.47 647.126,1336.15 647.417,1336.77C648.77,1339.66 650.229,1341.42 650.229,1341.42C650.525,1341.85 651.116,1341.96 651.548,1341.66C651.981,1341.37 652.092,1340.78 651.797,1340.35Z"/>
                </g>
                <g transform="matrix(1,0,0,1,891.642,-922.284)">
                    <path d="M672.321,1173.31C672.321,1173.31 672.386,1180.08 679.479,1177.7C686.573,1175.31 687.669,1169.7 686.508,1167.44C685.348,1165.19 678.77,1165.9 676.448,1168.15C674.127,1170.41 673.288,1170.41 672.321,1173.31Z" style="fill:rgb(156,109,96);"/>
                    <path d="M671.829,1173.01C671.811,1173.11 671.802,1173.22 671.802,1173.32L671.372,1173.32C671.372,1173.32 671.345,1174.76 671.956,1176.21C672.339,1177.12 672.984,1178.01 673.98,1178.63C675.226,1179.4 677.089,1179.74 679.88,1178.89C683.687,1177.65 685.964,1175.55 687.136,1173.42C688.538,1170.88 688.389,1168.3 687.622,1166.87C687.303,1166.3 686.797,1165.81 686.094,1165.49C685.176,1165.07 683.901,1164.87 682.523,1164.96C680.037,1165.13 677.229,1166.12 675.867,1167.56C674.497,1169.01 673.647,1169.6 672.998,1170.51C672.55,1171.13 672.181,1171.89 671.829,1173.15L671.829,1173.01ZM673.27,1173.31C673.271,1173.36 673.255,1173.42 673.222,1173.48L672.814,1173.48C673.218,1172.43 673.585,1171.81 674.017,1171.32C674.72,1170.51 675.591,1170.03 677.029,1168.75C678.03,1167.86 679.85,1167.35 681.592,1167.21C682.626,1167.12 683.635,1167.19 684.437,1167.42C684.876,1167.55 685.248,1167.71 685.395,1168.02C685.63,1168.5 685.662,1169.2 685.543,1169.98C685.393,1170.96 684.942,1172.04 684.125,1173.09C683.088,1174.41 681.479,1175.66 679.079,1176.51C677.232,1177.18 675.973,1177.17 675.104,1176.7C673.343,1175.74 673.27,1173.3 673.27,1173.3L673.27,1173.31Z"/>
                </g>
                <g transform="matrix(0.882625,0.470077,-0.470077,0.882625,1518.87,-1049.01)">
                    <path d="M614.301,1181.91C614.301,1181.91 619.195,1178.32 626.844,1173.9C629.462,1172.39 632.401,1170.79 635.574,1169.18C637.942,1167.99 640.442,1166.8 643.034,1165.64C645.499,1164.55 648.044,1163.47 650.655,1162.49C654.915,1160.9 659.334,1159.53 663.811,1158.6C668.35,1157.65 672.934,1157.13 677.453,1157.27C677.739,1157.29 677.985,1157.07 678.002,1156.79C678.019,1156.5 677.8,1156.26 677.514,1156.24C670.627,1155.64 663.494,1156.49 656.591,1158.22C651.991,1159.37 647.495,1160.9 643.254,1162.64C641.493,1163.37 639.78,1164.13 638.122,1164.92C635.482,1166.18 632.979,1167.5 630.654,1168.81C620.122,1174.74 613.139,1180.41 613.139,1180.41C612.725,1180.73 612.649,1181.33 612.969,1181.74C613.29,1182.15 613.886,1182.23 614.301,1181.91Z"/>
                </g>
                <g transform="matrix(1,0,0,1,891.642,-922.284)">
                    <path d="M734.178,1131.8C734.178,1131.8 732.32,1136.49 738.872,1135.2C745.424,1133.91 748.468,1129.58 748.313,1127.2C748.159,1124.83 741.761,1125.29 738.614,1127.62C735.467,1129.94 734.178,1131.8 734.178,1131.8Z" style="fill:rgb(156,109,96);"/>
                    <path d="M733.751,1131.25C733.729,1131.31 733.71,1131.38 733.695,1131.45L733.295,1131.45C733.295,1131.45 732.919,1132.33 732.932,1133.34C732.942,1134.06 733.17,1134.8 733.731,1135.42C734.481,1136.25 736.021,1136.89 739.107,1136.39C742.564,1135.77 745.155,1134.37 746.864,1132.76C748.91,1130.83 749.71,1128.61 749.593,1127.12C749.526,1126.44 749.247,1125.87 748.73,1125.43C748.112,1124.91 747.108,1124.54 745.864,1124.49C743.47,1124.4 740.128,1125.32 738.119,1126.94C737.177,1127.71 736.406,1128.43 735.792,1129.06C734.354,1130.53 733.751,1131.5 733.751,1131.5L733.751,1131.25ZM735.06,1131.99C735.034,1132.02 734.999,1132.06 734.957,1132.09L734.604,1132.09C734.604,1132.09 735.258,1131.27 736.715,1130.06C737.356,1129.53 738.148,1128.92 739.11,1128.29C740.365,1127.45 742.14,1126.97 743.769,1126.82C744.813,1126.72 745.792,1126.77 746.52,1127C746.658,1127.04 746.782,1127.1 746.893,1127.16C746.969,1127.2 747.065,1127.31 747.065,1127.31C747.065,1127.31 747.034,1127.3 747.034,1127.29C747.056,1127.79 746.814,1128.39 746.428,1129.05C745.936,1129.88 745.165,1130.75 744.117,1131.55C742.754,1132.59 740.945,1133.51 738.638,1134.01C737.149,1134.35 736.191,1134.38 735.577,1134.12C735.019,1133.88 734.922,1133.38 734.933,1132.98C734.946,1132.52 735.06,1132.14 735.06,1132.14L735.06,1131.99Z"/>
                </g>
                <g transform="matrix(0.331106,0.0579479,-0.0538024,0.307419,1469.25,39.803)">
                    <ellipse cx="785.764" cy="1317.59" rx="96.671" ry="120.334" style="fill:rgb(220,179,135);"/>
                    <path d="M785.764,1195.59C757.264,1195.32 731.454,1210.17 713.242,1234.09C696.641,1255.89 686.388,1285.25 686.139,1317.59C685.922,1350.1 695.866,1379.77 712.255,1401.95C730.493,1426.63 756.7,1442.02 785.764,1442.17C814.894,1442.19 841.232,1426.89 859.623,1402.25C876.193,1380.05 886.277,1350.26 886.189,1317.59C886.036,1285.01 875.78,1255.39 859.114,1233.37C840.74,1209.09 814.622,1194.02 785.764,1194.21L785.764,1195.59ZM785.764,1200.3C812.754,1200.48 836.972,1214.96 853.916,1237.88C869.414,1258.84 878.826,1286.86 878.68,1317.59C878.598,1348.23 868.993,1376.08 853.407,1396.86C836.492,1419.42 812.48,1433.66 785.764,1433.67C758.983,1433.82 734.831,1419.69 717.772,1397.16C702.009,1376.35 692.254,1348.39 692.049,1317.59C691.81,1286.62 701.221,1258.34 716.785,1237.16C733.891,1213.89 758.417,1199.18 785.764,1198.92L785.764,1200.3Z"/>
                </g>
                <g transform="matrix(0.175319,0.0306831,-0.0284881,0.162777,1559.73,251.806)">
                    <ellipse cx="785.764" cy="1317.59" rx="96.671" ry="120.334" style="fill:rgb(177,102,71);"/>
                    <path d="M785.764,1194.12C756.749,1193.59 730.382,1208.52 711.668,1232.72C694.595,1254.8 683.992,1284.64 683.513,1317.59C683.095,1350.86 693.144,1381.28 709.804,1404.08C728.552,1429.73 755.685,1445.65 785.764,1445.95C815.967,1445.98 843.341,1430.22 862.384,1404.65C879.391,1381.81 889.695,1351.16 889.526,1317.59C889.228,1284.18 878.618,1253.85 861.423,1231.36C842.403,1206.49 815.453,1191.13 785.764,1191.51L785.764,1194.12ZM785.764,1203C811.925,1203.33 835.286,1217.58 851.606,1239.88C866.594,1260.36 875.611,1287.68 875.344,1317.59C875.194,1347.33 865.792,1374.31 850.646,1394.46C834.388,1416.1 811.408,1429.87 785.764,1429.9C759.997,1430.16 736.745,1416.61 720.223,1395.04C704.745,1374.82 695.052,1347.64 694.674,1317.59C694.233,1287.22 703.245,1259.42 718.36,1238.53C734.986,1215.55 758.926,1200.88 785.764,1200.4L785.764,1203Z"/>
                </g>
            </g>
        </g>
    </g>
</svg>
