<?xml version="1.0" encoding="UTF-8" standalone="no"?>
<!DOCTYPE svg PUBLIC "-//W3C//DTD SVG 1.1//EN" "http://www.w3.org/Graphics/SVG/1.1/DTD/svg11.dtd">
<svg width="100%" height="100%" viewBox="0 0 367 388" version="1.1" xmlns="http://www.w3.org/2000/svg" xmlns:xlink="http://www.w3.org/1999/xlink" xml:space="preserve" xmlns:serif="http://www.serif.com/" style="fill-rule:evenodd;clip-rule:evenodd;stroke-linejoin:round;stroke-miterlimit:2;">
    <g transform="matrix(1,0,0,1,-169.995,-84.6261)">
        <g transform="matrix(0.97604,0,0,0.97604,1208.18,669.533)">
            <g id="robothead3" transform="matrix(1.02455,0,0,1.02455,-661.914,-1709.95)">
                <g transform="matrix(1,0,0,1,-511.504,0)">
                    <path d="M409.394,1113.43L395.624,1093.55L352.525,1086.44C352.525,1086.44 304.702,1095.88 248.024,1116.94C248.024,1116.94 210.238,1132.12 199.611,1149.42L194.494,1158.86L409.394,1113.43Z" style="fill:rgb(88,46,46);"/>
                    <path d="M409.502,1114.36C409.672,1114.29 409.812,1114.07 409.877,1113.78C409.941,1113.48 409.92,1113.15 409.821,1112.89L410.175,1112.89L396.467,1092.96C396.309,1092.74 396.065,1092.58 395.791,1092.54L352.712,1085.31C352.576,1085.28 352.438,1085.29 352.303,1085.31C352.303,1085.31 330.73,1089.5 299.378,1098.62C283.994,1103.09 266.258,1108.76 247.556,1115.68C247.545,1115.69 247.534,1115.69 247.523,1115.69C247.523,1115.69 230.47,1122.53 215.982,1132.29C208.7,1137.2 202.08,1142.86 198.485,1148.73C198.472,1148.75 198.46,1148.77 198.449,1148.79L193.348,1158.24C193.106,1158.68 193.146,1159.23 193.45,1159.64C193.754,1160.05 194.266,1160.24 194.764,1160.13C194.764,1160.13 235.023,1151.53 280.671,1141.71C340.463,1128.86 409.502,1113.94 409.502,1113.94L409.502,1114.36ZM408.06,1113.17C398.545,1115.14 335.443,1128.19 280.237,1139.66C241.591,1147.69 206.817,1154.95 196.986,1157.01C196.986,1157.01 200.754,1150.09 200.754,1150.09C204.197,1144.51 210.554,1139.19 217.486,1134.53C231.406,1125.17 247.709,1118.52 248.495,1118.2C267.124,1111.25 284.783,1105.57 300.094,1101.06C329.538,1092.39 350.309,1088.06 352.547,1087.6C352.548,1087.6 395.032,1094.49 395.032,1094.49L408.06,1113.17Z"/>
                </g>
                <g transform="matrix(1,0,0,1,-511.504,0)">
                    <path d="M352.131,1086.44L354.296,1124.41L409.394,1113.01L395.624,1093.55L352.131,1086.44Z" style="fill:rgb(199,147,125);"/>
                    <path d="M352.215,1085.5C352.06,1085.45 351.901,1085.54 351.784,1085.73C351.667,1085.92 351.604,1086.2 351.613,1086.49L351.184,1086.49L353.051,1124.48C353.071,1124.85 353.249,1125.18 353.536,1125.4C353.824,1125.62 354.194,1125.71 354.549,1125.63C354.549,1125.63 368.34,1122.86 382.119,1120.03C385.888,1119.26 389.654,1118.48 393.137,1117.74C402.39,1115.8 409.647,1114.23 409.647,1114.23C410.059,1114.14 410.399,1113.85 410.553,1113.46C410.708,1113.07 410.654,1112.63 410.411,1112.29L396.466,1092.95C396.306,1092.73 396.063,1092.57 395.791,1092.53L352.215,1085.92L352.215,1085.5ZM353.128,1087.14L395.023,1094.49C395.023,1094.49 407.286,1112.15 407.286,1112.15C404.55,1112.7 399.053,1113.8 392.592,1115.11C389.105,1115.82 385.337,1116.6 381.571,1117.39C370.426,1119.71 359.289,1122.08 355.448,1122.89L353.128,1087.14Z"/>
                </g>
                <g transform="matrix(1,0,0,1,-511.504,0)">
                    <path d="M140.539,1193.32C126.132,1285.31 193.488,1267.15 193.488,1267.15C197.109,1297.85 214.585,1315.01 214.585,1315.01C214.585,1315.01 224.662,1316.74 235.997,1315.64C247.333,1314.54 249.222,1320.84 249.222,1320.84L259.485,1338.76C327.672,1470.62 401.674,1469.47 413.064,1468.43C376.539,1473.05 335.411,1459.07 321.336,1452.03C307.068,1444.9 295.26,1427.67 283.944,1416.11C272.628,1404.55 238.679,1351.17 238.679,1351.17C238.679,1351.17 233.721,1347.16 204.939,1347.65C176.157,1348.14 166.563,1343.72 155.985,1336.34C145.407,1328.96 131.385,1313.21 125.235,1283.94C119.085,1254.66 116.625,1233.26 135.075,1200.54C136.423,1198.15 138.263,1195.73 140.539,1193.32Z" style="fill:rgb(114,86,82);"/>
                    <path d="M141.477,1193.4C141.541,1193.18 141.33,1192.96 140.957,1192.86C140.583,1192.76 140.134,1192.8 139.849,1192.97L140.161,1192.97C139.061,1194.12 138.062,1195.29 137.168,1196.45C136.182,1197.73 135.325,1199.01 134.605,1200.28C125.864,1215.7 121.765,1228.62 120.501,1241.04C119.074,1255.08 121.275,1268.47 124.522,1284.09C126.993,1295.97 130.759,1305.65 135.067,1313.45C141.483,1325.08 149.11,1332.57 155.493,1337.04C161.033,1340.92 166.311,1344 174.145,1346.01C181.424,1347.88 190.928,1348.83 204.956,1348.61C213.842,1348.48 220.445,1348.77 225.325,1349.24C234.499,1350.11 237.366,1351.56 237.924,1351.9C239.406,1354.23 255.27,1379.17 268.497,1397.97C274.376,1406.33 279.742,1413.47 283.111,1416.93C290.911,1424.92 298.943,1435.6 307.857,1443.82C311.959,1447.6 316.25,1450.87 320.781,1453.14C328.894,1457.21 345.936,1463.59 365.932,1467.43C380.882,1470.3 397.481,1471.74 413.233,1469.76C413.959,1469.67 414.477,1469.01 414.398,1468.28C414.319,1467.55 413.671,1467.03 412.942,1467.09C405.962,1467.73 375.215,1468.32 336.755,1437.66C313.033,1418.75 286.412,1388.01 260.604,1338.18C260.596,1338.17 260.587,1338.15 260.578,1338.14L250.357,1320.33C250.127,1319.69 249.021,1317.18 245.467,1315.58C243.341,1314.63 240.275,1313.99 235.879,1314.43C232.103,1314.8 228.468,1314.85 225.31,1314.76C220.199,1314.61 216.341,1314.08 215.162,1313.9C213.757,1312.43 206.948,1304.96 201.418,1292.26C198.409,1285.35 195.78,1276.89 194.602,1267.02C194.564,1266.69 194.387,1266.4 194.117,1266.22C193.847,1266.04 193.511,1265.98 193.196,1266.07C193.196,1266.07 159.981,1275.12 145.829,1248.04C140.003,1236.89 137.409,1219.71 141.477,1193.47L141.477,1193.4ZM139.238,1195.56C134.274,1229.6 140.792,1248.27 150.701,1258.36C165.183,1273.09 187.093,1269.66 192.527,1268.52C193.776,1278.12 196.355,1286.38 199.295,1293.18C205.668,1307.93 213.75,1315.86 213.75,1315.86C213.923,1316.03 214.144,1316.15 214.383,1316.19C214.383,1316.19 218.866,1316.96 225.236,1317.17C228.485,1317.27 232.227,1317.23 236.115,1316.86C239.129,1316.57 241.431,1316.82 243.181,1317.36C247.15,1318.56 248.036,1321.19 248.036,1321.19C248.063,1321.28 248.101,1321.37 248.148,1321.45L258.379,1339.36C284.34,1389.64 311.164,1420.67 335.077,1439.76C356.852,1457.14 376.241,1464.68 390.435,1467.83C382.226,1467.41 374.102,1466.33 366.419,1464.88C346.708,1461.14 329.895,1454.91 321.891,1450.92C317.549,1448.76 313.443,1445.63 309.507,1442.03C300.602,1433.87 292.571,1423.24 284.776,1415.3C280.595,1411.04 273.313,1401.06 265.799,1390.2C252.998,1371.69 239.546,1350.62 239.546,1350.62C239.486,1350.52 239.411,1350.44 239.325,1350.37C239.325,1350.37 236.884,1348.29 225.512,1347.25C220.578,1346.79 213.904,1346.52 204.923,1346.69C191.118,1346.95 181.761,1346.08 174.59,1344.26C166.988,1342.34 161.863,1339.37 156.476,1335.63C150.227,1331.29 142.765,1324 136.455,1312.68C132.177,1305.01 128.432,1295.49 125.947,1283.79C122.666,1268.33 120.416,1255.08 121.77,1241.17C122.965,1228.88 126.972,1216.09 135.545,1200.81C136.236,1199.58 137.06,1198.34 138.009,1197.09C138.398,1196.58 138.808,1196.07 139.239,1195.56L139.238,1195.56Z"/>
                </g>
                <g transform="matrix(1,0,0,1,-511.504,0)">
                    <path d="M140.539,1193.32C169.053,1162.44 263.763,1129.59 263.763,1129.59L266.046,1120.84C280.652,1108.54 321.012,1100.08 349.84,1107.77C378.668,1115.46 417.875,1113.15 417.875,1113.15C445.934,1143.9 464.263,1208.98 464.263,1208.98C464.263,1208.98 468.937,1229.15 473.119,1238.99C477.301,1248.83 475.579,1261.87 473.857,1273.19C472.135,1284.5 481.483,1300.49 481.483,1300.49C481.483,1300.49 495.013,1345.02 461.065,1406.52C427.116,1468.02 414.57,1468.27 414.57,1468.27L413.064,1468.43C401.674,1469.47 327.672,1470.62 259.485,1338.76L249.222,1320.84C249.222,1320.84 247.333,1314.54 235.997,1315.64C224.662,1316.74 214.585,1315.01 214.585,1315.01C214.585,1315.01 197.109,1297.85 193.488,1267.15C193.488,1267.15 126.132,1285.31 140.539,1193.32Z" style="fill:rgb(173,168,164);"/>
                    <path d="M140.026,1193.24C134.424,1228.59 140.919,1247.8 150.997,1258.06C165.77,1273.1 188.357,1269.04 192.873,1268.03C194.09,1277.78 196.689,1286.15 199.658,1293.02C205.991,1307.69 214.021,1315.59 214.021,1315.59C214.138,1315.7 214.287,1315.78 214.449,1315.81C214.449,1315.81 218.909,1316.58 225.247,1316.79C228.483,1316.89 232.208,1316.85 236.079,1316.48C239.155,1316.18 241.504,1316.45 243.29,1317C247.483,1318.27 248.391,1321.09 248.391,1321.09C248.411,1321.15 248.437,1321.21 248.47,1321.27L258.692,1339.19C284.588,1389.45 311.366,1420.47 335.235,1439.56C374.518,1470.99 406.033,1470.27 413.174,1469.62L414.673,1469.46C415.206,1469.43 420.674,1468.7 432.699,1453.47C439.885,1444.37 449.567,1429.96 462.194,1407.14C472.768,1388.02 478.777,1370.52 482.032,1355.47C489.35,1321.63 482.773,1300.1 482.773,1300.1C482.742,1300 482.7,1299.9 482.647,1299.81C482.647,1299.81 478.339,1292.44 476.181,1284.24C475.221,1280.59 474.679,1276.77 475.193,1273.39C476.213,1266.69 477.227,1259.38 477.046,1252.48C476.915,1247.48 476.155,1242.69 474.358,1238.47C473.012,1235.3 471.617,1231.05 470.344,1226.77C467.686,1217.81 465.566,1208.68 465.566,1208.68C465.562,1208.66 465.556,1208.64 465.551,1208.62C465.551,1208.62 456.852,1177.78 442.262,1148.47C435.588,1135.06 427.679,1121.98 418.82,1112.29C418.56,1112 418.185,1111.85 417.799,1111.87C417.799,1111.87 402.346,1112.79 383.736,1111.58C372.799,1110.86 360.769,1109.41 350.155,1106.59C336.808,1103.04 321.023,1102.91 306.413,1105.02C289.045,1107.52 273.347,1113.2 265.318,1119.97C265.139,1120.12 265.011,1120.33 264.952,1120.55L262.828,1128.73C257.779,1130.52 219.917,1144.08 186.218,1161.38C167.277,1171.11 149.656,1182.02 139.841,1192.68L140.026,1193.24ZM141.236,1193.97C150.958,1183.46 168.414,1172.76 187.148,1163.2C223.254,1144.77 264.13,1130.65 264.13,1130.65C264.483,1130.53 264.752,1130.24 264.847,1129.87L267.046,1121.48C274.938,1115.01 290.068,1109.71 306.746,1107.34C321.04,1105.32 336.479,1105.46 349.525,1108.95C360.284,1111.83 372.48,1113.33 383.57,1114.07C400.163,1115.19 414.272,1114.61 417.334,1114.46C425.869,1123.96 433.475,1136.65 439.921,1149.63C454.081,1178.15 462.631,1208.13 462.965,1209.31C463.106,1209.91 465.184,1218.81 467.768,1227.53C469.07,1231.92 470.502,1236.28 471.879,1239.52C473.548,1243.45 474.226,1247.91 474.346,1252.55C474.521,1259.3 473.518,1266.43 472.52,1272.98C471.954,1276.7 472.511,1280.91 473.568,1284.92C475.64,1292.79 479.605,1299.92 480.234,1301.03C480.765,1302.91 486.202,1323.45 479.434,1354.91C476.24,1369.76 470.337,1387.02 459.935,1405.9C449.998,1423.94 441.904,1436.7 435.426,1445.73C427.972,1456.11 422.692,1461.5 419.22,1464.29C415.938,1466.92 414.547,1467.06 414.547,1467.06C414.512,1467.06 414.477,1467.07 414.442,1467.07L412.945,1467.23C405.934,1467.88 375.137,1468.52 336.596,1437.86C312.83,1418.95 286.161,1388.2 260.287,1338.35C260.281,1338.34 260.275,1338.33 260.268,1338.31L250.017,1320.48C249.83,1319.95 248.792,1317.48 245.314,1315.93C243.229,1314.99 240.224,1314.38 235.916,1314.8C232.122,1315.18 228.47,1315.23 225.298,1315.14C219.965,1314.99 215.988,1314.41 214.974,1314.26C213.774,1313.02 206.742,1305.47 201.055,1292.42C198.03,1285.48 195.387,1276.99 194.2,1267.07C194.175,1266.86 194.062,1266.67 193.89,1266.56C193.717,1266.44 193.503,1266.4 193.302,1266.46C193.302,1266.46 159.76,1275.58 145.457,1248.23C139.601,1237.03 136.97,1219.78 141.051,1193.4L141.236,1193.97Z"/>
                </g>
                <g transform="matrix(1,0,0,1,-513.844,0)">
                    <path d="M352.556,1241.02C352.556,1241.02 343.361,1245.05 345.754,1252.98C348.147,1260.92 357.342,1266.71 361.372,1261.05C365.403,1255.38 364.143,1245.81 359.483,1242.15C354.823,1238.5 352.556,1241.02 352.556,1241.02Z" style="fill:rgb(85,39,42);"/>
                    <path d="M352.175,1240.15C352.175,1240.15 347.104,1242.28 345.04,1246.62C344.158,1248.48 343.818,1250.71 344.561,1253.34C345.932,1258.03 349.491,1262.06 353.173,1263.74C356.649,1265.34 360.196,1264.95 362.406,1261.78C364.437,1258.79 365.182,1254.86 364.762,1251.14C364.315,1247.19 362.588,1243.51 359.947,1241.56C358.105,1240.2 356.619,1239.69 355.47,1239.59C353.224,1239.4 352.17,1240.67 352.17,1240.67L352.175,1240.15ZM352.942,1241.37C352.942,1241.37 353.754,1240.58 355.325,1240.82C356.297,1240.96 357.521,1241.5 359.019,1242.74C361.219,1244.57 362.473,1247.87 362.689,1251.33C362.887,1254.5 362.181,1257.84 360.338,1260.31C358.867,1262.34 356.552,1262.33 354.301,1261.29C351.205,1259.86 348.166,1256.55 346.948,1252.62C346.138,1250.1 346.701,1248.02 347.737,1246.39C349.62,1243.44 352.937,1241.89 352.937,1241.89L352.942,1241.37Z"/>
                </g>
                <g transform="matrix(0.765634,0,0,0.793799,-432.904,259.207)">
                    <path d="M352.556,1241.02C352.556,1241.02 343.361,1245.05 345.754,1252.98C348.147,1260.92 357.342,1266.71 361.372,1261.05C365.403,1255.38 364.143,1245.81 359.483,1242.15C354.823,1238.5 352.556,1241.02 352.556,1241.02Z" style="fill:rgb(164,88,72);"/>
                    <path d="M352.043,1239.93C352.043,1239.93 347.948,1241.62 345.546,1245.08C344.068,1247.22 343.244,1250 344.19,1253.42C345.568,1258.18 349.165,1262.27 352.899,1264.02C356.602,1265.75 360.396,1265.34 362.741,1261.95C364.781,1258.9 365.534,1254.91 365.082,1251.15C364.598,1247.12 362.807,1243.39 360.1,1241.42C358.203,1240.05 356.678,1239.53 355.501,1239.44C353.137,1239.25 352.044,1240.59 352.044,1240.59L352.043,1239.93ZM353.068,1241.45C353.068,1241.45 354.052,1240.54 355.931,1241.13C356.762,1241.38 357.732,1241.92 358.867,1242.88C361.016,1244.7 362.193,1247.96 362.374,1251.37C362.538,1254.48 361.824,1257.73 360.004,1260.14C358.29,1262.5 355.404,1261.82 352.86,1260.03C350.473,1258.36 348.3,1255.66 347.319,1252.55C346.532,1250.14 347.032,1248.15 348.002,1246.58C349.813,1243.66 353.069,1242.11 353.069,1242.11L353.068,1241.45Z"/>
                </g>
                <g transform="matrix(1,0,0,1,-406.605,5.60702)">
                    <path d="M352.556,1241.02C352.556,1241.02 343.361,1245.05 345.754,1252.98C348.147,1260.92 357.342,1266.71 361.372,1261.05C365.403,1255.38 364.143,1245.81 359.483,1242.15C354.823,1238.5 352.556,1241.02 352.556,1241.02Z" style="fill:rgb(85,39,42);"/>
                    <path d="M352.175,1240.15C352.175,1240.15 347.104,1242.28 345.04,1246.62C344.158,1248.48 343.818,1250.71 344.561,1253.34C345.932,1258.03 349.491,1262.06 353.173,1263.74C356.649,1265.34 360.196,1264.95 362.406,1261.78C364.437,1258.79 365.182,1254.86 364.762,1251.14C364.315,1247.19 362.588,1243.51 359.947,1241.56C358.105,1240.2 356.619,1239.69 355.47,1239.59C353.224,1239.4 352.17,1240.67 352.17,1240.67L352.175,1240.15ZM352.942,1241.37C352.942,1241.37 353.754,1240.58 355.325,1240.82C356.297,1240.96 357.521,1241.5 359.019,1242.74C361.219,1244.57 362.473,1247.87 362.689,1251.33C362.887,1254.5 362.181,1257.84 360.338,1260.31C358.867,1262.34 356.552,1262.33 354.301,1261.29C351.205,1259.86 348.166,1256.55 346.948,1252.62C346.138,1250.1 346.701,1248.02 347.737,1246.39C349.62,1243.44 352.937,1241.89 352.937,1241.89L352.942,1241.37Z"/>
                </g>
                <g transform="matrix(0.765634,0,0,0.793799,-325.665,264.814)">
                    <path d="M352.556,1241.02C352.556,1241.02 343.361,1245.05 345.754,1252.98C348.147,1260.92 357.342,1266.71 361.372,1261.05C365.403,1255.38 364.143,1245.81 359.483,1242.15C354.823,1238.5 352.556,1241.02 352.556,1241.02Z" style="fill:rgb(164,88,72);"/>
                    <path d="M352.043,1239.93C352.043,1239.93 347.948,1241.62 345.546,1245.08C344.068,1247.22 343.244,1250 344.19,1253.42C345.568,1258.18 349.165,1262.27 352.899,1264.02C356.602,1265.75 360.396,1265.34 362.741,1261.95C364.781,1258.9 365.534,1254.91 365.082,1251.15C364.598,1247.12 362.807,1243.39 360.1,1241.42C358.203,1240.05 356.678,1239.53 355.501,1239.44C353.137,1239.25 352.044,1240.59 352.044,1240.59L352.043,1239.93ZM353.068,1241.45C353.068,1241.45 354.052,1240.54 355.931,1241.13C356.762,1241.38 357.732,1241.92 358.867,1242.88C361.016,1244.7 362.193,1247.96 362.374,1251.37C362.538,1254.48 361.824,1257.73 360.004,1260.14C358.29,1262.5 355.404,1261.82 352.86,1260.03C350.473,1258.36 348.3,1255.66 347.319,1252.55C346.532,1250.14 347.032,1248.15 348.002,1246.58C349.813,1243.66 353.069,1242.11 353.069,1242.11L353.068,1241.45Z"/>
                </g>
                <g transform="matrix(0.541543,0,0,0.52006,-371.534,511.915)">
                    <path d="M352.556,1241.02C352.556,1241.02 343.361,1245.05 345.754,1252.98C348.147,1260.92 357.342,1266.71 361.372,1261.05C365.403,1255.38 364.143,1245.81 359.483,1242.15C354.823,1238.5 352.556,1241.02 352.556,1241.02Z" style="fill:rgb(85,39,42);"/>
                    <path d="M351.876,1239.34C351.876,1239.34 346.515,1241.53 344.212,1246.08C343.16,1248.15 342.757,1250.69 343.559,1253.7C345.005,1258.77 348.844,1263.15 352.82,1264.93C356.765,1266.7 360.775,1266.12 363.253,1262.5C365.379,1259.23 366.176,1255 365.638,1251.02C365.071,1246.84 363.172,1242.99 360.322,1240.99C358.327,1239.6 356.744,1239.09 355.52,1239.02C352.999,1238.88 351.856,1240.34 351.856,1240.34L351.876,1239.34ZM353.255,1241.7C353.255,1241.7 354.156,1240.99 355.845,1241.54C356.642,1241.81 357.561,1242.36 358.644,1243.31C360.648,1245.06 361.669,1248.18 361.809,1251.39C361.936,1254.32 361.226,1257.36 359.492,1259.6C358.819,1260.49 357.898,1260.78 356.928,1260.74C355.758,1260.68 354.527,1260.14 353.339,1259.34C351.033,1257.79 348.904,1255.24 347.95,1252.27C347.226,1250.12 347.66,1248.34 348.533,1246.94C350.243,1244.2 353.236,1242.7 353.236,1242.7L353.255,1241.7Z"/>
                </g>
                <g transform="matrix(0.251463,-0.0651104,0.130358,0.503458,-322.043,556.65)">
                    <path d="M352.556,1241.02C352.556,1241.02 343.361,1245.05 345.754,1252.98C348.147,1260.92 357.342,1266.71 361.372,1261.05C365.403,1255.38 364.143,1245.81 359.483,1242.15C354.823,1238.5 352.556,1241.02 352.556,1241.02Z" style="fill:rgb(85,39,42);"/>
                    <path d="M350.145,1239.65C350.145,1239.65 344.887,1241.72 342.164,1246.03C340.927,1247.99 340.332,1250.43 340.967,1253.34C341.786,1256.54 343.624,1259.44 345.88,1261.53C347.573,1263.11 349.581,1264.26 351.475,1264.93C354.317,1265.95 357.218,1266.14 359.791,1265.64C362.051,1265.21 364.588,1264.15 366.057,1261.88C367.82,1258.92 368.417,1255.08 367.717,1251.42C366.925,1247.29 364.713,1243.45 361.741,1241.43C359.45,1239.89 357.614,1239.3 356.235,1239.14C352.449,1238.71 350.733,1240.61 350.733,1240.61L350.145,1239.65ZM357.078,1260.73C357.346,1260.72 357.783,1260.68 357.665,1260.78C357.517,1260.9 357.311,1260.86 357.078,1260.73ZM356.557,1260.36C356.236,1260.1 355.904,1259.79 355.609,1259.56C353.468,1257.91 351.512,1255.43 350.542,1252.62C349.708,1250.47 349.84,1248.64 350.492,1247.14C351.829,1244.06 354.966,1242.39 354.966,1242.39L352.055,1241.99C352.055,1241.99 353.403,1241.61 354.873,1241.24C355.007,1241.21 355.006,1241.36 355.228,1241.45C355.851,1241.7 356.455,1242.16 357.225,1242.87C359.255,1244.72 359.937,1248.07 359.777,1251.57C359.636,1254.64 358.666,1257.83 356.688,1260.21C356.651,1260.26 356.606,1260.31 356.557,1260.36Z"/>
                </g>
                <g transform="matrix(1,0,0,1,-520.209,28.3255)">
                    <path d="M418.057,1441.31C418.057,1441.31 433.615,1412.99 438.443,1356.09C439.556,1342.97 440.095,1328.33 439.727,1312.17C439.418,1298.64 438.461,1284.05 436.701,1268.38C436.656,1267.69 435.95,1257 433.877,1243.02C432.728,1235.28 431.155,1226.53 429.058,1217.92C425.625,1203.89 414.345,1167.68 403.014,1135.95C394.459,1111.99 385.864,1090.58 380.65,1083.15C380.487,1082.91 380.163,1082.85 379.928,1083.02C379.692,1083.18 379.634,1083.5 379.797,1083.74C384.904,1091.19 393.187,1112.58 401.463,1136.49C412.456,1168.26 423.412,1204.46 426.711,1218.49C428.733,1227.03 430.224,1235.71 431.32,1243.39C433.368,1257.73 434.02,1268.58 434.02,1268.58C434.021,1268.61 434.023,1268.63 434.025,1268.65C435.785,1284.24 436.72,1298.77 437.056,1312.24C437.457,1328.3 436.987,1342.84 435.951,1355.88C431.474,1412.24 416.388,1440.41 416.388,1440.41C416.138,1440.87 416.31,1441.44 416.77,1441.69C417.231,1441.94 417.807,1441.77 418.057,1441.31Z"/>
                </g>
                <g transform="matrix(1,0,0,1,-511.504,0)">
                    <path d="M191.603,1334.04C191.603,1334.04 187.196,1327.19 183.382,1315.51C182.595,1313.11 181.827,1310.5 181.115,1307.7C180.684,1306 180.273,1304.24 179.884,1302.41C179.001,1298.27 178.267,1293.79 177.826,1289C177.245,1282.68 177.128,1275.85 177.839,1268.57C177.874,1268.28 177.673,1268.02 177.388,1267.99C177.104,1267.95 176.844,1268.15 176.809,1268.44C175.689,1275.78 175.378,1282.72 175.678,1289.14C175.907,1294.06 176.478,1298.67 177.284,1302.94C177.64,1304.82 178.05,1306.63 178.494,1308.37C179.228,1311.23 180.052,1313.9 180.916,1316.35C185.118,1328.27 190.034,1335.11 190.034,1335.11C190.329,1335.54 190.92,1335.65 191.353,1335.36C191.786,1335.06 191.898,1334.47 191.603,1334.04Z"/>
                </g>
                <g transform="matrix(1,0,0,1,-511.504,0)">
                    <path d="M435.361,1447.92C435.361,1447.92 427.074,1438.75 402.473,1441.31L386.926,1465.12C386.926,1465.12 397.553,1472.19 415.856,1469.35C415.856,1469.35 429.873,1460.05 435.361,1447.92Z" style="fill:rgb(168,110,90);"/>
                    <path d="M435.834,1448.32C435.919,1447.97 435.885,1447.57 435.746,1447.29L436.066,1447.29C436.066,1447.29 432.578,1443.26 423.281,1441.04C418.2,1439.83 411.348,1439.17 402.34,1440.03C401.953,1440.07 401.605,1440.28 401.393,1440.6C401.393,1440.6 396.343,1448.23 392.013,1454.86C388.708,1459.92 385.826,1464.4 385.826,1464.4C385.432,1465.01 385.598,1465.82 386.199,1466.22C386.199,1466.22 391.428,1469.68 400.867,1470.79C405.092,1471.28 410.172,1471.3 416.006,1470.31C416.145,1470.29 416.278,1470.24 416.395,1470.16C416.395,1470.16 422.02,1466.32 427.509,1460.36C430.708,1456.89 433.859,1452.7 435.834,1448.14L435.834,1448.32ZM434.532,1448.44C432.468,1452.52 429.447,1456.22 426.414,1459.32C421.488,1464.34 416.52,1467.73 415.504,1468.41C409.965,1469.17 405.161,1469.02 401.165,1468.46C394.925,1467.59 390.691,1465.69 388.791,1464.68C389.878,1463.04 391.992,1459.84 394.277,1456.34C397.942,1450.72 402.052,1444.35 403.226,1442.53C411.582,1441.64 417.991,1442.16 422.789,1443.2C430.39,1444.85 433.857,1447.81 434.532,1448.44L434.532,1448.44Z"/>
                </g>
                <g transform="matrix(1,0,0,1,-511.504,0)">
                    <path d="M370.638,1443.12L376.684,1446.78L386.926,1430.4C386.926,1430.4 380.966,1426.75 376.306,1431.54C371.646,1436.32 370.638,1443.12 370.638,1443.12Z" style="fill:rgb(123,95,94);"/>
                    <path d="M370.125,1442.99C370.094,1443.36 370.191,1443.74 370.37,1443.94L370.147,1443.94L376.095,1447.75C376.627,1448.07 377.319,1447.91 377.649,1447.38C377.649,1447.38 381.08,1442.2 383.964,1437.66C386.166,1434.2 388.039,1431.1 388.039,1431.1C388.225,1430.8 388.284,1430.44 388.204,1430.1C388.124,1429.76 387.911,1429.47 387.612,1429.28C387.612,1429.28 384.735,1427.57 381.3,1427.91C379.432,1428.1 377.392,1428.86 375.586,1430.84C373.945,1432.65 372.766,1434.68 371.948,1436.59C370.449,1440.08 370.125,1443.05 370.125,1443.05L370.125,1442.99ZM371.334,1442.43C371.607,1441.39 372.214,1439.41 373.341,1437.25C374.216,1435.57 375.411,1433.78 377.026,1432.24C378.484,1430.83 380.054,1430.34 381.476,1430.27C382.889,1430.21 384.16,1430.57 385.033,1430.92C384.263,1432.13 383.014,1434.1 381.694,1436.24C379.591,1439.66 377.302,1443.5 376.274,1445.24L371.334,1442.43Z"/>
                </g>
                <g transform="matrix(1,0,0,1,-511.504,0)">
                    <path d="M266.046,1120.84C266.046,1120.84 293.122,1132.01 295.515,1149.42L296.145,1168.47C296.145,1168.47 272.718,1175.65 265.034,1201.98L239.718,1203.99C239.718,1203.99 235.184,1180.82 230.271,1174.27C225.359,1167.72 218.306,1152.85 197.02,1157.39L264.027,1129.43L266.046,1120.84Z" style="fill:rgb(116,89,85);"/>
                    <path d="M266.408,1120.36C266.15,1120.3 265.86,1120.31 265.612,1120.38C265.364,1120.44 265.185,1120.57 265.121,1120.72L265.54,1120.72L263.531,1129C263.531,1129 196.616,1156.42 196.616,1156.42C196.115,1156.63 195.856,1157.18 196.018,1157.7C196.179,1158.22 196.708,1158.53 197.239,1158.41C205.516,1156.7 211.544,1157.99 216.095,1160.58C222.905,1164.46 226.433,1171.2 229.27,1175.02C230.945,1177.27 232.535,1181.56 233.933,1186.13C236.544,1194.68 238.398,1204.25 238.398,1204.25C238.529,1204.92 239.143,1205.38 239.825,1205.33L265.141,1203.31C265.697,1203.27 266.167,1202.89 266.323,1202.35C268.816,1193.75 273.036,1187.25 277.541,1182.39C286.462,1172.78 296.505,1169.65 296.505,1169.65C297.036,1169.48 297.392,1168.99 297.373,1168.43L296.664,1149.38C296.663,1149.35 296.66,1149.31 296.654,1149.27C295.832,1143.46 292.416,1138.32 288.098,1134.03C279.154,1125.15 266.408,1119.96 266.408,1119.96L266.408,1120.36ZM266.315,1121.99C268.933,1123.17 279.142,1128.04 286.572,1135.55C290.485,1139.51 293.638,1144.2 294.366,1149.51C294.367,1149.52 294.89,1167.6 294.89,1167.6C292.133,1168.61 283.48,1172.26 275.639,1180.62C271.027,1185.54 266.699,1192.1 264.015,1200.71C264.015,1200.71 240.797,1202.56 240.797,1202.56C240.201,1199.71 238.555,1192.21 236.417,1185.37C234.889,1180.47 233.087,1175.91 231.273,1173.51C228.259,1169.53 224.42,1162.57 217.233,1158.56C213.774,1156.63 209.544,1155.37 204.263,1155.45C204.262,1155.45 264.251,1129.96 264.251,1129.96C264.423,1129.89 264.55,1129.74 264.593,1129.56L266.315,1121.99Z"/>
                </g>
                <g transform="matrix(1,0,0,1,-511.504,0)">
                    <path d="M194.494,1266.65C194.494,1266.65 216.082,1254.37 221.435,1215.8C226.788,1177.22 220.018,1162.74 207.895,1157.23L181.445,1149.51L153.106,1092.52L150.349,1086.44C150.349,1086.44 142.529,1082.56 140.353,1089.9C138.177,1097.23 166.551,1152.21 166.551,1152.21L156.959,1158.86L145.27,1134.23L142.529,1129.15C142.529,1129.15 136.081,1125.93 133.662,1132.22L147.688,1169.3C147.688,1169.3 138.779,1188.64 138.518,1200.01C138.257,1211.38 135.436,1234.67 144.787,1248.78C154.137,1262.89 163.81,1267.16 172.113,1268.37C180.416,1269.58 191.322,1268.72 194.494,1266.65Z" style="fill:rgb(177,172,166);"/>
                    <path d="M194.963,1267.48C194.963,1267.48 205.671,1261.46 214.04,1244.53C217.664,1237.2 220.853,1227.8 222.529,1215.95C224.96,1198.71 224.965,1186.24 223.175,1177.2C220.841,1165.42 215.467,1159.32 208.41,1156.1C208.356,1156.07 208.3,1156.05 208.243,1156.03L182.35,1148.43C182.35,1148.43 154.325,1091.94 154.325,1091.94C154.325,1091.94 151.581,1085.88 151.581,1085.88C151.452,1085.59 151.229,1085.36 150.949,1085.22C150.949,1085.22 147.318,1083.46 144.021,1084.3C141.996,1084.81 140.036,1086.22 139.059,1089.51C138.778,1090.46 138.858,1092.09 139.355,1094.23C140.223,1097.97 142.288,1103.54 144.917,1109.78C151.785,1126.08 162.469,1147.05 164.913,1151.8C164.913,1151.8 157.449,1157 157.449,1157C157.449,1157 146.333,1133.73 146.333,1133.73C146.325,1133.71 146.315,1133.69 146.306,1133.67L143.55,1128.6C143.437,1128.39 143.262,1128.22 143.048,1128.12C143.048,1128.12 139.939,1126.59 136.985,1127.44C135.302,1127.93 133.629,1129.13 132.608,1131.81C132.509,1132.07 132.508,1132.36 132.606,1132.62L146.594,1169.27C145.786,1171.08 142.362,1178.94 139.987,1187.11C138.675,1191.63 137.685,1196.24 137.611,1199.99C137.473,1207.08 136.364,1218.81 137.806,1230.06C138.696,1237 140.557,1243.76 144.177,1249.18C148.081,1255.03 152.036,1259.2 155.922,1262.16C161.547,1266.46 167.031,1268.26 172.026,1268.97C176.384,1269.59 181.449,1269.64 185.758,1269.25C189.818,1268.89 193.214,1268.11 194.778,1267.08L194.963,1267.48ZM194.21,1266.21C192.725,1267.18 189.501,1267.83 185.663,1268.15C181.435,1268.5 176.469,1268.41 172.2,1267.77C167.395,1267.05 162.126,1265.28 156.739,1261.11C152.975,1258.19 149.157,1254.1 145.396,1248.38C141.937,1243.12 140.208,1236.57 139.397,1229.86C138.045,1218.69 139.239,1207.07 139.426,1200.03C139.52,1196.42 140.516,1191.99 141.808,1187.65C144.537,1178.49 148.607,1169.72 148.607,1169.72C148.72,1169.48 148.73,1169.19 148.634,1168.94L134.877,1132.24C135.572,1130.7 136.566,1129.94 137.615,1129.65C139.277,1129.18 140.997,1129.76 141.692,1130.05C141.692,1130.05 144.219,1134.76 144.219,1134.76C144.219,1134.76 155.836,1159.39 155.836,1159.39C155.993,1159.72 156.286,1159.97 156.638,1160.06C156.991,1160.15 157.367,1160.09 157.666,1159.88L167.275,1153.25C167.799,1152.89 167.972,1152.19 167.68,1151.63C167.68,1151.63 155.123,1127.18 147.396,1108.74C144.851,1102.67 142.825,1097.26 141.983,1093.62C141.631,1092.1 141.448,1090.95 141.647,1090.28C142.264,1088.2 143.413,1087.24 144.688,1086.92C146.519,1086.45 148.486,1087.12 149.327,1087.46C149.328,1087.46 151.877,1093.08 151.877,1093.08C151.883,1093.09 151.89,1093.11 151.898,1093.12L180.29,1150.09C180.45,1150.41 180.738,1150.65 181.084,1150.75L207.462,1158.4C213.882,1161.33 218.669,1166.95 220.839,1177.67C222.632,1186.52 222.648,1198.75 220.341,1215.64C218.762,1227.24 215.697,1236.44 212.192,1243.62C204.232,1259.94 194.025,1265.82 194.025,1265.82L194.21,1266.21Z"/>
                </g>
                <g transform="matrix(1,0,0,1,-511.504,0)">
                    <path d="M152.265,1258.84C152.265,1258.84 166.27,1265.52 178.475,1251.79C190.68,1238.06 197.104,1221.81 198.867,1203.99C200.631,1186.17 200.631,1165.89 181.738,1151.65L150.501,1086.44C150.501,1086.44 141.967,1082.66 139.955,1090.6L155.884,1130.44L166.676,1152.38L156.938,1158.64L142.558,1129.42C142.558,1129.42 135.408,1125.75 133.662,1132.33L147.717,1169.28C147.717,1169.28 138.942,1187.6 138.518,1209.52C138.095,1231.45 139.592,1244.8 152.265,1258.84Z" style="fill:rgb(122,109,101);"/>
                    <path d="M151.88,1259.48C151.925,1259.57 151.98,1259.64 152.042,1259.7L151.856,1259.7C151.856,1259.7 158.506,1262.91 166.77,1260.61C170.742,1259.5 175.095,1257.12 179.25,1252.48C185.421,1245.57 190.144,1238.03 193.558,1229.98C197.006,1221.84 199.117,1213.18 200.038,1204.11C200.998,1194.63 201.451,1184.47 198.925,1174.85C196.619,1166.08 191.849,1157.76 182.771,1150.81C182.772,1150.81 151.718,1085.85 151.718,1085.85C151.579,1085.56 151.341,1085.33 151.047,1085.2C151.047,1085.2 147.12,1083.5 143.66,1084.54C141.546,1085.18 139.542,1086.75 138.651,1090.27C138.582,1090.55 138.601,1090.84 138.706,1091.1L154.698,1130.91C154.71,1130.94 154.724,1130.98 154.738,1131.01L165.109,1151.95C165.109,1151.95 157.408,1156.93 157.408,1156.93C157.408,1156.93 143.524,1128.95 143.524,1128.95C143.422,1128.74 143.256,1128.57 143.05,1128.46C143.05,1128.46 139.855,1126.86 136.994,1127.49C135.176,1127.88 133.434,1129.09 132.656,1132.06C132.6,1132.27 132.612,1132.49 132.689,1132.7L146.741,1169.25C145.983,1170.92 142.751,1178.4 140.384,1188.77C138.992,1194.88 137.899,1201.98 137.783,1209.51C137.587,1222.33 138.04,1232.24 140.959,1241.06C143.076,1247.44 146.483,1253.26 151.88,1259.19L151.88,1259.48ZM152.673,1258.37C152.786,1258.4 152.886,1258.44 152.97,1258.49L152.65,1258.49C147.423,1252.65 144.134,1246.94 142.116,1240.68C139.308,1231.96 138.958,1222.18 139.253,1209.54C139.426,1202.13 140.558,1195.14 141.976,1189.14C144.717,1177.55 148.527,1169.66 148.527,1169.66C148.634,1169.44 148.644,1169.19 148.557,1168.96L134.759,1132.28C135.307,1130.57 136.319,1129.8 137.441,1129.56C139.162,1129.19 141.029,1129.91 141.753,1130.23C141.754,1130.23 155.878,1159.16 155.878,1159.16C156.027,1159.46 156.297,1159.68 156.622,1159.78C156.946,1159.87 157.294,1159.81 157.577,1159.63L167.331,1153.4C167.85,1153.07 168.036,1152.4 167.764,1151.85L157.052,1129.92C157.052,1129.92 141.373,1090.52 141.373,1090.52C141.991,1088.51 143.144,1087.51 144.438,1087.12C146.417,1086.53 148.597,1087.16 149.513,1087.5C149.513,1087.5 180.569,1152.21 180.569,1152.21C180.658,1152.4 180.792,1152.57 180.958,1152.69C189.7,1159.25 194.29,1167.15 196.52,1175.49C199.01,1184.81 198.585,1194.67 197.697,1203.87C196.844,1212.72 194.83,1221.17 191.512,1229.12C188.229,1236.98 183.672,1244.34 177.701,1251.1C173.889,1255.41 169.894,1257.65 166.232,1258.69C158.735,1260.83 152.673,1257.98 152.673,1257.98L152.673,1258.37Z"/>
                </g>
                <g transform="matrix(1,0,0,1,-511.504,0)">
                    <path d="M157.65,1228.6C157.65,1228.6 166.013,1230.74 169.641,1224.45C173.268,1218.16 176.492,1211.15 176.654,1196.88C176.815,1182.61 167.222,1181.56 164.159,1183.98C161.096,1186.4 152.551,1194.46 152.148,1208.57C151.745,1222.67 153.962,1227.19 157.65,1228.6Z" style="fill:rgb(88,44,45);"/>
                    <path d="M157.464,1229.49C157.483,1229.5 157.502,1229.51 157.521,1229.52L157.415,1229.52C157.415,1229.52 161.016,1230.48 164.671,1229.48C166.874,1228.88 169.083,1227.57 170.606,1225C172.841,1221.22 174.938,1217.17 176.327,1211.46C177.283,1207.54 177.892,1202.84 177.993,1196.89C178.072,1189.87 175.876,1185.81 173.244,1183.7C169.74,1180.88 165.368,1181.38 163.373,1182.99C161.435,1184.55 157.352,1188.35 154.464,1194.47C152.672,1198.26 151.336,1202.95 151.258,1208.54C151.168,1216.07 151.773,1220.9 152.908,1223.99C153.998,1226.96 155.564,1228.4 157.464,1229.08L157.464,1229.49ZM157.885,1228.1C157.92,1228.1 157.955,1228.11 157.989,1228.11L157.835,1228.11C155.837,1227.31 154.376,1225.49 153.582,1221.53C152.984,1218.54 152.777,1214.38 153.038,1208.59C153.266,1203.33 154.655,1198.96 156.437,1195.43C159.268,1189.84 163.114,1186.39 164.946,1184.98C165.507,1184.54 166.362,1184.3 167.319,1184.27C169.121,1184.22 171.264,1185.01 172.858,1187.14C174.36,1189.15 175.363,1192.26 175.314,1196.86C175.282,1202.58 174.74,1207.11 173.881,1210.89C172.642,1216.34 170.734,1220.24 168.675,1223.89C167.531,1225.93 165.814,1226.98 164.1,1227.49C160.99,1228.42 157.885,1227.68 157.885,1227.68L157.885,1228.1Z"/>
                </g>
                <g transform="matrix(1,0,0,1,-511.504,0)">
                    <path d="M168.887,1186.14C168.887,1186.14 164.805,1189.12 161.259,1194.29C160.447,1195.47 159.672,1196.77 158.99,1198.18C158.559,1199.07 158.165,1200 157.831,1200.97C157.044,1203.26 156.537,1205.76 156.484,1208.4C156.415,1211.82 157.107,1215.47 158.925,1219.25C159.035,1219.51 159.34,1219.64 159.604,1219.53C159.868,1219.41 159.993,1219.11 159.882,1218.85C158.555,1215.16 158.294,1211.72 158.633,1208.53C158.886,1206.15 159.515,1203.93 160.321,1201.88C160.663,1201.01 161.033,1200.17 161.425,1199.36C162.052,1198.06 162.737,1196.84 163.438,1195.71C166.546,1190.73 170.072,1187.62 170.072,1187.62C170.481,1187.3 170.548,1186.7 170.221,1186.29C169.894,1185.88 169.296,1185.82 168.887,1186.14Z"/>
                </g>
                <g transform="matrix(1,0,0,1,-511.504,0)">
                    <path d="M461.381,1317.76C461.381,1317.76 466.706,1319.18 466.403,1325.23C466.101,1331.27 464.993,1390.22 464.993,1390.22L464.59,1394.55C464.59,1394.55 465.396,1400.4 455.723,1399.09C455.723,1399.09 437.988,1398.68 431.54,1397.88C425.091,1397.07 395.971,1390.42 395.971,1390.42C395.971,1390.42 392.847,1392.03 393.25,1381.96L395.778,1313.24C395.778,1313.24 395.77,1306.21 402.67,1307.05C409.57,1307.89 438.52,1311.37 438.52,1311.37L461.381,1317.76Z" style="fill:rgb(162,80,66);"/>
                    <path d="M396.011,1391.79C398.208,1392.29 410.763,1395.16 420.548,1397.2C425.292,1398.18 429.392,1398.96 431.373,1399.21C433.651,1399.49 437.323,1399.73 441.136,1399.91C447.786,1400.22 454.868,1400.37 455.626,1400.39C459.371,1400.88 461.696,1400.34 463.143,1399.51C465.927,1397.93 465.921,1395.24 465.869,1394.54C465.869,1394.55 466.248,1390.34 466.248,1390.34C466.251,1390.31 466.253,1390.27 466.253,1390.24C466.253,1390.24 466.656,1364.01 466.992,1344.75C467.16,1335.15 467.307,1327.29 467.398,1325.28C467.502,1322.99 466.886,1321.3 466.034,1320.05C464.324,1317.54 461.627,1316.84 461.627,1316.84L461.627,1317.25C461.63,1317.25 461.633,1317.26 461.636,1317.26L461.52,1317.26L438.702,1310.72C438.669,1310.71 438.635,1310.7 438.601,1310.7L402.779,1306.15C400.022,1305.8 398.23,1306.6 397.048,1307.72C394.839,1309.82 394.811,1313.24 394.811,1313.24L394.812,1313.2L391.954,1381.91C391.791,1385.72 392.14,1387.98 392.613,1389.29C393.182,1390.88 394.012,1391.44 394.637,1391.68C395.183,1391.88 395.672,1391.86 396.011,1391.79ZM461.241,1318.67C461.243,1318.67 461.245,1318.67 461.247,1318.67L461.135,1318.67C461.135,1318.67 463.152,1319.24 464.422,1321.14C465.068,1322.1 465.505,1323.42 465.408,1325.18C465.298,1327.19 465.066,1335.08 464.816,1344.7C464.328,1363.47 463.762,1388.86 463.733,1390.14C463.733,1390.14 463.321,1394.43 463.321,1394.43C463.312,1394.53 463.314,1394.63 463.327,1394.73C463.327,1394.73 463.525,1396.83 461.051,1397.62C459.877,1398 458.223,1398.11 455.897,1397.79C455.849,1397.79 455.801,1397.78 455.752,1397.78C455.752,1397.78 448.268,1397.59 441.265,1397.24C437.532,1397.06 433.937,1396.83 431.706,1396.54C429.765,1396.3 425.749,1395.51 421.098,1394.55C410.359,1392.32 396.265,1389.13 396.265,1389.13L395.971,1391.74C395.971,1391.74 393.919,1389.72 395.46,1389.2C395.479,1389.2 395.565,1389.2 395.565,1389.2C395.565,1389.2 395.33,1388.96 395.199,1388.67C394.995,1388.23 394.826,1387.6 394.704,1386.73C394.54,1385.58 394.47,1384.04 394.546,1382.01L396.744,1313.27C396.745,1313.26 396.745,1313.25 396.745,1313.24C396.745,1313.24 396.707,1310.66 398.344,1309.07C399.203,1308.24 400.534,1307.72 402.561,1307.95L438.392,1312.04C438.392,1312.04 461.241,1318.26 461.241,1318.26L461.241,1318.67Z"/>
                </g>
                <g transform="matrix(1,0,0,1,-511.504,0)">
                    <path d="M451.253,1399.01C451.253,1399.01 452.353,1386.48 453.449,1371.39C453.881,1365.44 454.314,1359.09 454.672,1352.95C455.061,1346.29 455.373,1339.87 455.529,1334.48C455.685,1329.04 455.672,1324.63 455.486,1322.05C455.45,1321.49 455.053,1321.03 454.509,1320.9C454.509,1320.9 436.464,1316.95 420.081,1314.18C410.369,1312.54 401.24,1311.33 396.776,1311.54C396.49,1311.55 396.264,1311.79 396.273,1312.07C396.282,1312.36 396.522,1312.58 396.809,1312.57C400.329,1312.51 406.748,1313.45 414.049,1314.78C429.392,1317.56 448.592,1322.08 453.009,1323.14C453.091,1325.59 453.018,1329.24 452.87,1333.63C452.754,1337.08 452.589,1340.99 452.396,1345.13C452.078,1351.98 451.678,1359.47 451.278,1366.62C450.326,1383.69 449.36,1398.86 449.36,1398.86C449.321,1399.38 449.713,1399.84 450.235,1399.88C450.758,1399.92 451.214,1399.53 451.253,1399.01Z"/>
                </g>
            </g>
        </g>
    </g>
</svg>
