<?xml version="1.0" encoding="UTF-8" standalone="no"?>
<!DOCTYPE svg PUBLIC "-//W3C//DTD SVG 1.1//EN" "http://www.w3.org/Graphics/SVG/1.1/DTD/svg11.dtd">
<svg width="100%" height="100%" viewBox="0 0 197 271" version="1.1" xmlns="http://www.w3.org/2000/svg" xmlns:xlink="http://www.w3.org/1999/xlink" xml:space="preserve" xmlns:serif="http://www.serif.com/" style="fill-rule:evenodd;clip-rule:evenodd;stroke-linejoin:round;stroke-miterlimit:2;">
    <g transform="matrix(1,0,0,1,-232.246,-296.728)">
        <g transform="matrix(0.97604,0,0,0.97604,1208.18,669.533)">
            <g id="robotkrk" transform="matrix(1.02455,0,0,1.02455,-911.81,-1718.85)">
                <g id="krk" transform="matrix(1,0,0,1,-694.613,732.8)">
                    <path d="M803.34,809.237C803.34,809.237 781.883,785.286 784.928,741.412C785.66,730.869 786.592,719.707 790.976,706.838C793.893,698.277 795.428,689.261 797.071,682.177C808.174,634.305 792.518,619.915 770.553,616.432C745.338,612.435 622.644,579.532 627.872,602.595C633.099,625.658 630.639,621.968 638.942,640.418C647.244,658.868 653.629,727.268 624.723,778.134C624.723,778.134 624.191,779.341 624.665,779.547C627.236,780.665 636.898,784.603 648.971,791.62C652.983,793.952 658.216,796.697 662.529,799.641C671.425,805.712 681.325,812.853 690.181,819.229C702.916,828.398 735.124,832.907 744.293,835.253C784.726,845.6 806.723,820.307 803.34,809.237Z" style="fill:rgb(98,42,45);"/>
                    <path d="M625.617,776.684C625.617,776.684 634.423,761.913 640.654,737.397C642.735,729.209 644.533,719.933 645.591,709.761C646.5,701.024 646.874,691.624 646.423,681.694C645.833,668.671 643.808,654.741 639.867,640.175C639.861,640.15 639.853,640.125 639.844,640.1C639.844,640.1 638.975,637.698 637.115,633.634C636.295,631.844 635.281,629.73 634.065,627.355C632.61,624.514 631.549,620.951 630.686,617.105C629.509,611.857 628.702,606.089 627.815,600.873C627.77,600.59 627.504,600.396 627.221,600.441C626.938,600.486 626.745,600.752 626.79,601.035C627.566,606.293 628.247,612.102 629.316,617.397C630.124,621.4 631.159,625.109 632.604,628.084C633.758,630.458 634.715,632.571 635.49,634.358C637.079,638.023 637.892,640.313 638.021,640.683C641.681,655.139 643.38,668.931 643.837,681.799C644.184,691.599 643.797,700.864 642.916,709.485C641.889,719.527 640.206,728.694 638.238,736.796C632.354,761.024 623.977,775.728 623.977,775.728C623.713,776.18 623.866,776.762 624.318,777.026C624.771,777.29 625.353,777.136 625.617,776.684Z"/>
                    <path d="M803.048,653.938C803.026,653.975 803.009,654.015 802.998,654.057C802.953,654.227 802.685,655.304 802.059,657.859C800.607,663.782 797.218,677.665 790.158,706.644C783.369,734.579 782.746,755.54 784.821,771C788.308,796.971 799.385,807.631 802.025,809.838C801.819,812.328 800.088,822.45 785.641,828.795C777.151,832.525 764.407,834.958 745.266,833.967C745.102,833.765 744.875,833.571 744.566,833.405C743.932,833.061 742.659,832.764 740.804,832.496C734.569,831.596 720.938,830.507 703.735,823.927C695.983,820.961 687.502,816.886 678.647,811.204C677.647,810.45 658.046,795.699 641.977,785.789C634.957,781.46 628.593,778.061 624.703,777.083C624.196,776.953 623.678,777.26 623.549,777.768C623.419,778.275 623.726,778.793 624.233,778.923C628.97,780.153 637.436,785.17 646.231,790.96C661.289,800.875 677.259,813.103 677.259,813.103C677.283,813.121 677.308,813.139 677.333,813.155C688.974,820.724 699.989,825.548 709.597,828.693C724.445,833.553 735.917,834.406 741.105,835.239C741.865,835.361 742.63,835.565 743.026,835.678C743.06,835.78 743.107,835.878 743.166,835.971C743.396,836.334 743.788,836.563 744.217,836.588C764.448,837.743 777.851,835.174 786.725,831.257C805.164,823.117 804.627,809.203 804.627,809.203C804.616,808.798 804.416,808.422 804.085,808.187C804.085,808.187 791.086,798.89 787.067,770.689C784.892,755.425 785.334,734.706 791.794,707.033C798.557,677.985 801.804,664.069 803.193,658.131L803.766,655.689L804.065,654.438L804.083,654.35L804.085,654.34C804.092,654.314 804.096,654.286 804.097,654.259C804.164,653.745 803.914,653.566 803.634,653.584C803.425,653.511 803.193,653.583 803.048,653.938Z"/>
                </g>
                <g transform="matrix(1,0,0,1,-262.534,0.974473)">
                    <path d="M210.376,1445.28L207.67,1458.81C207.67,1458.81 284.669,1520.06 355.025,1502.35L354.533,1485.62C354.533,1485.62 372,1493.25 371.016,1524L371.262,1544.41C371.262,1544.41 365.358,1565.08 344.201,1572.95C344.201,1572.95 249.982,1567.79 177.904,1505.3L194.632,1454.38C194.632,1454.38 198.568,1445.77 210.376,1445.28Z" style="fill:rgb(113,85,81);"/>
                    <path d="M211.307,1445.38C211.364,1445.22 211.287,1445.06 211.098,1444.94C210.908,1444.82 210.628,1444.75 210.337,1444.76C206.439,1444.91 203.365,1445.93 200.995,1447.25C195.971,1450.03 194.095,1454.13 194.095,1454.13C194.086,1454.15 194.078,1454.17 194.071,1454.19L177.164,1505.06C177.066,1505.36 177.157,1505.68 177.394,1505.89C202.349,1527.66 229.983,1542.57 255.463,1552.73C303.659,1571.96 344.13,1574.25 344.13,1574.25C344.308,1574.26 344.487,1574.23 344.654,1574.17C352.106,1571.41 357.727,1567.11 361.894,1562.64C369.927,1554.02 372.556,1544.79 372.556,1544.79C372.592,1544.66 372.609,1544.53 372.608,1544.4L372.368,1524.01C372.736,1512.21 370.435,1503.73 367.436,1497.75C362.298,1487.49 355.066,1484.4 355.066,1484.4C354.648,1484.22 354.166,1484.26 353.788,1484.52C353.41,1484.77 353.189,1485.2 353.203,1485.66L353.682,1501.33C333.165,1506.3 312.104,1504.53 292.613,1499.62C249.016,1488.62 213.229,1461.84 208.755,1458.4C208.755,1458.4 211.307,1445.46 211.307,1445.46L211.307,1445.38ZM209.287,1445.87L206.703,1458.61C206.631,1458.98 206.767,1459.35 207.056,1459.58C207.056,1459.58 244.974,1489.9 292.016,1501.96C312.208,1507.14 334.073,1508.94 355.346,1503.62C355.942,1503.47 356.354,1502.92 356.336,1502.31L355.932,1487.99C358.63,1489.86 363.552,1494.25 366.714,1502.84C368.672,1508.17 369.952,1515.07 369.665,1523.95C369.664,1523.97 369.664,1523.99 369.664,1524.01L369.913,1544.22C369.512,1545.5 366.846,1553.4 359.95,1560.83C356.084,1564.99 350.887,1569.02 344.003,1571.64C340.42,1571.41 301.862,1568.63 256.253,1550.74C231.021,1540.84 203.627,1526.33 178.805,1505.05C178.805,1505.05 195.181,1454.6 195.181,1454.6C195.352,1454.24 197.136,1450.7 201.537,1448.21C203.547,1447.08 206.099,1446.17 209.287,1445.87L209.287,1445.87Z"/>
                </g>
                <g transform="matrix(1,0,0,1,-262.194,0.974473)">
                    <path d="M355.025,1502.35L344.201,1572.95C344.201,1572.95 361.719,1569.53 371.262,1544.5L371.262,1519.46C371.262,1519.46 371.358,1491.28 354.669,1485.61L355.025,1502.35Z" style="fill:rgb(183,183,183);"/>
                    <path d="M354.087,1502.2C354.087,1502.2 350.425,1524.88 347.31,1544.52C344.932,1559.52 342.877,1572.75 342.877,1572.75C342.811,1573.18 342.959,1573.62 343.274,1573.92C343.588,1574.22 344.03,1574.35 344.458,1574.27C344.458,1574.27 353.302,1572.62 361.986,1562.83C365.749,1558.59 369.475,1552.8 372.429,1544.94C372.483,1544.8 372.511,1544.65 372.511,1544.5L372.327,1519.46C372.327,1519.46 372.256,1506.13 366.81,1495.86C364.219,1490.97 360.423,1486.78 354.891,1484.96C354.678,1484.88 354.442,1484.92 354.26,1485.05C354.078,1485.19 353.973,1485.4 353.978,1485.63L354.507,1502.36L354.087,1502.2ZM355.544,1502.34L355.371,1486.62C359.973,1488.55 363.124,1492.34 365.304,1496.64C370.36,1506.63 370.197,1519.46 370.197,1519.46L370.014,1544.26C367.138,1551.63 363.555,1557.05 359.979,1561.04C354.335,1567.35 348.688,1570.03 345.842,1571.06C346.492,1566.75 348.058,1556.34 349.752,1544.9C352.665,1525.22 355.964,1502.49 355.964,1502.49L355.544,1502.34Z"/>
                </g>
                <g transform="matrix(1.81269,0,0,1.81269,-476.529,-1099.7)">
                    <ellipse cx="248.899" cy="1353.17" rx="24.723" ry="25.905" style="fill:rgb(173,168,164);"/>
                    <path d="M248.899,1326.98C241.871,1326.93 235.497,1329.92 230.909,1334.78C226.442,1339.51 223.673,1346 223.628,1353.17C223.588,1360.37 226.304,1366.92 230.737,1371.71C235.333,1376.69 241.774,1379.78 248.899,1379.8C256.035,1379.81 262.499,1376.74 267.121,1371.77C271.591,1366.97 274.334,1360.4 274.318,1353.17C274.29,1345.95 271.517,1339.41 267.032,1334.64C262.415,1329.74 255.988,1326.7 248.899,1326.74L248.899,1326.98ZM248.899,1327.79C255.662,1327.82 261.763,1330.77 266.127,1335.49C270.355,1340.06 272.952,1346.3 272.926,1353.17C272.911,1360.02 270.28,1366.22 266.038,1370.76C261.68,1375.43 255.614,1378.34 248.899,1378.34C242.171,1378.37 236.081,1375.48 231.698,1370.82C227.42,1366.27 224.761,1360.05 224.723,1353.17C224.68,1346.26 227.28,1339.97 231.526,1335.36C235.92,1330.58 242.073,1327.6 248.899,1327.55L248.899,1327.79Z"/>
                </g>
                <g transform="matrix(1,0,0,1,-274.252,0)">
                    <ellipse cx="248.899" cy="1353.17" rx="24.723" ry="25.905" style="fill:rgb(95,49,51);"/>
                    <path d="M248.899,1326.74C241.789,1326.65 235.326,1329.66 230.658,1334.55C226.1,1339.32 223.266,1345.89 223.182,1353.17C223.109,1360.5 225.852,1367.18 230.347,1372.08C235.028,1377.18 241.613,1380.35 248.899,1380.4C256.206,1380.4 262.832,1377.27 267.561,1372.18C272.123,1367.27 274.913,1360.55 274.884,1353.17C274.832,1345.81 271.991,1339.15 267.4,1334.3C262.679,1329.32 256.121,1326.25 248.899,1326.31L248.899,1326.74ZM248.899,1328.21C255.529,1328.27 261.497,1331.19 265.759,1335.83C269.884,1340.33 272.407,1346.44 272.36,1353.17C272.333,1359.86 269.748,1365.92 265.599,1370.35C261.348,1374.89 255.444,1377.74 248.899,1377.75C242.332,1377.79 236.384,1374.98 232.088,1370.45C227.874,1366.01 225.236,1359.92 225.169,1353.17C225.091,1346.36 227.619,1340.16 231.777,1335.59C236.093,1330.85 242.155,1327.86 248.899,1327.78L248.899,1328.21Z"/>
                </g>
                <path d="M-24.406,1479.21C-24.406,1479.21 -23.53,1469.09 -24.072,1454.99C-24.189,1451.93 -24.382,1448.68 -24.675,1445.31C-24.858,1443.21 -25.081,1441.06 -25.356,1438.88C-26.013,1433.68 -26.923,1428.3 -28.127,1422.95C-29.918,1414.98 -32.386,1407.09 -35.655,1399.92C-35.768,1399.66 -36.073,1399.54 -36.337,1399.65C-36.6,1399.76 -36.722,1400.07 -36.609,1400.33C-34.673,1405.17 -33.133,1410.31 -31.877,1415.57C-30.637,1420.76 -29.697,1426.05 -28.965,1431.26C-28.512,1434.48 -28.147,1437.67 -27.828,1440.78C-27.489,1444.07 -27.206,1447.27 -26.985,1450.33C-26.686,1454.46 -26.487,1458.34 -26.364,1461.82C-25.999,1472.16 -26.301,1479.09 -26.301,1479.09C-26.335,1479.61 -25.938,1480.06 -25.416,1480.1C-24.893,1480.13 -24.441,1479.73 -24.406,1479.21Z"/>
                <path d="M12.992,1496.58C12.992,1496.58 11.682,1483.36 9.654,1465.06C9.213,1461.08 8.728,1456.85 8.207,1452.47C7.88,1449.73 7.539,1446.92 7.175,1444.08C6.301,1437.24 5.349,1430.16 4.382,1423.14C2.878,1412.2 1.303,1401.4 -0.116,1391.76C-0.152,1391.48 -0.413,1391.28 -0.697,1391.31C-0.981,1391.35 -1.182,1391.61 -1.145,1391.89C-0.067,1401.57 1.064,1412.43 2.245,1423.4C3.005,1430.45 3.77,1437.55 4.542,1444.4C4.863,1447.24 5.193,1450.05 5.521,1452.79C6.046,1457.17 6.566,1461.39 7.068,1465.37C9.371,1483.63 11.105,1496.79 11.105,1496.79C11.166,1497.31 11.637,1497.69 12.157,1497.63C12.678,1497.57 13.052,1497.1 12.992,1496.58Z"/>
                <path d="M46.173,1505.24C46.173,1505.24 44.854,1491.27 43.095,1471.26C42.205,1461.13 41.215,1449.46 40.203,1437.27C39.709,1431.31 39.2,1425.23 38.703,1419.14C37.952,1409.94 37.223,1400.74 36.605,1391.93C35.22,1372.18 34.358,1354.43 34.803,1343.31C34.818,1343.02 34.598,1342.78 34.312,1342.76C34.026,1342.75 33.781,1342.97 33.767,1343.26C33.26,1351.24 33.315,1362.67 33.762,1375.81C34.106,1385.89 34.668,1396.98 35.377,1408.3C35.782,1414.76 36.229,1421.3 36.725,1427.77C37.232,1434.38 37.788,1440.91 38.35,1447.21C39.088,1455.49 39.846,1463.37 40.559,1470.52C42.61,1491.04 44.285,1505.43 44.285,1505.43C44.34,1505.96 44.807,1506.34 45.329,1506.28C45.85,1506.22 46.228,1505.76 46.173,1505.24Z"/>
            </g>
        </g>
    </g>
</svg>
