<?xml version="1.0" encoding="UTF-8" standalone="no"?>
<!DOCTYPE svg PUBLIC "-//W3C//DTD SVG 1.1//EN" "http://www.w3.org/Graphics/SVG/1.1/DTD/svg11.dtd">
<svg width="100%" height="100%" viewBox="0 0 226 169" version="1.1" xmlns="http://www.w3.org/2000/svg" xmlns:xlink="http://www.w3.org/1999/xlink" xml:space="preserve" xmlns:serif="http://www.serif.com/" style="fill-rule:evenodd;clip-rule:evenodd;stroke-linejoin:round;stroke-miterlimit:2;">
    <g transform="matrix(1,0,0,1,-237.996,-134.049)">
        <g transform="matrix(0.97604,0,0,0.97604,1208.18,669.533)">
            <g id="underhair" transform="matrix(1.02455,0,0,1.02455,-1624.01,-968.744)">
                <path d="M654.774,576.582C654.774,576.582 673.133,577.956 675.309,576.582C675.309,576.582 674.996,551.171 677.893,542.732C680.789,534.293 687.465,519.935 696.786,512.629C706.106,505.324 709.759,500.916 711.522,496.885C711.522,496.885 711.144,458.847 713.915,452.298C716.686,445.748 750.19,423.203 782.686,429.878C815.181,436.554 812.159,434.035 820.975,434.916C829.792,435.798 835.46,441.466 839.364,444.741C839.364,444.741 823.024,424.342 800.856,418.044C778.689,411.747 753.624,408.318 712.941,415.12C712.941,415.12 664.575,421.418 643.793,452.654C623.01,483.89 626.789,482.379 623.01,489.558C619.232,496.738 612.958,529.053 618.362,556.342C618.362,556.342 624.661,553.306 632.271,556.342C639.88,559.377 653.223,574.311 654.774,576.582Z" style="fill:rgb(76,20,29);"/>
                <path d="M654.345,577.117C654.434,577.356 654.577,577.507 654.735,577.529C654.703,577.529 663.06,578.172 669.193,578.173C671.27,578.174 673.098,578.098 674.287,577.907C675.008,577.792 675.538,577.613 675.84,577.423C676.132,577.238 676.308,576.915 676.303,576.57C676.303,576.57 676.196,565.989 676.905,556.241C677.286,550.999 677.893,545.999 678.903,543.079C680.679,537.937 683.882,530.569 688.243,523.99C690.909,519.968 694.007,516.24 697.486,513.523C701.931,510.053 705.104,507.225 707.407,504.782C710.089,501.938 711.617,499.589 712.599,497.356C712.665,497.204 712.699,497.04 712.697,496.874C712.697,496.874 712.554,478.965 713.36,465.639C713.716,459.745 714.223,454.769 715.066,452.785C715.577,451.583 717.261,449.839 719.795,447.797C725.286,443.373 734.702,437.843 745.972,434.123C756.987,430.487 769.781,428.576 782.417,431.185C793.634,433.494 800.636,434.71 805.354,435.348C814.349,436.564 815.039,435.678 820.841,436.261C823.732,436.551 826.264,437.388 828.493,438.484C832.811,440.608 836.015,443.694 838.497,445.774C839.029,446.22 839.812,446.19 840.308,445.705C840.804,445.22 840.851,444.438 840.418,443.897C840.418,443.897 833.594,435.365 822.75,427.573C816.667,423.201 809.32,419.07 801.216,416.777C788.314,413.133 774.439,410.45 757.128,410.173C744.495,409.97 730.029,411.052 712.766,413.972C711.903,414.09 688.146,417.414 666.912,430.134C657.815,435.585 649.184,442.757 642.99,452.12C636.229,462.341 632.072,469.069 629.411,473.745C623.907,483.417 624.798,484.306 622.259,489.163C620.004,493.477 616.856,506.747 615.856,522.589C615.176,533.367 615.482,545.337 617.719,556.469C617.759,556.668 617.888,556.837 618.07,556.928C618.251,557.018 618.464,557.02 618.647,556.932C618.647,556.932 621.343,555.632 625.313,555.627C627.298,555.624 629.6,555.945 632.043,556.911C634.813,558.006 638.351,560.708 641.797,563.779C647.727,569.065 653.37,575.457 654.345,576.875L654.345,577.117ZM655.058,576.087C655.259,576.121 655.436,576.192 655.557,576.289L655.202,576.289C655.162,576.23 655.114,576.162 655.058,576.087ZM828.279,435.414C826.136,434.507 823.757,433.836 821.11,433.571C815.342,432.997 814.656,433.883 805.713,432.683C801.032,432.054 794.085,430.853 782.954,428.572C769.843,425.891 756.573,427.862 745.155,431.659C733.546,435.52 723.86,441.261 718.211,445.837C715.237,448.246 713.361,450.395 712.764,451.811C711.873,453.926 711.262,459.216 710.902,465.494C710.187,477.96 710.322,494.411 710.344,496.642C709.451,498.615 708.063,500.689 705.717,503.195C703.483,505.581 700.4,508.341 696.085,511.735C692.436,514.606 689.179,518.527 686.391,522.768C681.942,529.533 678.684,537.104 676.882,542.385C675.844,545.43 675.206,550.635 674.833,556.095C674.262,564.438 674.287,573.382 674.308,575.9C674.065,575.95 673.759,575.987 673.405,576.027C672.308,576.153 670.831,576.205 669.189,576.212C663.119,576.237 654.844,575.635 654.844,575.635L654.844,575.804C653.237,573.724 648.029,567.853 642.565,562.923C639.018,559.722 635.357,556.923 632.498,555.772C629.893,554.724 627.436,554.368 625.315,554.358C622.326,554.344 620.001,555.02 618.857,555.436C616.844,544.634 616.64,533.096 617.357,522.688C618.425,507.168 621.528,494.169 623.762,489.954C626.318,485.131 625.434,484.24 630.968,474.637C633.642,469.998 637.813,463.324 644.595,453.188C652.259,441.734 663.694,433.711 675.019,428.135C694.199,418.692 713.091,416.271 713.091,416.271C713.105,416.269 713.119,416.267 713.132,416.265C730.242,413.44 744.574,412.427 757.083,412.672C774.137,413.005 787.797,415.682 800.496,419.311C808.286,421.534 815.334,425.542 821.18,429.755C823.802,431.644 826.183,433.577 828.279,435.414Z"/>
            </g>
        </g>
    </g>
</svg>
