<?xml version="1.0" encoding="UTF-8" standalone="no"?>
<!DOCTYPE svg PUBLIC "-//W3C//DTD SVG 1.1//EN" "http://www.w3.org/Graphics/SVG/1.1/DTD/svg11.dtd">
<svg width="100%" height="100%" viewBox="0 0 520 329" version="1.1" xmlns="http://www.w3.org/2000/svg" xmlns:xlink="http://www.w3.org/1999/xlink" xml:space="preserve" xmlns:serif="http://www.serif.com/" style="fill-rule:evenodd;clip-rule:evenodd;stroke-linejoin:round;stroke-miterlimit:2;">
    <g transform="matrix(1,0,0,1,-111.408,-146.776)">
        <g transform="matrix(0.97604,0,0,0.97604,1208.18,669.533)">
            <g id="valrug2" transform="matrix(1.02455,0,0,1.02455,-2814.81,-917.163)">
                <g>
                    <path d="M1948.56,689.921C1948.56,689.921 1965.88,702.859 1985.09,698.425C2004.31,693.992 2005.92,690.365 2010.35,681.901C2014.78,673.437 2020.43,655.837 2031.85,649.522C2043.27,643.208 2060.73,636.491 2067.99,613.517C2067.99,613.517 2088.14,601.426 2088.27,580.064C2088.41,558.703 2087.33,556.284 2087.33,556.284C2087.33,556.284 2098.94,542.537 2098.94,527.423C2098.94,527.423 2153.01,508.95 2168.46,469.821C2168.46,469.821 2117.75,440.6 2083.82,439.257C2083.82,439.257 2076.1,421.959 2056.45,426.158C2056.45,426.158 2041.5,402.479 2018.5,409.028C2018.5,409.028 2007.75,381.654 1970.97,400.463C1970.97,400.463 1945.61,361.67 1914.88,377.624C1914.88,377.624 1905.64,381.319 1902.28,388.372C1902.28,388.372 1894.39,382.998 1880.62,388.036C1880.62,388.036 1862.46,392.57 1851.3,389.044C1840.15,385.517 1829.06,387.028 1817.31,406.173C1817.31,406.173 1802.87,399.792 1795.31,409.028C1795.31,409.028 1774.32,401.639 1766.59,431.699C1766.59,431.699 1713.36,418.307 1708.66,431.406C1708.66,431.406 1675.32,406.426 1661.99,412.334C1657.54,414.305 1654.31,418.36 1652.11,423.628C1650.29,427.97 1662.95,424.525 1662.41,430.028C1660.98,444.521 1665.56,459.879 1670.14,470.164C1671.57,473.384 1679.52,466.76 1681.61,470.383C1683.61,473.876 1677.45,488.7 1679.78,492.619C1685.42,502.11 1692.47,511.706 1699.64,520.577C1700.79,522.001 1697.76,533.739 1698.91,535.122C1716.17,555.844 1737.11,561.275 1735.42,560.542C1735.42,560.542 1750.6,564.275 1758.53,563.953C1766.45,563.632 1766.99,568.469 1770.62,575.186C1774.25,581.904 1779.08,599.638 1779.08,599.638L1843.62,550.934L1865.92,547.038L1876.13,610.585L1908.24,669.833L1948.56,689.921" style="fill:rgb(106,39,39);"/>
                    <path d="M1698.79,521.176C1698.8,521.298 1698.88,522.287 1698.82,523.101C1698.59,526.219 1697.62,531.184 1697.62,533.698C1697.62,534.72 1697.85,535.441 1698.13,535.775C1704.96,543.967 1712.37,549.792 1718.75,553.803C1725.4,557.983 1730.94,560.197 1733.58,561.075C1734.52,561.388 1735.12,561.537 1735.33,561.563C1735.41,561.573 1735.49,561.576 1735.56,561.571C1737.08,561.932 1743.06,563.313 1749.06,564.181C1752.49,564.677 1755.92,565.004 1758.57,564.894C1761.46,564.773 1763.28,565.374 1764.61,566.593C1766.71,568.511 1767.72,571.757 1769.81,575.623C1771.03,577.883 1772.39,581.41 1773.66,585.074C1776.12,592.214 1778.22,599.871 1778.22,599.871C1778.3,600.155 1778.51,600.383 1778.79,600.478C1779.07,600.573 1779.38,600.524 1779.61,600.346L1843.94,551.673C1843.94,551.673 1865.3,547.914 1865.3,547.914C1865.3,547.914 1875.47,610.691 1875.47,610.691C1875.48,610.766 1875.5,610.838 1875.54,610.905L1907.73,670.11C1907.78,670.215 1907.87,670.3 1907.98,670.353L1947.62,690.033C1947.65,690.282 1947.78,690.519 1947.99,690.681C1947.99,690.681 1955.31,696.166 1965.76,698.863C1971.56,700.36 1978.31,700.996 1985.32,699.387C1994.74,697.221 2000.01,695.215 2003.45,692.783C2007.23,690.113 2008.86,686.93 2011.25,682.373C2013.97,677.202 2017.13,668.602 2021.81,661.279C2024.67,656.803 2028.09,652.802 2032.36,650.447C2038.88,646.846 2047.36,643.105 2054.82,636.343C2060.55,631.16 2065.68,624.217 2068.91,614.237C2070.6,613.154 2077.86,608.191 2083.26,599.858C2086.68,594.567 2089.35,587.927 2089.41,580.071C2089.47,572.206 2089.36,566.9 2089.2,563.334C2089.02,559.414 2088.76,557.487 2088.59,556.575C2089.78,555.077 2093.61,549.993 2096.53,543.216C2098.45,538.777 2099.96,533.616 2100.11,528.261C2104.68,526.596 2128.28,517.491 2147.52,500.373C2156.72,492.186 2164.92,482.168 2169.63,470.28C2169.85,469.703 2169.62,469.047 2169.09,468.737C2169.09,468.737 2145.39,455.063 2119.51,445.939C2107.67,441.763 2095.36,438.546 2084.64,437.991C2083.54,435.923 2079.91,429.978 2073.05,426.607C2068.93,424.584 2063.65,423.471 2057.05,424.695C2055.36,422.283 2049.57,414.681 2040.73,410.13C2034.81,407.087 2027.54,405.398 2019.24,407.451C2017.54,404.077 2011.32,393.949 1997.31,392.658C1990.62,392.042 1982.1,393.452 1971.41,398.735C1968.54,394.709 1956.92,379.541 1941.07,374.268C1933.03,371.595 1923.92,371.424 1914.3,376.403C1913.74,376.636 1909.27,378.554 1905.46,382.051C1904.06,383.338 1902.75,384.838 1901.74,386.539C1899.98,385.708 1896.51,384.46 1891.51,384.537C1888.35,384.585 1884.57,385.165 1880.22,386.747C1879.42,386.944 1871.38,388.849 1863,389.029C1859.07,389.113 1855.06,388.823 1851.71,387.764C1845.96,385.952 1840.24,385.44 1834.44,387.705C1828.67,389.961 1822.78,395.017 1816.77,404.548C1814.44,403.708 1808.69,401.985 1803.11,403.058C1800.15,403.626 1797.24,404.955 1794.87,407.543C1792.07,406.836 1783.08,405.344 1775.22,412.691C1771.52,416.15 1768.05,421.608 1765.68,430.159C1760.48,428.927 1739.9,424.29 1724.84,424.416C1719.6,424.46 1715.02,425.094 1711.9,426.575C1710.28,427.341 1709.04,428.336 1708.22,429.564C1704.64,426.994 1693.48,419.238 1682.46,414.388C1674.5,410.882 1666.6,408.988 1661.51,411.25C1659.01,412.358 1656.88,414.071 1655.07,416.268C1653.47,418.218 1652.12,420.553 1651.03,423.177C1650.61,424.186 1650.72,424.958 1651.07,425.559C1651.39,426.11 1651.98,426.557 1652.81,426.852C1654.45,427.432 1657.33,427.437 1659.46,428.06C1660.49,428.364 1661.37,428.791 1661.26,429.915C1660.58,436.89 1661.26,444.061 1662.67,450.787C1664.23,458.236 1666.67,465.138 1669.12,470.616C1669.69,471.89 1670.84,472.333 1672.4,472.146C1674.06,471.947 1676.31,470.924 1678.26,470.511C1679.27,470.296 1680.2,470.137 1680.65,470.931C1680.86,471.297 1680.91,471.84 1680.92,472.498C1680.92,473.372 1680.8,474.415 1680.62,475.558C1680,479.417 1678.64,484.355 1678.27,488.071C1678.05,490.265 1678.2,492.079 1678.85,493.168C1681.72,497.975 1684.94,502.809 1688.36,507.562C1691.7,512.21 1695.23,516.782 1698.79,521.176ZM1948.08,689.101C1948.4,688.915 1948.81,688.925 1949.13,689.16C1949.13,689.16 1956.18,694.413 1966.24,696.987C1971.77,698.403 1978.2,699.009 1984.87,697.464C1993.92,695.367 1998.99,693.482 2002.29,691.142C2005.79,688.658 2007.24,685.66 2009.45,681.428C2012.17,676.213 2015.36,667.547 2020.05,660.16C2023.1,655.372 2026.78,651.123 2031.34,648.598C2037.73,645.052 2046.06,641.388 2053.37,634.74C2058.91,629.705 2063.86,622.941 2066.93,613.185C2067.01,612.928 2067.19,612.709 2067.42,612.57C2067.42,612.57 2075.55,607.677 2081.38,598.641C2084.58,593.668 2087.1,587.433 2087.14,580.057C2087.17,573.828 2087.1,569.215 2086.99,565.805C2086.73,557.913 2086.28,556.754 2086.28,556.754C2086.1,556.349 2086.16,555.877 2086.45,555.538C2086.45,555.538 2091.05,550.077 2094.38,542.292C2096.27,537.893 2097.76,532.746 2097.76,527.423C2097.76,526.917 2098.08,526.467 2098.55,526.304C2098.55,526.304 2124.87,517.286 2145.89,498.539C2154.53,490.824 2162.29,481.457 2166.89,470.37C2162.26,467.776 2141.3,456.316 2118.66,448.363C2106.78,444.19 2094.44,440.975 2083.77,440.558C2083.28,440.538 2082.84,440.24 2082.63,439.787C2082.63,439.787 2079.43,432.649 2071.9,428.958C2068.03,427.063 2063.02,426.096 2056.72,427.445C2056.18,427.56 2055.63,427.327 2055.34,426.86C2055.34,426.86 2049.49,417.611 2039.51,412.49C2033.87,409.59 2026.88,408.027 2018.86,410.311C2018.2,410.5 2017.51,410.155 2017.25,409.516C2017.25,409.516 2012.19,396.714 1997.06,395.327C1990.53,394.728 1982.17,396.246 1971.58,401.661C1970.97,401.975 1970.22,401.776 1969.84,401.2C1969.84,401.2 1957.75,382.667 1940.21,376.836C1932.79,374.369 1924.38,374.214 1915.5,378.822C1915.46,378.843 1915.42,378.861 1915.38,378.878C1915.38,378.878 1911.88,380.28 1908.5,382.998C1906.56,384.55 1904.65,386.533 1903.5,388.952C1903.33,389.307 1903.02,389.571 1902.64,389.674C1902.26,389.777 1901.85,389.708 1901.53,389.487C1901.53,389.487 1897.98,387.134 1891.55,387.231C1888.62,387.276 1885.12,387.825 1881.08,389.3C1881.04,389.317 1880.99,389.331 1880.95,389.342C1880.95,389.342 1872.2,391.524 1863.06,391.717C1858.82,391.806 1854.51,391.465 1850.9,390.323C1844.59,388.326 1838.31,387.993 1831.9,391.951C1827.48,394.681 1823.02,399.401 1818.43,406.863C1818.09,407.426 1817.38,407.646 1816.78,407.38C1816.78,407.38 1811.5,405.044 1805.79,405.369C1802.44,405.559 1798.92,406.675 1796.32,409.855C1795.97,410.281 1795.39,410.443 1794.88,410.26C1794.88,410.26 1785.23,406.895 1776.99,414.584C1773.37,417.953 1770.06,423.397 1767.83,432.018C1767.66,432.702 1766.96,433.114 1766.28,432.942C1766.28,432.942 1741.96,426.793 1724.86,426.907C1720.85,426.933 1717.26,427.3 1714.5,428.202C1712.16,428.965 1710.44,430.073 1709.82,431.822C1709.68,432.189 1709.38,432.472 1709.01,432.584C1708.64,432.696 1708.23,432.624 1707.92,432.39C1707.92,432.39 1694.6,422.389 1681.49,416.59C1677.5,414.823 1673.53,413.445 1669.97,412.886C1667.11,412.436 1664.53,412.508 1662.47,413.418C1660.31,414.374 1658.46,415.865 1656.89,417.766C1655.42,419.546 1654.19,421.682 1653.19,424.08C1653.13,424.214 1653.08,424.317 1653.1,424.411C1653.11,424.44 1653.15,424.438 1653.17,424.456C1653.27,424.521 1653.39,424.574 1653.52,424.624C1653.93,424.783 1654.45,424.888 1655.02,424.979C1657.32,425.351 1660.32,425.544 1661.96,426.668C1663.06,427.422 1663.72,428.507 1663.56,430.141C1662.88,436.884 1663.54,443.818 1664.89,450.325C1666.4,457.606 1668.77,464.354 1671.15,469.711C1671.26,469.95 1671.5,469.967 1671.77,469.966C1672.25,469.966 1672.82,469.835 1673.42,469.662C1675.41,469.098 1677.76,468.124 1679.54,468.164C1680.84,468.193 1681.89,468.675 1682.56,469.836C1683.14,470.857 1683.23,472.707 1682.92,474.985C1682.42,478.64 1681.05,483.549 1680.52,487.425C1680.25,489.429 1680.14,491.12 1680.7,492.07C1683.52,496.831 1686.7,501.619 1690.08,506.329C1693.4,510.971 1696.91,515.537 1700.44,519.925C1700.62,520.146 1700.78,520.483 1700.86,520.944C1700.97,521.546 1700.96,522.464 1700.86,523.561C1700.62,526.316 1699.86,530.328 1699.7,532.879C1699.65,533.571 1699.73,534.401 1699.75,534.528C1703.91,539.527 1708.28,543.625 1712.5,546.954C1721.33,553.928 1729.44,557.525 1733.36,558.943C1734.18,559.241 1734.97,559.474 1735.34,559.577C1735.44,559.568 1735.55,559.576 1735.65,559.602C1735.65,559.602 1742.47,561.288 1749.34,562.298C1752.64,562.783 1755.94,563.114 1758.49,563.013C1762.05,562.873 1764.24,563.719 1765.87,565.217C1768.09,567.254 1769.22,570.65 1771.43,574.749C1772.68,577.078 1774.08,580.709 1775.37,584.483C1777.24,589.926 1778.89,595.665 1779.58,598.144L1843.14,550.308C1843.24,550.233 1843.36,550.183 1843.48,550.162L1865.79,546.294C1865.99,546.259 1866.19,546.306 1866.36,546.423C1866.52,546.54 1866.63,546.719 1866.66,546.918C1866.66,546.918 1876.78,610.366 1876.78,610.366C1876.78,610.366 1908.66,669.395 1908.66,669.395L1948.08,689.101Z"/>
                    <g transform="matrix(0.124192,-0.992258,0.992258,0.124192,913.01,2108.7)">
                        <path d="M1718.1,560.888C1718.1,560.888 1721.21,560.849 1726.03,561.059C1727.63,561.128 1729.4,561.223 1731.32,561.343C1732.72,561.429 1734.19,561.535 1735.72,561.642C1737.14,561.741 1738.61,561.836 1740.12,561.959C1742.49,562.153 1744.95,562.393 1747.43,562.729C1749.85,563.056 1752.28,563.447 1754.69,563.968C1754.96,564.043 1755.25,563.879 1755.33,563.603C1755.4,563.327 1755.24,563.041 1754.96,562.966C1751.37,561.796 1747.7,560.856 1744.09,560.166C1741.55,559.68 1739.07,559.307 1736.68,559.047C1735.67,558.935 1734.67,558.853 1733.7,558.789C1732.13,558.686 1730.62,558.629 1729.21,558.608C1722.53,558.507 1717.99,558.993 1717.99,558.993C1717.47,559.024 1717.07,559.474 1717.1,559.997C1717.13,560.52 1717.58,560.919 1718.1,560.888Z"/>
                    </g>
                    <g transform="matrix(1.05767e-17,0.352212,-0.19302,-1.81433e-17,1771.13,-186.399)">
                        <path d="M1718.13,564.856C1718.13,564.856 1722.52,565.688 1729.03,566.653C1730.4,566.856 1731.86,567.024 1733.39,567.135C1734.33,567.203 1735.3,567.245 1736.3,567.222C1738.64,567.168 1741.07,566.952 1743.59,566.775C1747.25,566.519 1750.91,566.088 1754.61,566.126C1755.41,566.345 1756.16,565.331 1756.28,563.863C1756.4,562.395 1755.85,561.026 1755.04,560.807C1751.4,558.825 1747.77,557.017 1744.08,555.657C1741.54,554.718 1739.06,553.974 1736.65,553.497C1735.64,553.295 1734.64,553.19 1733.67,553.131C1732.09,553.037 1730.59,553.055 1729.18,553.161C1722.46,553.67 1717.96,555.025 1717.96,555.025C1716.47,555.114 1715.3,557.39 1715.35,560.103C1715.4,562.816 1716.65,564.945 1718.13,564.856Z"/>
                    </g>
                    <g transform="matrix(2.39874,0,0,3.06093,-2544.15,-830.375)">
                        <path d="M1818.69,402.885C1818.69,402.885 1816.4,405.9 1813.57,410.231C1812.95,411.174 1812.31,412.18 1811.67,413.232C1811.26,413.89 1810.86,414.566 1810.46,415.257C1809.51,416.917 1808.57,418.655 1807.7,420.405C1806.35,423.102 1805.17,425.83 1804.32,428.356C1804.29,428.446 1804.35,428.54 1804.47,428.566C1804.58,428.592 1804.7,428.54 1804.74,428.45C1805.4,426.774 1806.24,425.015 1807.15,423.233C1808.03,421.533 1808.99,419.817 1809.97,418.138C1810.57,417.113 1811.18,416.104 1811.77,415.119C1812.4,414.082 1813.01,413.073 1813.61,412.111C1814.4,410.817 1815.17,409.607 1815.86,408.521C1817.92,405.309 1819.38,403.191 1819.38,403.191C1819.49,403.043 1819.42,402.853 1819.23,402.768C1819.04,402.684 1818.8,402.736 1818.69,402.885Z"/>
                    </g>
                    <g transform="matrix(1,0,0,1,402.531,-0.371092)">
                        <path d="M1364.78,566.558C1364.78,566.558 1361.19,564.418 1360.18,559.107C1359.73,556.71 1359.81,553.684 1360.93,549.928C1361.88,546.703 1363.58,541.326 1365.52,535.021C1366.49,531.878 1367.51,528.504 1368.54,525.055C1370.03,520.052 1371.54,514.894 1372.95,510.066C1376.55,497.73 1379.49,487.556 1379.49,487.556C1379.57,487.283 1379.42,486.991 1379.15,486.905C1378.88,486.818 1378.58,486.97 1378.5,487.243C1378.5,487.243 1375.04,497.255 1370.97,509.445C1369.37,514.217 1367.67,519.316 1366.07,524.287C1364.96,527.715 1363.9,531.08 1362.94,534.226C1361,540.556 1359.44,545.998 1358.54,549.247C1357.39,553.488 1357.42,556.883 1358.01,559.553C1359.39,565.854 1363.85,568.215 1363.85,568.215C1364.31,568.471 1364.89,568.307 1365.14,567.849C1365.4,567.392 1365.24,566.813 1364.78,566.558Z"/>
                    </g>
                    <g transform="matrix(0.983926,-0.178576,0.178576,0.983926,-66.3243,316.467)">
                        <path d="M1698.5,527.528C1698.47,527.562 1698.5,527.68 1698.51,527.721L1698.5,527.528C1698.5,527.519 1698.52,527.516 1698.53,527.522C1698.93,527.681 1697.83,528.621 1697.67,529.022C1697.56,529.296 1697.55,529.532 1697.58,529.701C1697.67,530.24 1698.03,530.831 1698.68,531.398C1699.75,532.329 1701.71,533.317 1704.09,534.264C1709.28,536.325 1716.52,538.288 1720.44,539.529C1720.71,539.62 1721.01,539.473 1721.1,539.201C1721.19,538.929 1721.04,538.635 1720.77,538.544C1716.92,537.195 1709.78,535.031 1704.69,532.833C1702.88,532.054 1701.34,531.274 1700.32,530.523C1699.82,530.153 1699.44,529.84 1699.34,529.508C1699.33,529.472 1699.32,529.439 1699.32,529.42C1699.32,529.45 1699.33,529.479 1699.34,529.508C1699.36,529.601 1699.38,529.718 1699.31,529.686C1698.99,529.551 1699.87,528.851 1700.08,528.48C1700.27,528.146 1700.33,527.842 1700.33,527.652C1700.22,523.238 1703.05,517.353 1703.9,508.603C1704.27,504.756 1704.26,500.371 1703.5,495.339C1702.95,491.836 1703.05,488.062 1703.58,484.155C1704.32,478.771 1705.89,473.143 1707.91,467.627C1709.92,462.127 1712.35,456.739 1714.83,451.824C1721.26,439.033 1727.96,429.448 1727.96,429.448C1728.26,429.022 1728.16,428.428 1727.74,428.123C1727.31,427.818 1726.72,427.916 1726.41,428.342C1726.41,428.342 1719.4,437.881 1712.67,450.718C1710.07,455.678 1707.52,461.128 1705.43,466.71C1703.3,472.4 1701.65,478.226 1700.92,483.798C1700.37,487.974 1700.34,492.012 1700.96,495.749C1701.79,500.539 1701.87,504.725 1701.6,508.407C1700.95,517.127 1698.36,523.096 1698.5,527.528Z"/>
                    </g>
                    <path d="M1766.72,428.152C1766.72,428.152 1762.96,441.292 1758.06,457.563C1756.18,463.803 1754.14,470.503 1752.08,477.101C1749.96,483.893 1747.82,490.575 1745.81,496.529C1744.18,501.388 1742.65,505.765 1741.26,509.308C1738.29,516.975 1735.27,525.103 1733.69,532.673C1732.43,538.709 1732.07,544.396 1733.3,549.224C1735.3,557.059 1741.4,562.76 1754.77,563.983C1755.06,564.013 1755.31,563.806 1755.34,563.521C1755.37,563.236 1755.16,562.98 1754.88,562.951C1742.39,561.487 1736.67,556.2 1734.98,548.818C1733.93,544.209 1734.43,538.827 1735.74,533.124C1737.46,525.702 1740.57,517.75 1743.63,510.251C1745.07,506.688 1746.69,502.293 1748.36,497.393C1750.39,491.425 1752.53,484.712 1754.61,477.882C1756.63,471.259 1758.6,464.523 1760.39,458.246C1765.07,441.888 1768.55,428.654 1768.55,428.654C1768.69,428.149 1768.39,427.626 1767.89,427.488C1767.38,427.349 1766.86,427.646 1766.72,428.152Z"/>
                </g>
                <path d="M2018.2,408.125C2018.2,408.125 2012.58,409.715 2006.34,411.423C2004.77,411.853 2003.16,412.298 2001.6,412.73C2000.52,413.028 1999.46,413.323 1998.45,413.604C1996.61,414.114 1994.93,414.582 1993.55,414.891C1989.02,415.963 1987.2,416.64 1986.01,418.408C1985.06,419.83 1984.55,422.027 1983.38,425.987C1983.28,426.258 1983.43,426.554 1983.7,426.648C1983.97,426.742 1984.26,426.599 1984.36,426.328C1985.8,422.731 1986.43,420.708 1987.44,419.457C1987.96,418.809 1988.61,418.44 1989.59,418.126C1990.65,417.784 1992.05,417.54 1994,417.234C1995.69,416.946 1997.83,416.509 2000.12,415.927C2001.42,415.598 2002.76,415.218 2004.11,414.821C2006.12,414.228 2008.15,413.59 2010.02,412.974C2014.92,411.362 2018.79,409.931 2018.79,409.931C2019.29,409.769 2019.56,409.233 2019.4,408.735C2019.24,408.236 2018.7,407.963 2018.2,408.125Z"/>
                <path d="M1902.23,386.612C1902.23,386.612 1898.53,393.896 1893.67,403.824C1892.6,406.017 1891.47,408.342 1890.33,410.75C1889.61,412.268 1888.88,413.819 1888.16,415.393C1886.4,419.237 1884.63,423.199 1882.9,427.082C1880.08,433.457 1877.42,439.62 1875.21,444.703C1875.09,444.962 1875.2,445.271 1875.46,445.393C1875.72,445.515 1876.03,445.404 1876.15,445.144C1878.65,440.199 1881.72,434.232 1884.85,428.002C1886.76,424.208 1888.7,420.328 1890.56,416.528C1891.32,414.972 1892.06,413.427 1892.77,411.908C1893.91,409.499 1895,407.159 1896.02,404.94C1900.63,394.895 1903.94,387.426 1903.94,387.426C1904.17,386.953 1903.97,386.386 1903.49,386.162C1903.02,385.937 1902.45,386.139 1902.23,386.612Z"/>
                <path d="M2056.21,425.238C2056.21,425.238 2049,427.033 2041.49,428.421C2038.03,429.06 2034.51,429.614 2031.62,429.86C2027.27,430.23 2025,431.73 2023.71,433.948C2022.03,436.815 2022.14,441.159 2021.6,446.467C2021.21,450.325 2022.29,462.251 2023.9,475.488C2024.96,484.153 2026.24,493.385 2027.46,501.261C2028.61,508.734 2029.71,514.989 2030.46,518.398C2032.09,525.714 2034.75,540.793 2040.09,552.651C2043.99,561.306 2049.34,568.22 2056.58,569.535C2062.74,570.651 2068.06,569.701 2072.65,567.659C2080.81,564.025 2086.66,556.914 2090.88,552.057C2091.07,551.842 2091.05,551.514 2090.84,551.324C2090.63,551.134 2090.3,551.154 2090.11,551.368C2085.89,556.034 2080.09,562.903 2072.06,566.307C2067.7,568.152 2062.69,568.964 2056.9,567.813C2050.22,566.488 2045.53,559.857 2042.04,551.79C2036.94,540.01 2034.5,525.094 2032.98,517.852C2032.26,514.47 2031.24,508.262 2030.12,500.854C2028.93,492.998 2027.64,483.795 2026.55,475.16C2024.9,462.177 2023.69,450.49 2024.04,446.702C2024.29,443.967 2024.34,441.498 2024.57,439.37C2024.76,437.706 2025.05,436.265 2025.71,435.105C2026.68,433.396 2028.49,432.394 2031.82,432.073C2034.77,431.787 2038.36,431.182 2041.88,430.484C2049.43,428.988 2056.68,427.077 2056.68,427.077C2057.19,426.947 2057.5,426.429 2057.37,425.922C2057.24,425.414 2056.72,425.108 2056.21,425.238Z"/>
                <path d="M2056.45,426.158C2056.45,426.158 2041.5,401.374 2017.99,409.603C2017.99,409.603 1988.94,411.45 1987.93,433.954C1986.92,456.457 1991.79,477.916 2003.88,497.667C2015.98,517.418 2026.89,544.791 2026.89,544.791C2026.89,544.791 2017.32,487.357 2016.31,473.922C2015.31,460.487 2015.98,435.129 2028.24,432.442C2040.5,429.755 2051.41,428.438 2056.45,426.158Z" style="fill:rgb(235,67,63);"/>
                <path d="M2056.66,427.022C2056.8,426.911 2056.9,426.698 2056.95,426.439C2056.99,426.181 2056.97,425.899 2056.89,425.667L2057.26,425.667C2057.26,425.667 2051.12,415.387 2040.44,410.032C2034.28,406.936 2026.61,405.474 2017.76,408.492C2016.18,408.616 2002.55,409.908 1993.91,418.004C1989.94,421.721 1987.01,426.846 1986.67,433.897C1986.13,445.343 1987.1,456.526 1989.75,467.356C1992.38,478.068 1996.66,488.432 2002.73,498.372C2007.16,505.589 2011.43,513.835 2015.07,521.371C2021.35,534.358 2025.74,545.251 2025.74,545.251C2025.97,545.84 2026.62,546.157 2027.23,545.986C2027.84,545.816 2028.22,545.213 2028.12,544.587C2028.12,544.587 2023.33,516.552 2020.08,495.093C2018.68,485.879 2017.56,477.882 2017.24,473.853C2016.64,466.48 2016.54,455.476 2018.63,446.667C2020.26,439.824 2023.16,434.283 2028.38,433.109C2035.84,431.432 2042.79,430.265 2048.23,429.088C2051.77,428.321 2054.67,427.546 2056.66,426.63L2056.66,427.022ZM2055.27,426.077C2053.39,426.774 2050.91,427.376 2048,427.973C2042.54,429.09 2035.57,430.18 2028.09,431.775C2022.38,432.994 2018.97,438.857 2017.11,446.298C2014.88,455.253 2014.86,466.47 2015.39,473.992C2015.67,478.049 2016.71,486.109 2018.03,495.393C2019.93,508.705 2022.4,524.541 2024.01,534.677C2022.26,530.623 2020.02,525.603 2017.45,520.23C2013.8,512.601 2009.5,504.266 2005.04,496.962C1999.1,487.272 1994.92,477.162 1992.34,466.719C1989.71,456.135 1988.71,445.205 1989.19,434.01C1989.46,427.707 1992.05,423.113 1995.58,419.768C2004.15,411.638 2018.06,410.726 2018.06,410.726C2018.17,410.72 2018.27,410.699 2018.36,410.665C2026.6,407.75 2033.75,409.059 2039.52,411.898C2048.23,416.187 2053.83,423.923 2055.27,426.077Z"/>
                <g>
                    <path d="M1779.08,600.096C1779.08,600.096 1821.74,591.363 1843.88,560.613L1853.15,555.782C1853.15,555.782 1861.34,564.284 1856.62,579.87C1851.89,595.457 1867.95,643.432 1877.24,651.641C1886.53,659.85 1894.87,682.206 1948.56,689.921C1948.56,689.921 1910.93,665.79 1895.67,621.51C1880.42,577.229 1882.64,567.389 1881.16,543.035C1879.68,518.681 1876.24,443.897 1876.24,443.897C1876.24,443.897 1859.76,480.611 1850.66,494.972C1841.56,509.333 1819.17,539.099 1810.56,547.217C1801.95,555.335 1780.8,593.935 1779.08,600.096Z" style="fill:rgb(162,98,71);"/>
                    <path d="M1778.58,599.84C1778.53,600.159 1778.57,600.501 1778.7,600.743C1778.82,600.986 1779,601.093 1779.18,601.026L1779.27,601.026C1779.27,601.026 1796.89,597.459 1815.45,586.772C1825.86,580.778 1836.55,572.545 1844.62,561.469C1844.62,561.47 1852.87,557.189 1852.87,557.189C1853.89,558.541 1856.14,562.041 1856.77,567.479C1857.16,570.8 1856.94,574.833 1855.51,579.534C1853.15,587.251 1855.71,602.793 1860.14,617.67C1864.81,633.369 1871.55,648.298 1876.4,652.595C1882.67,658.152 1888.54,670.097 1908.03,679.74C1917.62,684.485 1930.51,688.671 1948.37,691.249C1948.99,691.339 1949.6,690.981 1949.82,690.389C1950.04,689.797 1949.82,689.132 1949.28,688.791C1949.28,688.791 1933.21,678.458 1917.89,658.945C1909.9,648.768 1902.11,636.097 1896.93,621.077C1891.08,604.156 1887.8,592.288 1885.89,582.714C1882.83,567.354 1883.3,557.899 1882.37,542.962C1881.83,534.275 1881.02,519.168 1880.21,503.33C1878.74,474.779 1877.24,443.851 1877.24,443.851C1877.22,443.388 1876.88,443 1876.43,442.913C1875.97,442.827 1875.52,443.064 1875.33,443.487C1875.33,443.487 1868.19,459.474 1860.74,474.478C1856.91,482.188 1853,489.638 1849.93,494.511C1844.86,502.557 1835.64,515.442 1827,526.646C1820.24,535.414 1813.85,543.153 1810.09,546.716C1806.65,549.973 1801.22,558.072 1795.84,567.052C1787.69,580.634 1779.61,596.225 1778.58,599.956L1778.58,599.84ZM1780.05,598.901C1782.14,593.671 1789.51,579.87 1796.9,567.696C1802.26,558.877 1807.63,550.91 1811.03,547.719C1814.84,544.145 1821.34,536.381 1828.2,527.575C1836.93,516.372 1846.25,503.484 1851.38,495.433C1854.51,490.539 1858.49,483.052 1862.39,475.301C1867.69,464.757 1872.83,453.723 1875.42,448.098C1875.84,457.469 1876.89,481.178 1877.94,503.442C1878.69,519.294 1879.44,534.414 1879.95,543.109C1880.84,558.177 1880.33,567.711 1883.38,583.212C1885.27,592.876 1888.56,604.857 1894.42,621.942C1899.69,637.275 1907.62,650.223 1915.77,660.611C1926.28,674.016 1937.17,683.163 1943.16,687.712C1928.51,685.188 1917.57,681.508 1909.2,677.383C1890.01,667.931 1884.27,656.141 1878.08,650.688C1873.39,646.556 1867.03,632.096 1862.48,616.97C1858.17,602.627 1855.48,587.66 1857.73,580.207C1859.25,575.136 1859.46,570.79 1859.03,567.212C1858.08,559.224 1853.96,555.007 1853.96,555.007C1853.61,554.65 1853.07,554.562 1852.63,554.791L1843.37,559.638C1843.22,559.717 1843.09,559.831 1842.99,559.971C1835.13,570.927 1824.63,579.062 1814.42,584.995C1799,593.955 1784.22,597.901 1780.05,598.901Z"/>
                    <path d="M1878.3,485.39C1878.3,485.39 1874.92,486.132 1870.21,487.675C1868.59,488.21 1866.8,488.843 1864.95,489.584C1863.54,490.146 1862.1,490.765 1860.66,491.459C1859.27,492.134 1857.88,492.881 1856.52,493.675C1854.21,495.029 1852.01,496.525 1850.07,498.139C1847.88,499.948 1846.04,501.897 1844.74,503.957C1844.58,504.191 1844.63,504.515 1844.87,504.68C1845.1,504.845 1845.43,504.789 1845.59,504.555C1847.01,502.739 1848.95,501.103 1851.16,499.586C1853.16,498.213 1855.39,496.973 1857.69,495.824C1859.05,495.145 1860.43,494.51 1861.8,493.89C1863.21,493.25 1864.61,492.631 1865.97,492.056C1867.76,491.294 1869.48,490.599 1871.04,489.993C1875.56,488.241 1878.79,487.225 1878.79,487.225C1879.29,487.091 1879.6,486.571 1879.46,486.064C1879.33,485.558 1878.81,485.256 1878.3,485.39Z"/>
                    <path d="M1868.12,633.405C1868.12,633.405 1871.92,637.421 1882.05,642.91C1884.63,644.307 1887.62,645.797 1891.09,647.301C1892.99,648.129 1895.05,648.935 1897.24,649.768C1898.03,650.177 1903.73,653.168 1909.62,656.729C1912.4,658.413 1915.23,660.208 1917.58,661.946C1917.81,662.123 1918.13,662.085 1918.31,661.861C1918.49,661.636 1918.45,661.31 1918.23,661.132C1915.41,658.741 1911.87,656.183 1908.55,653.948C1903.15,650.317 1898.35,647.536 1898.35,647.536C1898.31,647.511 1898.26,647.489 1898.21,647.47C1896.29,646.669 1894.48,645.866 1892.77,645.103C1891.52,644.544 1890.32,644.003 1889.17,643.476C1885.74,641.898 1882.82,640.427 1880.35,639.093C1872.58,634.893 1869.45,632.049 1869.45,632.049C1869.07,631.682 1868.47,631.689 1868.1,632.063C1867.74,632.437 1867.74,633.039 1868.12,633.405Z"/>
                    <path d="M1878.5,503.308C1878.5,503.308 1873.55,503.399 1866.6,504.541C1864.2,504.936 1861.55,505.461 1858.8,506.161C1856.71,506.691 1854.56,507.316 1852.41,508.071C1850.34,508.799 1848.27,509.65 1846.23,510.611C1842.86,512.206 1839.61,514.113 1836.69,516.373C1833.71,518.679 1831.08,521.349 1829.01,524.427C1828.85,524.66 1828.9,524.984 1829.13,525.152C1829.36,525.32 1829.69,525.268 1829.85,525.036C1832.04,522.228 1834.75,519.868 1837.75,517.843C1840.69,515.856 1843.92,514.224 1847.23,512.845C1849.23,512.01 1851.27,511.28 1853.28,510.611C1855.38,509.915 1857.46,509.291 1859.47,508.748C1862.15,508.026 1864.72,507.435 1867.05,506.962C1873.78,505.595 1878.59,505.204 1878.59,505.204C1879.11,505.178 1879.52,504.733 1879.49,504.209C1879.47,503.686 1879.02,503.282 1878.5,503.308Z"/>
                    <path d="M1792.19,576.091C1792.19,576.091 1799.27,572.484 1806.52,568.339C1809.8,566.463 1813.11,564.465 1815.84,562.67C1817.96,561.247 1820.47,559.379 1823.33,557.269C1824.87,556.134 1826.51,554.929 1828.26,553.691C1832.03,551.009 1836.3,548.187 1841.08,545.639C1846.66,542.666 1852.92,540.042 1859.91,538.457C1860.19,538.4 1860.37,538.126 1860.32,537.846C1860.26,537.565 1859.99,537.383 1859.71,537.439C1852.51,538.709 1845.99,541.043 1840.17,543.832C1835.18,546.222 1830.72,548.932 1826.79,551.564C1824.99,552.768 1823.31,553.96 1821.74,555.097C1818.9,557.162 1816.45,559.045 1814.35,560.458C1811.7,562.282 1808.46,564.297 1805.28,566.233C1798.18,570.55 1791.29,574.417 1791.29,574.417C1790.83,574.664 1790.66,575.24 1790.9,575.702C1791.15,576.164 1791.73,576.338 1792.19,576.091Z"/>
                    <path d="M1817.65,541.113C1817.65,541.113 1822.66,538.141 1829.86,534.27C1833.56,532.284 1837.84,530.074 1842.31,527.889C1844.52,526.81 1846.78,525.727 1849.04,524.688C1852.5,523.096 1855.97,521.601 1859.31,520.369C1867.06,517.509 1874.05,515.984 1878.33,517.796C1878.59,517.915 1878.9,517.8 1879.02,517.539C1879.13,517.278 1879.02,516.97 1878.76,516.851C1875.56,515.279 1870.75,515.379 1865.16,516.572C1861.14,517.431 1856.72,518.846 1852.23,520.581C1849.75,521.543 1847.24,522.598 1844.77,523.726C1842.29,524.862 1839.86,526.07 1837.52,527.281C1834.48,528.855 1831.61,530.443 1829.02,531.928C1821.68,536.141 1816.64,539.507 1816.64,539.507C1816.19,539.786 1816.06,540.373 1816.34,540.816C1816.62,541.259 1817.21,541.392 1817.65,541.113Z"/>
                    <path d="M1819.64,569.184C1819.5,569.288 1819.22,569.47 1818.67,569.798C1817.27,570.641 1814.21,572.361 1807.45,575.852C1805.79,576.734 1804.12,577.591 1802.5,578.465C1800.81,579.371 1799.17,580.274 1797.59,581.156C1795.5,582.328 1793.53,583.462 1791.76,584.488C1786.58,587.479 1783.05,589.565 1783.05,589.565C1782.59,589.812 1782.42,590.388 1782.66,590.85C1782.91,591.312 1783.49,591.486 1783.95,591.238C1783.95,591.238 1787.65,589.447 1792.96,586.682C1794.79,585.734 1796.8,584.675 1798.9,583.513C1800.49,582.639 1802.12,581.707 1803.78,580.734C1805.37,579.795 1806.97,578.802 1808.57,577.82C1812.57,575.309 1815.22,573.599 1816.97,572.419C1818.9,571.118 1819.76,570.468 1820.14,570.149C1820.36,569.963 1820.46,569.868 1820.5,569.82C1820.57,569.734 1820.59,569.687 1820.6,569.663C1820.63,569.595 1820.64,569.555 1820.64,569.535C1820.65,569.501 1820.65,569.47 1820.65,569.47C1820.65,569.47 1820.13,569.955 1820.13,569.955C1819.93,569.215 1819.75,569.121 1819.67,569.232L1819.66,569.215L1819.64,569.184L1819.69,569.146C1819.7,569.134 1819.73,569.128 1819.72,569.121C1819.49,568.874 1819.52,568.978 1819.64,569.184Z"/>
                    <path d="M1857.79,567.857C1857.79,567.857 1860.65,568.197 1863.48,569.563C1865.07,570.333 1866.67,571.433 1867.62,573.118C1868.32,574.268 1869.09,575.343 1869.98,576.276C1871.36,577.725 1872.98,578.884 1874.9,579.649C1877.49,580.679 1880.59,581.016 1884.42,580.387C1884.71,580.357 1884.91,580.102 1884.88,579.817C1884.86,579.532 1884.6,579.325 1884.32,579.354C1880.79,579.506 1878.03,578.877 1875.8,577.704C1874.52,577.033 1873.44,576.157 1872.48,575.154C1871.52,574.149 1870.67,573.008 1869.94,571.738C1868.89,570.041 1867.38,568.779 1865.72,567.918C1862.07,566.029 1857.9,565.962 1857.9,565.962C1857.38,565.93 1856.93,566.329 1856.9,566.852C1856.87,567.375 1857.27,567.825 1857.79,567.857Z"/>
                    <path d="M1839.15,567.492C1839.15,567.492 1841.87,564.252 1846.19,560.632C1847.74,559.332 1849.5,557.986 1851.42,556.713C1852.88,555.737 1854.44,554.812 1856.07,553.98C1857.65,553.173 1859.29,552.45 1861,551.891C1866.34,550.141 1872.25,549.971 1878.27,553.348C1878.52,553.497 1878.84,553.42 1878.99,553.176C1879.14,552.931 1879.06,552.611 1878.82,552.462C1872.6,548.332 1866.18,548 1860.3,549.547C1858.42,550.041 1856.61,550.738 1854.87,551.578C1853.12,552.429 1851.46,553.433 1849.92,554.499C1847.93,555.867 1846.13,557.347 1844.57,558.78C1840.24,562.744 1837.65,566.327 1837.65,566.327C1837.33,566.74 1837.4,567.337 1837.81,567.659C1838.23,567.98 1838.83,567.905 1839.15,567.492Z"/>
                    <path d="M2085.72,438.128L2069.72,438.629C2069.33,438.646 2068.98,438.864 2068.79,439.207C2068.79,439.207 2063.16,449.144 2060.8,463.275C2060.14,467.224 2059.74,471.5 2059.79,475.973C2059.84,480.07 2060.28,484.332 2061.23,488.66C2062.39,493.817 2063.55,498.872 2064.89,503.571C2067.37,512.216 2070.44,519.671 2074.98,524.461C2080.45,530.232 2088.05,532.279 2099.38,527.829C2099.64,527.729 2099.78,527.429 2099.68,527.161C2099.58,526.893 2099.28,526.757 2099.01,526.858C2088.32,530.694 2081.26,528.767 2076.31,523.24C2072.71,519.229 2070.22,513.38 2068.2,506.586C2066.51,500.915 2065.14,494.594 2063.81,488.104C2062.92,483.952 2062.54,479.866 2062.49,475.94C2062.44,471.628 2062.8,467.507 2063.39,463.694C2065.23,451.896 2069.37,443.055 2070.47,440.833C2070.47,440.832 2085.8,440.025 2085.8,440.025C2086.32,440.003 2086.73,439.56 2086.71,439.036C2086.68,438.513 2086.24,438.106 2085.72,438.128Z"/>
                    <path d="M2085.76,439.076C2085.76,439.076 2071.86,468.824 2085.46,486.289C2099.06,503.755 2099.06,506.274 2101.41,509.296C2103.76,512.319 2111.83,519.709 2120.39,516.518C2128.95,513.327 2152.22,501.068 2168.46,470.671C2168.46,470.671 2126.36,441.908 2085.76,439.076Z" style="fill:rgb(235,67,63);"/>
                    <path d="M2085.8,438.129C2085.58,438.102 2085.38,438.319 2085.29,438.674L2084.9,438.674C2084.9,438.674 2078.08,453.066 2078.4,467.84C2078.54,474.589 2080.17,481.407 2084.51,487.029C2088.17,491.762 2090.83,495.397 2092.82,498.238C2098.2,505.938 2098.67,507.879 2100.39,510.097C2102.01,512.2 2106.23,516.29 2111.51,517.925C2114.4,518.822 2117.6,518.99 2120.86,517.778C2126.29,515.749 2137.57,510.158 2149.24,498.68C2156.23,491.802 2163.36,482.797 2169.48,471.214C2169.76,470.696 2169.6,470.052 2169.11,469.72C2169.11,469.72 2152.1,458.237 2129.24,449.176C2115.99,443.922 2100.78,439.489 2085.8,438.558L2085.8,438.129ZM2086.54,439.661C2101.1,440.911 2115.79,445.477 2128.6,450.769C2148.1,458.823 2163.26,468.582 2166.95,471.04C2160.97,481.87 2154.1,490.299 2147.4,496.805C2136.05,507.848 2125.18,513.304 2119.92,515.257C2116.54,516.523 2113.24,515.93 2110.42,514.669C2106.65,512.979 2103.69,510.093 2102.44,508.496C2100.73,506.309 2100.27,504.379 2094.88,496.787C2092.85,493.935 2090.14,490.293 2086.41,485.55C2082.34,480.371 2080.81,474.043 2080.62,467.781C2080.2,454.434 2085.79,441.347 2086.54,439.661L2086.54,439.661Z"/>
                    <path d="M1979.39,443.103C1979.39,443.103 1979.29,471.439 1980.35,492.643C1980.83,502.343 1981.57,510.568 1982.62,514.016C1983.86,518.062 1985.32,526.679 1987.31,536.953C1988.71,544.166 1990.36,552.19 1992.35,560.036C1995.2,571.263 1998.76,582.121 2003.17,589.786C2009.87,601.386 2014.49,608.547 2018.59,613.189C2021.9,616.94 2024.89,619.084 2028.34,620.588C2028.44,620.634 2028.56,620.66 2028.67,620.665C2028.67,620.665 2042.56,621.121 2056.05,617.71C2062.18,616.16 2068.22,613.812 2072.85,610.276C2073.08,610.104 2073.12,609.778 2072.95,609.549C2072.78,609.32 2072.45,609.273 2072.23,609.445C2067.65,612.813 2061.72,614.988 2055.73,616.398C2043.29,619.324 2030.56,618.944 2028.92,618.88C2024.95,617.049 2021.67,614.265 2017.65,608.833C2014.26,604.262 2010.38,597.852 2005.21,588.623C2001.95,582.823 1999.24,575.168 1996.91,566.941C1994.44,558.205 1992.42,548.821 1990.72,540.284C1988.31,528.22 1986.53,517.833 1985.11,513.25C1984.07,509.909 1983.35,501.924 1982.79,492.51C1981.55,471.365 1981.29,443.097 1981.29,443.097C1981.29,442.573 1980.86,442.149 1980.34,442.151C1979.81,442.152 1979.39,442.579 1979.39,443.103Z"/>
                    <path d="M1855.74,580.249C1855.74,580.249 1857.8,585.507 1863.15,591.447C1864.28,592.695 1865.56,593.965 1866.99,595.212C1867.87,595.97 1868.8,596.719 1869.81,597.44C1872.07,599.069 1874.65,600.597 1877.54,601.918C1881.25,603.607 1885.48,604.937 1890.26,605.739C1890.54,605.799 1890.82,605.619 1890.88,605.339C1890.94,605.059 1890.76,604.783 1890.48,604.724C1885.92,603.555 1881.97,601.88 1878.51,599.991C1875.84,598.541 1873.49,596.943 1871.39,595.316C1870.47,594.599 1869.59,593.882 1868.76,593.166C1867.4,591.987 1866.16,590.811 1865.06,589.668C1859.8,584.245 1857.49,579.491 1857.49,579.491C1857.28,579.011 1856.72,578.791 1856.24,579C1855.76,579.209 1855.54,579.769 1855.74,580.249Z"/>
                    <path d="M1856.32,600.292C1856.32,600.292 1859.13,603.854 1863.7,608.455C1865.28,610.047 1867.08,611.762 1869.04,613.486C1870.53,614.791 1872.11,616.107 1873.78,617.369C1875.39,618.591 1877.09,619.761 1878.83,620.859C1881.77,622.71 1884.83,624.347 1887.93,625.601C1891.26,626.951 1894.62,627.848 1897.89,628.09C1898.18,628.122 1898.43,627.917 1898.47,627.632C1898.5,627.348 1898.29,627.091 1898.01,627.059C1894.9,626.587 1891.77,625.459 1888.67,623.944C1885.77,622.529 1882.93,620.755 1880.19,618.825C1878.55,617.674 1876.97,616.46 1875.42,615.244C1873.81,613.982 1872.26,612.714 1870.79,611.463C1868.84,609.802 1867.02,608.183 1865.41,606.686C1860.76,602.359 1857.77,599.067 1857.77,599.067C1857.43,598.667 1856.84,598.616 1856.44,598.954C1856.04,599.292 1855.99,599.892 1856.32,600.292Z"/>
                    <path d="M1930.91,674.103C1930.91,674.103 1927.56,672.052 1922.68,669.768C1921.62,669.269 1920.47,668.767 1919.27,668.282C1918.52,667.978 1917.74,667.681 1916.95,667.404C1915.03,666.736 1913.01,666.136 1910.98,665.636C1907.83,664.86 1904.66,664.35 1901.74,664.217C1901.46,664.187 1901.2,664.393 1901.17,664.678C1901.14,664.963 1901.35,665.219 1901.63,665.249C1904.43,665.719 1907.4,666.636 1910.36,667.698C1911.97,668.273 1913.56,668.902 1915.11,669.524C1916.18,669.953 1917.24,670.382 1918.26,670.791C1920.42,671.655 1922.44,672.473 1924.17,673.205C1927.68,674.696 1930.01,675.774 1930.01,675.774C1930.47,676.022 1931.05,675.85 1931.29,675.389C1931.54,674.928 1931.37,674.352 1930.91,674.103Z"/>
                </g>
                <path d="M1974.04,397.434C1974.04,397.434 1969.56,399.466 1963.35,402.268C1961.15,403.259 1958.73,404.34 1956.22,405.488C1953.9,406.549 1951.51,407.659 1949.13,408.767C1945.44,410.484 1941.79,412.197 1938.48,413.628C1934.9,415.173 1931.75,416.43 1929.41,417.088C1929.13,417.155 1928.96,417.435 1929.03,417.714C1929.09,417.992 1929.38,418.164 1929.65,418.098C1933.04,417.422 1938.16,415.759 1943.76,413.63C1946.73,412.502 1949.83,411.253 1952.87,409.948C1954.08,409.428 1955.28,408.891 1956.46,408.352C1958.3,407.507 1960.09,406.658 1961.78,405.832C1969.26,402.175 1974.88,399.134 1974.88,399.134C1975.35,398.901 1975.54,398.33 1975.31,397.861C1975.08,397.392 1974.51,397.201 1974.04,397.434Z"/>
                <path d="M2079.49,526.654C2079.49,526.654 2058.63,521.952 2052.92,495.922C2047.21,469.892 2049.73,471.403 2049.73,471.403C2049.73,471.403 2032.94,438.32 2048.72,428.748C2048.72,428.748 2068.71,417.497 2084.33,439.076L2070.05,439.076C2070.05,439.076 2060.79,455.785 2061.14,475.602C2061.14,475.602 2063.74,516.578 2079.49,526.654Z" style="fill:rgb(235,67,63);"/>
                <path d="M2048.21,471.184L2048.2,471.203C2048.06,471.569 2047.89,472.286 2047.92,473.687C2047.98,476.489 2048.76,482.657 2051.78,496.172C2053.71,504.775 2057.25,511.093 2061.16,515.704C2069.4,525.43 2079.28,527.58 2079.28,527.58L2079.28,527.161C2079.73,527.216 2080.19,527.087 2080.37,526.854C2080.54,526.622 2080.39,526.353 2080,526.217L2079.77,526.217C2074.5,522.786 2070.79,515.789 2068.16,508.094C2063.19,493.551 2062.12,476.478 2062.07,475.58C2061.99,468.853 2063.04,462.508 2064.44,457.07C2066.65,448.48 2069.75,442.158 2070.75,440.244C2070.75,440.244 2084.33,440.313 2084.33,440.313C2084.79,440.313 2085.22,440.052 2085.43,439.639C2085.64,439.225 2085.6,438.728 2085.33,438.351C2080.05,431.002 2074.26,427.31 2068.88,425.648C2057.62,422.177 2048.06,427.571 2048.06,427.571C2048.05,427.578 2048.04,427.585 2048.02,427.593C2042.09,431.198 2040.3,437.837 2040.66,445.019C2041.22,455.922 2046.69,468.018 2048.21,471.184ZM2050.51,472.401C2050.63,472.31 2050.73,472.198 2050.81,472.067C2051.04,471.691 2051.06,471.222 2050.86,470.829C2050.86,470.829 2043.92,457.07 2043.34,444.887C2043.05,438.76 2044.34,433.005 2049.39,429.924C2049.82,429.687 2058.22,425.179 2068.11,428.167C2072.57,429.518 2077.33,432.397 2081.82,437.853C2081.82,437.853 2070.05,437.912 2070.05,437.912C2069.63,437.912 2069.24,438.142 2069.03,438.512C2069.03,438.512 2065.02,445.835 2062.4,456.558C2061.03,462.169 2060.04,468.711 2060.21,475.618C2060.21,475.632 2060.21,475.646 2060.21,475.661C2060.21,475.661 2061.47,493.489 2066.86,508.549C2069.08,514.732 2072,520.443 2075.79,524.302L2075.8,524.304C2072.4,522.773 2067.32,519.785 2062.79,514.333C2059.12,509.911 2055.82,503.87 2054.06,495.672C2051.21,482.424 2050.48,476.387 2050.44,473.645C2050.43,473.119 2050.48,472.666 2050.51,472.401ZM2049.18,472.544L2049.2,472.554L2049.16,472.537L2049.18,472.544ZM2049.12,472.518L2049.11,472.509L2049.11,472.508L2049.12,472.518Z"/>
                <path d="M1928.75,417.69C1928.75,417.69 1930.26,425.237 1947.67,425.816C1947.67,425.816 1954.65,423.279 1955.19,443.055C1955.73,462.831 1958.52,472.051 1960.89,478.189C1963.25,484.327 1970.88,514.206 1972.07,519.687C1973.25,525.169 1990.34,576.006 1994.1,580.628C1994.1,580.628 1977.87,526.029 1975.94,510.767C1974,495.505 1973.03,468.85 1973.68,458.639C1974.32,448.429 1976.26,426.611 1984.86,419.624C1984.86,419.624 1986.15,416.507 1995.6,415.003C2005.06,413.498 2004.85,411.026 2010.33,410.166C2015.81,409.306 2017.75,407.929 2017.75,407.929C2017.75,407.929 2007.21,391.787 1990.66,394.367C1990.66,394.367 1962.39,404.079 1955.41,407.929C1948.42,411.778 1935.2,417.152 1928.75,417.69Z" style="fill:rgb(235,67,63);"/>
                <path d="M1928.71,416.744C1928.56,416.766 1928.43,416.903 1928.34,417.119C1928.25,417.335 1928.21,417.61 1928.24,417.875L1927.82,417.875C1927.82,417.875 1928.46,421.634 1934.55,424.309C1937.43,425.573 1941.6,426.611 1947.63,426.829C1947.76,426.834 1947.89,426.813 1948.02,426.769C1948.02,426.769 1950.6,426.031 1952.41,431.123C1953.31,433.645 1953.98,437.429 1954.12,443.084C1954.34,452.274 1955.06,459.202 1956,464.608C1957.1,470.975 1958.52,475.246 1959.8,478.608C1960.77,481.143 1962.63,487.752 1964.56,495C1967.29,505.242 1970.15,516.756 1970.83,519.953C1971.51,523.114 1977.41,541.294 1983.05,557.084C1987.29,568.956 1991.43,579.472 1993.06,581.476C1993.46,581.973 1994.16,582.116 1994.73,581.816C1995.29,581.517 1995.57,580.859 1995.39,580.245C1995.39,580.245 1988.93,558.454 1983.66,538.574C1980.61,527.056 1977.94,516.185 1977.23,510.603C1976.31,503.499 1975.6,493.916 1975.16,484.684C1974.66,474.176 1974.52,464.125 1974.85,458.713C1975.2,452.786 1975.98,442.911 1978.27,434.349C1979.84,428.48 1982.1,423.22 1985.51,420.429C1985.64,420.32 1985.75,420.18 1985.81,420.021C1985.81,420.021 1986.37,418.946 1989.07,417.784C1990.6,417.125 1992.75,416.474 1995.76,415.984C1998.51,415.537 2000.47,415.01 2001.98,414.468C2005.65,413.156 2006.62,411.712 2010.47,411.094C2012.47,410.774 2014.01,410.388 2015.16,410.024C2017.4,409.317 2018.27,408.671 2018.27,408.671C2018.67,408.387 2018.78,407.84 2018.51,407.431C2018.51,407.431 2014.08,400.692 2006.46,396.525C2002.11,394.146 1996.73,392.6 1990.54,393.589C1990.49,393.597 1990.45,393.608 1990.4,393.623C1990.4,393.623 1979.14,397.542 1969.08,401.408C1963.18,403.677 1957.68,405.931 1955.1,407.369C1951.14,409.571 1945.17,412.275 1939.58,414.295C1935.4,415.803 1931.44,416.933 1928.71,417.173L1928.71,416.744ZM1929.91,418.082C1932.63,417.698 1936.21,416.682 1939.96,415.363C1945.63,413.368 1951.69,410.682 1955.72,408.488C1958.28,407.088 1963.73,404.909 1969.58,402.713C1979.19,399.106 1989.89,395.46 1990.85,395.134C1996.61,394.276 2001.61,395.766 2005.64,398.012C2011.26,401.145 2015.03,405.749 2016.4,407.606C2015.99,407.791 2015.4,408.021 2014.61,408.263C2013.52,408.599 2012.07,408.95 2010.18,409.239C2006.18,409.853 2005.15,411.301 2001.33,412.635C1999.9,413.138 1998.05,413.617 1995.45,414.021C1992.22,414.522 1989.92,415.214 1988.27,415.908C1985.4,417.117 1984.37,418.408 1984.04,418.957C1980.41,421.982 1977.88,427.53 1976.17,433.778C1973.77,442.481 1972.91,452.532 1972.51,458.566C1972.15,464.029 1972.23,474.181 1972.68,484.795C1973.08,494.103 1973.75,503.766 1974.64,510.93C1975.35,516.582 1977.99,527.599 1981.06,539.261C1982.7,545.486 1984.46,551.897 1986.11,557.769C1985.92,557.247 1985.73,556.721 1985.54,556.192C1979.91,540.551 1973.98,522.553 1973.3,519.421C1972.6,516.211 1969.68,504.652 1966.89,494.373C1964.9,487.029 1962.97,480.336 1961.98,477.77C1960.71,474.517 1959.33,470.383 1958.23,464.217C1957.27,458.897 1956.54,452.076 1956.27,443.026C1956.04,435.322 1954.83,430.905 1953.46,428.383C1952.27,426.183 1950.91,425.291 1949.84,424.928C1948.77,424.57 1947.92,424.702 1947.54,424.798C1941.93,424.612 1938.03,423.687 1935.33,422.52C1931.74,420.969 1930.38,419.03 1929.91,418.081L1929.91,418.082Z"/>
            </g>
        </g>
    </g>
</svg>
