<?xml version="1.0" encoding="UTF-8" standalone="no"?>
<!DOCTYPE svg PUBLIC "-//W3C//DTD SVG 1.1//EN" "http://www.w3.org/Graphics/SVG/1.1/DTD/svg11.dtd">
<svg width="100%" height="100%" viewBox="0 0 563 556" version="1.1" xmlns="http://www.w3.org/2000/svg" xmlns:xlink="http://www.w3.org/1999/xlink" xml:space="preserve" xmlns:serif="http://www.serif.com/" style="fill-rule:evenodd;clip-rule:evenodd;stroke-linejoin:round;stroke-miterlimit:2;">
    <g transform="matrix(1,0,0,1,-444.863,-422.656)">
        <g id="body">
            <g id="body1" serif:id="body">
                <path d="M944.255,976C944.255,976 910.141,846.355 816.929,799.268C816.929,799.268 798.191,785.335 789.542,776.206L623.779,776.206C623.779,776.206 447.445,845.624 447.445,976L944.255,976Z" style="fill:rgb(205,140,74);"/>
                <path d="M944.255,977.906C944.846,977.906 945.404,977.632 945.765,977.164C946.126,976.696 946.249,976.087 946.098,975.515C946.098,975.515 932.618,923.88 899.285,873.749C879.582,844.115 852.943,815.035 818.132,797.33C816.955,796.447 809.111,790.535 801.576,784.145C797.731,780.884 793.965,777.5 791.231,774.606C790.792,774.142 790.181,773.879 789.542,773.879L623.779,773.695C623.464,773.695 623.152,773.754 622.859,773.869C622.859,773.869 537.744,807.324 485.334,871.493C461.824,900.278 444.907,935.22 444.929,976C444.929,977.389 446.055,978.516 447.445,978.516L944.255,977.906ZM941.734,974.091C905.34,974.046 486.51,973.532 449.984,973.487C450.687,935.029 467.009,902.062 489.322,874.751C538.774,814.222 617.717,781.37 624.263,778.717C624.265,778.716 774.908,778.549 788.556,778.533C791.321,781.357 794.923,784.568 798.599,787.666C806.902,794.666 815.573,801.092 815.573,801.092C815.677,801.17 815.788,801.238 815.904,801.297C850.157,818.534 876.351,847.056 895.789,876.082C924.656,919.189 938.63,963.464 941.734,974.091L941.734,974.091Z"/>
            </g>
            <path d="M786.609,838.881C786.609,838.881 787.365,838.259 788.513,837.365C789.163,836.86 789.946,836.287 790.783,835.682C791.079,835.467 791.379,835.245 791.679,835.017C792.12,834.685 792.548,834.331 793.009,834.018C794.201,833.128 794.99,832.393 795.498,831.747C796.638,830.295 796.559,829.485 796.559,829.485C796.579,829.199 796.362,828.952 796.076,828.932C795.79,828.913 795.543,829.13 795.524,829.416C795.524,829.416 795.332,829.851 794.357,830.576C793.794,830.995 792.991,831.445 791.819,831.936C791.173,832.245 790.536,832.574 789.944,832.96C789.543,833.221 789.169,833.51 788.815,833.801C788.239,834.274 787.72,834.757 787.269,835.216C785.972,836.539 785.21,837.598 785.21,837.598C784.856,837.984 784.882,838.585 785.268,838.939C785.654,839.293 786.255,839.267 786.609,838.881Z"/>
            <g transform="matrix(1,0,0,1,-0.623335,5.60942)">
                <path d="M716.569,836.239C716.569,836.239 720.602,838.474 727.08,840.281C728.438,840.66 729.905,841.01 731.464,841.305C732.42,841.486 733.41,841.646 734.432,841.77C736.789,842.055 739.303,842.198 741.926,842.15C745.481,842.085 749.216,841.652 753.037,840.765C753.319,840.715 753.507,840.445 753.456,840.163C753.406,839.881 753.136,839.693 752.854,839.744C749.073,840.227 745.425,840.225 741.977,839.997C739.459,839.831 737.061,839.516 734.807,839.144C733.832,838.984 732.883,838.819 731.965,838.647C730.464,838.366 729.046,838.065 727.726,837.758C721.441,836.294 717.412,834.538 717.412,834.538C716.943,834.305 716.373,834.497 716.14,834.967C715.907,835.436 716.1,836.006 716.569,836.239Z"/>
            </g>
            <g transform="matrix(1,0,0,1,-4.32961,3.73921)">
                <path d="M649.291,793.951C649.291,793.951 652.064,795.542 656.151,798.177C657.517,799.058 659.027,800.054 660.639,801.136C661.824,801.932 663.06,802.78 664.337,803.654C665.537,804.475 666.775,805.314 668.019,806.191C670.017,807.6 672.036,809.081 673.994,810.65C675.956,812.22 677.859,813.847 679.613,815.56C679.807,815.771 680.136,815.784 680.346,815.59C680.557,815.395 680.57,815.067 680.375,814.856C677.977,811.986 675.253,809.227 672.398,806.704C670.452,804.985 668.461,803.374 666.492,801.91C665.661,801.292 664.83,800.709 664.01,800.154C662.69,799.26 661.402,798.438 660.174,797.694C654.445,794.222 650.157,792.262 650.157,792.262C649.691,792.023 649.119,792.207 648.879,792.673C648.64,793.139 648.825,793.712 649.291,793.951Z"/>
            </g>
            <path d="M593.269,976.704C593.269,976.704 594.722,974.317 596.345,971.106C596.714,970.377 597.074,969.602 597.414,968.799C597.633,968.282 597.84,967.754 598.021,967.217C598.489,965.827 598.869,964.437 599.212,963.125C600.139,959.586 600.675,956.852 600.675,956.852C600.887,956.345 600.647,955.76 600.14,955.548C599.632,955.336 599.047,955.575 598.835,956.083C598.835,956.083 597.265,958.384 595.397,961.53C594.704,962.696 593.981,963.942 593.321,965.251C593.065,965.757 592.835,966.276 592.621,966.794C592.288,967.6 591.989,968.401 591.729,969.175C590.584,972.586 589.904,975.296 589.904,975.296C589.516,976.225 589.955,977.294 590.883,977.682C591.812,978.071 592.881,977.632 593.269,976.704Z"/>
            <path d="M910.517,975.85C910.517,975.85 910.211,968.46 906.204,953.926C905.067,949.801 903.624,945.097 901.757,939.839C900.826,937.216 899.784,934.456 898.608,931.568C897.052,927.751 895.275,923.708 893.265,919.435C889.132,910.65 884.008,900.934 877.873,890.182C877.618,889.694 877.016,889.504 876.528,889.759C876.04,890.013 875.85,890.616 876.104,891.104C881.37,902.21 885.583,912.264 889.144,921.221C890.866,925.552 892.422,929.621 893.852,933.43C894.93,936.302 895.942,939.021 896.88,941.594C898.754,946.736 900.317,951.297 901.59,955.296C905.993,969.129 906.882,976.15 906.882,976.15C906.965,977.153 907.847,977.9 908.85,977.817C909.853,977.735 910.6,976.853 910.517,975.85Z"/>
        </g>
        <g id="krk">
            <path d="M808.069,809.237C808.069,809.237 768.348,773.259 790.976,706.838C813.604,640.418 795.769,620.43 770.553,616.432C745.338,612.435 622.644,579.532 627.872,602.595C633.099,625.658 630.639,621.968 638.942,640.418C647.244,658.868 653.629,727.268 624.723,778.134C624.723,778.134 624.191,779.341 624.665,779.547C627.236,780.665 636.898,784.603 648.971,791.62C652.983,793.952 658.216,796.697 662.529,799.641C671.425,805.712 680.646,815.439 689.502,821.815C702.237,830.983 721.213,836.198 730.382,838.545C770.815,848.892 811.451,820.307 808.069,809.237Z" style="fill:rgb(205,140,74);"/>
            <path d="M625.617,776.684C625.617,776.684 634.421,761.913 640.652,737.396C642.733,729.208 644.531,719.933 645.59,709.761C646.5,701.024 646.876,691.624 646.428,681.694C645.84,668.671 643.818,654.739 639.88,640.172C639.866,640.117 639.847,640.063 639.823,640.011C639.823,640.011 636.163,632.283 630.059,620.665C627.127,615.082 623.628,608.603 619.704,601.648C619.566,601.397 619.25,601.306 618.999,601.444C618.748,601.582 618.656,601.898 618.794,602.149C622.561,609.174 625.91,615.718 628.72,621.351C634.2,632.333 637.62,639.851 638.021,640.737C641.675,655.169 643.374,668.944 643.832,681.799C644.182,691.599 643.798,700.864 642.917,709.485C641.892,719.527 640.208,728.694 638.24,736.797C632.355,761.025 623.977,775.728 623.977,775.728C623.713,776.18 623.866,776.762 624.318,777.026C624.771,777.29 625.353,777.136 625.617,776.684Z"/>
            <path d="M803.049,653.938C803.027,653.976 803.01,654.016 802.999,654.057C802.954,654.227 802.687,655.304 802.06,657.86C800.609,663.782 797.222,677.666 790.165,706.645C783.231,735.189 783.331,756.46 786.339,772.023C791.13,796.809 803.276,807.305 806.565,809.747C805.487,812.803 800.761,823.71 786.117,831.448C775.956,836.817 761.087,840.66 739.449,839.435C739.423,839.433 739.396,839.433 739.37,839.433C739.37,839.433 726.706,839.44 707.23,829.821C698.825,825.671 689.164,819.742 678.712,811.26C678.701,811.252 678.691,811.244 678.68,811.236C678.68,811.236 658.468,795.963 641.976,785.791C634.956,781.461 628.593,778.062 624.703,777.083C624.196,776.953 623.678,777.26 623.549,777.768C623.419,778.275 623.726,778.793 624.233,778.923C628.97,780.152 637.437,785.169 646.232,790.958C660.956,800.651 676.552,812.556 677.239,813.081C687.811,821.757 697.587,827.835 706.103,832.09C725.602,841.833 738.551,842.088 739.338,842.095C761.608,843.364 776.922,839.373 787.376,833.825C805.732,824.085 809.309,809.552 809.309,809.552C809.446,809.01 809.216,808.442 808.74,808.148C808.74,808.148 794.084,799.059 788.547,771.587C785.455,756.251 785.193,735.263 791.786,707.032C798.553,677.984 801.801,664.068 803.192,658.131L803.744,655.775L804.064,654.438L804.082,654.349L804.084,654.34C804.091,654.313 804.095,654.286 804.096,654.258C804.162,653.746 803.913,653.568 803.634,653.585C803.426,653.512 803.194,653.584 803.049,653.938Z"/>
        </g>
        <g id="valrug1" transform="matrix(1,0,0,1,-1162.07,50.225)">
            <path d="M1948.56,689.921C1948.56,689.921 1965.88,702.859 1985.09,698.425C2004.31,693.992 2005.92,690.365 2010.35,681.901C2014.78,673.437 2020.43,655.837 2031.85,649.522C2043.27,643.208 2060.73,636.491 2067.99,613.517C2067.99,613.517 2088.14,601.426 2088.27,580.064C2088.41,558.703 2087.33,556.284 2087.33,556.284C2087.33,556.284 2098.94,542.537 2098.94,527.423C2098.94,527.423 2153.01,508.95 2168.46,469.821C2168.46,469.821 2117.75,440.6 2083.82,439.257C2083.82,439.257 2076.1,421.959 2056.45,426.158C2056.45,426.158 2041.5,402.479 2018.5,409.028C2018.5,409.028 2007.75,381.654 1970.97,400.463C1970.97,400.463 1945.61,361.67 1914.88,377.624C1914.88,377.624 1905.64,381.319 1902.28,388.372C1902.28,388.372 1894.39,382.998 1880.62,388.036C1880.62,388.036 1862.46,392.57 1851.3,389.044C1840.15,385.517 1829.06,387.028 1817.31,406.173C1817.31,406.173 1802.87,399.792 1795.31,409.028C1795.31,409.028 1774.32,401.639 1766.59,431.699C1766.59,431.699 1741.57,439.928 1736.87,453.027C1736.87,453.027 1660.77,525.439 1675.53,558.567C1690.29,591.695 1688,597.271 1734.25,592.679C1734.25,592.679 1762.02,585.934 1764.04,578.814C1764.04,578.814 1752.48,574.783 1748.18,570.887C1743.88,566.991 1738.51,561.886 1735.42,560.542C1735.42,560.542 1750.6,564.275 1758.53,563.953C1766.45,563.632 1766.99,568.469 1770.62,575.186C1774.25,581.904 1779.08,599.638 1779.08,599.638L1843.62,550.934L1865.92,547.038L1876.13,610.585L1908.24,669.833L1948.56,689.921" style="fill:rgb(104,126,62);"/>
            <path d="M1740.29,562.615C1742.78,563.132 1745.92,563.727 1749.06,564.182C1752.49,564.677 1755.92,565.004 1758.57,564.894C1761.46,564.773 1763.28,565.375 1764.61,566.593C1766.71,568.511 1767.72,571.758 1769.81,575.623C1771.03,577.883 1772.39,581.41 1773.66,585.074C1776.12,592.214 1778.22,599.871 1778.22,599.871C1778.3,600.156 1778.51,600.383 1778.79,600.478C1779.07,600.574 1779.38,600.524 1779.61,600.347L1843.94,551.674C1843.94,551.674 1865.3,547.914 1865.3,547.914C1865.3,547.914 1875.47,610.691 1875.47,610.691C1875.48,610.766 1875.5,610.839 1875.54,610.905L1907.73,670.11C1907.78,670.215 1907.87,670.3 1907.98,670.353L1947.62,690.033C1947.65,690.282 1947.78,690.519 1947.99,690.681C1947.99,690.681 1955.31,696.166 1965.76,698.863C1971.56,700.36 1978.31,700.996 1985.32,699.387C1994.74,697.221 2000.01,695.215 2003.45,692.783C2007.23,690.113 2008.86,686.93 2011.25,682.373C2013.97,677.202 2017.13,668.602 2021.81,661.279C2024.67,656.803 2028.09,652.802 2032.36,650.447C2038.88,646.846 2047.36,643.105 2054.82,636.343C2060.55,631.16 2065.68,624.217 2068.91,614.237C2070.6,613.154 2077.86,608.191 2083.26,599.858C2086.68,594.567 2089.35,587.927 2089.41,580.071C2089.47,572.206 2089.36,566.9 2089.2,563.334C2089.02,559.414 2088.76,557.487 2088.59,556.575C2089.78,555.077 2093.61,549.993 2096.53,543.216C2098.45,538.777 2099.96,533.617 2100.11,528.261C2104.68,526.596 2128.28,517.491 2147.52,500.373C2156.72,492.186 2164.92,482.169 2169.63,470.28C2169.85,469.703 2169.62,469.046 2169.09,468.737C2169.09,468.737 2145.39,455.062 2119.51,445.939C2107.67,441.762 2095.36,438.546 2084.64,437.991C2083.54,435.922 2079.91,429.978 2073.05,426.607C2068.93,424.584 2063.65,423.471 2057.05,424.695C2055.36,422.282 2049.57,414.68 2040.73,410.13C2034.81,407.087 2027.54,405.398 2019.24,407.451C2017.54,404.077 2011.32,393.948 1997.31,392.658C1990.62,392.042 1982.1,393.452 1971.41,398.735C1968.54,394.708 1956.92,379.541 1941.07,374.268C1933.03,371.595 1923.92,371.425 1914.3,376.403C1913.74,376.636 1909.27,378.554 1905.46,382.051C1904.06,383.338 1902.75,384.838 1901.74,386.539C1899.98,385.708 1896.51,384.46 1891.51,384.537C1888.35,384.585 1884.57,385.165 1880.22,386.747C1879.42,386.944 1871.38,388.849 1863,389.029C1859.07,389.113 1855.06,388.824 1851.71,387.765C1845.96,385.953 1840.24,385.44 1834.44,387.705C1828.67,389.962 1822.78,395.018 1816.77,404.549C1814.44,403.708 1808.69,401.985 1803.11,403.058C1800.15,403.626 1797.24,404.956 1794.87,407.544C1792.07,406.837 1783.08,405.344 1775.22,412.691C1771.44,416.224 1767.9,421.843 1765.53,430.713C1762.96,431.622 1753.46,435.191 1745.77,440.763C1741.31,443.994 1737.48,447.908 1735.8,452.326C1732.74,455.272 1697.04,490.009 1680.68,521.679C1673.46,535.663 1670.06,549.085 1674.5,559.027C1678.57,568.129 1681.35,575.156 1684.2,580.469C1687.24,586.147 1690.38,589.914 1695.1,592.225C1702.35,595.776 1713.48,595.816 1734.35,593.722C1734.4,593.717 1734.45,593.709 1734.49,593.698C1734.49,593.698 1747.96,590.408 1756.9,585.996C1759.43,584.746 1761.61,583.398 1763.06,582.019C1764.06,581.061 1764.73,580.07 1765.01,579.088C1765.15,578.575 1764.87,578.037 1764.37,577.861C1764.37,577.861 1759.29,576.095 1754.64,573.778C1752.38,572.652 1750.22,571.401 1748.85,570.155C1746.14,567.709 1743.01,564.789 1740.29,562.615ZM1948.08,689.101C1948.4,688.915 1948.81,688.925 1949.13,689.16C1949.13,689.16 1956.18,694.413 1966.24,696.987C1971.77,698.403 1978.2,699.009 1984.87,697.464C1993.92,695.367 1998.99,693.482 2002.29,691.142C2005.79,688.658 2007.24,685.66 2009.45,681.428C2012.17,676.213 2015.36,667.547 2020.05,660.16C2023.1,655.372 2026.78,651.123 2031.34,648.598C2037.73,645.052 2046.06,641.388 2053.37,634.74C2058.91,629.705 2063.86,622.941 2066.93,613.185C2067.01,612.927 2067.19,612.709 2067.42,612.57C2067.42,612.57 2075.55,607.677 2081.38,598.641C2084.58,593.668 2087.1,587.433 2087.14,580.057C2087.17,573.828 2087.1,569.215 2086.99,565.805C2086.73,557.914 2086.28,556.754 2086.28,556.754C2086.1,556.349 2086.16,555.877 2086.45,555.538C2086.45,555.538 2091.05,550.077 2094.38,542.292C2096.27,537.893 2097.76,532.746 2097.75,527.423C2097.75,526.917 2098.08,526.467 2098.55,526.304C2098.55,526.304 2124.87,517.286 2145.89,498.539C2154.53,490.823 2162.29,481.457 2166.89,470.37C2162.26,467.776 2141.3,456.317 2118.66,448.363C2106.78,444.19 2094.44,440.975 2083.77,440.558C2083.28,440.538 2082.84,440.24 2082.63,439.788C2082.63,439.788 2079.43,432.649 2071.9,428.958C2068.03,427.064 2063.02,426.096 2056.72,427.445C2056.18,427.561 2055.63,427.327 2055.34,426.86C2055.34,426.86 2049.49,417.611 2039.51,412.49C2033.87,409.591 2026.88,408.027 2018.86,410.312C2018.2,410.5 2017.51,410.155 2017.25,409.516C2017.25,409.516 2012.19,396.714 1997.06,395.327C1990.53,394.728 1982.17,396.246 1971.58,401.662C1970.97,401.975 1970.22,401.776 1969.84,401.2C1969.84,401.2 1957.75,382.667 1940.21,376.835C1932.79,374.369 1924.38,374.214 1915.5,378.822C1915.46,378.843 1915.42,378.861 1915.38,378.878C1915.38,378.878 1911.88,380.28 1908.5,382.998C1906.56,384.55 1904.65,386.533 1903.5,388.952C1903.33,389.307 1903.02,389.571 1902.64,389.674C1902.26,389.776 1901.85,389.708 1901.53,389.487C1901.53,389.487 1897.98,387.134 1891.55,387.231C1888.62,387.275 1885.12,387.825 1881.08,389.3C1881.04,389.317 1880.99,389.331 1880.95,389.342C1880.95,389.342 1872.2,391.525 1863.06,391.717C1858.82,391.806 1854.51,391.465 1850.9,390.322C1844.59,388.326 1838.31,387.993 1831.9,391.95C1827.48,394.681 1823.02,399.4 1818.43,406.863C1818.09,407.425 1817.38,407.646 1816.78,407.379C1816.78,407.379 1811.5,405.044 1805.79,405.369C1802.44,405.559 1798.92,406.675 1796.32,409.855C1795.97,410.28 1795.39,410.442 1794.88,410.26C1794.88,410.26 1785.23,406.895 1776.99,414.584C1773.37,417.953 1770.05,423.396 1767.83,432.018C1767.72,432.441 1767.41,432.78 1766.99,432.916C1766.99,432.916 1755.93,436.539 1747.25,442.807C1743.12,445.786 1739.52,449.35 1738.04,453.449C1737.98,453.632 1737.87,453.798 1737.73,453.932C1737.73,453.932 1707.68,482.478 1689.06,511.866C1683.21,521.105 1678.48,530.423 1676.22,538.956C1674.32,546.085 1674.14,552.649 1676.57,558.107C1680.59,567.156 1683.33,574.144 1686.15,579.426C1688.92,584.635 1691.75,588.143 1696.06,590.27C1703.08,593.725 1713.87,593.626 1734.07,591.643C1735.03,591.408 1744.9,588.951 1752.99,585.529C1756.15,584.193 1759.03,582.717 1760.96,581.159C1761.69,580.571 1762.28,579.986 1762.67,579.389C1760.91,578.736 1757.21,577.298 1753.75,575.56C1751.32,574.34 1749,572.967 1747.52,571.619C1744.8,569.15 1741.65,566.192 1738.93,564.023C1737.44,562.841 1736.1,561.895 1735.03,561.43C1734.57,561.23 1734.34,560.709 1734.5,560.232C1734.66,559.755 1735.16,559.481 1735.65,559.601C1735.65,559.601 1742.48,561.288 1749.34,562.297C1752.64,562.782 1755.94,563.113 1758.49,563.013C1762.05,562.873 1764.24,563.718 1765.87,565.216C1768.09,567.253 1769.22,570.65 1771.43,574.749C1772.68,577.078 1774.08,580.709 1775.37,584.483C1777.24,589.925 1778.89,595.664 1779.58,598.143L1843.14,550.308C1843.24,550.233 1843.36,550.183 1843.48,550.161L1865.79,546.294C1865.99,546.259 1866.19,546.306 1866.36,546.423C1866.52,546.54 1866.63,546.719 1866.66,546.918C1866.66,546.918 1876.78,610.366 1876.78,610.366C1876.78,610.366 1908.66,669.395 1908.66,669.395L1948.08,689.101Z"/>
            <path d="M2018.2,408.125C2018.2,408.125 2012.58,409.715 2006.34,411.423C2004.77,411.853 2003.16,412.298 2001.6,412.73C2000.52,413.028 1999.46,413.323 1998.45,413.604C1996.61,414.114 1994.93,414.582 1993.55,414.891C1989.02,415.963 1987.2,416.64 1986.01,418.408C1985.06,419.83 1984.55,422.027 1983.38,425.987C1983.28,426.258 1983.43,426.554 1983.7,426.648C1983.97,426.742 1984.26,426.599 1984.36,426.328C1985.8,422.731 1986.43,420.708 1987.44,419.457C1987.96,418.809 1988.61,418.44 1989.59,418.126C1990.65,417.784 1992.05,417.54 1994,417.234C1995.69,416.946 1997.83,416.509 2000.12,415.927C2001.42,415.598 2002.76,415.218 2004.11,414.821C2006.12,414.228 2008.15,413.59 2010.02,412.974C2014.92,411.362 2018.79,409.931 2018.79,409.931C2019.29,409.769 2019.56,409.233 2019.4,408.735C2019.24,408.236 2018.7,407.963 2018.2,408.125Z"/>
            <path d="M1902.23,386.612C1902.23,386.612 1898.53,393.896 1893.67,403.824C1892.6,406.017 1891.47,408.342 1890.33,410.75C1889.61,412.268 1888.88,413.819 1888.16,415.393C1886.4,419.237 1884.63,423.199 1882.9,427.082C1880.08,433.457 1877.42,439.62 1875.21,444.703C1875.09,444.962 1875.2,445.271 1875.46,445.393C1875.72,445.515 1876.03,445.404 1876.15,445.144C1878.65,440.199 1881.72,434.232 1884.85,428.002C1886.76,424.208 1888.7,420.328 1890.56,416.528C1891.32,414.972 1892.06,413.427 1892.77,411.908C1893.91,409.499 1895,407.159 1896.02,404.94C1900.63,394.895 1903.94,387.426 1903.94,387.426C1904.17,386.953 1903.97,386.386 1903.49,386.162C1903.02,385.937 1902.45,386.139 1902.23,386.612Z"/>
            <path d="M2056.21,425.238C2056.21,425.238 2049,427.033 2041.49,428.421C2038.03,429.06 2034.51,429.614 2031.62,429.86C2027.27,430.23 2025,431.73 2023.71,433.948C2022.03,436.815 2022.14,441.159 2021.6,446.467C2021.21,450.325 2022.29,462.251 2023.9,475.488C2024.96,484.153 2026.24,493.385 2027.46,501.261C2028.61,508.734 2029.71,514.989 2030.46,518.398C2032.09,525.714 2034.75,540.793 2040.09,552.651C2043.99,561.306 2049.34,568.22 2056.58,569.535C2062.74,570.651 2068.06,569.701 2072.65,567.659C2080.81,564.025 2086.66,556.914 2090.88,552.057C2091.07,551.842 2091.05,551.514 2090.84,551.324C2090.63,551.134 2090.3,551.154 2090.11,551.368C2085.89,556.034 2080.09,562.903 2072.06,566.307C2067.7,568.152 2062.69,568.964 2056.9,567.813C2050.22,566.488 2045.53,559.857 2042.04,551.79C2036.94,540.01 2034.5,525.094 2032.98,517.852C2032.26,514.47 2031.24,508.262 2030.12,500.854C2028.93,492.998 2027.64,483.795 2026.55,475.16C2024.9,462.177 2023.69,450.49 2024.04,446.702C2024.29,443.967 2024.34,441.498 2024.57,439.37C2024.76,437.706 2025.05,436.265 2025.71,435.105C2026.68,433.396 2028.49,432.394 2031.82,432.073C2034.77,431.787 2038.36,431.182 2041.88,430.484C2049.43,428.988 2056.68,427.077 2056.68,427.077C2057.19,426.947 2057.5,426.429 2057.37,425.922C2057.24,425.414 2056.72,425.108 2056.21,425.238Z"/>
            <path d="M2056.45,426.158C2056.45,426.158 2041.5,401.374 2017.99,409.603C2017.99,409.603 1988.94,411.45 1987.93,433.954C1986.92,456.457 1991.79,477.916 2003.88,497.667C2015.98,517.418 2026.89,544.791 2026.89,544.791C2026.89,544.791 2017.32,487.357 2016.31,473.922C2015.31,460.487 2015.98,435.129 2028.24,432.442C2040.5,429.755 2051.41,428.438 2056.45,426.158Z" style="fill:rgb(146,162,116);"/>
            <path d="M2056.66,427.022C2056.8,426.911 2056.9,426.698 2056.95,426.439C2056.99,426.181 2056.97,425.899 2056.89,425.667L2057.26,425.667C2057.26,425.667 2051.12,415.387 2040.44,410.032C2034.28,406.936 2026.61,405.474 2017.76,408.492C2016.18,408.616 2002.55,409.908 1993.91,418.004C1989.94,421.721 1987.01,426.846 1986.67,433.897C1986.13,445.343 1987.1,456.526 1989.75,467.356C1992.38,478.068 1996.66,488.432 2002.73,498.372C2007.16,505.589 2011.43,513.835 2015.07,521.371C2021.35,534.358 2025.74,545.251 2025.74,545.251C2025.97,545.84 2026.62,546.157 2027.23,545.986C2027.84,545.816 2028.22,545.213 2028.12,544.587C2028.12,544.587 2023.33,516.552 2020.08,495.093C2018.68,485.879 2017.56,477.882 2017.24,473.853C2016.64,466.48 2016.54,455.476 2018.63,446.667C2020.26,439.824 2023.16,434.283 2028.38,433.109C2035.84,431.432 2042.79,430.265 2048.23,429.088C2051.77,428.321 2054.67,427.546 2056.66,426.63L2056.66,427.022ZM2055.27,426.077C2053.39,426.774 2050.91,427.376 2048,427.973C2042.54,429.09 2035.57,430.18 2028.09,431.775C2022.38,432.994 2018.97,438.857 2017.11,446.298C2014.88,455.253 2014.86,466.47 2015.39,473.992C2015.67,478.049 2016.71,486.109 2018.03,495.393C2019.93,508.705 2022.4,524.541 2024.01,534.677C2022.26,530.623 2020.02,525.603 2017.45,520.23C2013.8,512.601 2009.5,504.266 2005.04,496.962C1999.1,487.272 1994.92,477.162 1992.34,466.719C1989.71,456.135 1988.71,445.205 1989.19,434.01C1989.46,427.707 1992.05,423.113 1995.58,419.768C2004.15,411.638 2018.06,410.726 2018.06,410.726C2018.17,410.72 2018.27,410.699 2018.36,410.665C2026.6,407.75 2033.75,409.059 2039.52,411.898C2048.23,416.187 2053.83,423.923 2055.27,426.077Z"/>
            <g>
                <path d="M1779.08,600.096C1779.08,600.096 1821.74,591.363 1843.88,560.613L1853.15,555.782C1853.15,555.782 1861.34,564.284 1856.62,579.87C1851.89,595.457 1867.95,643.432 1877.24,651.641C1886.53,659.85 1894.87,682.206 1948.56,689.921C1948.56,689.921 1910.93,665.79 1895.67,621.51C1880.42,577.229 1882.64,567.389 1881.16,543.035C1879.68,518.681 1876.24,443.897 1876.24,443.897C1876.24,443.897 1859.76,480.611 1850.66,494.972C1841.56,509.333 1819.17,539.099 1810.56,547.217C1801.95,555.335 1780.8,593.935 1779.08,600.096Z" style="fill:rgb(162,98,71);"/>
                <path d="M1778.58,599.84C1778.53,600.159 1778.57,600.501 1778.7,600.743C1778.82,600.986 1779,601.093 1779.18,601.026L1779.27,601.026C1779.27,601.026 1796.89,597.459 1815.45,586.772C1825.86,580.778 1836.55,572.545 1844.62,561.469C1844.62,561.47 1852.87,557.189 1852.87,557.189C1853.89,558.541 1856.14,562.041 1856.77,567.479C1857.16,570.8 1856.94,574.833 1855.51,579.534C1853.15,587.251 1855.71,602.793 1860.14,617.67C1864.81,633.369 1871.55,648.298 1876.4,652.595C1882.67,658.152 1888.54,670.097 1908.03,679.74C1917.62,684.485 1930.51,688.671 1948.37,691.249C1948.99,691.339 1949.6,690.981 1949.82,690.389C1950.04,689.797 1949.82,689.132 1949.28,688.791C1949.28,688.791 1933.21,678.458 1917.89,658.945C1909.9,648.768 1902.11,636.097 1896.93,621.077C1891.08,604.156 1887.8,592.288 1885.89,582.714C1882.83,567.354 1883.3,557.899 1882.37,542.962C1881.83,534.275 1881.02,519.168 1880.21,503.33C1878.74,474.779 1877.24,443.851 1877.24,443.851C1877.22,443.388 1876.88,443 1876.43,442.913C1875.97,442.827 1875.52,443.064 1875.33,443.487C1875.33,443.487 1868.19,459.474 1860.74,474.478C1856.91,482.188 1853,489.638 1849.93,494.511C1844.86,502.557 1835.64,515.442 1827,526.646C1820.24,535.414 1813.85,543.153 1810.09,546.716C1806.65,549.973 1801.22,558.072 1795.84,567.052C1787.69,580.634 1779.61,596.225 1778.58,599.956L1778.58,599.84ZM1780.05,598.901C1782.14,593.671 1789.51,579.87 1796.9,567.696C1802.26,558.877 1807.63,550.91 1811.03,547.719C1814.84,544.145 1821.34,536.381 1828.2,527.575C1836.93,516.372 1846.25,503.484 1851.38,495.433C1854.51,490.539 1858.49,483.052 1862.39,475.301C1867.69,464.757 1872.83,453.723 1875.42,448.098C1875.84,457.469 1876.89,481.178 1877.94,503.442C1878.69,519.294 1879.44,534.414 1879.95,543.109C1880.84,558.177 1880.33,567.711 1883.38,583.212C1885.27,592.876 1888.56,604.857 1894.42,621.942C1899.69,637.275 1907.62,650.223 1915.77,660.611C1926.28,674.016 1937.17,683.163 1943.16,687.712C1928.51,685.188 1917.57,681.508 1909.2,677.383C1890.01,667.931 1884.27,656.141 1878.08,650.688C1873.39,646.556 1867.03,632.096 1862.48,616.97C1858.17,602.627 1855.48,587.66 1857.73,580.207C1859.25,575.136 1859.46,570.79 1859.03,567.212C1858.08,559.224 1853.96,555.007 1853.96,555.007C1853.61,554.65 1853.07,554.562 1852.63,554.791L1843.37,559.638C1843.22,559.717 1843.09,559.831 1842.99,559.971C1835.13,570.927 1824.63,579.062 1814.42,584.995C1799,593.955 1784.22,597.901 1780.05,598.901Z"/>
                <path d="M1878.3,485.39C1878.3,485.39 1874.92,486.132 1870.21,487.675C1868.59,488.21 1866.8,488.843 1864.95,489.584C1863.54,490.146 1862.1,490.765 1860.66,491.459C1859.27,492.134 1857.88,492.881 1856.52,493.675C1854.21,495.029 1852.01,496.525 1850.07,498.139C1847.88,499.948 1846.04,501.897 1844.74,503.957C1844.58,504.191 1844.63,504.515 1844.87,504.68C1845.1,504.845 1845.43,504.789 1845.59,504.555C1847.01,502.739 1848.95,501.103 1851.16,499.586C1853.16,498.213 1855.39,496.973 1857.69,495.824C1859.05,495.145 1860.43,494.51 1861.8,493.89C1863.21,493.25 1864.61,492.631 1865.97,492.056C1867.76,491.294 1869.48,490.599 1871.04,489.993C1875.56,488.241 1878.79,487.225 1878.79,487.225C1879.29,487.091 1879.6,486.571 1879.46,486.064C1879.33,485.558 1878.81,485.256 1878.3,485.39Z"/>
                <path d="M1868.12,633.405C1868.12,633.405 1871.92,637.421 1882.05,642.91C1884.63,644.307 1887.62,645.797 1891.09,647.301C1892.99,648.129 1895.05,648.935 1897.24,649.768C1898.03,650.177 1903.73,653.168 1909.62,656.729C1912.4,658.413 1915.23,660.208 1917.58,661.946C1917.81,662.123 1918.13,662.085 1918.31,661.861C1918.49,661.636 1918.45,661.31 1918.23,661.132C1915.41,658.741 1911.87,656.183 1908.55,653.948C1903.15,650.317 1898.35,647.536 1898.35,647.536C1898.31,647.511 1898.26,647.489 1898.21,647.47C1896.29,646.669 1894.48,645.866 1892.77,645.103C1891.52,644.544 1890.32,644.003 1889.17,643.476C1885.74,641.898 1882.82,640.427 1880.35,639.093C1872.58,634.893 1869.45,632.049 1869.45,632.049C1869.07,631.682 1868.47,631.689 1868.1,632.063C1867.74,632.437 1867.74,633.039 1868.12,633.405Z"/>
                <path d="M1878.5,503.308C1878.5,503.308 1873.55,503.399 1866.6,504.541C1864.2,504.936 1861.55,505.461 1858.8,506.161C1856.71,506.691 1854.56,507.316 1852.41,508.071C1850.34,508.799 1848.27,509.65 1846.23,510.611C1842.86,512.206 1839.61,514.113 1836.69,516.373C1833.71,518.679 1831.08,521.349 1829.01,524.427C1828.85,524.66 1828.9,524.984 1829.13,525.152C1829.36,525.32 1829.69,525.268 1829.85,525.036C1832.04,522.228 1834.75,519.868 1837.75,517.843C1840.69,515.856 1843.92,514.224 1847.23,512.845C1849.23,512.01 1851.27,511.28 1853.28,510.611C1855.38,509.915 1857.46,509.291 1859.47,508.748C1862.15,508.026 1864.72,507.435 1867.05,506.962C1873.78,505.595 1878.59,505.204 1878.59,505.204C1879.11,505.178 1879.52,504.733 1879.49,504.209C1879.47,503.686 1879.02,503.282 1878.5,503.308Z"/>
                <path d="M1792.19,576.091C1792.19,576.091 1799.27,572.484 1806.52,568.339C1809.8,566.463 1813.11,564.465 1815.84,562.67C1817.96,561.247 1820.47,559.379 1823.33,557.269C1824.87,556.134 1826.51,554.929 1828.26,553.691C1832.03,551.009 1836.3,548.187 1841.08,545.639C1846.66,542.666 1852.92,540.042 1859.91,538.457C1860.19,538.4 1860.37,538.126 1860.32,537.846C1860.26,537.565 1859.99,537.383 1859.71,537.439C1852.51,538.709 1845.99,541.043 1840.17,543.832C1835.18,546.222 1830.72,548.932 1826.79,551.564C1824.99,552.768 1823.31,553.96 1821.74,555.097C1818.9,557.162 1816.45,559.045 1814.35,560.458C1811.7,562.282 1808.46,564.297 1805.28,566.233C1798.18,570.55 1791.29,574.417 1791.29,574.417C1790.83,574.664 1790.66,575.24 1790.9,575.702C1791.15,576.164 1791.73,576.338 1792.19,576.091Z"/>
                <path d="M1817.65,541.113C1817.65,541.113 1822.66,538.141 1829.86,534.27C1833.56,532.284 1837.84,530.074 1842.31,527.889C1844.52,526.81 1846.78,525.727 1849.04,524.688C1852.5,523.096 1855.97,521.601 1859.31,520.369C1867.06,517.509 1874.05,515.984 1878.33,517.796C1878.59,517.915 1878.9,517.8 1879.02,517.539C1879.13,517.278 1879.02,516.97 1878.76,516.851C1875.56,515.279 1870.75,515.379 1865.16,516.572C1861.14,517.431 1856.72,518.846 1852.23,520.581C1849.75,521.543 1847.24,522.598 1844.77,523.726C1842.29,524.862 1839.86,526.07 1837.52,527.281C1834.48,528.855 1831.61,530.443 1829.02,531.928C1821.68,536.141 1816.64,539.507 1816.64,539.507C1816.19,539.786 1816.06,540.373 1816.34,540.816C1816.62,541.259 1817.21,541.392 1817.65,541.113Z"/>
                <path d="M1819.64,569.184C1819.5,569.288 1819.22,569.47 1818.67,569.798C1817.27,570.641 1814.21,572.361 1807.45,575.852C1805.79,576.734 1804.12,577.591 1802.5,578.465C1800.81,579.371 1799.17,580.274 1797.59,581.156C1795.5,582.328 1793.53,583.462 1791.76,584.488C1786.58,587.479 1783.05,589.565 1783.05,589.565C1782.59,589.812 1782.42,590.388 1782.66,590.85C1782.91,591.312 1783.49,591.486 1783.95,591.238C1783.95,591.238 1787.65,589.447 1792.96,586.682C1794.79,585.734 1796.8,584.675 1798.9,583.513C1800.49,582.639 1802.12,581.707 1803.78,580.734C1805.37,579.795 1806.97,578.802 1808.57,577.82C1812.57,575.309 1815.22,573.599 1816.97,572.419C1818.9,571.118 1819.76,570.468 1820.14,570.149C1820.36,569.963 1820.46,569.868 1820.5,569.82C1820.57,569.734 1820.59,569.687 1820.6,569.663C1820.63,569.595 1820.64,569.555 1820.64,569.535C1820.65,569.501 1820.65,569.47 1820.65,569.47C1820.65,569.47 1820.13,569.955 1820.13,569.955C1819.93,569.215 1819.75,569.121 1819.67,569.232L1819.66,569.215L1819.64,569.184L1819.69,569.146C1819.7,569.134 1819.73,569.128 1819.72,569.121C1819.49,568.874 1819.52,568.978 1819.64,569.184Z"/>
                <path d="M1857.79,567.857C1857.79,567.857 1860.65,568.197 1863.48,569.563C1865.07,570.333 1866.67,571.433 1867.62,573.118C1868.32,574.268 1869.09,575.343 1869.98,576.276C1871.36,577.725 1872.98,578.884 1874.9,579.649C1877.49,580.679 1880.59,581.016 1884.42,580.387C1884.71,580.357 1884.91,580.102 1884.88,579.817C1884.86,579.532 1884.6,579.325 1884.32,579.354C1880.79,579.506 1878.03,578.877 1875.8,577.704C1874.52,577.033 1873.44,576.157 1872.48,575.154C1871.52,574.149 1870.67,573.008 1869.94,571.738C1868.89,570.041 1867.38,568.779 1865.72,567.918C1862.07,566.029 1857.9,565.962 1857.9,565.962C1857.38,565.93 1856.93,566.329 1856.9,566.852C1856.87,567.375 1857.27,567.825 1857.79,567.857Z"/>
                <path d="M1839.15,567.492C1839.15,567.492 1841.87,564.252 1846.19,560.632C1847.74,559.332 1849.5,557.986 1851.42,556.713C1852.88,555.737 1854.44,554.812 1856.07,553.98C1857.65,553.173 1859.29,552.45 1861,551.891C1866.34,550.141 1872.25,549.971 1878.27,553.348C1878.52,553.497 1878.84,553.42 1878.99,553.176C1879.14,552.931 1879.06,552.611 1878.82,552.462C1872.6,548.332 1866.18,548 1860.3,549.547C1858.42,550.041 1856.61,550.738 1854.87,551.578C1853.12,552.429 1851.46,553.433 1849.92,554.499C1847.93,555.867 1846.13,557.347 1844.57,558.78C1840.24,562.744 1837.65,566.327 1837.65,566.327C1837.33,566.74 1837.4,567.337 1837.81,567.659C1838.23,567.98 1838.83,567.905 1839.15,567.492Z"/>
                <path d="M2085.72,438.128L2069.72,438.629C2069.33,438.646 2068.98,438.864 2068.79,439.207C2068.79,439.207 2063.16,449.144 2060.8,463.275C2060.14,467.224 2059.74,471.5 2059.79,475.973C2059.84,480.07 2060.28,484.332 2061.23,488.66C2062.39,493.817 2063.55,498.872 2064.89,503.571C2067.37,512.216 2070.44,519.671 2074.98,524.461C2080.45,530.232 2088.05,532.279 2099.38,527.829C2099.64,527.729 2099.78,527.429 2099.68,527.161C2099.58,526.893 2099.28,526.757 2099.01,526.858C2088.32,530.694 2081.26,528.767 2076.31,523.24C2072.71,519.229 2070.22,513.38 2068.2,506.586C2066.51,500.915 2065.14,494.594 2063.81,488.104C2062.92,483.952 2062.54,479.866 2062.49,475.94C2062.44,471.628 2062.8,467.507 2063.39,463.694C2065.23,451.896 2069.37,443.055 2070.47,440.833C2070.47,440.832 2085.8,440.025 2085.8,440.025C2086.32,440.003 2086.73,439.56 2086.71,439.036C2086.68,438.513 2086.24,438.106 2085.72,438.128Z"/>
                <path d="M2085.76,439.076C2085.76,439.076 2071.86,468.824 2085.46,486.289C2099.06,503.755 2099.06,506.274 2101.41,509.296C2103.76,512.319 2111.83,519.709 2120.39,516.518C2128.95,513.327 2152.22,501.068 2168.46,470.671C2168.46,470.671 2126.36,441.908 2085.76,439.076Z" style="fill:rgb(146,162,116);"/>
                <path d="M2085.8,438.129C2085.58,438.102 2085.38,438.319 2085.29,438.674L2084.9,438.674C2084.9,438.674 2078.08,453.066 2078.4,467.84C2078.54,474.589 2080.17,481.407 2084.51,487.029C2088.17,491.762 2090.83,495.397 2092.82,498.238C2098.2,505.938 2098.67,507.879 2100.39,510.097C2102.01,512.2 2106.23,516.29 2111.51,517.925C2114.4,518.822 2117.6,518.99 2120.86,517.778C2126.29,515.749 2137.57,510.158 2149.24,498.68C2156.23,491.802 2163.36,482.797 2169.48,471.214C2169.76,470.696 2169.6,470.052 2169.11,469.72C2169.11,469.72 2152.1,458.237 2129.24,449.176C2115.99,443.922 2100.78,439.489 2085.8,438.558L2085.8,438.129ZM2086.54,439.661C2101.1,440.911 2115.79,445.477 2128.6,450.769C2148.1,458.823 2163.26,468.582 2166.95,471.04C2160.97,481.87 2154.1,490.299 2147.4,496.805C2136.05,507.848 2125.18,513.304 2119.92,515.257C2116.54,516.523 2113.24,515.93 2110.42,514.669C2106.65,512.979 2103.69,510.093 2102.44,508.496C2100.73,506.309 2100.27,504.379 2094.88,496.787C2092.85,493.935 2090.14,490.293 2086.41,485.55C2082.34,480.371 2080.81,474.043 2080.62,467.781C2080.2,454.434 2085.79,441.347 2086.54,439.661L2086.54,439.661Z"/>
                <path d="M1979.39,443.103C1979.39,443.103 1979.29,471.439 1980.35,492.643C1980.83,502.343 1981.57,510.568 1982.62,514.016C1983.86,518.062 1985.32,526.679 1987.31,536.953C1988.71,544.166 1990.36,552.19 1992.35,560.036C1995.2,571.263 1998.76,582.121 2003.17,589.786C2009.87,601.386 2014.49,608.547 2018.59,613.189C2021.9,616.94 2024.89,619.084 2028.34,620.588C2028.44,620.634 2028.56,620.66 2028.67,620.665C2028.67,620.665 2042.56,621.121 2056.05,617.71C2062.18,616.16 2068.22,613.812 2072.85,610.276C2073.08,610.104 2073.12,609.778 2072.95,609.549C2072.78,609.32 2072.45,609.273 2072.23,609.445C2067.65,612.813 2061.72,614.988 2055.73,616.398C2043.29,619.324 2030.56,618.944 2028.92,618.88C2024.95,617.049 2021.67,614.265 2017.65,608.833C2014.26,604.262 2010.38,597.852 2005.21,588.623C2001.95,582.823 1999.24,575.168 1996.91,566.941C1994.44,558.205 1992.42,548.821 1990.72,540.284C1988.31,528.22 1986.53,517.833 1985.11,513.25C1984.07,509.909 1983.35,501.924 1982.79,492.51C1981.55,471.365 1981.29,443.097 1981.29,443.097C1981.29,442.573 1980.86,442.149 1980.34,442.151C1979.81,442.152 1979.39,442.579 1979.39,443.103Z"/>
                <path d="M1855.74,580.249C1855.74,580.249 1857.8,585.507 1863.15,591.447C1864.28,592.695 1865.56,593.965 1866.99,595.212C1867.87,595.97 1868.8,596.719 1869.81,597.44C1872.07,599.069 1874.65,600.597 1877.54,601.918C1881.25,603.607 1885.48,604.937 1890.26,605.739C1890.54,605.799 1890.82,605.619 1890.88,605.339C1890.94,605.059 1890.76,604.783 1890.48,604.724C1885.92,603.555 1881.97,601.88 1878.51,599.991C1875.84,598.541 1873.49,596.943 1871.39,595.316C1870.47,594.599 1869.59,593.882 1868.76,593.166C1867.4,591.987 1866.16,590.811 1865.06,589.668C1859.8,584.245 1857.49,579.491 1857.49,579.491C1857.28,579.011 1856.72,578.791 1856.24,579C1855.76,579.209 1855.54,579.769 1855.74,580.249Z"/>
                <path d="M1856.32,600.292C1856.32,600.292 1859.13,603.854 1863.7,608.455C1865.28,610.047 1867.08,611.762 1869.04,613.486C1870.53,614.791 1872.11,616.107 1873.78,617.369C1875.39,618.591 1877.09,619.761 1878.83,620.859C1881.77,622.71 1884.83,624.347 1887.93,625.601C1891.26,626.951 1894.62,627.848 1897.89,628.09C1898.18,628.122 1898.43,627.917 1898.47,627.632C1898.5,627.348 1898.29,627.091 1898.01,627.059C1894.9,626.587 1891.77,625.459 1888.67,623.944C1885.77,622.529 1882.93,620.755 1880.19,618.825C1878.55,617.674 1876.97,616.46 1875.42,615.244C1873.81,613.982 1872.26,612.714 1870.79,611.463C1868.84,609.802 1867.02,608.183 1865.41,606.686C1860.76,602.359 1857.77,599.067 1857.77,599.067C1857.43,598.667 1856.84,598.616 1856.44,598.954C1856.04,599.292 1855.99,599.892 1856.32,600.292Z"/>
                <path d="M1930.91,674.103C1930.91,674.103 1927.56,672.052 1922.68,669.768C1921.62,669.269 1920.47,668.767 1919.27,668.282C1918.52,667.978 1917.74,667.681 1916.95,667.404C1915.03,666.736 1913.01,666.136 1910.98,665.636C1907.83,664.86 1904.66,664.35 1901.74,664.217C1901.46,664.187 1901.2,664.393 1901.17,664.678C1901.14,664.963 1901.35,665.219 1901.63,665.249C1904.43,665.719 1907.4,666.636 1910.36,667.698C1911.97,668.273 1913.56,668.902 1915.11,669.524C1916.18,669.953 1917.24,670.382 1918.26,670.791C1920.42,671.655 1922.44,672.473 1924.17,673.205C1927.68,674.696 1930.01,675.774 1930.01,675.774C1930.47,676.022 1931.05,675.85 1931.29,675.389C1931.54,674.928 1931.37,674.352 1930.91,674.103Z"/>
            </g>
            <path d="M1718.1,560.888C1718.1,560.888 1721.21,560.849 1726.03,561.059C1727.63,561.128 1729.4,561.223 1731.32,561.343C1732.72,561.429 1734.19,561.535 1735.72,561.642C1737.14,561.741 1738.61,561.836 1740.12,561.959C1742.49,562.153 1744.95,562.393 1747.43,562.729C1749.85,563.056 1752.28,563.447 1754.69,563.968C1754.96,564.043 1755.25,563.879 1755.33,563.603C1755.4,563.327 1755.24,563.041 1754.96,562.966C1751.37,561.796 1747.7,560.856 1744.09,560.166C1741.55,559.68 1739.07,559.307 1736.68,559.047C1735.67,558.935 1734.67,558.853 1733.7,558.789C1732.13,558.686 1730.62,558.629 1729.21,558.608C1722.53,558.507 1717.99,558.993 1717.99,558.993C1717.47,559.024 1717.07,559.474 1717.1,559.997C1717.13,560.52 1717.58,560.919 1718.1,560.888Z"/>
            <path d="M1974.04,397.434C1974.04,397.434 1969.56,399.466 1963.35,402.268C1961.15,403.259 1958.73,404.34 1956.22,405.488C1953.9,406.549 1951.51,407.659 1949.13,408.767C1945.44,410.484 1941.79,412.197 1938.48,413.628C1934.9,415.173 1931.75,416.43 1929.41,417.088C1929.13,417.155 1928.96,417.435 1929.03,417.714C1929.09,417.992 1929.38,418.164 1929.65,418.098C1933.04,417.422 1938.16,415.759 1943.76,413.63C1946.73,412.502 1949.83,411.253 1952.87,409.948C1954.08,409.428 1955.28,408.891 1956.46,408.352C1958.3,407.507 1960.09,406.658 1961.78,405.832C1969.26,402.175 1974.88,399.134 1974.88,399.134C1975.35,398.901 1975.54,398.33 1975.31,397.861C1975.08,397.392 1974.51,397.201 1974.04,397.434Z"/>
            <path d="M1818.27,402.48C1818.27,402.48 1815.91,405.369 1813.02,409.617C1812.39,410.545 1811.74,411.542 1811.1,412.592C1810.69,413.251 1810.29,413.931 1809.9,414.631C1808.96,416.325 1808.06,418.109 1807.23,419.913C1805.92,422.736 1804.82,425.59 1804.04,428.225C1803.94,428.494 1804.08,428.792 1804.35,428.89C1804.62,428.989 1804.92,428.851 1805.02,428.582C1806.1,426.124 1807.57,423.524 1809.13,420.918C1809.97,419.518 1810.84,418.133 1811.69,416.769C1812.28,415.831 1812.86,414.907 1813.4,414.004C1814.56,412.1 1815.64,410.314 1816.58,408.784C1818.49,405.666 1819.81,403.596 1819.81,403.596C1820.11,403.172 1820.02,402.578 1819.6,402.27C1819.17,401.962 1818.58,402.056 1818.27,402.48Z"/>
            <path d="M1735.66,451.761C1735.66,451.761 1728.63,461.29 1721.9,474.127C1719.3,479.086 1716.74,484.539 1714.66,490.124C1712.91,494.825 1711.49,499.62 1710.64,504.288C1709.71,509.502 1709.5,514.559 1710.29,519.156C1711.94,528.597 1710.72,535.709 1709.52,541.233C1708.65,545.185 1707.81,548.356 1707.91,550.988C1708.07,554.981 1710.27,557.902 1717.88,560.302C1718.15,560.393 1718.45,560.245 1718.54,559.974C1718.63,559.702 1718.48,559.408 1718.21,559.317C1711.51,556.958 1709.44,554.508 1709.41,550.952C1709.39,548.423 1710.34,545.414 1711.28,541.645C1712.7,535.953 1714.13,528.608 1712.67,518.771C1712.01,514.428 1712.34,509.676 1713.27,504.773C1714.13,500.258 1715.5,495.617 1717.17,491.052C1719.19,485.555 1721.62,480.169 1724.1,475.255C1730.53,462.462 1737.21,452.867 1737.21,452.867C1737.51,452.441 1737.41,451.848 1736.99,451.542C1736.56,451.237 1735.97,451.335 1735.66,451.761Z"/>
            <path d="M1766.72,428.152C1766.72,428.152 1762.96,441.292 1758.06,457.563C1756.18,463.803 1754.14,470.503 1752.08,477.101C1749.96,483.893 1747.82,490.575 1745.81,496.529C1744.18,501.388 1742.65,505.765 1741.26,509.308C1738.29,516.975 1735.27,525.103 1733.69,532.673C1732.43,538.709 1732.07,544.396 1733.3,549.224C1735.3,557.059 1741.4,562.76 1754.77,563.983C1755.06,564.013 1755.31,563.806 1755.34,563.521C1755.37,563.236 1755.16,562.98 1754.88,562.951C1742.39,561.487 1736.67,556.2 1734.98,548.818C1733.93,544.209 1734.43,538.827 1735.74,533.124C1737.46,525.702 1740.57,517.75 1743.63,510.251C1745.07,506.688 1746.69,502.293 1748.36,497.393C1750.39,491.425 1752.53,484.712 1754.61,477.882C1756.63,471.259 1758.6,464.523 1760.39,458.246C1765.07,441.888 1768.55,428.654 1768.55,428.654C1768.69,428.149 1768.39,427.626 1767.89,427.488C1767.38,427.349 1766.86,427.646 1766.72,428.152Z"/>
            <path d="M2079.49,526.654C2079.49,526.654 2058.63,521.952 2052.92,495.922C2047.21,469.892 2049.73,471.403 2049.73,471.403C2049.73,471.403 2032.94,438.32 2048.72,428.748C2048.72,428.748 2068.71,417.497 2084.33,439.076L2070.05,439.076C2070.05,439.076 2060.79,455.785 2061.14,475.602C2061.14,475.602 2063.74,516.578 2079.49,526.654Z" style="fill:rgb(146,162,116);"/>
            <path d="M2048.21,471.184L2048.2,471.203C2048.06,471.569 2047.89,472.286 2047.92,473.687C2047.98,476.489 2048.76,482.657 2051.78,496.172C2053.71,504.775 2057.25,511.093 2061.16,515.704C2069.4,525.43 2079.28,527.58 2079.28,527.58L2079.28,527.161C2079.73,527.216 2080.19,527.087 2080.37,526.854C2080.54,526.622 2080.39,526.353 2080,526.217L2079.77,526.217C2074.5,522.786 2070.79,515.789 2068.16,508.094C2063.19,493.551 2062.12,476.478 2062.07,475.58C2061.99,468.853 2063.04,462.508 2064.44,457.07C2066.65,448.48 2069.75,442.158 2070.75,440.244C2070.75,440.244 2084.33,440.313 2084.33,440.313C2084.79,440.313 2085.22,440.052 2085.43,439.639C2085.64,439.225 2085.6,438.728 2085.33,438.351C2080.05,431.002 2074.26,427.31 2068.88,425.648C2057.62,422.177 2048.06,427.571 2048.06,427.571C2048.05,427.578 2048.04,427.585 2048.02,427.593C2042.09,431.198 2040.3,437.837 2040.66,445.019C2041.22,455.922 2046.69,468.018 2048.21,471.184ZM2050.51,472.401C2050.63,472.31 2050.73,472.198 2050.81,472.067C2051.04,471.691 2051.06,471.222 2050.86,470.829C2050.86,470.829 2043.92,457.07 2043.34,444.887C2043.05,438.76 2044.34,433.005 2049.39,429.924C2049.82,429.687 2058.22,425.179 2068.11,428.167C2072.57,429.518 2077.33,432.397 2081.82,437.853C2081.82,437.853 2070.05,437.912 2070.05,437.912C2069.63,437.912 2069.24,438.142 2069.03,438.512C2069.03,438.512 2065.02,445.835 2062.4,456.558C2061.03,462.169 2060.04,468.711 2060.21,475.618C2060.21,475.632 2060.21,475.646 2060.21,475.661C2060.21,475.661 2061.47,493.489 2066.86,508.549C2069.08,514.732 2072,520.443 2075.79,524.302L2075.8,524.304C2072.4,522.773 2067.32,519.785 2062.79,514.333C2059.12,509.911 2055.82,503.87 2054.06,495.672C2051.21,482.424 2050.48,476.387 2050.44,473.645C2050.43,473.119 2050.48,472.666 2050.51,472.401ZM2049.18,472.544L2049.2,472.554L2049.16,472.537L2049.18,472.544ZM2049.12,472.518L2049.11,472.509L2049.11,472.508L2049.12,472.518Z"/>
            <path d="M1928.75,417.69C1928.75,417.69 1930.26,425.237 1947.67,425.816C1947.67,425.816 1954.65,423.279 1955.19,443.055C1955.73,462.831 1958.52,472.051 1960.89,478.189C1963.25,484.327 1970.88,514.206 1972.07,519.687C1973.25,525.169 1990.34,576.006 1994.1,580.628C1994.1,580.628 1977.87,526.029 1975.94,510.767C1974,495.505 1973.03,468.85 1973.68,458.639C1974.32,448.429 1976.26,426.611 1984.86,419.624C1984.86,419.624 1986.15,416.507 1995.6,415.003C2005.06,413.498 2004.85,411.026 2010.33,410.166C2015.81,409.306 2017.75,407.929 2017.75,407.929C2017.75,407.929 2007.21,391.787 1990.66,394.367C1990.66,394.367 1962.39,404.079 1955.41,407.929C1948.42,411.778 1935.2,417.152 1928.75,417.69Z" style="fill:rgb(146,162,116);"/>
            <path d="M1928.71,416.744C1928.56,416.766 1928.43,416.903 1928.34,417.119C1928.25,417.335 1928.21,417.61 1928.24,417.875L1927.82,417.875C1927.82,417.875 1928.46,421.634 1934.55,424.309C1937.43,425.573 1941.6,426.611 1947.63,426.829C1947.76,426.834 1947.89,426.813 1948.02,426.769C1948.02,426.769 1950.6,426.031 1952.41,431.123C1953.31,433.645 1953.98,437.429 1954.12,443.084C1954.34,452.274 1955.06,459.202 1956,464.608C1957.1,470.975 1958.52,475.246 1959.8,478.608C1960.77,481.143 1962.63,487.752 1964.56,495C1967.29,505.242 1970.15,516.756 1970.83,519.953C1971.51,523.114 1977.41,541.294 1983.05,557.084C1987.29,568.956 1991.43,579.472 1993.06,581.476C1993.46,581.973 1994.16,582.116 1994.73,581.816C1995.29,581.517 1995.57,580.859 1995.39,580.245C1995.39,580.245 1988.93,558.454 1983.66,538.574C1980.61,527.056 1977.94,516.185 1977.23,510.603C1976.31,503.499 1975.6,493.916 1975.16,484.684C1974.66,474.176 1974.52,464.125 1974.85,458.713C1975.2,452.786 1975.98,442.911 1978.27,434.349C1979.84,428.48 1982.1,423.22 1985.51,420.429C1985.64,420.32 1985.75,420.18 1985.81,420.021C1985.81,420.021 1986.37,418.946 1989.07,417.784C1990.6,417.125 1992.75,416.474 1995.76,415.984C1998.51,415.537 2000.47,415.01 2001.98,414.468C2005.65,413.156 2006.62,411.712 2010.47,411.094C2012.47,410.774 2014.01,410.388 2015.16,410.024C2017.4,409.317 2018.27,408.671 2018.27,408.671C2018.67,408.387 2018.78,407.84 2018.51,407.431C2018.51,407.431 2014.08,400.692 2006.46,396.525C2002.11,394.146 1996.73,392.6 1990.54,393.589C1990.49,393.597 1990.45,393.608 1990.4,393.623C1990.4,393.623 1979.14,397.542 1969.08,401.408C1963.18,403.677 1957.68,405.931 1955.1,407.369C1951.14,409.571 1945.17,412.275 1939.58,414.295C1935.4,415.803 1931.44,416.933 1928.71,417.173L1928.71,416.744ZM1929.91,418.082C1932.63,417.698 1936.21,416.682 1939.96,415.363C1945.63,413.368 1951.69,410.682 1955.72,408.488C1958.28,407.088 1963.73,404.909 1969.58,402.713C1979.19,399.106 1989.89,395.46 1990.85,395.134C1996.61,394.276 2001.61,395.766 2005.64,398.012C2011.26,401.145 2015.03,405.749 2016.4,407.606C2015.99,407.791 2015.4,408.021 2014.61,408.263C2013.52,408.599 2012.07,408.95 2010.18,409.239C2006.18,409.853 2005.15,411.301 2001.33,412.635C1999.9,413.138 1998.05,413.617 1995.45,414.021C1992.22,414.522 1989.92,415.214 1988.27,415.908C1985.4,417.117 1984.37,418.408 1984.04,418.957C1980.41,421.982 1977.88,427.53 1976.17,433.778C1973.77,442.481 1972.91,452.532 1972.51,458.566C1972.15,464.029 1972.23,474.181 1972.68,484.795C1973.08,494.103 1973.75,503.766 1974.64,510.93C1975.35,516.582 1977.99,527.599 1981.06,539.261C1982.7,545.486 1984.46,551.897 1986.11,557.769C1985.92,557.247 1985.73,556.721 1985.54,556.192C1979.91,540.551 1973.98,522.553 1973.3,519.421C1972.6,516.211 1969.68,504.652 1966.89,494.373C1964.9,487.029 1962.97,480.336 1961.98,477.77C1960.71,474.517 1959.33,470.383 1958.23,464.217C1957.27,458.897 1956.54,452.076 1956.27,443.026C1956.04,435.322 1954.83,430.905 1953.46,428.383C1952.27,426.183 1950.91,425.291 1949.84,424.928C1948.77,424.57 1947.92,424.702 1947.54,424.798C1941.93,424.612 1938.03,423.687 1935.33,422.52C1931.74,420.969 1930.38,419.03 1929.91,418.081L1929.91,418.082Z"/>
        </g>
    </g>
</svg>
